<svg width="24" height="24" viewBox="0 0 24 24" fill="none" xmlns="http://www.w3.org/2000/svg">
<path fill-rule="evenodd" clip-rule="evenodd" d="M21.75 12C21.75 17.3847 17.3847 21.75 12 21.75C6.61522 21.75 2.25 17.3847 2.25 12C2.25 6.61522 6.61522 2.25 12 2.25C17.3847 2.25 21.75 6.61522 21.75 12ZM12 11.025C12.5385 11.025 12.975 11.4615 12.975 12V16.8759C12.975 17.4144 12.5385 17.8509 12 17.8509C11.4615 17.8509 11.025 17.4144 11.025 16.8759V12C11.025 11.4615 11.4615 11.025 12 11.025ZM12 9.075C12.5385 9.075 12.975 8.63847 12.975 8.1C12.975 7.56153 12.5385 7.125 12 7.125C11.4615 7.125 11.025 7.56153 11.025 8.1C11.025 8.63847 11.4615 9.075 12 9.075Z" fill="#505072"/>
</svg>
