<svg width="24" height="25" viewBox="0 0 24 25" fill="none" xmlns="http://www.w3.org/2000/svg">
<path d="M12 2.75C10.0716 2.75 8.18657 3.32183 6.58319 4.39317C4.97982 5.46451 3.73013 6.98726 2.99218 8.76884C2.25422 10.5504 2.06114 12.5108 2.43735 14.4021C2.81355 16.2934 3.74215 18.0307 5.10571 19.3943C6.46928 20.7579 8.20656 21.6865 10.0979 22.0627C11.9892 22.4389 13.9496 22.2458 15.7312 21.5078C17.5127 20.7699 19.0355 19.5202 20.1068 17.9168C21.1782 16.3134 21.75 14.4284 21.75 12.5C21.7473 9.91498 20.7192 7.43661 18.8913 5.60872C17.0634 3.78084 14.585 2.75273 12 2.75ZM15.5306 10.0306L10.8103 14.75H13.5C13.6989 14.75 13.8897 14.829 14.0303 14.9697C14.171 15.1103 14.25 15.3011 14.25 15.5C14.25 15.6989 14.171 15.8897 14.0303 16.0303C13.8897 16.171 13.6989 16.25 13.5 16.25H9C8.80109 16.25 8.61033 16.171 8.46967 16.0303C8.32902 15.8897 8.25 15.6989 8.25 15.5V11C8.25 10.8011 8.32902 10.6103 8.46967 10.4697C8.61033 10.329 8.80109 10.25 9 10.25C9.19892 10.25 9.38968 10.329 9.53033 10.4697C9.67099 10.6103 9.75 10.8011 9.75 11V13.6897L14.4694 8.96937C14.5391 8.89969 14.6218 8.84442 14.7128 8.8067C14.8039 8.76899 14.9015 8.74958 15 8.74958C15.0986 8.74958 15.1961 8.76899 15.2872 8.8067C15.3782 8.84442 15.4609 8.89969 15.5306 8.96937C15.6003 9.03906 15.6556 9.12178 15.6933 9.21283C15.731 9.30387 15.7504 9.40145 15.7504 9.5C15.7504 9.59855 15.731 9.69613 15.6933 9.78717C15.6556 9.87822 15.6003 9.96094 15.5306 10.0306Z" fill="#1AA07C"/>
</svg>
