<svg width="24" height="24" viewBox="0 0 24 24" fill="none" xmlns="http://www.w3.org/2000/svg">
<path d="M20.0302 17.031L17.0302 20.031C16.8895 20.1718 16.6986 20.2508 16.4996 20.2508C16.3006 20.2508 16.1097 20.1718 15.969 20.031C15.8283 19.8903 15.7492 19.6994 15.7492 19.5004C15.7492 19.3014 15.8283 19.1105 15.969 18.9698L17.6893 17.2504H4.49961C4.3007 17.2504 4.10994 17.1714 3.96928 17.0307C3.82863 16.8901 3.74961 16.6993 3.74961 16.5004C3.74961 16.3015 3.82863 16.1107 3.96928 15.9701C4.10994 15.8294 4.3007 15.7504 4.49961 15.7504H17.6893L15.969 14.031C15.8283 13.8903 15.7492 13.6994 15.7492 13.5004C15.7492 13.3014 15.8283 13.1105 15.969 12.9698C16.1097 12.8291 16.3006 12.75 16.4996 12.75C16.6986 12.75 16.8895 12.8291 17.0302 12.9698L20.0302 15.9698C20.1 16.0394 20.1553 16.1222 20.193 16.2132C20.2308 16.3043 20.2502 16.4019 20.2502 16.5004C20.2502 16.599 20.2308 16.6966 20.193 16.7876C20.1553 16.8787 20.1 16.9614 20.0302 17.031ZM6.96899 11.031C7.10972 11.1718 7.30059 11.2508 7.49961 11.2508C7.69864 11.2508 7.88951 11.1718 8.03024 11.031C8.17097 10.8903 8.25003 10.6994 8.25003 10.5004C8.25003 10.3014 8.17097 10.1105 8.03024 9.96979L6.30993 8.25042H19.4996C19.6985 8.25042 19.8893 8.1714 20.0299 8.03075C20.1706 7.89009 20.2496 7.69933 20.2496 7.50042C20.2496 7.3015 20.1706 7.11074 20.0299 6.97009C19.8893 6.82943 19.6985 6.75042 19.4996 6.75042H6.30993L8.03024 5.03104C8.17097 4.89031 8.25003 4.69944 8.25003 4.50042C8.25003 4.30139 8.17097 4.11052 8.03024 3.96979C7.88951 3.82906 7.69864 3.75 7.49961 3.75C7.30059 3.75 7.10972 3.82906 6.96899 3.96979L3.96899 6.96979C3.89926 7.03945 3.84394 7.12216 3.80619 7.21321C3.76845 7.30426 3.74902 7.40186 3.74902 7.50042C3.74902 7.59898 3.76845 7.69657 3.80619 7.78762C3.84394 7.87867 3.89926 7.96139 3.96899 8.03104L6.96899 11.031Z" fill="#0D0D2E"/>
</svg>
