<svg width="16" height="16" viewBox="0 0 16 16" fill="none" xmlns="http://www.w3.org/2000/svg">
<path d="M15.5005 7.99993C15.5005 8.19884 15.4215 8.38961 15.2809 8.53026C15.1402 8.67091 14.9495 8.74993 14.7505 8.74993H3.0609L8.53122 14.2193C8.6009 14.289 8.65617 14.3717 8.69389 14.4628C8.7316 14.5538 8.75101 14.6514 8.75101 14.7499C8.75101 14.8485 8.7316 14.9461 8.69389 15.0371C8.65617 15.1281 8.6009 15.2109 8.53122 15.2806C8.46153 15.3502 8.37881 15.4055 8.28776 15.4432C8.19672 15.4809 8.09914 15.5003 8.00059 15.5003C7.90204 15.5003 7.80446 15.4809 7.71342 15.4432C7.62237 15.4055 7.53965 15.3502 7.46996 15.2806L0.719965 8.53055C0.650233 8.4609 0.594913 8.37818 0.55717 8.28713C0.519427 8.19609 0.5 8.09849 0.5 7.99993C0.5 7.90137 0.519427 7.80377 0.55717 7.71272C0.594913 7.62168 0.650233 7.53896 0.719965 7.4693L7.46996 0.719304C7.6107 0.578573 7.80157 0.499512 8.00059 0.499512C8.19961 0.499512 8.39048 0.578573 8.53122 0.719304C8.67195 0.860034 8.75101 1.05091 8.75101 1.24993C8.75101 1.44895 8.67195 1.63982 8.53122 1.78055L3.0609 7.24993H14.7505C14.9495 7.24993 15.1402 7.32895 15.2809 7.4696C15.4215 7.61025 15.5005 7.80102 15.5005 7.99993Z" fill="#0D0F2E"/>
</svg>
