<svg width="24" height="24" viewBox="0 0 24 24" fill="none" xmlns="http://www.w3.org/2000/svg">
<path d="M11.2949 15.7039C11.3998 15.8084 11.483 15.9326 11.5398 16.0694C11.5966 16.2061 11.6258 16.3527 11.6258 16.5008C11.6258 16.6489 11.5966 16.7955 11.5398 16.9322C11.483 17.069 11.3998 17.1932 11.2949 17.2977L8.29492 20.2977C8.1904 20.4026 8.06621 20.4858 7.92947 20.5426C7.79272 20.5993 7.64611 20.6286 7.49804 20.6286C7.34998 20.6286 7.20337 20.5993 7.06662 20.5426C6.92988 20.4858 6.80569 20.4026 6.70117 20.2977L3.70117 17.2977C3.59652 17.193 3.51351 17.0688 3.45688 16.9321C3.40024 16.7953 3.37109 16.6488 3.37109 16.5008C3.37109 16.3528 3.40024 16.2063 3.45688 16.0695C3.51351 15.9328 3.59652 15.8086 3.70117 15.7039C3.80582 15.5993 3.93005 15.5163 4.06678 15.4596C4.20351 15.403 4.35005 15.3739 4.49805 15.3739C4.64604 15.3739 4.79258 15.403 4.92931 15.4596C5.06604 15.5163 5.19027 15.5993 5.29492 15.7039L6.37398 16.7811V4.49987C6.37398 4.2015 6.49251 3.91535 6.70349 3.70438C6.91447 3.4934 7.20061 3.37487 7.49898 3.37487C7.79735 3.37487 8.0835 3.4934 8.29448 3.70438C8.50546 3.91535 8.62398 4.2015 8.62398 4.49987V16.7811L9.70305 15.7011C9.80771 15.5967 9.93193 15.5139 10.0686 15.4576C10.2053 15.4012 10.3517 15.3723 10.4996 15.3726C10.6474 15.3728 10.7937 15.4022 10.9302 15.4591C11.0667 15.516 11.1906 15.5992 11.2949 15.7039ZM20.2949 6.70393L17.2949 3.70393C17.1904 3.59905 17.0662 3.51584 16.9295 3.45906C16.7927 3.40228 16.6461 3.37305 16.498 3.37305C16.35 3.37305 16.2034 3.40228 16.0666 3.45906C15.9299 3.51584 15.8057 3.59905 15.7012 3.70393L12.7012 6.70393C12.4898 6.91528 12.3711 7.20192 12.3711 7.50081C12.3711 7.7997 12.4898 8.08634 12.7012 8.29768C12.9125 8.50903 13.1992 8.62776 13.498 8.62776C13.7969 8.62776 14.0836 8.50903 14.2949 8.29768L15.374 7.21862V19.4999C15.374 19.7982 15.4925 20.0844 15.7035 20.2954C15.9145 20.5063 16.2006 20.6249 16.499 20.6249C16.7974 20.6249 17.0835 20.5063 17.2945 20.2954C17.5055 20.0844 17.624 19.7982 17.624 19.4999V7.21862L18.703 8.29862C18.9144 8.50997 19.201 8.6287 19.4999 8.6287C19.7988 8.6287 20.0854 8.50997 20.2968 8.29862C20.5081 8.08728 20.6269 7.80063 20.6269 7.50175C20.6269 7.20286 20.5081 6.91622 20.2968 6.70487L20.2949 6.70393Z" fill="#454569"/>
</svg>
