<svg width="24" height="25" viewBox="0 0 24 25" fill="none" xmlns="http://www.w3.org/2000/svg">
<path d="M12 2.75C10.0716 2.75 8.18657 3.32183 6.58319 4.39317C4.97982 5.46451 3.73013 6.98726 2.99218 8.76884C2.25422 10.5504 2.06114 12.5108 2.43735 14.4021C2.81355 16.2934 3.74215 18.0307 5.10571 19.3943C6.46928 20.7579 8.20656 21.6865 10.0979 22.0627C11.9892 22.4389 13.9496 22.2458 15.7312 21.5078C17.5127 20.7699 19.0355 19.5202 20.1068 17.9168C21.1782 16.3134 21.75 14.4284 21.75 12.5C21.7473 9.91498 20.7192 7.43661 18.8913 5.60872C17.0634 3.78084 14.585 2.75273 12 2.75ZM15.75 14C15.75 14.1989 15.671 14.3897 15.5303 14.5303C15.3897 14.671 15.1989 14.75 15 14.75C14.8011 14.75 14.6103 14.671 14.4697 14.5303C14.329 14.3897 14.25 14.1989 14.25 14V11.3103L9.53063 16.0306C9.46095 16.1003 9.37822 16.1556 9.28718 16.1933C9.19613 16.231 9.09855 16.2504 9 16.2504C8.90146 16.2504 8.80388 16.231 8.71283 16.1933C8.62179 16.1556 8.53906 16.1003 8.46938 16.0306C8.3997 15.9609 8.34442 15.8782 8.30671 15.7872C8.269 15.6961 8.24959 15.5985 8.24959 15.5C8.24959 15.4015 8.269 15.3039 8.30671 15.2128C8.34442 15.1218 8.3997 15.0391 8.46938 14.9694L13.1897 10.25H10.5C10.3011 10.25 10.1103 10.171 9.96967 10.0303C9.82902 9.88968 9.75 9.69891 9.75 9.5C9.75 9.30109 9.82902 9.11032 9.96967 8.96967C10.1103 8.82902 10.3011 8.75 10.5 8.75H15C15.1989 8.75 15.3897 8.82902 15.5303 8.96967C15.671 9.11032 15.75 9.30109 15.75 9.5V14Z" fill="#141414"/>
</svg>
