<svg width="25" height="25" viewBox="0 0 25 25" fill="none" xmlns="http://www.w3.org/2000/svg">
<path d="M19.0306 17.9694C19.1004 18.039 19.1557 18.1217 19.1934 18.2128C19.2312 18.3038 19.2506 18.4014 19.2506 18.5C19.2506 18.5986 19.2312 18.6962 19.1934 18.7872C19.1557 18.8783 19.1004 18.961 19.0306 19.0306C18.9294 19.1309 16.5144 21.5 12.5 21.5C10.31 21.5 8.17531 20.6469 6.28625 19.0241L4.78063 20.5306C4.67573 20.6356 4.54204 20.7072 4.39648 20.7361C4.25092 20.7651 4.10002 20.7503 3.96291 20.6935C3.82579 20.6367 3.70861 20.5404 3.62621 20.417C3.54381 20.2935 3.49988 20.1484 3.5 20V15.5C3.5 15.3011 3.57902 15.1103 3.71967 14.9697C3.86032 14.829 4.05109 14.75 4.25 14.75H8.75C8.89842 14.7499 9.04354 14.7938 9.16699 14.8762C9.29043 14.9586 9.38665 15.0758 9.44347 15.2129C9.50028 15.35 9.51514 15.5009 9.48615 15.6465C9.45716 15.792 9.38563 15.9257 9.28063 16.0306L7.35125 17.96C8.57 18.9828 10.3278 20 12.5 20C15.9003 20 17.9497 17.99 17.9694 17.9694C18.039 17.8996 18.1217 17.8443 18.2128 17.8066C18.3038 17.7688 18.4014 17.7494 18.5 17.7494C18.5986 17.7494 18.6962 17.7688 18.7872 17.8066C18.8783 17.8443 18.961 17.8996 19.0306 17.9694ZM21.0369 4.30719C20.8998 4.25034 20.749 4.2354 20.6035 4.26427C20.458 4.29314 20.3243 4.36452 20.2194 4.46938L18.7137 5.97594C16.8247 4.35313 14.69 3.5 12.5 3.5C8.48563 3.5 6.07063 5.86906 5.96938 5.96938C5.82864 6.11011 5.74958 6.30098 5.74958 6.5C5.74958 6.69902 5.82864 6.88989 5.96938 7.03063C6.11011 7.17136 6.30098 7.25042 6.5 7.25042C6.69902 7.25042 6.8899 7.17136 7.03063 7.03063C7.05031 7.01 9.09969 5 12.5 5C14.6722 5 16.43 6.01719 17.6488 7.04L15.7194 8.96937C15.6144 9.07427 15.5428 9.20796 15.5139 9.35352C15.4849 9.49908 15.4997 9.64998 15.5565 9.78709C15.6133 9.92421 15.7096 10.0414 15.833 10.1238C15.9565 10.2062 16.1016 10.2501 16.25 10.25H20.75C20.9489 10.25 21.1397 10.171 21.2803 10.0303C21.421 9.88968 21.5 9.69891 21.5 9.5V5C21.5 4.85166 21.456 4.70667 21.3735 4.58335C21.2911 4.46003 21.1739 4.36393 21.0369 4.30719Z" fill="white"/>
</svg>
