<svg width="20" height="22" viewBox="0 0 20 22" fill="none" xmlns="http://www.w3.org/2000/svg">
<path fill-rule="evenodd" clip-rule="evenodd" d="M7.97813 13.3516C6.38542 13.3516 5.66814 13.7112 5.26495 14.0159C5.20377 14.0622 5.12891 14.1783 5.12891 14.3812V18.791C5.12891 19.0797 5.30986 19.3087 5.54659 19.3758C7.26216 19.8622 9.88681 20.3631 12.6429 19.8619C14.2944 19.5617 15.3397 19.0096 16.0204 18.4365C16.7008 17.8635 17.0604 17.2331 17.2866 16.7052C17.8372 15.4205 17.6531 14.7562 17.5001 14.5245C17.4232 14.408 17.3476 14.3783 17.3155 14.3715C17.2847 14.3651 17.2646 14.3711 17.2448 14.387C16.7699 14.7669 16.4132 15.0995 16.1084 15.3921C16.0596 15.439 16.011 15.4859 15.9627 15.5326C15.7201 15.767 15.4823 15.9969 15.2452 16.1866C14.9422 16.429 14.6124 16.6309 14.1929 16.7651C13.7824 16.8965 13.3242 16.9508 12.7771 16.9508H9.17787C8.76366 16.9508 8.42787 16.615 8.42787 16.2008C8.42787 15.7866 8.76366 15.4508 9.17787 15.4508H11.7384C11.7151 15.3844 11.6908 15.3137 11.6657 15.2382C11.4539 14.603 11.148 14.1717 10.6531 13.8761C10.1312 13.5643 9.31294 13.3516 7.97813 13.3516ZM13.3337 15.4209C13.2719 15.2772 13.1904 15.0689 13.0887 14.7639C12.7946 13.8815 12.3007 13.1131 11.4224 12.5884C10.571 12.0798 9.44272 11.8516 7.97813 11.8516C6.1337 11.8516 5.07803 12.2769 4.36047 12.8193C3.82924 13.2209 3.62891 13.8415 3.62891 14.3812V18.791C3.62891 19.7074 4.21466 20.5573 5.13743 20.8189C6.95689 21.3348 9.83506 21.8971 12.9113 21.3377C14.779 20.9982 16.0761 20.3504 16.9865 19.5839C17.8971 18.8171 18.3774 17.9679 18.6653 17.2961C19.3145 15.7813 19.2986 14.526 18.7518 13.6979C18.2014 12.8645 17.1098 12.574 16.3077 13.2157C15.7828 13.6356 15.3896 14.0028 15.0696 14.31C15.0109 14.3664 14.9558 14.4196 14.9038 14.4698C14.6621 14.703 14.4855 14.8734 14.3082 15.0153C14.1113 15.1727 13.9411 15.2708 13.7358 15.3365C13.6258 15.3717 13.4956 15.4008 13.3337 15.4209Z" fill="#454769"/>
<path d="M0.400391 13.002C0.400391 12.1185 1.11658 11.4023 2.00005 11.4023H3.5997C4.48317 11.4023 5.19936 12.1185 5.19936 13.002V19.4006C5.19936 20.2841 4.48317 21.0003 3.5997 21.0003H2.00005C1.11658 21.0003 0.400391 20.2841 0.400391 19.4006V13.002Z" fill="#454769"/>
<path fill-rule="evenodd" clip-rule="evenodd" d="M10.3203 7.11523C10.3203 5.25127 11.8314 3.74023 13.6953 3.74023C15.5593 3.74023 17.0703 5.25127 17.0703 7.11523C17.0703 8.9792 15.5593 10.4902 13.6953 10.4902C11.8314 10.4902 10.3203 8.9792 10.3203 7.11523Z" fill="#454769"/>
<path fill-rule="evenodd" clip-rule="evenodd" d="M10.6953 0.740234C8.83135 0.740234 7.32031 2.25127 7.32031 4.11523C7.32031 5.67974 8.38484 6.99562 9.82908 7.37804C9.82327 7.29119 9.82031 7.20356 9.82031 7.11523C9.82031 4.97513 11.5552 3.24023 13.6953 3.24023C13.7836 3.24023 13.8713 3.24319 13.9581 3.24901C13.5757 1.80476 12.2598 0.740234 10.6953 0.740234Z" fill="#454769"/>
</svg>
