<svg width="16" height="16" viewBox="0 0 16 16" fill="none" xmlns="http://www.w3.org/2000/svg">
<path d="M15.4995 13.0003C15.4995 13.1329 15.4468 13.2601 15.3531 13.3539C15.2593 13.4476 15.1321 13.5003 14.9995 13.5003H0.999512C0.866904 13.5003 0.739727 13.4476 0.645958 13.3539C0.55219 13.2601 0.499512 13.1329 0.499512 13.0003C0.499512 12.8677 0.55219 12.7405 0.645958 12.6468C0.739727 12.553 0.866904 12.5003 0.999512 12.5003H14.9995C15.1321 12.5003 15.2593 12.553 15.3531 12.6468C15.4468 12.7405 15.4995 12.8677 15.4995 13.0003ZM1.01826 6.13656C0.988523 6.03171 0.993861 5.92001 1.03346 5.81846C1.07306 5.71692 1.14476 5.6311 1.23764 5.57406L7.73764 1.57406C7.8164 1.52564 7.90705 1.5 7.99951 1.5C8.09197 1.5 8.18262 1.52564 8.26139 1.57406L14.7614 5.57406C14.8543 5.63103 14.926 5.71679 14.9657 5.81829C15.0054 5.91979 15.0108 6.03148 14.9812 6.13635C14.9515 6.24121 14.8884 6.33352 14.8015 6.39923C14.7145 6.46493 14.6085 6.50043 14.4995 6.50031H12.9995V10.5003H13.9995C14.1321 10.5003 14.2593 10.553 14.3531 10.6468C14.4468 10.7405 14.4995 10.8677 14.4995 11.0003C14.4995 11.1329 14.4468 11.2601 14.3531 11.3539C14.2593 11.4476 14.1321 11.5003 13.9995 11.5003H1.99951C1.8669 11.5003 1.73973 11.4476 1.64596 11.3539C1.55219 11.2601 1.49951 11.1329 1.49951 11.0003C1.49951 10.8677 1.55219 10.7405 1.64596 10.6468C1.73973 10.553 1.8669 10.5003 1.99951 10.5003H2.99951V6.50031H1.49951C1.39063 6.50035 1.28471 6.46485 1.19785 6.39919C1.11099 6.33354 1.04793 6.24133 1.01826 6.13656ZM8.99951 10.0003C8.99951 10.1329 9.05219 10.2601 9.14596 10.3539C9.23973 10.4476 9.3669 10.5003 9.49951 10.5003C9.63212 10.5003 9.7593 10.4476 9.85307 10.3539C9.94683 10.2601 9.99951 10.1329 9.99951 10.0003V7.00031C9.99951 6.86771 9.94683 6.74053 9.85307 6.64676C9.7593 6.55299 9.63212 6.50031 9.49951 6.50031C9.3669 6.50031 9.23973 6.55299 9.14596 6.64676C9.05219 6.74053 8.99951 6.86771 8.99951 7.00031V10.0003ZM5.99951 10.0003C5.99951 10.1329 6.05219 10.2601 6.14596 10.3539C6.23973 10.4476 6.3669 10.5003 6.49951 10.5003C6.63212 10.5003 6.7593 10.4476 6.85307 10.3539C6.94683 10.2601 6.99951 10.1329 6.99951 10.0003V7.00031C6.99951 6.86771 6.94683 6.74053 6.85307 6.64676C6.7593 6.55299 6.63212 6.50031 6.49951 6.50031C6.3669 6.50031 6.23973 6.55299 6.14596 6.64676C6.05219 6.74053 5.99951 6.86771 5.99951 7.00031V10.0003Z" fill="#1721C9"/>
</svg>
