<svg width="25" height="24" viewBox="0 0 25 24" fill="none" xmlns="http://www.w3.org/2000/svg">
<path d="M22.8499 19.5003H21.3752V9.00029C21.3752 8.60247 21.2171 8.22094 20.9358 7.93963C20.6545 7.65833 20.273 7.50029 19.8752 7.50029H15.7502C15.6507 7.50029 15.5553 7.5398 15.485 7.61013C15.4147 7.68045 15.3752 7.77584 15.3752 7.87529V19.5003H13.8752V3.03873C13.8777 2.80509 13.827 2.57394 13.7269 2.36279C13.6269 2.15164 13.4801 1.96602 13.2977 1.81998C13.0491 1.62614 12.7457 1.51556 12.4306 1.50395C12.1156 1.49234 11.8049 1.58028 11.5427 1.75529L4.04268 6.75029C3.83694 6.88756 3.66833 7.07358 3.55187 7.29177C3.43541 7.50997 3.37471 7.75358 3.37518 8.00092V19.5003H1.9005C1.70668 19.4974 1.51898 19.5681 1.37513 19.698C1.23129 19.8279 1.14199 20.0075 1.12518 20.2006C1.11837 20.3032 1.13273 20.4061 1.16735 20.5029C1.20198 20.5997 1.25615 20.6884 1.32648 20.7634C1.39682 20.8384 1.48182 20.8981 1.57621 20.9388C1.6706 20.9796 1.77237 21.0005 1.87518 21.0003H22.8752C22.978 21.0005 23.0798 20.9796 23.1742 20.9388C23.2685 20.8981 23.3535 20.8384 23.4239 20.7634C23.4942 20.6884 23.5484 20.5997 23.583 20.5029C23.6176 20.4061 23.632 20.3032 23.6252 20.2006C23.6084 20.0075 23.5191 19.8279 23.3752 19.698C23.2314 19.5681 23.0437 19.4974 22.8499 19.5003ZM7.50018 17.2503C7.50041 17.3531 7.47949 17.4549 7.43873 17.5493C7.39797 17.6437 7.33824 17.7287 7.26325 17.799C7.18825 17.8693 7.0996 17.9235 7.00279 17.9581C6.90598 17.9928 6.80309 18.0071 6.7005 18.0003C6.50723 17.9835 6.32751 17.894 6.19756 17.75C6.06761 17.606 5.99708 17.418 6.00018 17.224V15.7756C5.99754 15.5819 6.06826 15.3943 6.19814 15.2505C6.32802 15.1067 6.50747 15.0173 6.7005 15.0003C6.80309 14.9935 6.90598 15.0078 7.00279 15.0425C7.0996 15.0771 7.18825 15.1313 7.26325 15.2016C7.33824 15.2719 7.39797 15.3569 7.43873 15.4513C7.47949 15.5457 7.50041 15.6475 7.50018 15.7503V17.2503ZM7.50018 12.0003C7.50041 12.1031 7.47949 12.2049 7.43873 12.2993C7.39797 12.3937 7.33824 12.4787 7.26325 12.549C7.18825 12.6193 7.0996 12.6735 7.00279 12.7081C6.90598 12.7427 6.80309 12.7571 6.7005 12.7503C6.50731 12.7333 6.32772 12.6438 6.19782 12.4998C6.06791 12.3558 5.9973 12.168 6.00018 11.974V10.5256C5.99754 10.3319 6.06826 10.1443 6.19814 10.0005C6.32802 9.85668 6.50747 9.76731 6.7005 9.75029C6.80309 9.74348 6.90598 9.75783 7.00279 9.79246C7.0996 9.82709 7.18825 9.88126 7.26325 9.95159C7.33824 10.0219 7.39797 10.1069 7.43873 10.2013C7.47949 10.2957 7.50041 10.3975 7.50018 10.5003V12.0003ZM11.2502 17.2503C11.2504 17.3531 11.2295 17.4549 11.1887 17.5493C11.148 17.6437 11.0882 17.7287 11.0132 17.799C10.9383 17.8693 10.8496 17.9235 10.7528 17.9581C10.656 17.9928 10.5531 18.0071 10.4505 18.0003C10.2576 17.9835 10.0781 17.8943 9.94821 17.7507C9.8183 17.607 9.74756 17.4196 9.75018 17.2259V15.7756C9.74778 15.582 9.8186 15.3947 9.94846 15.2511C10.0783 15.1075 10.2576 15.0182 10.4505 15.0012C10.5531 14.9944 10.656 15.0088 10.7528 15.0434C10.8496 15.078 10.9383 15.1322 11.0132 15.2025C11.0882 15.2729 11.148 15.3579 11.1887 15.4523C11.2295 15.5466 11.2504 15.6484 11.2502 15.7512V17.2503ZM11.2502 12.0003C11.2504 12.1031 11.2295 12.2049 11.1887 12.2993C11.148 12.3937 11.0882 12.4787 11.0132 12.549C10.9383 12.6193 10.8496 12.6735 10.7528 12.7081C10.656 12.7427 10.5531 12.7571 10.4505 12.7503C10.2576 12.7333 10.0783 12.6441 9.94846 12.5005C9.8186 12.3569 9.74778 12.1695 9.75018 11.9759V10.5256C9.74778 10.332 9.8186 10.1447 9.94846 10.0011C10.0783 9.85747 10.2576 9.76824 10.4505 9.75123C10.5531 9.74442 10.656 9.75877 10.7528 9.7934C10.8496 9.82803 10.9383 9.88219 11.0132 9.95253C11.0882 10.0229 11.148 10.1079 11.1887 10.2023C11.2295 10.2966 11.2504 10.3984 11.2502 10.5012V12.0003Z" fill="#1721C9"/>
</svg>
