<svg width="97" height="97" viewBox="0 0 97 97" fill="none" xmlns="http://www.w3.org/2000/svg">
<ellipse opacity="0.2" cx="48.3399" cy="48.3398" rx="48" ry="48" fill="#98C1FF"/>
<path d="M64.7854 26.8903H59.6179V25.1678C59.6179 24.711 59.4364 24.2728 59.1134 23.9498C58.7904 23.6268 58.3522 23.4453 57.8954 23.4453C57.4386 23.4453 57.0005 23.6268 56.6774 23.9498C56.3544 24.2728 56.1729 24.711 56.1729 25.1678V26.8903H38.948V25.1678C38.948 24.711 38.7666 24.2728 38.4435 23.9498C38.1205 23.6268 37.6824 23.4453 37.2256 23.4453C36.7687 23.4453 36.3306 23.6268 36.0076 23.9498C35.6845 24.2728 35.5031 24.711 35.5031 25.1678V26.8903H30.3356C29.4219 26.8903 28.5457 27.2532 27.8996 27.8993C27.2536 28.5454 26.8906 29.4216 26.8906 30.3353V64.785C26.8906 65.6987 27.2536 66.5749 27.8996 67.221C28.5457 67.867 29.4219 68.23 30.3356 68.23H64.7854C65.699 68.23 66.5753 67.867 67.2213 67.221C67.8674 66.5749 68.2303 65.6987 68.2303 64.785V30.3353C68.2303 29.4216 67.8674 28.5454 67.2213 27.8993C66.5753 27.2532 65.699 26.8903 64.7854 26.8903ZM56.5303 48.7788L46.1954 59.1137C46.0354 59.2739 45.8455 59.4009 45.6364 59.4876C45.4273 59.5743 45.2031 59.6189 44.9767 59.6189C44.7504 59.6189 44.5262 59.5743 44.3171 59.4876C44.108 59.4009 43.9181 59.2739 43.7581 59.1137L38.5906 53.9463C38.2674 53.6231 38.0858 53.1847 38.0858 52.7276C38.0858 52.2705 38.2674 51.8322 38.5906 51.5089C38.9138 51.1857 39.3522 51.0042 39.8093 51.0042C40.2664 51.0042 40.7047 51.1857 41.0279 51.5089L44.9767 55.4599L54.093 46.3415C54.2531 46.1814 54.443 46.0545 54.6521 45.9679C54.8612 45.8813 55.0853 45.8367 55.3117 45.8367C55.538 45.8367 55.7621 45.8813 55.9712 45.9679C56.1803 46.0545 56.3703 46.1814 56.5303 46.3415C56.6904 46.5015 56.8173 46.6915 56.9039 46.9006C56.9905 47.1097 57.0351 47.3338 57.0351 47.5601C57.0351 47.7865 56.9905 48.0106 56.9039 48.2197C56.8173 48.4288 56.6904 48.6188 56.5303 48.7788ZM30.3356 37.2252V30.3353H35.5031V32.0578C35.5031 32.5146 35.6845 32.9527 36.0076 33.2757C36.3306 33.5988 36.7687 33.7802 37.2256 33.7802C37.6824 33.7802 38.1205 33.5988 38.4435 33.2757C38.7666 32.9527 38.948 32.5146 38.948 32.0578V30.3353H56.1729V32.0578C56.1729 32.5146 56.3544 32.9527 56.6774 33.2757C57.0005 33.5988 57.4386 33.7802 57.8954 33.7802C58.3522 33.7802 58.7904 33.5988 59.1134 33.2757C59.4364 32.9527 59.6179 32.5146 59.6179 32.0578V30.3353H64.7854V37.2252H30.3356Z" fill="#1721C9"/>
</svg>
