<svg width="8" height="16" viewBox="0 0 8 16" fill="none" xmlns="http://www.w3.org/2000/svg">
<path d="M7.84659 0.135857C7.89521 0.178709 7.9338 0.229629 7.96012 0.285695C7.98645 0.341761 8 0.401872 8 0.462579C8 0.523287 7.98645 0.583398 7.96012 0.639464C7.9338 0.69553 7.89521 0.74645 7.84659 0.789302L4.36928 3.86433C4.32082 3.90734 4.26324 3.94146 4.19984 3.96474C4.13644 3.98802 4.06846 4 3.99981 4C3.93116 4 3.86319 3.98802 3.79979 3.96474C3.73639 3.94146 3.67881 3.90734 3.63035 3.86433L0.153037 0.789302C0.104518 0.746396 0.0660313 0.69546 0.0397731 0.639401C0.013515 0.583341 7.22985e-10 0.523257 0 0.462579C-7.22985e-10 0.401902 0.013515 0.341818 0.0397731 0.285759C0.0660313 0.2297 0.104518 0.178763 0.153037 0.135857C0.201556 0.0929514 0.259156 0.0589165 0.322549 0.0356961C0.385941 0.0124756 0.453886 0.000524478 0.522501 0.000524479C0.591117 0.000524479 0.659061 0.0124756 0.722454 0.0356961C0.785847 0.0589165 0.843447 0.0929514 0.891966 0.135857L4.00025 2.88378L7.10853 0.134704C7.15705 0.0918939 7.21465 0.057962 7.27802 0.0348486C7.34138 0.0117351 7.40928 -0.000106376 7.47783 7.19986e-07C7.54637 0.000107816 7.61422 0.0121613 7.6775 0.0354726C7.74077 0.0587839 7.79823 0.0928956 7.84659 0.135857Z" fill="#E1E2E7"/>
<path d="M7.84659 6.13586C7.89521 6.17871 7.9338 6.22963 7.96012 6.2857C7.98645 6.34176 8 6.40187 8 6.46258C8 6.52329 7.98645 6.5834 7.96012 6.63946C7.9338 6.69553 7.89521 6.74645 7.84659 6.7893L4.36928 9.86433C4.32082 9.90734 4.26324 9.94146 4.19984 9.96474C4.13644 9.98802 4.06846 10 3.99981 10C3.93116 10 3.86319 9.98802 3.79979 9.96474C3.73639 9.94146 3.67881 9.90734 3.63035 9.86433L0.153037 6.7893C0.104518 6.7464 0.0660313 6.69546 0.0397731 6.6394C0.013515 6.58334 7.22985e-10 6.52326 0 6.46258C-7.22985e-10 6.4019 0.013515 6.34182 0.0397731 6.28576C0.0660313 6.2297 0.104518 6.17876 0.153037 6.13586C0.201556 6.09295 0.259156 6.05892 0.322549 6.0357C0.385941 6.01248 0.453886 6.00052 0.522501 6.00052C0.591117 6.00052 0.659061 6.01248 0.722454 6.0357C0.785847 6.05892 0.843447 6.09295 0.891966 6.13586L4.00025 8.88378L7.10853 6.1347C7.15705 6.09189 7.21465 6.05796 7.27802 6.03485C7.34138 6.01174 7.40928 5.99989 7.47783 6C7.54637 6.00011 7.61422 6.01216 7.6775 6.03547C7.74077 6.05878 7.79823 6.0929 7.84659 6.13586Z" fill="#B9B9C6"/>
<path d="M7.84659 12.1359C7.89521 12.1787 7.9338 12.2296 7.96012 12.2857C7.98645 12.3418 8 12.4019 8 12.4626C8 12.5233 7.98645 12.5834 7.96012 12.6395C7.9338 12.6955 7.89521 12.7464 7.84659 12.7893L4.36928 15.8643C4.32082 15.9073 4.26324 15.9415 4.19984 15.9647C4.13644 15.988 4.06846 16 3.99981 16C3.93116 16 3.86319 15.988 3.79979 15.9647C3.73639 15.9415 3.67881 15.9073 3.63035 15.8643L0.153037 12.7893C0.104518 12.7464 0.0660313 12.6955 0.0397731 12.6394C0.013515 12.5833 7.22985e-10 12.5233 0 12.4626C-7.22985e-10 12.4019 0.013515 12.3418 0.0397731 12.2858C0.0660313 12.2297 0.104518 12.1788 0.153037 12.1359C0.201556 12.093 0.259156 12.0589 0.322549 12.0357C0.385941 12.0125 0.453886 12.0005 0.522501 12.0005C0.591117 12.0005 0.659061 12.0125 0.722454 12.0357C0.785847 12.0589 0.843447 12.093 0.891966 12.1359L4.00025 14.8838L7.10853 12.1347C7.15705 12.0919 7.21465 12.058 7.27802 12.0348C7.34138 12.0117 7.40928 11.9999 7.47783 12C7.54637 12.0001 7.61422 12.0122 7.6775 12.0355C7.74077 12.0588 7.79823 12.0929 7.84659 12.1359Z" fill="#696986"/>
</svg>
