<svg width="24" height="25" viewBox="0 0 24 25" fill="none" xmlns="http://www.w3.org/2000/svg">
<path d="M20.2959 10.5459L12.7959 18.0459C12.6914 18.1507 12.5672 18.234 12.4304 18.2907C12.2937 18.3475 12.1471 18.3767 11.999 18.3767C11.851 18.3767 11.7043 18.3475 11.5676 18.2907C11.4309 18.234 11.3067 18.1507 11.2021 18.0459L3.70215 10.5459C3.4908 10.3345 3.37207 10.0479 3.37207 9.74898C3.37207 9.4501 3.4908 9.16345 3.70215 8.95211C3.91349 8.74076 4.20014 8.62203 4.49902 8.62203C4.79791 8.62203 5.08455 8.74076 5.2959 8.95211L12 15.6562L18.704 8.95117C18.9154 8.73983 19.202 8.62109 19.5009 8.62109C19.7998 8.62109 20.0864 8.73983 20.2978 8.95117C20.5091 9.16252 20.6278 9.44916 20.6278 9.74805C20.6278 10.0469 20.5091 10.3336 20.2978 10.5449L20.2959 10.5459Z" fill="#0D0D2E"/>
</svg>
