<svg width="81" height="80" viewBox="0 0 81 80" fill="none" xmlns="http://www.w3.org/2000/svg">
<rect x="0.5" width="80" height="80" rx="40" fill="#E9FBF6"/>
<path d="M58.5 26.5V37.5194C58.5 54.3212 44.2838 59.8956 41.4375 60.8425C40.8296 61.0492 40.1704 61.0492 39.5625 60.8425C36.7125 59.8956 22.5 54.3212 22.5 37.5194V26.5C22.5 25.7044 22.8161 24.9413 23.3787 24.3787C23.9413 23.8161 24.7044 23.5 25.5 23.5H55.5C56.2957 23.5 57.0587 23.8161 57.6213 24.3787C58.1839 24.9413 58.5 25.7044 58.5 26.5Z" fill="#1AA07C"/>
<path fill-rule="evenodd" clip-rule="evenodd" d="M34.2889 31.25C31.7821 31.25 29.75 33.3766 29.75 36V37.25H51.25V36C51.25 33.3766 49.2179 31.25 46.7111 31.25H34.2889ZM51.25 38.75H29.75V44C29.75 46.6234 31.7821 48.75 34.2889 48.75H46.7111C49.2179 48.75 51.25 46.6234 51.25 44V38.75Z" fill="white"/>
</svg>
