<svg width="24" height="24" viewBox="0 0 24 24" fill="none" xmlns="http://www.w3.org/2000/svg">
<path d="M22.4747 19.5H21V8.99999C21 8.60216 20.842 8.22063 20.5607 7.93933C20.2794 7.65802 19.8978 7.49999 19.5 7.49999H15.375C15.2755 7.49999 15.1802 7.5395 15.1098 7.60982C15.0395 7.68015 15 7.77553 15 7.87499V19.5H13.5V3.03842C13.5025 2.80478 13.4518 2.57364 13.3517 2.36248C13.2517 2.15133 13.1049 1.96571 12.9225 1.81967C12.6739 1.62583 12.3705 1.51526 12.0555 1.50364C11.7404 1.49203 11.4297 1.57998 11.1675 1.75499L3.6675 6.74999C3.46176 6.88726 3.29315 7.07327 3.17669 7.29147C3.06023 7.50967 2.99953 7.75328 3 8.00061V19.5H1.52531C1.3315 19.4971 1.14379 19.5678 0.99995 19.6977C0.856108 19.8276 0.766803 20.0072 0.75 20.2003C0.743188 20.3029 0.757543 20.4058 0.792172 20.5026C0.826801 20.5994 0.880965 20.6881 0.951299 20.7631C1.02163 20.838 1.10664 20.8978 1.20103 20.9385C1.29542 20.9793 1.39718 21.0002 1.5 21H22.5C22.6028 21.0002 22.7046 20.9793 22.799 20.9385C22.8934 20.8978 22.9784 20.838 23.0487 20.7631C23.119 20.6881 23.1732 20.5994 23.2078 20.5026C23.2425 20.4058 23.2568 20.3029 23.25 20.2003C23.2332 20.0072 23.1439 19.8276 23 19.6977C22.8562 19.5678 22.6685 19.4971 22.4747 19.5ZM7.125 17.25C7.12523 17.3528 7.10431 17.4546 7.06355 17.549C7.02279 17.6433 6.96306 17.7284 6.88806 17.7987C6.81307 17.869 6.72441 17.9232 6.62761 17.9578C6.5308 17.9924 6.4279 18.0068 6.32531 18C6.13204 17.9832 5.95233 17.8937 5.82238 17.7497C5.69243 17.6057 5.6219 17.4177 5.625 17.2237V15.7753C5.62236 15.5815 5.69307 15.394 5.82296 15.2502C5.95284 15.1064 6.13229 15.017 6.32531 15C6.4279 14.9932 6.5308 15.0075 6.62761 15.0422C6.72441 15.0768 6.81307 15.131 6.88806 15.2013C6.96306 15.2716 7.02279 15.3566 7.06355 15.451C7.10431 15.5454 7.12523 15.6472 7.125 15.75V17.25ZM7.125 12C7.12523 12.1028 7.10431 12.2046 7.06355 12.299C7.02279 12.3933 6.96306 12.4784 6.88806 12.5487C6.81307 12.619 6.72441 12.6732 6.62761 12.7078C6.5308 12.7424 6.4279 12.7568 6.32531 12.75C6.13213 12.733 5.95254 12.6435 5.82263 12.4995C5.69273 12.3555 5.62212 12.1676 5.625 11.9737V10.5253C5.62236 10.3315 5.69307 10.144 5.82296 10.0002C5.95284 9.85637 6.13229 9.767 6.32531 9.74999C6.4279 9.74317 6.5308 9.75753 6.62761 9.79216C6.72441 9.82679 6.81307 9.88095 6.88806 9.95129C6.96306 10.0216 7.02279 10.1066 7.06355 10.201C7.10431 10.2954 7.12523 10.3972 7.125 10.5V12ZM10.875 17.25C10.8752 17.3528 10.8543 17.4546 10.8136 17.549C10.7728 17.6433 10.7131 17.7284 10.6381 17.7987C10.5631 17.869 10.4744 17.9232 10.3776 17.9578C10.2808 17.9924 10.1779 18.0068 10.0753 18C9.88237 17.9832 9.70293 17.894 9.57302 17.7504C9.44312 17.6067 9.37238 17.4193 9.375 17.2256V15.7753C9.3726 15.5817 9.44342 15.3944 9.57328 15.2508C9.70314 15.1072 9.88245 15.0179 10.0753 15.0009C10.1779 14.9941 10.2808 15.0085 10.3776 15.0431C10.4744 15.0777 10.5631 15.1319 10.6381 15.2022C10.7131 15.2726 10.7728 15.3576 10.8136 15.452C10.8543 15.5463 10.8752 15.6481 10.875 15.7509V17.25ZM10.875 12C10.8752 12.1028 10.8543 12.2046 10.8136 12.299C10.7728 12.3933 10.7131 12.4784 10.6381 12.5487C10.5631 12.619 10.4744 12.6732 10.3776 12.7078C10.2808 12.7424 10.1779 12.7568 10.0753 12.75C9.88245 12.733 9.70314 12.6437 9.57328 12.5002C9.44342 12.3566 9.3726 12.1692 9.375 11.9756V10.5253C9.3726 10.3317 9.44342 10.1444 9.57328 10.0008C9.70314 9.85716 9.88245 9.76793 10.0753 9.75092C10.1779 9.74411 10.2808 9.75847 10.3776 9.7931C10.4744 9.82772 10.5631 9.88189 10.6381 9.95222C10.7131 10.0226 10.7728 10.1076 10.8136 10.202C10.8543 10.2963 10.8752 10.3981 10.875 10.5009V12Z" fill="#1721C9"/>
</svg>
