<svg width="24" height="24" viewBox="0 0 24 24" fill="none" xmlns="http://www.w3.org/2000/svg">
<path fill-rule="evenodd" clip-rule="evenodd" d="M7.73259 19.2732C7.42247 18.9709 7.42247 18.4807 7.73259 18.1784L14.5828 11.5L7.73259 4.82163C7.42247 4.51929 7.42247 4.0291 7.73259 3.72676C8.04271 3.42441 8.54552 3.42441 8.85564 3.72676L16.2674 10.9526C16.5775 11.2549 16.5775 11.7451 16.2674 12.0474L8.85564 19.2732C8.54552 19.5756 8.04271 19.5756 7.73259 19.2732Z" fill="#5E6574"/>
<path fill-rule="evenodd" clip-rule="evenodd" d="M7.73259 3.72676C8.04271 3.42442 8.54552 3.42442 8.85564 3.72676L16.2674 10.9526C16.5775 11.2549 16.5775 11.7451 16.2674 12.0474L8.85564 19.2732C8.54552 19.5756 8.04271 19.5756 7.73259 19.2732C7.42247 18.9709 7.42247 18.4807 7.73259 18.1784L14.5828 11.5L7.73259 4.82163C7.42247 4.51929 7.42247 4.0291 7.73259 3.72676ZM14.2247 11.5L7.55807 5.00064C7.14731 4.60018 7.14731 3.94821 7.55807 3.54775C7.96529 3.15075 8.62295 3.15075 9.03016 3.54775L16.4419 10.7736C16.8527 11.174 16.8527 11.826 16.4419 12.2264L9.03016 19.4523C8.62295 19.8492 7.96529 19.8492 7.55807 19.4523C7.14731 19.0518 7.14731 18.3998 7.55807 17.9994L14.2247 11.5Z" fill="#5E6574"/>
</svg>
