<svg width="24" height="24" viewBox="0 0 24 24" fill="none" xmlns="http://www.w3.org/2000/svg">
<path d="M7.22912 6.21088C6.94794 5.92971 6.49206 5.92971 6.21088 6.21088C5.92971 6.49206 5.92971 6.94794 6.21088 7.22911L10.9818 12L6.21088 16.7709C5.92971 17.0521 5.92971 17.5079 6.21088 17.7891C6.49206 18.0703 6.94794 18.0703 7.22912 17.7891L12 13.0182L16.7709 17.7891C17.0521 18.0703 17.5079 18.0703 17.7891 17.7891C18.0703 17.5079 18.0703 17.052 17.7891 16.7708L13.0183 12L17.7891 7.22916C18.0703 6.94798 18.0703 6.4921 17.7891 6.21093C17.5079 5.92975 17.0521 5.92975 16.7709 6.21093L12 10.9818L7.22912 6.21088Z" fill="#100F0F"/>
</svg>
