<svg width="24" height="24" viewBox="0 0 24 24" fill="none" xmlns="http://www.w3.org/2000/svg">
<path fill-rule="evenodd" clip-rule="evenodd" d="M5.78889 3.25C3.28213 3.25 1.25 5.37665 1.25 8V9.25H22.75V8C22.75 5.37665 20.7179 3.25 18.2111 3.25H5.78889ZM22.75 10.75H1.25V16C1.25 18.6234 3.28213 20.75 5.78889 20.75H14.4183C14.1101 20.1003 14.2248 19.2999 14.7624 18.7623L16.025 17.4997L14.7625 16.2372C14.0791 15.5538 14.0791 14.4457 14.7625 13.7623C15.4459 13.0789 16.554 13.0789 17.2374 13.7623L18.4999 15.0249L19.7624 13.7623C20.4459 13.0789 21.5539 13.0789 22.2373 13.7623C22.9207 14.4457 22.9207 15.5538 22.2373 16.2372L20.9748 17.4997L22.0351 18.56C22.4876 17.8212 22.75 16.9427 22.75 16V10.75ZM18.4999 19.9746L17.7245 20.75H18.2111C18.5398 20.75 18.8604 20.7134 19.1693 20.644L18.4999 19.9746Z" fill="#454569"/>
<path fill-rule="evenodd" clip-rule="evenodd" d="M15.4697 14.4697C15.7626 14.1768 16.2374 14.1768 16.5303 14.4697L21.5303 19.4697C21.8232 19.7626 21.8232 20.2374 21.5303 20.5303C21.2374 20.8232 20.7626 20.8232 20.4697 20.5303L15.4697 15.5303C15.1768 15.2374 15.1768 14.7626 15.4697 14.4697Z" fill="#454569"/>
<path fill-rule="evenodd" clip-rule="evenodd" d="M21.5303 14.4697C21.8232 14.7626 21.8232 15.2374 21.5303 15.5303L16.5303 20.5303C16.2374 20.8232 15.7626 20.8232 15.4697 20.5303C15.1768 20.2374 15.1768 19.7626 15.4697 19.4697L20.4697 14.4697C20.7626 14.1768 21.2374 14.1768 21.5303 14.4697Z" fill="#454569"/>
</svg>
