<svg width="24" height="24" viewBox="0 0 24 24" fill="none" xmlns="http://www.w3.org/2000/svg">
<path fill-rule="evenodd" clip-rule="evenodd" d="M1.25 8C1.25 5.37665 3.28213 3.25 5.78889 3.25H18.2111C20.7179 3.25 22.75 5.37665 22.75 8V9.25H1.25V8ZM1.25 10.75H22.75V13.7754L22.4444 13.4698C21.3705 12.3959 19.6293 12.3959 18.5553 13.4698L15.7036 16.3215C15.1433 16.8819 14.8519 17.6567 14.9041 18.4474L14.9826 19.6349C15.0098 20.047 15.1473 20.4284 15.3658 20.75H5.78889C3.28213 20.75 1.25 18.6234 1.25 16V10.75Z" fill="#454569"/>
<path fill-rule="evenodd" clip-rule="evenodd" d="M20.6768 15.2376C20.5791 15.1399 20.4209 15.1399 20.3232 15.2376L17.4715 18.0893C17.4206 18.1402 17.3941 18.2107 17.3988 18.2825L17.4628 19.2515L18.4318 19.3155C18.5037 19.3203 18.5741 19.2938 18.625 19.2428L21.4768 16.3911C21.5744 16.2935 21.5744 16.1352 21.4768 16.0375L20.6768 15.2376ZM19.2626 14.1769C19.946 13.4935 21.054 13.4935 21.7374 14.1769L22.5374 14.9769C23.2208 15.6603 23.2209 16.7683 22.5374 17.4518L19.6857 20.3035C19.3291 20.6601 18.8361 20.8455 18.3329 20.8122L17.1454 20.7338C16.52 20.6924 16.0219 20.1943 15.9806 19.5689L15.9021 18.3814C15.8688 17.8783 16.0543 17.3852 16.4108 17.0286L19.2626 14.1769Z" fill="#454569"/>
</svg>
