<svg width="25" height="24" viewBox="0 0 25 24" fill="none" xmlns="http://www.w3.org/2000/svg">
<path d="M12.667 2.25C10.7386 2.25 8.85357 2.82183 7.25019 3.89317C5.64681 4.96452 4.39713 6.48726 3.65917 8.26884C2.92122 10.0504 2.72813 12.0108 3.10434 13.9021C3.48055 15.7934 4.40914 17.5307 5.77271 18.8943C7.13627 20.2579 8.87355 21.1865 10.7649 21.5627C12.6562 21.9389 14.6166 21.7458 16.3982 21.0078C18.1797 20.2699 19.7025 19.0202 20.7738 17.4168C21.8452 15.8134 22.417 13.9284 22.417 12C22.4138 9.41513 21.3855 6.93705 19.5577 5.10927C17.7299 3.28149 15.2519 2.25323 12.667 2.25ZM8.542 13.125C8.31949 13.125 8.10199 13.059 7.91698 12.9354C7.73197 12.8118 7.58778 12.6361 7.50263 12.4305C7.41748 12.225 7.3952 11.9988 7.43861 11.7805C7.48202 11.5623 7.58917 11.3618 7.7465 11.2045C7.90384 11.0472 8.10429 10.94 8.32252 10.8966C8.54075 10.8532 8.76695 10.8755 8.97252 10.9606C9.17808 11.0458 9.35378 11.19 9.4774 11.375C9.60102 11.56 9.667 11.7775 9.667 12C9.667 12.2984 9.54847 12.5845 9.33749 12.7955C9.12651 13.0065 8.84037 13.125 8.542 13.125ZM12.667 13.125C12.4445 13.125 12.227 13.059 12.042 12.9354C11.857 12.8118 11.7128 12.6361 11.6276 12.4305C11.5425 12.225 11.5202 11.9988 11.5636 11.7805C11.607 11.5623 11.7142 11.3618 11.8715 11.2045C12.0288 11.0472 12.2293 10.94 12.4475 10.8966C12.6657 10.8532 12.8919 10.8755 13.0975 10.9606C13.3031 11.0458 13.4788 11.19 13.6024 11.375C13.726 11.56 13.792 11.7775 13.792 12C13.792 12.2984 13.6735 12.5845 13.4625 12.7955C13.2515 13.0065 12.9654 13.125 12.667 13.125ZM16.792 13.125C16.5695 13.125 16.352 13.059 16.167 12.9354C15.982 12.8118 15.8378 12.6361 15.7526 12.4305C15.6675 12.225 15.6452 11.9988 15.6886 11.7805C15.732 11.5623 15.8392 11.3618 15.9965 11.2045C16.1538 11.0472 16.3543 10.94 16.5725 10.8966C16.7907 10.8532 17.0169 10.8755 17.2225 10.9606C17.4281 11.0458 17.6038 11.19 17.7274 11.375C17.851 11.56 17.917 11.7775 17.917 12C17.917 12.2984 17.7985 12.5845 17.5875 12.7955C17.3765 13.0065 17.0904 13.125 16.792 13.125Z" fill="#1721C9"/>
</svg>
