<svg width="25" height="24" viewBox="0 0 25 24" fill="none" xmlns="http://www.w3.org/2000/svg">
<path d="M15.5 12C15.5 12.5192 15.346 13.0267 15.0576 13.4584C14.7692 13.8901 14.3592 14.2265 13.8795 14.4252C13.3999 14.6239 12.8721 14.6758 12.3629 14.5746C11.8537 14.4733 11.386 14.2233 11.0188 13.8562C10.6517 13.489 10.4017 13.0213 10.3004 12.5121C10.1992 12.0029 10.2511 11.4751 10.4498 10.9955C10.6485 10.5158 10.985 10.1058 11.4166 9.81739C11.8483 9.52895 12.3558 9.375 12.875 9.375C13.5712 9.375 14.2389 9.65156 14.7312 10.1438C15.2234 10.6361 15.5 11.3038 15.5 12ZM5.375 9.375C4.85583 9.375 4.34831 9.52895 3.91663 9.81739C3.48495 10.1058 3.1485 10.5158 2.94982 10.9955C2.75114 11.4751 2.69915 12.0029 2.80044 12.5121C2.90173 13.0213 3.15173 13.489 3.51885 13.8562C3.88596 14.2233 4.35369 14.4733 4.86289 14.5746C5.37209 14.6758 5.89989 14.6239 6.37955 14.4252C6.8592 14.2265 7.26917 13.8901 7.55761 13.4584C7.84605 13.0267 8 12.5192 8 12C8 11.3038 7.72344 10.6361 7.23116 10.1438C6.73887 9.65156 6.07119 9.375 5.375 9.375ZM20.375 9.375C19.8558 9.375 19.3483 9.52895 18.9166 9.81739C18.485 10.1058 18.1485 10.5158 17.9498 10.9955C17.7511 11.4751 17.6992 12.0029 17.8004 12.5121C17.9017 13.0213 18.1517 13.489 18.5188 13.8562C18.886 14.2233 19.3537 14.4733 19.8629 14.5746C20.3721 14.6758 20.8999 14.6239 21.3795 14.4252C21.8592 14.2265 22.2692 13.8901 22.5576 13.4584C22.846 13.0267 23 12.5192 23 12C23 11.6553 22.9321 11.3139 22.8002 10.9955C22.6683 10.677 22.4749 10.3876 22.2312 10.1438C21.9874 9.90009 21.698 9.70673 21.3795 9.57482C21.0611 9.4429 20.7197 9.375 20.375 9.375Z" fill="#4F4FCE"/>
</svg>
