<svg width="24" height="24" viewBox="0 0 24 24" fill="none" xmlns="http://www.w3.org/2000/svg">
<path fill-rule="evenodd" clip-rule="evenodd" d="M15.75 4C15.75 3.271 15.46 2.571 14.945 2.055C14.429 1.54 13.729 1.25 13 1.25C10.556 1.25 6.444 1.25 4 1.25C3.271 1.25 2.571 1.54 2.055 2.055C1.54 2.571 1.25 3.271 1.25 4V20C1.25 20.729 1.54 21.429 2.055 21.945C2.571 22.46 3.271 22.75 4 22.75H13C13.729 22.75 14.429 22.46 14.945 21.945C15.46 21.429 15.75 20.729 15.75 20V4ZM5 18C5.552 18 6 18.448 6 19C6 19.552 5.552 20 5 20C4.448 20 4 19.552 4 19C4 18.448 4.448 18 5 18ZM12 18C12.552 18 13 18.448 13 19C13 19.552 12.552 20 12 20C11.448 20 11 19.552 11 19C11 18.448 11.448 18 12 18ZM8.5 18C9.052 18 9.5 18.448 9.5 19C9.5 19.552 9.052 20 8.5 20C7.948 20 7.5 19.552 7.5 19C7.5 18.448 7.948 18 8.5 18ZM5 14.5C5.552 14.5 6 14.948 6 15.5C6 16.052 5.552 16.5 5 16.5C4.448 16.5 4 16.052 4 15.5C4 14.948 4.448 14.5 5 14.5ZM12 14.5C12.552 14.5 13 14.948 13 15.5C13 16.052 12.552 16.5 12 16.5C11.448 16.5 11 16.052 11 15.5C11 14.948 11.448 14.5 12 14.5ZM8.5 14.5C9.052 14.5 9.5 14.948 9.5 15.5C9.5 16.052 9.052 16.5 8.5 16.5C7.948 16.5 7.5 16.052 7.5 15.5C7.5 14.948 7.948 14.5 8.5 14.5ZM5 11C5.552 11 6 11.448 6 12C6 12.552 5.552 13 5 13C4.448 13 4 12.552 4 12C4 11.448 4.448 11 5 11ZM12 11C12.552 11 13 11.448 13 12C13 12.552 12.552 13 12 13C11.448 13 11 12.552 11 12C11 11.448 11.448 11 12 11ZM8.5 11C9.052 11 9.5 11.448 9.5 12C9.5 12.552 9.052 13 8.5 13C7.948 13 7.5 12.552 7.5 12C7.5 11.448 7.948 11 8.5 11ZM13.25 4.5C13.25 4.086 12.914 3.75 12.5 3.75H4.5C4.086 3.75 3.75 4.086 3.75 4.5V9C3.75 9.414 4.086 9.75 4.5 9.75H12.5C12.914 9.75 13.25 9.414 13.25 9V4.5Z" fill="#505072"/>
<path fill-rule="evenodd" clip-rule="evenodd" d="M16.75 12.25V19.75H21C21.966 19.75 22.75 18.967 22.75 18V12.25H16.75ZM16.75 7.25V10.75H22.75V9C22.75 8.033 21.966 7.25 21 7.25H16.75Z" fill="#505072"/>
</svg>
