<svg width="161" height="160" viewBox="0 0 161 160" fill="none" xmlns="http://www.w3.org/2000/svg">
<circle opacity="0.6" cx="80.5" cy="80" r="80" fill="#F9F9F9"/>
<circle cx="81" cy="80.5" r="67.5" fill="#F5F5F5"/>
<circle cx="80.5" cy="80" r="54" fill="#EFEFEF"/>
<path d="M106.934 61.4721L94.5904 49.1284C94.361 48.8992 94.0886 48.7174 93.7889 48.5935C93.4892 48.4696 93.168 48.406 92.8438 48.4063H68.1562C66.8467 48.4063 65.5909 48.9264 64.6649 49.8524C63.739 50.7784 63.2188 52.0342 63.2188 53.3438V58.2813H58.2812C56.9717 58.2813 55.7159 58.8015 54.7899 59.7274C53.8639 60.6534 53.3438 61.9092 53.3438 63.2188V107.656C53.3438 108.966 53.8639 110.222 54.7899 111.148C55.7159 112.074 56.9717 112.594 58.2812 112.594H92.8438C94.1533 112.594 95.4091 112.074 96.3351 111.148C97.2611 110.222 97.7812 108.966 97.7812 107.656V102.719H102.719C104.028 102.719 105.284 102.199 106.21 101.273C107.136 100.347 107.656 99.0908 107.656 97.7812V63.2188C107.657 62.8945 107.593 62.5733 107.469 62.2736C107.345 61.9739 107.163 61.7015 106.934 61.4721ZM82.9688 100.25H68.1562C67.5015 100.25 66.8736 99.9899 66.4106 99.5269C65.9476 99.0639 65.6875 98.436 65.6875 97.7812C65.6875 97.1265 65.9476 96.4986 66.4106 96.0356C66.8736 95.5726 67.5015 95.3125 68.1562 95.3125H82.9688C83.6235 95.3125 84.2514 95.5726 84.7144 96.0356C85.1774 96.4986 85.4375 97.1265 85.4375 97.7812C85.4375 98.436 85.1774 99.0639 84.7144 99.5269C84.2514 99.9899 83.6235 100.25 82.9688 100.25ZM82.9688 90.375H68.1562C67.5015 90.375 66.8736 90.1149 66.4106 89.6519C65.9476 89.1889 65.6875 88.561 65.6875 87.9062C65.6875 87.2515 65.9476 86.6236 66.4106 86.1606C66.8736 85.6976 67.5015 85.4375 68.1562 85.4375H82.9688C83.6235 85.4375 84.2514 85.6976 84.7144 86.1606C85.1774 86.6236 85.4375 87.2515 85.4375 87.9062C85.4375 88.561 85.1774 89.1889 84.7144 89.6519C84.2514 90.1149 83.6235 90.375 82.9688 90.375ZM102.719 97.7812H97.7812V73.0938C97.7815 72.7695 97.7179 72.4483 97.594 72.1486C97.4701 71.8489 97.2883 71.5765 97.0591 71.3471L84.7154 59.0034C84.486 58.7742 84.2136 58.5924 83.9139 58.4685C83.6142 58.3446 83.293 58.281 82.9688 58.2813H68.1562V53.3438H91.8223L102.719 64.2402V97.7812Z" fill="white"/>
</svg>
