<svg width="67" height="67" viewBox="0 0 67 67" fill="none" xmlns="http://www.w3.org/2000/svg">
<circle cx="33.5" cy="33.5" r="33" fill="#F5F5F5"/>
<path d="M46.3844 22.8656L40.1344 16.6156C40.0182 16.4996 39.8803 16.4076 39.7286 16.3448C39.5768 16.2821 39.4142 16.2499 39.25 16.25H26.75C26.087 16.25 25.4511 16.5134 24.9822 16.9822C24.5134 17.4511 24.25 18.087 24.25 18.75V21.25H21.75C21.087 21.25 20.4511 21.5134 19.9822 21.9822C19.5134 22.4511 19.25 23.087 19.25 23.75V46.25C19.25 46.913 19.5134 47.5489 19.9822 48.0178C20.4511 48.4866 21.087 48.75 21.75 48.75H39.25C39.913 48.75 40.5489 48.4866 41.0178 48.0178C41.4866 47.5489 41.75 46.913 41.75 46.25V43.75H44.25C44.913 43.75 45.5489 43.4866 46.0178 43.0178C46.4866 42.5489 46.75 41.913 46.75 41.25V23.75C46.7501 23.5858 46.7179 23.4232 46.6552 23.2714C46.5924 23.1197 46.5004 22.9818 46.3844 22.8656ZM34.25 42.5H26.75C26.4185 42.5 26.1005 42.3683 25.8661 42.1339C25.6317 41.8995 25.5 41.5815 25.5 41.25C25.5 40.9185 25.6317 40.6005 25.8661 40.3661C26.1005 40.1317 26.4185 40 26.75 40H34.25C34.5815 40 34.8995 40.1317 35.1339 40.3661C35.3683 40.6005 35.5 40.9185 35.5 41.25C35.5 41.5815 35.3683 41.8995 35.1339 42.1339C34.8995 42.3683 34.5815 42.5 34.25 42.5ZM34.25 37.5H26.75C26.4185 37.5 26.1005 37.3683 25.8661 37.1339C25.6317 36.8995 25.5 36.5815 25.5 36.25C25.5 35.9185 25.6317 35.6005 25.8661 35.3661C26.1005 35.1317 26.4185 35 26.75 35H34.25C34.5815 35 34.8995 35.1317 35.1339 35.3661C35.3683 35.6005 35.5 35.9185 35.5 36.25C35.5 36.5815 35.3683 36.8995 35.1339 37.1339C34.8995 37.3683 34.5815 37.5 34.25 37.5ZM44.25 41.25H41.75V28.75C41.7501 28.5858 41.7179 28.4232 41.6552 28.2714C41.5924 28.1197 41.5004 27.9818 41.3844 27.8656L35.1344 21.6156C35.0182 21.4996 34.8803 21.4076 34.7286 21.3448C34.5768 21.2821 34.4142 21.2499 34.25 21.25H26.75V18.75H38.7328L44.25 24.2672V41.25Z" fill="#DCDCDC"/>
</svg>
