<svg width="16" height="16" viewBox="0 0 16 16" fill="none" xmlns="http://www.w3.org/2000/svg">
<path d="M13.3542 5.14625L9.85424 1.64625C9.80777 1.59983 9.75261 1.56303 9.69191 1.53793C9.63122 1.51284 9.56617 1.49995 9.50049 1.5H3.50049C3.23527 1.5 2.98092 1.60536 2.79338 1.79289C2.60585 1.98043 2.50049 2.23478 2.50049 2.5V13.5C2.50049 13.7652 2.60585 14.0196 2.79338 14.2071C2.98092 14.3946 3.23527 14.5 3.50049 14.5H12.5005C12.7657 14.5 13.0201 14.3946 13.2076 14.2071C13.3951 14.0196 13.5005 13.7652 13.5005 13.5V5.5C13.5005 5.43432 13.4877 5.36927 13.4626 5.30858C13.4375 5.24788 13.4007 5.19272 13.3542 5.14625ZM9.85424 9.35375C9.8078 9.40024 9.75266 9.43712 9.69196 9.46228C9.63126 9.48744 9.5662 9.50039 9.50049 9.50039C9.43478 9.50039 9.36972 9.48744 9.30902 9.46228C9.24832 9.43712 9.19317 9.40024 9.14674 9.35375L8.50049 8.70687V11.5C8.50049 11.6326 8.44781 11.7598 8.35404 11.8536C8.26027 11.9473 8.1331 12 8.00049 12C7.86788 12 7.7407 11.9473 7.64693 11.8536C7.55317 11.7598 7.50049 11.6326 7.50049 11.5V8.70687L6.85424 9.35375C6.80778 9.40021 6.75263 9.43706 6.69194 9.4622C6.63124 9.48734 6.56619 9.50028 6.50049 9.50028C6.43479 9.50028 6.36974 9.48734 6.30904 9.4622C6.24834 9.43706 6.19319 9.40021 6.14674 9.35375C6.10028 9.3073 6.06343 9.25214 6.03829 9.19145C6.01315 9.13075 6.00021 9.0657 6.00021 9C6.00021 8.9343 6.01315 8.86925 6.03829 8.80855C6.06343 8.74786 6.10028 8.6927 6.14674 8.64625L7.64674 7.14625C7.69317 7.09976 7.74832 7.06288 7.80902 7.03772C7.86972 7.01256 7.93478 6.99961 8.00049 6.99961C8.0662 6.99961 8.13126 7.01256 8.19196 7.03772C8.25266 7.06288 8.3078 7.09976 8.35424 7.14625L9.85424 8.64625C9.90073 8.69269 9.93761 8.74783 9.96277 8.80853C9.98793 8.86923 10.0009 8.93429 10.0009 9C10.0009 9.06571 9.98793 9.13077 9.96277 9.19147C9.93761 9.25217 9.90073 9.30731 9.85424 9.35375ZM9.50049 5.5V2.75L12.2505 5.5H9.50049Z" fill="#1721C9"/>
</svg>
