<svg width="25" height="24" viewBox="0 0 25 24" fill="none" xmlns="http://www.w3.org/2000/svg">
<path d="M17.75 1.5H7.25C6.85218 1.5 6.47064 1.65804 6.18934 1.93934C5.90804 2.22064 5.75 2.60218 5.75 3V7.24969C5.7508 7.57411 5.85599 7.88967 6.05 8.14969L8 10.7503V21C8 21.3978 8.15804 21.7794 8.43934 22.0607C8.72064 22.342 9.10218 22.5 9.5 22.5H15.5C15.8978 22.5 16.2794 22.342 16.5607 22.0607C16.842 21.7794 17 21.3978 17 21V10.7503L18.95 8.14969C19.144 7.88967 19.2492 7.57411 19.25 7.24969V3C19.25 2.60218 19.092 2.22064 18.8107 1.93934C18.5294 1.65804 18.1478 1.5 17.75 1.5ZM13.25 14.25C13.25 14.4489 13.171 14.6397 13.0303 14.7803C12.8897 14.921 12.6989 15 12.5 15C12.3011 15 12.1103 14.921 11.9697 14.7803C11.829 14.6397 11.75 14.4489 11.75 14.25V11.25C11.75 11.0511 11.829 10.8603 11.9697 10.7197C12.1103 10.579 12.3011 10.5 12.5 10.5C12.6989 10.5 12.8897 10.579 13.0303 10.7197C13.171 10.8603 13.25 11.0511 13.25 11.25V14.25ZM7.25 5.25V3H17.75V5.25H7.25Z" fill="white"/>
</svg>
