<svg width="25" height="24" viewBox="0 0 25 24" fill="none" xmlns="http://www.w3.org/2000/svg">
<path d="M12.875 2.25C10.9466 2.25 9.06157 2.82183 7.45819 3.89317C5.85482 4.96451 4.60513 6.48726 3.86718 8.26884C3.12922 10.0504 2.93614 12.0108 3.31235 13.9021C3.68855 15.7934 4.61715 17.5307 5.98071 18.8943C7.34428 20.2579 9.08156 21.1865 10.9729 21.5627C12.8642 21.9389 14.8246 21.7458 16.6062 21.0078C18.3877 20.2699 19.9105 19.0202 20.9818 17.4168C22.0532 15.8134 22.625 13.9284 22.625 12C22.6223 9.41498 21.5942 6.93661 19.7663 5.10872C17.9384 3.28084 15.46 2.25273 12.875 2.25ZM16.625 13.5C16.625 13.6989 16.546 13.8897 16.4053 14.0303C16.2647 14.171 16.0739 14.25 15.875 14.25C15.6761 14.25 15.4853 14.171 15.3447 14.0303C15.204 13.8897 15.125 13.6989 15.125 13.5V10.8103L10.4056 15.5306C10.3359 15.6003 10.2532 15.6556 10.1622 15.6933C10.0711 15.731 9.97355 15.7504 9.875 15.7504C9.77646 15.7504 9.67888 15.731 9.58783 15.6933C9.49679 15.6556 9.41406 15.6003 9.34438 15.5306C9.2747 15.4609 9.21942 15.3782 9.18171 15.2872C9.144 15.1961 9.12459 15.0985 9.12459 15C9.12459 14.9015 9.144 14.8039 9.18171 14.7128C9.21942 14.6218 9.2747 14.5391 9.34438 14.4694L14.0647 9.75H11.375C11.1761 9.75 10.9853 9.67098 10.8447 9.53033C10.704 9.38968 10.625 9.19891 10.625 9C10.625 8.80109 10.704 8.61032 10.8447 8.46967C10.9853 8.32902 11.1761 8.25 11.375 8.25H15.875C16.0739 8.25 16.2647 8.32902 16.4053 8.46967C16.546 8.61032 16.625 8.80109 16.625 9V13.5Z" fill="#1721C9"/>
</svg>
