<svg width="24" height="24" viewBox="0 0 24 24" fill="none" xmlns="http://www.w3.org/2000/svg">
<path d="M23.1975 16.2891C23.198 16.2847 23.198 16.2803 23.1975 16.2759L21.6609 8.385C21.6609 8.37938 21.6609 8.37375 21.6609 8.36813C21.4237 7.07255 20.74 5.90107 19.7286 5.05735C18.7172 4.21364 17.4421 3.75105 16.125 3.75H7.86469C6.54389 3.74949 5.2652 4.21471 4.25352 5.06384C3.24184 5.91297 2.56195 7.09162 2.33344 8.3925L0.804375 16.2759C0.803923 16.2803 0.803923 16.2847 0.804375 16.2891C0.679914 16.9958 0.783945 17.7238 1.10136 18.3673C1.41878 19.0109 1.93306 19.5365 2.56953 19.8679C3.20601 20.1993 3.93155 20.3193 4.64081 20.2103C5.35007 20.1013 6.00614 19.7691 6.51375 19.2619L6.54656 19.2272L10.2675 15H13.7362L17.4591 19.2272C17.4694 19.2394 17.4806 19.2506 17.4919 19.2619C18.1245 19.8932 18.9813 20.2484 19.875 20.25C20.3676 20.2497 20.8542 20.1415 21.3006 19.9331C21.747 19.7247 22.1423 19.4211 22.4589 19.0436C22.7754 18.6661 23.0055 18.2239 23.1329 17.7481C23.2604 17.2722 23.2821 16.7742 23.1966 16.2891H23.1975ZM9.75 10.5H9V11.25C9 11.4489 8.92098 11.6397 8.78033 11.7803C8.63968 11.921 8.44891 12 8.25 12C8.05109 12 7.86032 11.921 7.71967 11.7803C7.57902 11.6397 7.5 11.4489 7.5 11.25V10.5H6.75C6.55109 10.5 6.36032 10.421 6.21967 10.2803C6.07902 10.1397 6 9.94891 6 9.75C6 9.55109 6.07902 9.36032 6.21967 9.21967C6.36032 9.07902 6.55109 9 6.75 9H7.5V8.25C7.5 8.05109 7.57902 7.86032 7.71967 7.71967C7.86032 7.57902 8.05109 7.5 8.25 7.5C8.44891 7.5 8.63968 7.57902 8.78033 7.71967C8.92098 7.86032 9 8.05109 9 8.25V9H9.75C9.94891 9 10.1397 9.07902 10.2803 9.21967C10.421 9.36032 10.5 9.55109 10.5 9.75C10.5 9.94891 10.421 10.1397 10.2803 10.2803C10.1397 10.421 9.94891 10.5 9.75 10.5ZM13.5 9.75C13.5 9.55109 13.579 9.36032 13.7197 9.21967C13.8603 9.07902 14.0511 9 14.25 9H16.5C16.6989 9 16.8897 9.07902 17.0303 9.21967C17.171 9.36032 17.25 9.55109 17.25 9.75C17.25 9.94891 17.171 10.1397 17.0303 10.2803C16.8897 10.421 16.6989 10.5 16.5 10.5H14.25C14.0511 10.5 13.8603 10.421 13.7197 10.2803C13.579 10.1397 13.5 9.94891 13.5 9.75ZM21.4097 17.9503C21.2692 18.1526 21.09 18.3249 20.8824 18.4574C20.6748 18.5898 20.4429 18.6797 20.2003 18.7219C19.9068 18.7732 19.6053 18.7542 19.3206 18.6663C19.0359 18.5785 18.7761 18.4243 18.5625 18.2166L15.7312 15H16.125C17.0825 15.0001 18.0242 14.7558 18.8609 14.2902C19.6976 13.8246 20.4016 13.1531 20.9062 12.3394L21.7256 16.5581C21.7673 16.7995 21.7609 17.0468 21.7067 17.2858C21.6525 17.5247 21.5515 17.7505 21.4097 17.9503Z" fill="#1721C9"/>
</svg>
