<svg width="24" height="24" viewBox="0 0 24 24" fill="none" xmlns="http://www.w3.org/2000/svg">
<path d="M21.75 11.25H20.9681C20.8804 10.1805 20.6003 9.13559 20.1412 8.16562L20.8191 7.77469C20.9914 7.67523 21.1171 7.5114 21.1686 7.31923C21.2201 7.12707 21.1932 6.92231 21.0938 6.75C20.9943 6.57769 20.8305 6.45195 20.6383 6.40044C20.4461 6.34892 20.2414 6.37586 20.0691 6.47531L19.3894 6.86813C18.7759 5.98839 18.0116 5.22411 17.1319 4.61063L17.5247 3.93094C17.6241 3.75863 17.6511 3.55387 17.5996 3.3617C17.5481 3.16954 17.4223 3.00571 17.25 2.90625C17.0777 2.80679 16.8729 2.77986 16.6808 2.83137C16.4886 2.88289 16.3248 3.00863 16.2253 3.18094L15.8344 3.85875C14.8644 3.39969 13.8195 3.11957 12.75 3.03188V2.25C12.75 2.05109 12.671 1.86032 12.5303 1.71967C12.3897 1.57902 12.1989 1.5 12 1.5C11.8011 1.5 11.6103 1.57902 11.4697 1.71967C11.329 1.86032 11.25 2.05109 11.25 2.25V3.03188C10.1805 3.11957 9.13559 3.39969 8.16562 3.85875L7.77469 3.18094C7.67523 3.00863 7.5114 2.88289 7.31923 2.83137C7.12707 2.77986 6.92231 2.80679 6.75 2.90625C6.57769 3.00571 6.45195 3.16954 6.40044 3.3617C6.34892 3.55387 6.37586 3.75863 6.47531 3.93094L6.86813 4.61063C5.98839 5.22411 5.22411 5.98839 4.61063 6.86813L3.93094 6.47531C3.84562 6.42607 3.75144 6.39411 3.65377 6.38126C3.5561 6.36841 3.45686 6.37493 3.3617 6.40044C3.16954 6.45195 3.00571 6.57769 2.90625 6.75C2.80679 6.92231 2.77986 7.12707 2.83137 7.31923C2.88289 7.5114 3.00863 7.67523 3.18094 7.77469L3.85875 8.16562C3.39969 9.13559 3.11957 10.1805 3.03188 11.25H2.25C2.05109 11.25 1.86032 11.329 1.71967 11.4697C1.57902 11.6103 1.5 11.8011 1.5 12C1.5 12.1989 1.57902 12.3897 1.71967 12.5303C1.86032 12.671 2.05109 12.75 2.25 12.75H3.03188C3.11957 13.8195 3.39969 14.8644 3.85875 15.8344L3.18094 16.2253C3.03787 16.3078 2.92604 16.4353 2.8628 16.5878C2.79957 16.7404 2.78846 16.9096 2.8312 17.0691C2.87394 17.2286 2.96814 17.3696 3.09918 17.4701C3.23023 17.5706 3.39078 17.6251 3.55594 17.625C3.68762 17.6254 3.81704 17.5908 3.93094 17.5247L4.61063 17.1319C5.22411 18.0116 5.98839 18.7759 6.86813 19.3894L6.47531 20.0691C6.37586 20.2414 6.34892 20.4461 6.40044 20.6383C6.45195 20.8305 6.57769 20.9943 6.75 21.0938C6.92231 21.1932 7.12707 21.2201 7.31923 21.1686C7.5114 21.1171 7.67523 20.9914 7.77469 20.8191L8.16562 20.1412C9.13559 20.6003 10.1805 20.8804 11.25 20.9681V21.75C11.25 21.9489 11.329 22.1397 11.4697 22.2803C11.6103 22.421 11.8011 22.5 12 22.5C12.1989 22.5 12.3897 22.421 12.5303 22.2803C12.671 22.1397 12.75 21.9489 12.75 21.75V20.9681C13.8195 20.8804 14.8644 20.6003 15.8344 20.1412L16.2253 20.8191C16.3248 20.9914 16.4886 21.1171 16.6808 21.1686C16.8729 21.2201 17.0777 21.1932 17.25 21.0938C17.4223 20.9943 17.5481 20.8305 17.5996 20.6383C17.6511 20.4461 17.6241 20.2414 17.5247 20.0691L17.1319 19.3894C18.0116 18.7759 18.7759 18.0116 19.3894 17.1319L20.0691 17.5247C20.1544 17.574 20.2486 17.6059 20.3462 17.6188C20.4439 17.6316 20.5432 17.6251 20.6383 17.5996C20.7335 17.5741 20.8227 17.5301 20.9008 17.4701C20.979 17.4101 21.0445 17.3353 21.0938 17.25C21.1933 17.0778 21.2204 16.8731 21.1691 16.681C21.1177 16.4888 20.9922 16.3249 20.82 16.2253L20.1422 15.8344C20.6012 14.8644 20.8814 13.8195 20.9691 12.75H21.75C21.9489 12.75 22.1397 12.671 22.2803 12.5303C22.421 12.3897 22.5 12.1989 22.5 12C22.5 11.8011 22.421 11.6103 22.2803 11.4697C22.1397 11.329 21.9489 11.25 21.75 11.25ZM6.75 12C6.74961 11.2055 6.92985 10.4213 7.27709 9.70665C7.62434 8.99203 8.12949 8.36569 8.75437 7.875L11.1338 12L8.75437 16.125C8.12949 15.6343 7.62434 15.008 7.27709 14.2934C6.92985 13.5787 6.74961 12.7945 6.75 12ZM12 17.25C11.3326 17.2507 10.6713 17.1234 10.0519 16.875L12.4331 12.75H17.1956C17.0136 13.9987 16.3887 15.1403 15.4348 15.9664C14.481 16.7925 13.2619 17.2481 12 17.25ZM12.4331 11.25L10.0519 7.125C10.7893 6.83039 11.584 6.70692 12.3761 6.76389C13.1682 6.82085 13.9371 7.05677 14.6248 7.45388C15.3125 7.85099 15.9012 8.39894 16.3465 9.05648C16.7918 9.71402 17.0821 10.464 17.1956 11.25H12.4331Z" fill="#1721C9"/>
</svg>
