<svg width="25" height="24" viewBox="0 0 25 24" fill="none" xmlns="http://www.w3.org/2000/svg">
<path d="M12.5084 5.37903C12.5505 4.79699 12.7427 4.23579 13.0663 3.75021C13.39 3.26464 13.834 2.87128 14.3551 2.60853C14.8761 2.34578 15.4564 2.22263 16.0393 2.25109C16.6221 2.27954 17.1876 2.45864 17.6806 2.7709C17.737 2.80778 17.7824 2.85916 17.812 2.91964C17.8417 2.98012 17.8545 3.04746 17.8491 3.11461C17.8437 3.18175 17.8204 3.2462 17.7815 3.3012C17.7426 3.3562 17.6896 3.3997 17.6281 3.42715C16.7711 3.81272 16.0437 4.43749 15.5331 5.22643C15.0226 6.01537 14.7507 6.93493 14.75 7.87465C14.75 7.98434 14.75 8.09403 14.7612 8.20184C14.7664 8.26998 14.7529 8.33824 14.7221 8.39925C14.6913 8.46025 14.6444 8.51167 14.5865 8.54796C14.5285 8.58425 14.4618 8.60403 14.3935 8.60515C14.3252 8.60627 14.2578 8.5887 14.1987 8.55434C13.6463 8.23831 13.1944 7.77249 12.8953 7.21065C12.5962 6.6488 12.4621 6.01383 12.5084 5.37903ZM23 15.0568C23.0013 15.4854 22.8826 15.9058 22.6573 16.2703C22.4319 16.6348 22.109 16.929 21.725 17.1193L21.6838 17.1381L18.0434 18.6887C18.0075 18.7046 17.9701 18.7171 17.9319 18.7262L11.9319 20.2262C11.8724 20.2415 11.8114 20.2494 11.75 20.2497H2C1.60218 20.2497 1.22064 20.0916 0.93934 19.8103C0.658035 19.529 0.5 19.1475 0.5 18.7497V14.9997C0.5 14.6018 0.658035 14.2203 0.93934 13.939C1.22064 13.6577 1.60218 13.4997 2 13.4997H4.68969L6.81031 11.3781C7.08838 11.0988 7.41904 10.8773 7.78319 10.7266C8.14733 10.5758 8.53775 10.4987 8.93188 10.4997H13.625C14.0212 10.4996 14.4122 10.5892 14.7688 10.7618C15.1254 10.9344 15.4383 11.1854 15.6841 11.4961C15.9298 11.8069 16.1021 12.1692 16.1879 12.5559C16.2738 12.9427 16.2709 13.3438 16.1797 13.7293L20.1022 12.8275C20.4437 12.737 20.8013 12.7262 21.1477 12.7959C21.494 12.8655 21.8197 13.0137 22.0996 13.2291C22.3796 13.4445 22.6064 13.7213 22.7625 14.0382C22.9186 14.3551 22.9999 14.7036 23 15.0568ZM21.5 15.0568C21.4999 14.9328 21.4712 14.8105 21.4162 14.6994C21.3611 14.5883 21.2812 14.4913 21.1827 14.4161C21.0841 14.3408 20.9695 14.2893 20.8478 14.2654C20.7261 14.2416 20.6006 14.2462 20.4809 14.2787L20.4519 14.2862L14.1706 15.7309C14.1155 15.7432 14.0593 15.7495 14.0028 15.7497H11C10.8011 15.7497 10.6103 15.6706 10.4697 15.53C10.329 15.3893 10.25 15.1986 10.25 14.9997C10.25 14.8007 10.329 14.61 10.4697 14.4693C10.6103 14.3287 10.8011 14.2497 11 14.2497H13.625C13.9234 14.2497 14.2095 14.1311 14.4205 13.9201C14.6315 13.7092 14.75 13.423 14.75 13.1247C14.75 12.8263 14.6315 12.5401 14.4205 12.3292C14.2095 12.1182 13.9234 11.9997 13.625 11.9997H8.93188C8.73482 11.999 8.53961 12.0376 8.35758 12.1131C8.17555 12.1885 8.01035 12.2994 7.87156 12.4393L5.75 14.56V18.7497H11.6562L17.5091 17.2862L21.0716 15.7693C21.2012 15.701 21.3097 15.5985 21.3852 15.4729C21.4608 15.3473 21.5005 15.2034 21.5 15.0568ZM16.25 7.87465C16.25 8.54216 16.4479 9.19468 16.8188 9.7497C17.1896 10.3047 17.7167 10.7373 18.3334 10.9927C18.9501 11.2482 19.6287 11.315 20.2834 11.1848C20.9381 11.0546 21.5395 10.7331 22.0115 10.2611C22.4835 9.78913 22.8049 9.18777 22.9352 8.53308C23.0654 7.8784 22.9985 7.1998 22.7431 6.58309C22.4876 5.96639 22.0551 5.43929 21.5 5.06844C20.945 4.69759 20.2925 4.49965 19.625 4.49965C18.7299 4.49965 17.8715 4.85523 17.2385 5.48817C16.6056 6.1211 16.25 6.97955 16.25 7.87465Z" fill="#454769"/>
</svg>
