<svg width="24" height="24" viewBox="0 0 24 24" fill="none" xmlns="http://www.w3.org/2000/svg">
<path d="M21.75 12.7502V18.0002C21.75 18.5969 21.5129 19.1692 21.091 19.5912C20.669 20.0131 20.0967 20.2502 19.5 20.2502H18C17.4033 20.2502 16.831 20.0131 16.409 19.5912C15.9871 19.1692 15.75 18.5969 15.75 18.0002V14.2502C15.75 13.6534 15.9871 13.0811 16.409 12.6592C16.831 12.2372 17.4033 12.0002 18 12.0002H20.2172C20.037 9.95839 19.1008 8.05751 17.592 6.67011C16.0832 5.28271 14.1106 4.50884 12.0609 4.50018H12C9.94173 4.50008 7.95776 5.26936 6.43759 6.65701C4.91742 8.04466 3.97087 9.95043 3.78375 12.0002H6C6.59674 12.0002 7.16903 12.2372 7.59099 12.6592C8.01295 13.0811 8.25 13.6534 8.25 14.2502V18.0002C8.25 18.5969 8.01295 19.1692 7.59099 19.5912C7.16903 20.0131 6.59674 20.2502 6 20.2502H4.5C3.90326 20.2502 3.33097 20.0131 2.90901 19.5912C2.48705 19.1692 2.25 18.5969 2.25 18.0002V12.7502C2.2521 10.8188 2.82715 8.93153 3.90235 7.32714C4.97755 5.72276 6.50456 4.47343 8.29012 3.73729C10.0757 3.00114 12.0395 2.81128 13.933 3.19174C15.8265 3.57219 17.5646 4.50586 18.9272 5.87455C19.8268 6.77859 20.5393 7.85126 21.0237 9.03111C21.5081 10.211 21.7549 11.4748 21.75 12.7502Z" fill="#454569"/>
</svg>
