<svg width="25" height="25" viewBox="0 0 25 25" fill="none" xmlns="http://www.w3.org/2000/svg">
<path d="M23 9.3125C23 15.875 13.2697 21.1869 12.8553 21.4062C12.7461 21.465 12.624 21.4958 12.5 21.4958C12.376 21.4958 12.2539 21.465 12.1447 21.4062C11.7303 21.1869 2 15.875 2 9.3125C2.00174 7.77146 2.61468 6.29404 3.70436 5.20436C4.79404 4.11468 6.27146 3.50174 7.8125 3.5C9.74844 3.5 11.4434 4.3325 12.5 5.73969C13.5566 4.3325 15.2516 3.5 17.1875 3.5C18.7285 3.50174 20.206 4.11468 21.2956 5.20436C22.3853 6.29404 22.9983 7.77146 23 9.3125Z" fill="white"/>
</svg>
