<svg width="24" height="24" viewBox="0 0 24 24" fill="none" xmlns="http://www.w3.org/2000/svg">
<path d="M5.05499 3.24569C4.98913 3.17144 4.90918 3.11101 4.81979 3.06789C4.7304 3.02477 4.63334 2.99982 4.53423 2.99449C4.43513 2.98916 4.33595 3.00355 4.24245 3.03683C4.14895 3.07011 4.06298 3.12162 3.98953 3.18837C3.91608 3.25512 3.85661 3.33578 3.81457 3.42568C3.77252 3.51559 3.74874 3.61294 3.7446 3.7121C3.74045 3.81126 3.75603 3.91026 3.79043 4.00336C3.82483 4.09645 3.87737 4.18179 3.94499 4.25444L5.74874 6.23913C2.34374 8.32881 0.879366 11.5501 0.814679 11.6963C0.772035 11.7922 0.75 11.896 0.75 12.001C0.75 12.106 0.772035 12.2098 0.814679 12.3057C0.847491 12.3798 1.64155 14.1404 3.40687 15.9057C5.75905 18.2569 8.72999 19.5001 12 19.5001C13.6806 19.5096 15.3442 19.1636 16.8816 18.4848L18.9441 20.7544C19.0099 20.8287 19.0899 20.8891 19.1793 20.9322C19.2686 20.9754 19.3657 21.0003 19.4648 21.0056C19.5639 21.011 19.6631 20.9966 19.7566 20.9633C19.8501 20.93 19.9361 20.8785 20.0095 20.8118C20.083 20.745 20.1424 20.6643 20.1845 20.5744C20.2265 20.4845 20.2503 20.3872 20.2544 20.288C20.2586 20.1889 20.243 20.0899 20.2086 19.9968C20.1742 19.9037 20.1217 19.8183 20.0541 19.7457L5.05499 3.24569ZM13.3987 14.6541C12.8105 14.9636 12.136 15.069 11.4814 14.9536C10.8268 14.8382 10.229 14.5087 9.78189 14.0168C9.33481 13.5249 9.06377 12.8984 9.01134 12.2358C8.9589 11.5731 9.12803 10.9118 9.49218 10.3557L13.3987 14.6541ZM23.1853 12.3057C23.1459 12.3938 22.1962 14.4966 20.0578 16.4119C19.9104 16.5442 19.7167 16.6128 19.519 16.6028C19.3212 16.5928 19.1354 16.505 19.0022 16.3585L9.50624 5.91288C9.4154 5.81319 9.35312 5.69086 9.32596 5.55875C9.29879 5.42665 9.30776 5.28966 9.3519 5.16222C9.39604 5.03479 9.47373 4.92161 9.57679 4.83461C9.67984 4.74761 9.80445 4.69001 9.93749 4.66788C10.6192 4.55531 11.309 4.49919 12 4.50006C15.27 4.50006 18.2409 5.74319 20.5931 8.09538C22.3584 9.86069 23.1525 11.6223 23.1853 11.6963C23.2279 11.7922 23.25 11.896 23.25 12.001C23.25 12.106 23.2279 12.2098 23.1853 12.3057Z" fill="#454569"/>
</svg>
