<svg width="40" height="40" viewBox="0 0 40 40" fill="none" xmlns="http://www.w3.org/2000/svg">
<circle cx="20" cy="22" r="16" fill="#04049B"/>
<path d="M19.56 23.0668H16.8027V14.3362C16.8027 14.2029 16.9041 14.1016 17.0374 14.1016H19.32C19.4534 14.1016 19.56 14.2029 19.56 14.3362V23.0668Z" fill="url(#paint0_linear_8352_18043)"/>
<path d="M27.165 27.7706C26.061 29.1839 24.397 29.9999 22.5997 29.9999V27.2426C23.5384 27.2426 24.413 26.816 24.989 26.0746C26.0237 24.752 25.789 22.8426 24.4664 21.808C23.9117 21.376 23.2717 21.168 22.5997 21.168C21.2397 21.168 20.4291 22.0373 19.4957 23.2266C18.1678 24.928 14.8931 29.1253 14.8931 29.1253C14.4505 29.6906 13.6931 29.9199 13.0105 29.6799C12.3278 29.4506 11.8691 28.8053 11.8691 28.0799V24.368H14.6265V24.992C14.6265 24.992 16.5304 22.5493 17.3838 21.4613C18.8344 19.6053 20.4131 18.416 22.6051 18.416C23.8157 18.416 25.053 18.8053 26.1624 19.6373C28.7223 21.552 29.133 25.2533 27.165 27.7706Z" fill="white"/>
<path d="M27.1653 27.7704C26.0613 29.1837 24.3973 29.9997 22.6 29.9997C19.4 29.9997 16.8027 27.4024 16.8027 24.2024V23.0664H19.5547V24.2024C19.5547 25.8771 20.92 27.2424 22.6 27.2424C23.5387 27.2424 24.4133 26.8157 24.9893 26.0744L27.1653 27.7704Z" fill="url(#paint1_linear_8352_18043)"/>
<path d="M13.2449 17.232C12.3542 17.232 11.6289 16.512 11.6289 15.616C11.6289 14.7253 12.3542 14 13.2449 14C14.1409 14 14.8662 14.7253 14.8662 15.616C14.8662 16.512 14.1409 17.232 13.2449 17.232Z" fill="#DD4F33"/>
<path d="M11.8691 18.416H14.6265V24.992H11.8691V18.416Z" fill="url(#paint2_linear_8352_18043)"/>
<defs>
<linearGradient id="paint0_linear_8352_18043" x1="3.59869" y1="23.0658" x2="3.59869" y2="14.1003" gradientUnits="userSpaceOnUse">
<stop stop-color="#04049B" stop-opacity="0"/>
<stop offset="0.809" stop-color="white"/>
</linearGradient>
<linearGradient id="paint1_linear_8352_18043" x1="22.3522" y1="21.2303" x2="26.1545" y2="24.8089" gradientUnits="userSpaceOnUse">
<stop stop-color="#04049B" stop-opacity="0"/>
<stop offset="1" stop-color="white"/>
</linearGradient>
<linearGradient id="paint2_linear_8352_18043" x1="21.0954" y1="18.4165" x2="21.0954" y2="24.9929" gradientUnits="userSpaceOnUse">
<stop offset="0.027" stop-color="#04049B" stop-opacity="0"/>
<stop offset="0.883" stop-color="white"/>
</linearGradient>
</defs>
</svg>
