<svg width="35" height="32" viewBox="0 0 35 32" fill="none" xmlns="http://www.w3.org/2000/svg">
<path d="M31.758 27.5414C29.55 30.368 26.222 32 22.6273 32V26.4854C24.5047 26.4854 26.254 25.632 27.406 24.1494C29.4753 21.504 29.006 17.6854 26.3607 15.616C25.2513 14.752 23.9713 14.336 22.6273 14.336C19.9073 14.336 18.286 16.0747 16.4193 18.4534C13.7633 21.856 7.21401 30.2507 7.21401 30.2507C6.32868 31.3814 4.814 31.84 3.44867 31.36C2.08334 30.9014 1.16602 29.6107 1.16602 28.16V20.736H6.68068V21.984C6.68068 21.984 10.4887 17.0987 12.1953 14.9227C15.0967 11.2107 18.254 8.83203 22.638 8.83203C25.0593 8.83203 27.534 9.6107 29.7527 11.2747C34.8727 15.104 35.694 22.5067 31.758 27.5414Z" fill="#00006A"/>
<path d="M31.7576 27.5413C29.5496 30.368 26.2216 32 22.6269 32C16.2269 32 11.0322 26.8053 11.0322 20.4053V18.1333H16.5362V20.4053C16.5362 23.7546 19.2669 26.4853 22.6269 26.4853C24.5042 26.4853 26.2536 25.632 27.4056 24.1493L31.7576 27.5413Z" fill="url(#paint0_linear_2667_47280)"/>
<path d="M16.5469 18.1333H11.0322V0.671969C11.0322 0.405303 11.2349 0.202637 11.5015 0.202637H16.0669C16.3336 0.202637 16.5469 0.405303 16.5469 0.671969V18.1333Z" fill="url(#paint1_linear_2667_47280)"/>
<path d="M3.91755 6.464C2.13622 6.464 0.685547 5.024 0.685547 3.232C0.685547 1.45066 2.13622 0 3.91755 0C5.70955 0 7.16021 1.45066 7.16021 3.232C7.16021 5.024 5.70955 6.464 3.91755 6.464Z" fill="#DC4F33"/>
<path d="M1.16602 8.83203H6.68068V21.984H1.16602V8.83203Z" fill="url(#paint2_linear_2667_47280)"/>
<defs>
<linearGradient id="paint0_linear_2667_47280" x1="22.1312" y1="14.461" x2="29.7359" y2="21.6183" gradientUnits="userSpaceOnUse">
<stop stop-color="#04049B" stop-opacity="0"/>
<stop offset="1" stop-color="#04049B"/>
</linearGradient>
<linearGradient id="paint1_linear_2667_47280" x1="-15.3761" y1="18.1313" x2="-15.3761" y2="0.200184" gradientUnits="userSpaceOnUse">
<stop stop-color="#04049B" stop-opacity="0"/>
<stop offset="0.809" stop-color="#04049B"/>
</linearGradient>
<linearGradient id="paint2_linear_2667_47280" x1="19.6186" y1="8.8331" x2="19.6186" y2="21.9858" gradientUnits="userSpaceOnUse">
<stop offset="0.027" stop-color="#04049B" stop-opacity="0"/>
<stop offset="0.883" stop-color="#04049B"/>
</linearGradient>
</defs>
</svg>
