<svg width="952" height="280" viewBox="0 0 952 280" fill="none" xmlns="http://www.w3.org/2000/svg">
<path fill-rule="evenodd" clip-rule="evenodd" d="M513.52 85.027V270.574C513.52 272.907 511.653 274.68 509.413 274.68H467.413C465.173 274.68 463.306 272.907 463.306 270.574V264.414C463.306 263.48 462.186 262.92 461.44 263.574C446.413 275.147 428.68 280 409.453 280C352.427 280 306.693 234.267 306.693 178.454C306.693 122.174 352.427 77.2803 409.453 77.2803C428.307 77.2803 446.04 82.227 461.44 93.8003C462.28 94.3603 463.306 93.8936 463.306 92.8669V85.027C463.306 82.787 465.173 80.9203 467.413 80.9203H509.413C511.653 80.9203 513.52 82.787 513.52 85.027ZM463.306 178.454C463.306 149.894 439.227 125.44 409.453 125.44C380.147 125.44 356.067 149.894 356.067 178.454C356.067 207.387 380.147 231.84 409.453 231.84C439.227 231.84 463.306 207.387 463.306 178.454Z" fill="#04049B"/>
<path d="M683.572 274.68C681.332 274.68 679.466 272.814 679.466 270.574V171.08C679.466 133.56 659.493 125.44 639.519 125.44C619.546 125.44 599.573 133.187 599.573 170.24V270.574C599.573 272.814 597.706 274.68 595.466 274.68H553.466C551.226 274.68 549.359 272.814 549.359 270.574V85.027C549.359 82.787 551.226 80.9203 553.466 80.9203H595.466C597.706 80.9203 599.573 82.787 599.573 85.027V92.9603C599.573 93.8936 600.599 94.4536 601.439 93.8936C612.079 86.0536 625.519 77.2803 650.533 77.2803C692.999 77.2803 729.679 102.107 729.679 162.96V270.574C729.679 272.814 727.812 274.68 725.572 274.68H683.572Z" fill="#04049B"/>
<path d="M884.613 270.48L813.68 190.494C812.933 189.747 811.626 190.214 811.626 191.24V270.574C811.626 272.814 809.853 274.68 807.52 274.68H765.613C763.28 274.68 761.506 272.814 761.506 270.574V5.88034C761.506 3.54701 763.28 1.77368 765.613 1.77368H807.52C809.853 1.77368 811.626 3.54701 811.626 5.88034V153.067C811.626 154.094 812.933 154.654 813.68 153.814L878.08 84.8403C880.506 82.4137 883.773 80.9204 887.226 80.9204H940.52C942.666 80.9204 943.786 83.5337 942.293 85.1203L863.986 166.694C862.586 168.28 862.493 170.707 863.893 172.294L950.786 270.574C952.186 272.16 951.066 274.68 948.92 274.68H893.946C890.4 274.68 886.946 273.187 884.613 270.48Z" fill="#04049B"/>
<path d="M271.88 240.987C252.56 265.72 223.44 280 191.987 280V231.747C208.414 231.747 223.72 224.28 233.8 211.307C251.907 188.16 247.8 154.747 224.654 136.64C214.947 129.08 203.747 125.44 191.987 125.44C168.187 125.44 154 140.654 137.667 161.467C114.427 191.24 57.1204 264.694 57.1204 264.694C49.3737 274.587 36.1203 278.6 24.1737 274.4C12.227 270.387 4.20044 259.094 4.20044 246.4V181.44H52.4537V192.36C52.4537 192.36 85.7737 149.614 100.707 130.574C126.094 98.0936 153.72 77.2803 192.08 77.2803C213.267 77.2803 234.92 84.0936 254.334 98.6536C299.134 132.16 306.32 196.934 271.88 240.987Z" fill="#04049B"/>
<path d="M271.88 240.987C252.56 265.72 223.44 280 191.987 280C135.987 280 90.5334 234.547 90.5334 178.547V158.667H138.693V178.547C138.693 207.854 162.587 231.747 191.987 231.747C208.413 231.747 223.72 224.28 233.8 211.307L271.88 240.987Z" fill="url(#paint0_linear_5600_10004)"/>
<path d="M138.787 158.667H90.5334V5.88034C90.5334 3.54701 92.3067 1.77368 94.64 1.77368H134.587C136.92 1.77368 138.787 3.54701 138.787 5.88034V158.667Z" fill="url(#paint1_linear_5600_10004)"/>
<path d="M28.28 56.56C12.6934 56.56 0 43.96 0 28.28C0 12.6933 12.6934 0 28.28 0C43.96 0 56.6533 12.6933 56.6533 28.28C56.6533 43.96 43.96 56.56 28.28 56.56Z" fill="#DC4F33"/>
<path d="M4.20044 77.2803H52.4537V192.36H4.20044V77.2803Z" fill="url(#paint2_linear_5600_10004)"/>
<defs>
<linearGradient id="paint0_linear_5600_10004" x1="187.65" y1="126.534" x2="254.191" y2="189.161" gradientUnits="userSpaceOnUse">
<stop stop-color="#04049B" stop-opacity="0"/>
<stop offset="1" stop-color="#04049B"/>
</linearGradient>
<linearGradient id="paint1_linear_5600_10004" x1="-140.539" y1="158.649" x2="-140.539" y2="1.75222" gradientUnits="userSpaceOnUse">
<stop stop-color="#04049B" stop-opacity="0"/>
<stop offset="0.809" stop-color="#04049B"/>
</linearGradient>
<linearGradient id="paint2_linear_5600_10004" x1="165.66" y1="77.2896" x2="165.66" y2="192.376" gradientUnits="userSpaceOnUse">
<stop offset="0.027" stop-color="#04049B" stop-opacity="0"/>
<stop offset="0.883" stop-color="#04049B"/>
</linearGradient>
</defs>
</svg>
