<svg width="25" height="24" viewBox="0 0 25 24" fill="none" xmlns="http://www.w3.org/2000/svg">
<path d="M21.3587 19.1191C20.0063 20.8505 17.9679 21.8501 15.7662 21.8501V18.4723C16.916 18.4723 17.9875 17.9497 18.6931 17.0415C19.9606 15.4213 19.6731 13.0823 18.0528 11.8149C17.3734 11.2857 16.5894 11.0309 15.7662 11.0309C14.1002 11.0309 13.1071 12.0958 11.9638 13.5527C10.337 15.6369 6.32549 20.7786 6.32549 20.7786C5.78322 21.4711 4.85549 21.7521 4.01922 21.4581C3.18295 21.1771 2.62109 20.3866 2.62109 19.4981V14.9509H5.99882V15.7153C5.99882 15.7153 8.33122 12.723 9.37655 11.3902C11.1536 9.1166 13.0875 7.65967 15.7727 7.65967C17.2558 7.65967 18.7715 8.1366 20.1304 9.1558C23.2664 11.5013 23.7695 16.0354 21.3587 19.1191Z" fill="#00006A"/>
<path d="M21.3583 19.1193C20.0059 20.8507 17.9675 21.8503 15.7658 21.8503C11.8458 21.8503 8.66406 18.6685 8.66406 14.7485V13.3569H12.0353V14.7485C12.0353 16.8 13.7078 18.4725 15.7658 18.4725C16.9157 18.4725 17.9871 17.9499 18.6927 17.0417L21.3583 19.1193Z" fill="url(#paint0_linear_3700_22335)"/>
<path d="M12.0418 13.3566H8.66406V2.66149C8.66406 2.49816 8.78819 2.37402 8.95152 2.37402H11.7478C11.9111 2.37402 12.0418 2.49816 12.0418 2.66149V13.3566Z" fill="url(#paint1_linear_3700_22335)"/>
<path d="M4.30773 6.2092C3.21666 6.2092 2.32812 5.3272 2.32812 4.2296C2.32812 3.13853 3.21666 2.25 4.30773 2.25C5.40533 2.25 6.29385 3.13853 6.29385 4.2296C6.29385 5.3272 5.40533 6.2092 4.30773 6.2092Z" fill="#DC4F33"/>
<path d="M2.62109 7.65967H5.99882V15.7153H2.62109V7.65967Z" fill="url(#paint2_linear_3700_22335)"/>
<defs>
<linearGradient id="paint0_linear_3700_22335" x1="15.4622" y1="11.1076" x2="20.1201" y2="15.4915" gradientUnits="userSpaceOnUse">
<stop stop-color="#04049B" stop-opacity="0"/>
<stop offset="1" stop-color="#04049B"/>
</linearGradient>
<linearGradient id="paint1_linear_3700_22335" x1="-7.51102" y1="13.3553" x2="-7.51102" y2="2.37252" gradientUnits="userSpaceOnUse">
<stop stop-color="#04049B" stop-opacity="0"/>
<stop offset="0.809" stop-color="#04049B"/>
</linearGradient>
<linearGradient id="paint2_linear_3700_22335" x1="13.9233" y1="7.66032" x2="13.9233" y2="15.7164" gradientUnits="userSpaceOnUse">
<stop offset="0.027" stop-color="#04049B" stop-opacity="0"/>
<stop offset="0.883" stop-color="#04049B"/>
</linearGradient>
</defs>
</svg>
