<svg width="56" height="16" viewBox="0 0 56 16" fill="none" xmlns="http://www.w3.org/2000/svg">
<path d="M8.03926 9.06665H5.24414V0.335985C5.24414 0.202651 5.34686 0.101318 5.48202 0.101318H7.79597C7.93113 0.101318 8.03926 0.202651 8.03926 0.335985V9.06665Z" fill="url(#paint0_linear_245_7602)"/>
<path d="M15.7488 13.7707C14.6296 15.184 12.9428 16 11.1209 16V13.2427C12.0724 13.2427 12.9591 12.816 13.543 12.0747C14.5918 10.752 14.3539 8.84268 13.0131 7.80802C12.4509 7.37602 11.8021 7.16802 11.1209 7.16802C9.74224 7.16802 8.92047 8.03735 7.97434 9.22668C6.62815 10.928 3.3086 15.1253 3.3086 15.1253C2.85987 15.6907 2.09215 15.92 1.40013 15.68C0.708111 15.4507 0.243164 14.8053 0.243164 14.08V10.368H3.03828V10.992C3.03828 10.992 4.96837 8.54935 5.8334 7.46135C7.30394 5.60535 8.90425 4.41602 11.1263 4.41602C12.3535 4.41602 13.6078 4.80535 14.7324 5.63735C17.3274 7.55202 17.7437 11.2534 15.7488 13.7707Z" fill="white"/>
<path d="M15.7488 13.7707C14.6297 15.184 12.9429 16 11.1209 16C7.87706 16 5.24414 13.4026 5.24414 10.2026V9.06665H8.03385V10.2026C8.03385 11.8773 9.41789 13.2426 11.1209 13.2426C12.0724 13.2426 12.9591 12.816 13.543 12.0747L15.7488 13.7707Z" fill="url(#paint1_linear_245_7602)"/>
<path fill-rule="evenodd" clip-rule="evenodd" d="M29.7463 4.85868V15.4614C29.7463 15.5947 29.6381 15.696 29.5084 15.696H27.0755C26.9457 15.696 26.8376 15.5947 26.8376 15.4614V15.1093C26.8376 15.056 26.7727 15.024 26.7295 15.0614C25.859 15.7227 24.8318 16 23.7181 16C20.4148 16 17.7656 13.3867 17.7656 10.1974C17.7656 6.98135 20.4148 4.41602 23.7181 4.41602C24.8102 4.41602 25.8374 4.69868 26.7295 5.36002C26.7781 5.39202 26.8376 5.36535 26.8376 5.30668V4.85868C26.8376 4.73068 26.9457 4.62402 27.0755 4.62402H29.5084C29.6381 4.62402 29.7463 4.73068 29.7463 4.85868ZM26.8376 10.1974C26.8376 8.56535 25.4427 7.16802 23.7181 7.16802C22.0205 7.16802 20.6256 8.56535 20.6256 10.1974C20.6256 11.8507 22.0205 13.248 23.7181 13.248C25.4427 13.248 26.8376 11.8507 26.8376 10.1974Z" fill="white"/>
<path d="M39.5967 15.696C39.4669 15.696 39.3588 15.5894 39.3588 15.4614V9.77602C39.3588 7.63202 38.2018 7.16802 37.0449 7.16802C35.8879 7.16802 34.7309 7.61068 34.7309 9.72802V15.4614C34.7309 15.5894 34.6228 15.696 34.493 15.696H32.0602C31.9304 15.696 31.8223 15.5894 31.8223 15.4614V4.85868C31.8223 4.73068 31.9304 4.62402 32.0602 4.62402H34.493C34.6228 4.62402 34.7309 4.73068 34.7309 4.85868V5.31202C34.7309 5.36535 34.7904 5.39735 34.8391 5.36535C35.4554 4.91735 36.2339 4.41602 37.6828 4.41602C40.1428 4.41602 42.2675 5.83468 42.2675 9.31201V15.4614C42.2675 15.5894 42.1593 15.696 42.0296 15.696H39.5967Z" fill="white"/>
<path d="M51.2424 15.456L47.1335 10.8853C47.0903 10.8427 47.0146 10.8693 47.0146 10.928V15.4613C47.0146 15.5893 46.9119 15.696 46.7767 15.696H44.3492C44.2141 15.696 44.1113 15.5893 44.1113 15.4613V0.335985C44.1113 0.202651 44.2141 0.101318 44.3492 0.101318H46.7767C46.9119 0.101318 47.0146 0.202651 47.0146 0.335985V8.74665C47.0146 8.80532 47.0903 8.83732 47.1335 8.78932L50.864 4.84799C51.0045 4.70932 51.1937 4.62399 51.3938 4.62399H54.4808C54.6052 4.62399 54.6701 4.77332 54.5836 4.86399L50.0476 9.52532C49.9665 9.61598 49.9611 9.75465 50.0422 9.84532L55.0755 15.4613C55.1566 15.552 55.0918 15.696 54.9674 15.696H51.783C51.5776 15.696 51.3776 15.6107 51.2424 15.456Z" fill="white"/>
<path d="M1.63815 3.232C0.735276 3.232 0 2.512 0 1.616C0 0.725333 0.735276 0 1.63815 0C2.54643 0 3.28169 0.725333 3.28169 1.616C3.28169 2.512 2.54643 3.232 1.63815 3.232Z" fill="white"/>
<path d="M0.243164 4.41602H3.03828V10.992H0.243164V4.41602Z" fill="url(#paint2_linear_245_7602)"/>
<defs>
<linearGradient id="paint0_linear_245_7602" x1="-8.14095" y1="9.06564" x2="-8.14095" y2="0.100092" gradientUnits="userSpaceOnUse">
<stop stop-color="white" stop-opacity="0"/>
<stop offset="0.809" stop-color="white"/>
</linearGradient>
<linearGradient id="paint1_linear_245_7602" x1="10.8697" y1="7.23049" x2="14.6748" y2="10.8609" gradientUnits="userSpaceOnUse">
<stop stop-color="#CDCDE7" stop-opacity="0"/>
<stop offset="1" stop-color="white"/>
</linearGradient>
<linearGradient id="paint2_linear_245_7602" x1="9.59588" y1="4.41655" x2="9.59588" y2="10.9929" gradientUnits="userSpaceOnUse">
<stop offset="0.027" stop-color="white" stop-opacity="0"/>
<stop offset="0.883" stop-color="white"/>
</linearGradient>
</defs>
</svg>
