<svg width="32" height="32" viewBox="0 0 32 32" fill="none" xmlns="http://www.w3.org/2000/svg">
<rect width="32" height="32" rx="16" fill="#F1F2F5"/>
<path d="M23.0006 15.9999C23.0022 16.205 22.9399 16.4055 22.8223 16.5735C22.7047 16.7415 22.5376 16.8687 22.3444 16.9374L18.3794 18.3793L16.9381 22.3437C16.8671 22.535 16.7392 22.7001 16.5716 22.8167C16.404 22.9332 16.2048 22.9957 16.0006 22.9957C15.7965 22.9957 15.5973 22.9332 15.4297 22.8167C15.2621 22.7001 15.1342 22.535 15.0631 22.3437L13.6213 18.3749L9.6569 16.9374C9.46552 16.8664 9.30047 16.7385 9.18391 16.5709C9.06736 16.4033 9.00488 16.2041 9.00488 15.9999C9.00488 15.7958 9.06736 15.5965 9.18391 15.4289C9.30047 15.2614 9.46552 15.1335 9.6569 15.0624L13.6256 13.6205L15.0631 9.65617C15.1342 9.46479 15.2621 9.29974 15.4297 9.18318C15.5973 9.06662 15.7965 9.00415 16.0006 9.00415C16.2048 9.00415 16.404 9.06662 16.5716 9.18318C16.7392 9.29974 16.8671 9.46479 16.9381 9.65617L18.38 13.6249L22.3444 15.0624C22.5376 15.1311 22.7047 15.2583 22.8223 15.4263C22.9399 15.5944 23.0022 15.7948 23.0006 15.9999Z" fill="#1721C9"/>
</svg>
