<svg width="49" height="49" viewBox="0 0 49 49" fill="none" xmlns="http://www.w3.org/2000/svg">
<rect x="0.5" y="0.5" width="48" height="48" rx="24" fill="white"/>
<path d="M35 24.5005C35.0006 24.7551 34.9353 25.0056 34.8105 25.2275C34.6856 25.4495 34.5055 25.6353 34.2875 25.767L20.78 34.0302C20.5523 34.1696 20.2914 34.2457 20.0244 34.2507C19.7575 34.2556 19.494 34.1892 19.2613 34.0583C19.0307 33.9294 18.8387 33.7414 18.7049 33.5137C18.5711 33.286 18.5004 33.0268 18.5 32.7627V16.2383C18.5004 15.9742 18.5711 15.7149 18.7049 15.4872C18.8387 15.2595 19.0307 15.0715 19.2613 14.9427C19.494 14.8117 19.7575 14.7453 20.0244 14.7503C20.2914 14.7552 20.5523 14.8313 20.78 14.9708L34.2875 23.2339C34.5055 23.3656 34.6856 23.5515 34.8105 23.7734C34.9353 23.9953 35.0006 24.2458 35 24.5005Z" fill="#1721C9"/>
</svg>
