<svg width="49" height="49" viewBox="0 0 49 49" fill="none" xmlns="http://www.w3.org/2000/svg">
<rect x="0.5" y="0.5" width="48" height="48" rx="24" fill="white"/>
<path d="M32.75 17H29V16.25C29 15.6533 28.7629 15.081 28.341 14.659C27.919 14.2371 27.3467 14 26.75 14H22.25C21.6533 14 21.081 14.2371 20.659 14.659C20.2371 15.081 20 15.6533 20 16.25V17H16.25C16.0511 17 15.8603 17.079 15.7197 17.2197C15.579 17.3603 15.5 17.5511 15.5 17.75C15.5 17.9489 15.579 18.1397 15.7197 18.2803C15.8603 18.421 16.0511 18.5 16.25 18.5H17V32C17 32.3978 17.158 32.7794 17.4393 33.0607C17.7206 33.342 18.1022 33.5 18.5 33.5H30.5C30.8978 33.5 31.2794 33.342 31.5607 33.0607C31.842 32.7794 32 32.3978 32 32V18.5H32.75C32.9489 18.5 33.1397 18.421 33.2803 18.2803C33.421 18.1397 33.5 17.9489 33.5 17.75C33.5 17.5511 33.421 17.3603 33.2803 17.2197C33.1397 17.079 32.9489 17 32.75 17ZM23 28.25C23 28.4489 22.921 28.6397 22.7803 28.7803C22.6397 28.921 22.4489 29 22.25 29C22.0511 29 21.8603 28.921 21.7197 28.7803C21.579 28.6397 21.5 28.4489 21.5 28.25V22.25C21.5 22.0511 21.579 21.8603 21.7197 21.7197C21.8603 21.579 22.0511 21.5 22.25 21.5C22.4489 21.5 22.6397 21.579 22.7803 21.7197C22.921 21.8603 23 22.0511 23 22.25V28.25ZM27.5 28.25C27.5 28.4489 27.421 28.6397 27.2803 28.7803C27.1397 28.921 26.9489 29 26.75 29C26.5511 29 26.3603 28.921 26.2197 28.7803C26.079 28.6397 26 28.4489 26 28.25V22.25C26 22.0511 26.079 21.8603 26.2197 21.7197C26.3603 21.579 26.5511 21.5 26.75 21.5C26.9489 21.5 27.1397 21.579 27.2803 21.7197C27.421 21.8603 27.5 22.0511 27.5 22.25V28.25ZM27.5 17H21.5V16.25C21.5 16.0511 21.579 15.8603 21.7197 15.7197C21.8603 15.579 22.0511 15.5 22.25 15.5H26.75C26.9489 15.5 27.1397 15.579 27.2803 15.7197C27.421 15.8603 27.5 16.0511 27.5 16.25V17Z" fill="#1721C9"/>
</svg>
