<svg width="49" height="49" viewBox="0 0 49 49" fill="none" xmlns="http://www.w3.org/2000/svg">
<rect x="0.5" y="0.5" width="48" height="48" rx="24" fill="white"/>
<path d="M33.8103 19.3791L29.6216 15.1895C29.4823 15.0501 29.3169 14.9396 29.1349 14.8642C28.9529 14.7888 28.7578 14.75 28.5608 14.75C28.3638 14.75 28.1687 14.7888 27.9867 14.8642C27.8047 14.9396 27.6393 15.0501 27.5 15.1895L15.9397 26.7507C15.7998 26.8895 15.6889 27.0547 15.6134 27.2367C15.5379 27.4188 15.4994 27.614 15.5 27.811V32.0007C15.5 32.3985 15.658 32.7801 15.9393 33.0614C16.2207 33.3427 16.6022 33.5007 17 33.5007H21.1897C21.3868 33.5013 21.582 33.4628 21.764 33.3873C21.946 33.3118 22.1112 33.2009 22.25 33.061L33.8103 21.5007C33.9496 21.3614 34.0602 21.196 34.1356 21.014C34.211 20.832 34.2498 20.6369 34.2498 20.4399C34.2498 20.2429 34.211 20.0478 34.1356 19.8658C34.0602 19.6838 33.9496 19.5184 33.8103 19.3791ZM30.5 22.6895L26.3103 18.5007L28.5603 16.2507L32.75 20.4395L30.5 22.6895Z" fill="#1721C9"/>
</svg>
