<svg width="49" height="48" viewBox="0 0 49 48" fill="none" xmlns="http://www.w3.org/2000/svg">
<rect x="0.5" width="48" height="48" rx="24" fill="#F1F3F5"/>
<path d="M34.25 24.0002V31.5002C34.25 32.4947 33.8549 33.4486 33.1517 34.1518C32.4484 34.8551 31.4946 35.2502 30.5 35.2502H25.25C25.0511 35.2502 24.8603 35.1712 24.7197 35.0305C24.579 34.8899 24.5 34.6991 24.5 34.5002C24.5 34.3013 24.579 34.1105 24.7197 33.9698C24.8603 33.8292 25.0511 33.7502 25.25 33.7502H30.5C31.0967 33.7502 31.669 33.5131 32.091 33.0912C32.5129 32.6692 32.75 32.0969 32.75 31.5002H30.5C29.9033 31.5002 29.331 31.2631 28.909 30.8412C28.4871 30.4192 28.25 29.8469 28.25 29.2502V25.5002C28.25 24.9034 28.4871 24.3311 28.909 23.9092C29.331 23.4872 29.9033 23.2502 30.5 23.2502H32.7172C32.5753 21.6911 31.9926 20.2045 31.0374 18.9642C30.0821 17.7238 28.7936 16.7809 27.3225 16.2455C25.8513 15.7101 24.2581 15.6044 22.7291 15.9406C21.2001 16.2769 19.7983 17.0413 18.6875 18.1446C17.3062 19.5076 16.4543 21.3171 16.2838 23.2502H18.5C19.0967 23.2502 19.669 23.4872 20.091 23.9092C20.5129 24.3311 20.75 24.9034 20.75 25.5002V29.2502C20.75 29.8469 20.5129 30.4192 20.091 30.8412C19.669 31.2631 19.0967 31.5002 18.5 31.5002H17C16.4033 31.5002 15.831 31.2631 15.409 30.8412C14.9871 30.4192 14.75 29.8469 14.75 29.2502V24.0002C14.7521 22.0688 15.3271 20.1815 16.4023 18.5771C17.4775 16.9728 19.0046 15.7234 20.7901 14.9873C22.5757 14.2511 24.5395 14.0613 26.433 14.4417C28.3265 14.8222 30.0646 15.7559 31.4272 17.1246C32.3268 18.0286 33.0393 19.1013 33.5237 20.2811C34.0081 21.461 34.2549 22.7248 34.25 24.0002Z" fill="#1721C9"/>
</svg>
