<svg width="49" height="49" viewBox="0 0 49 49" fill="none" xmlns="http://www.w3.org/2000/svg">
<rect x="0.5" y="0.5" width="48" height="48" rx="24" fill="white"/>
<path d="M24.5 14.75C22.5716 14.75 20.6866 15.3218 19.0832 16.3932C17.4798 17.4645 16.2301 18.9873 15.4922 20.7688C14.7542 22.5504 14.5611 24.5108 14.9373 26.4021C15.3136 28.2934 16.2422 30.0307 17.6057 31.3943C18.9693 32.7579 20.7066 33.6865 22.5979 34.0627C24.4892 34.4389 26.4496 34.2458 28.2312 33.5078C30.0127 32.7699 31.5355 31.5202 32.6068 29.9168C33.6782 28.3134 34.25 26.4284 34.25 24.5C34.2468 21.9151 33.2185 19.4371 31.3907 17.6093C29.563 15.7815 27.0849 14.7532 24.5 14.75ZM23 27.5C23 27.6989 22.921 27.8897 22.7803 28.0303C22.6397 28.171 22.4489 28.25 22.25 28.25C22.0511 28.25 21.8603 28.171 21.7197 28.0303C21.579 27.8897 21.5 27.6989 21.5 27.5V21.5C21.5 21.3011 21.579 21.1103 21.7197 20.9697C21.8603 20.829 22.0511 20.75 22.25 20.75C22.4489 20.75 22.6397 20.829 22.7803 20.9697C22.921 21.1103 23 21.3011 23 21.5V27.5ZM27.5 27.5C27.5 27.6989 27.421 27.8897 27.2803 28.0303C27.1397 28.171 26.9489 28.25 26.75 28.25C26.5511 28.25 26.3603 28.171 26.2197 28.0303C26.079 27.8897 26 27.6989 26 27.5V21.5C26 21.3011 26.079 21.1103 26.2197 20.9697C26.3603 20.829 26.5511 20.75 26.75 20.75C26.9489 20.75 27.1397 20.829 27.2803 20.9697C27.421 21.1103 27.5 21.3011 27.5 21.5V27.5Z" fill="#1721C9"/>
</svg>
