<svg width="12" height="14" viewBox="0 0 12 14" fill="none" xmlns="http://www.w3.org/2000/svg">
<path d="M12.0003 11.4995C12.0003 11.8279 11.9285 12.1523 11.7898 12.45C11.6511 12.7477 11.4489 13.0114 11.1975 13.2226C10.946 13.4338 10.6514 13.5874 10.3342 13.6727C10.0171 13.7579 9.68509 13.7727 9.36163 13.7159C9.03816 13.6592 8.73103 13.5324 8.46181 13.3443C8.19259 13.1562 7.96779 12.9115 7.80322 12.6273C7.63864 12.3431 7.53827 12.0264 7.50915 11.6993C7.48003 11.3721 7.52287 11.0426 7.63466 10.7338L4.32217 8.60571C4.0058 8.91604 3.60483 9.12603 3.16957 9.20934C2.73431 9.29266 2.28414 9.24558 1.87554 9.07402C1.46693 8.90246 1.11809 8.61405 0.872769 8.24498C0.62745 7.87592 0.496582 7.44262 0.496582 6.99946C0.496582 6.5563 0.62745 6.12301 0.872769 5.75394C1.11809 5.38487 1.46693 5.09647 1.87554 4.92491C2.28414 4.75334 2.73431 4.70627 3.16957 4.78958C3.60483 4.87289 4.0058 5.08288 4.32217 5.39321L7.63466 3.26821C7.44498 2.74699 7.454 2.17415 7.65998 1.65916C7.86597 1.14416 8.25449 0.723118 8.7513 0.47648C9.24811 0.229842 9.81838 0.174902 10.3531 0.322159C10.8879 0.469416 11.3496 0.808544 11.6502 1.27474C11.9507 1.74094 12.0689 2.30152 11.9822 2.84937C11.8955 3.39722 11.61 3.89392 11.1802 4.24456C10.7505 4.5952 10.2066 4.7752 9.65248 4.75017C9.09838 4.72513 8.57293 4.49681 8.17654 4.10884L4.86404 6.23696C5.04307 6.73168 5.04307 7.27349 4.86404 7.76821L8.17654 9.89634C8.49281 9.58681 8.89332 9.37742 9.32798 9.29437C9.76264 9.21131 10.2121 9.25826 10.6203 9.42937C11.0284 9.60047 11.377 9.88811 11.6224 10.2563C11.8679 10.6245 11.9993 11.0569 12.0003 11.4995Z" fill="#0D0F2E"/>
</svg>
