<svg width="16" height="16" viewBox="0 0 16 16" fill="none" xmlns="http://www.w3.org/2000/svg">
<path d="M15.5005 7.99999C15.5005 8.1989 15.4215 8.38967 15.2809 8.53032C15.1402 8.67097 14.9495 8.74999 14.7505 8.74999H3.0609L8.53122 14.2194C8.6009 14.289 8.65617 14.3718 8.69389 14.4628C8.7316 14.5539 8.75101 14.6514 8.75101 14.75C8.75101 14.8485 8.7316 14.9461 8.69389 15.0372C8.65617 15.1282 8.6009 15.2109 8.53122 15.2806C8.46153 15.3503 8.37881 15.4056 8.28776 15.4433C8.19672 15.481 8.09914 15.5004 8.00059 15.5004C7.90204 15.5004 7.80446 15.481 7.71342 15.4433C7.62237 15.4056 7.53965 15.3503 7.46996 15.2806L0.719965 8.53061C0.650233 8.46096 0.594913 8.37824 0.55717 8.2872C0.519427 8.19615 0.5 8.09855 0.5 7.99999C0.5 7.90143 0.519427 7.80383 0.55717 7.71278C0.594913 7.62174 0.650233 7.53902 0.719965 7.46936L7.46996 0.719365C7.6107 0.578634 7.80157 0.499573 8.00059 0.499573C8.19961 0.499573 8.39048 0.578634 8.53122 0.719365C8.67195 0.860095 8.75101 1.05097 8.75101 1.24999C8.75101 1.44901 8.67195 1.63988 8.53122 1.78061L3.0609 7.24999H14.7505C14.9495 7.24999 15.1402 7.32901 15.2809 7.46966C15.4215 7.61031 15.5005 7.80108 15.5005 7.99999Z" fill="#0D0F2E"/>
</svg>
