<svg width="40" height="40" viewBox="0 0 40 40" fill="none" xmlns="http://www.w3.org/2000/svg">
<rect width="40" height="40" rx="20" fill="#F5F5F5"/>
<path d="M28.205 26.4931C28.2538 26.6272 28.2633 26.7725 28.2324 26.9118C28.2015 27.0511 28.1315 27.1787 28.0306 27.2797L25.7806 29.5297C25.711 29.5995 25.6283 29.6548 25.5372 29.6926C25.4462 29.7304 25.3486 29.7499 25.25 29.75C25.2253 29.7514 25.2006 29.7514 25.1759 29.75C25.0655 29.7391 24.9589 29.7039 24.8637 29.6468C24.7685 29.5897 24.6872 29.5123 24.6256 29.42L20.4941 23.2212L18.5 25.2115V27.5C18.4999 27.6986 18.421 27.8891 18.2806 28.0297C18.2806 28.0297 16.9681 29.3478 16.7919 29.5184C16.7186 29.5951 16.6297 29.6552 16.5312 29.6947C16.3477 29.7694 16.142 29.7685 15.9591 29.6921C15.7763 29.6157 15.6311 29.47 15.5553 29.2868L15.5497 29.2728L14.1716 25.8265L10.7187 24.4456C10.6036 24.3995 10.5016 24.3256 10.422 24.2304C10.3424 24.1353 10.2877 24.0218 10.2627 23.9003C10.2377 23.7788 10.2432 23.653 10.2788 23.5342C10.3144 23.4153 10.3789 23.3071 10.4666 23.2193L11.9666 21.7193C12.0366 21.6494 12.1198 21.594 12.2113 21.5563C12.3029 21.5187 12.401 21.4995 12.5 21.5H14.7875L16.7816 19.5059L10.5837 15.3734C10.4913 15.3119 10.4137 15.2306 10.3565 15.1354C10.2993 15.0402 10.2639 14.9335 10.253 14.823C10.2421 14.7125 10.2558 14.6009 10.2932 14.4964C10.3306 14.3918 10.3908 14.2969 10.4694 14.2184L12.7194 11.9684C12.8203 11.8675 12.9479 11.7975 13.0872 11.7666C13.2266 11.7358 13.3718 11.7453 13.5059 11.794L21.5628 14.7237L24.5187 11.7678C25.0111 11.2755 25.6788 10.9989 26.375 10.9989C26.7197 10.9989 27.0611 11.0668 27.3796 11.1987C27.6981 11.3307 27.9875 11.524 28.2312 11.7678C28.475 12.0116 28.6684 12.3009 28.8003 12.6194C28.9322 12.9379 29.0001 13.2793 29.0001 13.624C29.0001 13.9688 28.9322 14.3101 28.8003 14.6286C28.6684 14.9471 28.475 15.2365 28.2312 15.4803L25.2753 18.4362L28.205 26.4931Z" fill="#1721C9"/>
</svg>
