<svg width="145" height="144" viewBox="0 0 145 144" fill="none" xmlns="http://www.w3.org/2000/svg">
<circle opacity="0.03" cx="72.5" cy="72" r="72" fill="white"/>
<circle opacity="0.05" cx="72.5" cy="72" r="60" fill="white"/>
<ellipse opacity="0.07" cx="72.4727" cy="71.8281" rx="48" ry="48" fill="white"/>
<path d="M64.5 55H81.5V91H64.5V55Z" fill="white"/>
<path fill-rule="evenodd" clip-rule="evenodd" d="M72 46C66.8577 46 61.8309 47.5249 57.5552 50.3818C53.2795 53.2387 49.947 57.2994 47.9791 62.0502C46.0113 66.8011 45.4964 72.0288 46.4996 77.0723C47.5028 82.1159 49.9791 86.7486 53.6152 90.3848C57.2514 94.0209 61.8842 96.4972 66.9277 97.5004C71.9712 98.5036 77.1989 97.9887 81.9498 96.0209C86.7007 94.053 90.7613 90.7205 93.6182 86.4448C96.4751 82.1691 98 77.1423 98 72C97.9927 65.1066 95.2511 58.4976 90.3767 53.6233C85.5024 48.7489 78.8934 46.0073 72 46ZM70 60C70 59.4696 70.2107 58.9609 70.5858 58.5858C70.9609 58.2107 71.4696 58 72 58C72.5304 58 73.0392 58.2107 73.4142 58.5858C73.7893 58.9609 74 59.4696 74 60V74C74 74.5304 73.7893 75.0391 73.4142 75.4142C73.0392 75.7893 72.5304 76 72 76C71.4696 76 70.9609 75.7893 70.5858 75.4142C70.2107 75.0391 70 74.5304 70 74V60ZM72 86C71.4067 86 70.8266 85.8241 70.3333 85.4944C69.84 85.1648 69.4554 84.6962 69.2284 84.148C69.0013 83.5999 68.9419 82.9967 69.0577 82.4147C69.1734 81.8328 69.4591 81.2982 69.8787 80.8787C70.2982 80.4591 70.8328 80.1734 71.4147 80.0576C71.9967 79.9419 72.5999 80.0013 73.1481 80.2284C73.6962 80.4554 74.1648 80.8399 74.4944 81.3333C74.8241 81.8266 75 82.4067 75 83C75 83.7957 74.6839 84.5587 74.1213 85.1213C73.5587 85.6839 72.7957 86 72 86Z" fill="#E92522"/>
</svg>
