<svg width="49" height="48" viewBox="0 0 49 48" fill="none" xmlns="http://www.w3.org/2000/svg">
<rect x="0.5" width="48" height="48" rx="24" fill="#C5F4CC"/>
<path fill-rule="evenodd" clip-rule="evenodd" d="M12.3694 18.3096C12.2129 17.9261 12.3968 17.4883 12.7803 17.3317L28.1181 11.0697C29.7799 10.3912 31.677 11.1883 32.3555 12.8501L34.3221 17.667C34.4786 18.0504 34.2947 18.4882 33.9112 18.6448C33.5277 18.8014 33.0899 18.6174 32.9333 18.2339L30.9667 13.4171C30.6014 12.5223 29.5799 12.0931 28.6851 12.4584L13.3473 18.7205C12.9638 18.877 12.526 18.6931 12.3694 18.3096Z" fill="#097721"/>
<path d="M34.5 26.6484C34.5 27.753 33.6046 28.6484 32.5 28.6484C31.3954 28.6484 30.5 27.753 30.5 26.6484C30.5 25.5439 31.3954 24.6484 32.5 24.6484C33.6046 24.6484 34.5 25.5439 34.5 26.6484Z" fill="#097721"/>
<path fill-rule="evenodd" clip-rule="evenodd" d="M10.498 19.5664C10.498 18.3238 11.5054 17.3164 12.748 17.3164H36.2757C37.5183 17.3164 38.5257 18.3238 38.5257 19.5664V33.7292C38.5257 34.9719 37.5183 35.9792 36.2757 35.9792H12.748C11.5054 35.9792 10.498 34.9719 10.498 33.7292V19.5664ZM12.748 18.8164C12.3338 18.8164 11.998 19.1522 11.998 19.5664V33.7292C11.998 34.1435 12.3338 34.4792 12.748 34.4792H36.2757C36.6899 34.4792 37.0257 34.1435 37.0257 33.7292V19.5664C37.0257 19.1522 36.6899 18.8164 36.2757 18.8164H12.748Z" fill="#097721"/>
</svg>
