<svg width="25" height="24" viewBox="0 0 25 24" fill="none" xmlns="http://www.w3.org/2000/svg">
<path d="M23.625 19.5C23.625 19.6989 23.546 19.8897 23.4053 20.0303C23.2647 20.171 23.0739 20.25 22.875 20.25H1.875C1.67609 20.25 1.48532 20.171 1.34467 20.0303C1.20402 19.8897 1.125 19.6989 1.125 19.5C1.125 19.3011 1.20402 19.1103 1.34467 18.9697C1.48532 18.829 1.67609 18.75 1.875 18.75H22.875C23.0739 18.75 23.2647 18.829 23.4053 18.9697C23.546 19.1103 23.625 19.3011 23.625 19.5ZM1.90312 9.20436C1.85852 9.04707 1.86652 8.87952 1.92593 8.72721C1.98533 8.57489 2.09287 8.44616 2.23219 8.36061L11.9822 2.36061C12.1003 2.28797 12.2363 2.24951 12.375 2.24951C12.5137 2.24951 12.6497 2.28797 12.7678 2.36061L22.5178 8.36061C22.6572 8.44606 22.7648 8.5747 22.8243 8.72695C22.8838 8.8792 22.892 9.04673 22.8475 9.20403C22.803 9.36133 22.7084 9.4998 22.5779 9.59835C22.4475 9.6969 22.2885 9.75015 22.125 9.74998H19.875V15.75H21.375C21.5739 15.75 21.7647 15.829 21.9053 15.9697C22.046 16.1103 22.125 16.3011 22.125 16.5C22.125 16.6989 22.046 16.8897 21.9053 17.0303C21.7647 17.171 21.5739 17.25 21.375 17.25H3.375C3.17609 17.25 2.98532 17.171 2.84467 17.0303C2.70402 16.8897 2.625 16.6989 2.625 16.5C2.625 16.3011 2.70402 16.1103 2.84467 15.9697C2.98532 15.829 3.17609 15.75 3.375 15.75H4.875V9.74998H2.625C2.46168 9.75004 2.3028 9.69678 2.17251 9.5983C2.04221 9.49982 1.94763 9.3615 1.90312 9.20436ZM13.875 15C13.875 15.1989 13.954 15.3897 14.0947 15.5303C14.2353 15.671 14.4261 15.75 14.625 15.75C14.8239 15.75 15.0147 15.671 15.1553 15.5303C15.296 15.3897 15.375 15.1989 15.375 15V10.5C15.375 10.3011 15.296 10.1103 15.1553 9.96965C15.0147 9.829 14.8239 9.74998 14.625 9.74998C14.4261 9.74998 14.2353 9.829 14.0947 9.96965C13.954 10.1103 13.875 10.3011 13.875 10.5V15ZM9.375 15C9.375 15.1989 9.45402 15.3897 9.59467 15.5303C9.73532 15.671 9.92609 15.75 10.125 15.75C10.3239 15.75 10.5147 15.671 10.6553 15.5303C10.796 15.3897 10.875 15.1989 10.875 15V10.5C10.875 10.3011 10.796 10.1103 10.6553 9.96965C10.5147 9.829 10.3239 9.74998 10.125 9.74998C9.92609 9.74998 9.73532 9.829 9.59467 9.96965C9.45402 10.1103 9.375 10.3011 9.375 10.5V15Z" fill="#1721C9"/>
</svg>
