<svg width="25" height="24" viewBox="0 0 25 24" fill="none" xmlns="http://www.w3.org/2000/svg">
<path fill-rule="evenodd" clip-rule="evenodd" d="M2.625 2.5C2.625 2.08579 2.96079 1.75 3.375 1.75H21.375C21.7892 1.75 22.125 2.08579 22.125 2.5C22.125 2.91421 21.7892 3.25 21.375 3.25H3.375C2.96079 3.25 2.625 2.91421 2.625 2.5Z" fill="#1721C9"/>
<path fill-rule="evenodd" clip-rule="evenodd" d="M5.375 4.75C4.4085 4.75 3.625 5.5335 3.625 6.5V17.5C3.625 20.1234 5.75165 22.25 8.375 22.25H16.375C18.9984 22.25 21.125 20.1234 21.125 17.5V6.5C21.125 5.5335 20.3415 4.75 19.375 4.75H5.375ZM9.875 16.25C9.46079 16.25 9.125 16.5858 9.125 17C9.125 17.4142 9.46079 17.75 9.875 17.75H14.875C15.2892 17.75 15.625 17.4142 15.625 17C15.625 16.5858 15.2892 16.25 14.875 16.25H9.875ZM8.125 14C8.125 13.5858 8.46079 13.25 8.875 13.25H15.875C16.2892 13.25 16.625 13.5858 16.625 14C16.625 14.4142 16.2892 14.75 15.875 14.75H8.875C8.46079 14.75 8.125 14.4142 8.125 14ZM7.875 10.25C7.46079 10.25 7.125 10.5858 7.125 11C7.125 11.4142 7.46079 11.75 7.875 11.75H16.875C17.2892 11.75 17.625 11.4142 17.625 11C17.625 10.5858 17.2892 10.25 16.875 10.25H7.875Z" fill="#1721C9"/>
</svg>
