<svg width="17" height="16" viewBox="0 0 17 16" fill="none" xmlns="http://www.w3.org/2000/svg">
<path d="M14 2V12C14 12.1326 13.9473 12.2598 13.8536 12.3536C13.7598 12.4473 13.6326 12.5 13.5 12.5H5C4.73478 12.5 4.48043 12.6054 4.29289 12.7929C4.10536 12.9804 4 13.2348 4 13.5H12.5C12.6326 13.5 12.7598 13.5527 12.8536 13.6464C12.9473 13.7402 13 13.8674 13 14C13 14.1326 12.9473 14.2598 12.8536 14.3536C12.7598 14.4473 12.6326 14.5 12.5 14.5H3.5C3.36739 14.5 3.24021 14.4473 3.14645 14.3536C3.05268 14.2598 3 14.1326 3 14V3.5C3 2.96957 3.21071 2.46086 3.58579 2.08579C3.96086 1.71071 4.46957 1.5 5 1.5H13.5C13.6326 1.5 13.7598 1.55268 13.8536 1.64645C13.9473 1.74021 14 1.86739 14 2Z" fill="#1721C9"/>
</svg>
