<svg width="41" height="40" viewBox="0 0 41 40" fill="none" xmlns="http://www.w3.org/2000/svg">
<rect x="0.625" width="40" height="40" rx="20" fill="#F5F5F5"/>
<path d="M31.875 15.5V17.75C31.875 17.9489 31.796 18.1397 31.6553 18.2803C31.5147 18.421 31.3239 18.5 31.125 18.5C30.9261 18.5 30.7353 18.421 30.5947 18.2803C30.454 18.1397 30.375 17.9489 30.375 17.75V15.5C30.375 15.3011 30.454 15.1103 30.5947 14.9697C30.7353 14.829 30.9261 14.75 31.125 14.75C31.3239 14.75 31.5147 14.829 31.6553 14.9697C31.796 15.1103 31.875 15.3011 31.875 15.5ZM10.125 14.75C9.92609 14.75 9.73532 14.829 9.59467 14.9697C9.45402 15.1103 9.375 15.3011 9.375 15.5V17.75C9.375 17.9489 9.45402 18.1397 9.59467 18.2803C9.73532 18.421 9.92609 18.5 10.125 18.5C10.3239 18.5 10.5147 18.421 10.6553 18.2803C10.796 18.1397 10.875 17.9489 10.875 17.75V15.5C10.875 15.3011 10.796 15.1103 10.6553 14.9697C10.5147 14.829 10.3239 14.75 10.125 14.75ZM28.875 14V27.5C28.875 27.8978 28.717 28.2794 28.4357 28.5607C28.1544 28.842 27.7728 29 27.375 29H25.125C24.7272 29 24.3456 28.842 24.0643 28.5607C23.783 28.2794 23.625 27.8978 23.625 27.5V26.75H17.625V27.5C17.625 27.8978 17.467 28.2794 17.1857 28.5607C16.9044 28.842 16.5228 29 16.125 29H13.875C13.4772 29 13.0956 28.842 12.8143 28.5607C12.533 28.2794 12.375 27.8978 12.375 27.5V14C12.375 13.2044 12.6911 12.4413 13.2537 11.8787C13.8163 11.3161 14.5794 11 15.375 11H25.875C26.6706 11 27.4337 11.3161 27.9963 11.8787C28.5589 12.4413 28.875 13.2044 28.875 14ZM18.375 21.875C18.375 21.6525 18.309 21.435 18.1854 21.25C18.0618 21.065 17.8861 20.9208 17.6805 20.8356C17.475 20.7505 17.2488 20.7282 17.0305 20.7716C16.8123 20.815 16.6118 20.9222 16.4545 21.0795C16.2972 21.2368 16.19 21.4373 16.1466 21.6555C16.1032 21.8738 16.1255 22.1 16.2106 22.3055C16.2958 22.5111 16.44 22.6868 16.625 22.8104C16.81 22.934 17.0275 23 17.25 23C17.5484 23 17.8345 22.8815 18.0455 22.6705C18.2565 22.4595 18.375 22.1734 18.375 21.875ZM25.125 21.875C25.125 21.6525 25.059 21.435 24.9354 21.25C24.8118 21.065 24.6361 20.9208 24.4305 20.8356C24.225 20.7505 23.9988 20.7282 23.7805 20.7716C23.5623 20.815 23.3618 20.9222 23.2045 21.0795C23.0472 21.2368 22.94 21.4373 22.8966 21.6555C22.8532 21.8738 22.8755 22.1 22.9606 22.3055C23.0458 22.5111 23.19 22.6868 23.375 22.8104C23.56 22.934 23.7775 23 24 23C24.2984 23 24.5845 22.8815 24.7955 22.6705C25.0065 22.4595 25.125 22.1734 25.125 21.875ZM27.375 14.75H13.875V18.5H27.375V14.75Z" fill="#1721C9"/>
</svg>
