<svg width="25" height="24" viewBox="0 0 25 24" fill="none" xmlns="http://www.w3.org/2000/svg">
<path d="M21.875 4.5H3.875C3.47718 4.5 3.09564 4.65804 2.81434 4.93934C2.53304 5.22064 2.375 5.60218 2.375 6V18C2.375 18.3978 2.53304 18.7794 2.81434 19.0607C3.09564 19.342 3.47718 19.5 3.875 19.5H21.875C22.2728 19.5 22.6544 19.342 22.9357 19.0607C23.217 18.7794 23.375 18.3978 23.375 18V6C23.375 5.60218 23.217 5.22064 22.9357 4.93934C22.6544 4.65804 22.2728 4.5 21.875 4.5ZM13.625 16.5H12.125C11.9261 16.5 11.7353 16.421 11.5947 16.2803C11.454 16.1397 11.375 15.9489 11.375 15.75C11.375 15.5511 11.454 15.3603 11.5947 15.2197C11.7353 15.079 11.9261 15 12.125 15H13.625C13.8239 15 14.0147 15.079 14.1553 15.2197C14.296 15.3603 14.375 15.5511 14.375 15.75C14.375 15.9489 14.296 16.1397 14.1553 16.2803C14.0147 16.421 13.8239 16.5 13.625 16.5ZM19.625 16.5H16.625C16.4261 16.5 16.2353 16.421 16.0947 16.2803C15.954 16.1397 15.875 15.9489 15.875 15.75C15.875 15.5511 15.954 15.3603 16.0947 15.2197C16.2353 15.079 16.4261 15 16.625 15H19.625C19.8239 15 20.0147 15.079 20.1553 15.2197C20.296 15.3603 20.375 15.5511 20.375 15.75C20.375 15.9489 20.296 16.1397 20.1553 16.2803C20.0147 16.421 19.8239 16.5 19.625 16.5ZM3.875 8.25V6H21.875V8.25H3.875Z" fill="#1721C9"/>
</svg>
