<svg width="16" height="16" viewBox="0 0 16 16" fill="none" xmlns="http://www.w3.org/2000/svg">
<path d="M12.38 6.21141L8.28941 10.3778C8.25142 10.4165 8.20631 10.4473 8.15665 10.4682C8.10699 10.4892 8.05376 10.5 8 10.5C7.94624 10.5 7.89301 10.4892 7.84335 10.4682C7.79369 10.4473 7.74858 10.4165 7.71059 10.3778L3.61997 6.21141C3.5627 6.15314 3.52369 6.07888 3.50788 5.99801C3.49207 5.91715 3.50017 5.83333 3.53116 5.75715C3.56214 5.68098 3.61462 5.61589 3.68195 5.57011C3.74928 5.52434 3.82843 5.49994 3.90938 5.5H12.0906C12.1716 5.49994 12.2507 5.52434 12.318 5.57011C12.3854 5.61589 12.4379 5.68098 12.4688 5.75715C12.4998 5.83333 12.5079 5.91715 12.4921 5.99801C12.4763 6.07888 12.4373 6.15314 12.38 6.21141Z" fill="#454769"/>
</svg>
