<svg width="20" height="20" viewBox="0 0 20 20" fill="none" xmlns="http://www.w3.org/2000/svg">
<path d="M16.6667 0H4.16667C3.24788 0 2.49999 0.747461 2.49999 1.66668V3.33336H2.08331C1.85299 3.33336 1.66663 3.51973 1.66663 3.75004C1.66663 3.98035 1.85299 4.16672 2.08331 4.16672H3.74999C3.97948 4.16672 4.16667 4.35348 4.16667 4.5834C4.16667 4.81328 3.97948 5.00008 3.74999 5.00008H2.91667C2.68635 5 2.49999 5.18637 2.49999 5.41668V7.5H2.08331C1.85299 7.5 1.66663 7.68637 1.66663 7.91668C1.66663 8.14699 1.85299 8.33336 2.08331 8.33336H3.74999C3.97948 8.33336 4.16667 8.52012 4.16667 8.75004C4.16667 8.97996 3.97948 9.16668 3.74999 9.16668H2.91667C2.68635 9.16668 2.49999 9.35305 2.49999 9.58336V11.6667H2.08331C1.85299 11.6667 1.66663 11.853 1.66663 12.0834C1.66663 12.3137 1.85299 12.5 2.08331 12.5H3.74999C3.97948 12.5 4.16667 12.6868 4.16667 12.9167C4.16667 13.1466 3.97948 13.3334 3.74999 13.3334H2.91667C2.68635 13.3333 2.49999 13.5197 2.49999 13.75V15.8333H2.08331C1.85299 15.8333 1.66663 16.0197 1.66663 16.25C1.66663 16.4803 1.85299 16.6667 2.08331 16.6667H3.74999C3.97948 16.6667 4.16667 16.8534 4.16667 17.0834C4.16667 17.3132 3.97948 17.5 3.74999 17.5H2.91667C2.68635 17.5 2.49999 17.6864 2.49999 17.9167V18.3334C2.49999 19.2525 3.24788 20 4.16667 20H16.6667C17.5855 20 18.3333 19.2525 18.3333 18.3333V1.66668C18.3333 0.747461 17.5855 0 16.6667 0ZM15.8333 13.2405C15.8333 13.7512 15.4174 14.1666 14.9072 14.1666C9.90397 14.1666 5.83331 10.096 5.83331 5.09273C5.83331 4.58207 6.24917 4.16664 6.7594 4.16664H8.54163C9.0519 4.16664 9.46772 4.58207 9.46772 5.09273C9.46772 5.67137 9.55807 6.23898 9.73627 6.78055C9.84288 7.11828 9.75499 7.47797 9.50842 7.72457L8.77842 8.69664C9.40588 9.84938 10.1415 10.5851 11.3028 11.2207L12.3185 10.4537C12.5235 10.2441 12.8938 10.1562 13.225 10.2702C13.7605 10.4468 14.3285 10.5375 14.9072 10.5375C15.4174 10.5375 15.8333 10.9529 15.8333 11.4636L15.8333 13.2405Z" fill="black"/>
</svg>
