<svg width="24" height="24" viewBox="0 0 24 24" fill="none" xmlns="http://www.w3.org/2000/svg">
<path fill-rule="evenodd" clip-rule="evenodd" d="M4.22676 7.23259C4.5291 6.92247 5.01929 6.92247 5.32163 7.23259L12 14.0828L18.6784 7.23259C18.9807 6.92247 19.4709 6.92247 19.7732 7.23259C20.0756 7.54271 20.0756 8.04552 19.7732 8.35564L12.5474 15.7674C12.2451 16.0775 11.7549 16.0775 11.4526 15.7674L4.22676 8.35564C3.92441 8.04552 3.92441 7.54271 4.22676 7.23259Z" fill="#213051"/>
<path fill-rule="evenodd" clip-rule="evenodd" d="M19.7732 7.23259C20.0756 7.54271 20.0756 8.04552 19.7732 8.35564L12.5474 15.7674C12.2451 16.0775 11.7549 16.0775 11.4526 15.7674L4.22676 8.35564C3.92441 8.04552 3.92441 7.54271 4.22676 7.23259C4.5291 6.92247 5.01929 6.92247 5.32163 7.23259L12 14.0828L18.6784 7.23259C18.9807 6.92247 19.4709 6.92247 19.7732 7.23259ZM12 13.7247L18.4994 7.05807C18.8998 6.64731 19.5518 6.64731 19.9523 7.05808C20.3492 7.46529 20.3492 8.12295 19.9523 8.53016L12.7264 15.9419C12.326 16.3527 11.674 16.3527 11.2736 15.9419L4.04775 8.53016C3.65075 8.12295 3.65075 7.46529 4.04775 7.05807C4.44821 6.64731 5.10018 6.64731 5.50064 7.05807L12 13.7247Z" fill="#213051"/>
</svg>
