<svg width="24" height="25" viewBox="0 0 24 25" fill="none" xmlns="http://www.w3.org/2000/svg">
<path d="M18.75 15.4929C18.75 16.1023 18.0628 16.6179 17.25 16.6179C16.4372 16.6179 15.75 16.1023 15.75 15.4929C15.75 14.8835 16.4372 14.3679 17.25 14.3679C18.0628 14.3679 18.75 14.8835 18.75 15.4929ZM6.90094 13.6179H10.3491L8.625 9.54261L6.90094 13.6179ZM21.75 6.11792V19.6179C21.75 20.0157 21.592 20.3973 21.3107 20.6786C21.0294 20.9599 20.6478 21.1179 20.25 21.1179H3.75C3.35218 21.1179 2.97064 20.9599 2.68934 20.6786C2.40804 20.3973 2.25 20.0157 2.25 19.6179V6.11792C2.25 5.7201 2.40804 5.33856 2.68934 5.05726C2.97064 4.77596 3.35218 4.61792 3.75 4.61792H20.25C20.6478 4.61792 21.0294 4.77596 21.3107 5.05726C21.592 5.33856 21.75 5.7201 21.75 6.11792ZM13.4409 17.0754L9.31594 7.32542C9.25858 7.18957 9.16244 7.07364 9.03955 6.99213C8.91666 6.91062 8.77247 6.86715 8.625 6.86715C8.47753 6.86715 8.33334 6.91062 8.21045 6.99213C8.08756 7.07364 7.99142 7.18957 7.93406 7.32542L3.80906 17.0754C3.73149 17.2587 3.72988 17.4652 3.8046 17.6497C3.87933 17.8341 4.02425 17.9813 4.2075 18.0589C4.39075 18.1364 4.59731 18.138 4.78174 18.0633C4.96617 17.9886 5.11336 17.8437 5.19094 17.6604L6.26625 15.1179H10.9838L12.0591 17.6604C12.1366 17.8437 12.2838 17.9886 12.4683 18.0633C12.6527 18.138 12.8593 18.1364 13.0425 18.0589C13.2257 17.9813 13.3707 17.8341 13.4454 17.6497C13.5201 17.4652 13.5185 17.2587 13.4409 17.0754ZM20.25 13.2429C20.25 11.7954 18.9037 10.6179 17.25 10.6179C16.5503 10.6127 15.8675 10.8323 15.3019 11.2442C15.1424 11.363 15.0366 11.5404 15.0079 11.7372C14.9791 11.934 15.0297 12.1342 15.1486 12.2937C15.2674 12.4532 15.4448 12.559 15.6416 12.5877C15.8384 12.6165 16.0386 12.5658 16.1981 12.447C16.5047 12.2279 16.8733 12.1126 17.25 12.1179C18.0525 12.1179 18.7313 12.6204 18.75 13.2204C18.2848 12.9863 17.7708 12.8655 17.25 12.8679C15.5963 12.8679 14.25 14.0454 14.25 15.4929C14.25 16.9404 15.5963 18.1179 17.25 18.1179C17.8042 18.1205 18.3502 17.9831 18.8372 17.7185C18.9155 17.8665 19.0411 17.984 19.194 18.0523C19.3468 18.1206 19.5182 18.1358 19.6807 18.0955C19.8431 18.0552 19.9875 17.9616 20.0907 17.8298C20.1938 17.6979 20.2499 17.5353 20.25 17.3679V13.2429Z" fill="#454569"/>
</svg>
