<svg width="29" height="28" viewBox="0 0 29 28" fill="none" xmlns="http://www.w3.org/2000/svg">
<path d="M23.125 5.25H5.625C4.92881 5.25 4.26113 5.52656 3.76884 6.01884C3.27656 6.51113 3 7.17881 3 7.875V20.125C3 20.8212 3.27656 21.4889 3.76884 21.9812C4.26113 22.4734 4.92881 22.75 5.625 22.75H23.125C23.8212 22.75 24.4889 22.4734 24.9812 21.9812C25.4734 21.4889 25.75 20.8212 25.75 20.125V7.875C25.75 7.17881 25.4734 6.51113 24.9812 6.01884C24.4889 5.52656 23.8212 5.25 23.125 5.25ZM16.9475 13.6511C16.8249 14.2422 16.5024 14.7729 16.0342 15.154C15.566 15.535 14.9808 15.7431 14.3772 15.7431C13.7735 15.7431 13.1883 15.535 12.7202 15.154C12.252 14.7729 11.9294 14.2422 11.8069 13.6511C11.7263 13.2551 11.5111 12.8991 11.1979 12.6437C10.8847 12.3883 10.4927 12.2492 10.0886 12.25H4.75V10.5H24V12.25H18.6614C18.258 12.2502 17.8671 12.3898 17.5548 12.6451C17.2424 12.9004 17.0279 13.2558 16.9475 13.6511ZM5.625 7H23.125C23.3571 7 23.5796 7.09219 23.7437 7.25628C23.9078 7.42038 24 7.64294 24 7.875V8.75H4.75V7.875C4.75 7.64294 4.84219 7.42038 5.00628 7.25628C5.17038 7.09219 5.39294 7 5.625 7Z" fill="#4F4FCE"/>
</svg>
