<svg width="49" height="48" viewBox="0 0 49 48" fill="none" xmlns="http://www.w3.org/2000/svg">
<path d="M0.5 24C0.5 10.7452 11.2452 0 24.5 0C37.7548 0 48.5 10.7452 48.5 24C48.5 37.2548 37.7548 48 24.5 48C11.2452 48 0.5 37.2548 0.5 24Z" fill="#F1F3F5"/>
<path d="M39.4912 23.565C39.2637 17.6925 34.3837 13 28.5075 13C26.4634 13.0003 24.4597 13.5696 22.7207 14.644C20.9817 15.7185 19.5761 17.2558 18.6613 19.0837C17.9009 20.5992 17.5033 22.2707 17.5 23.9663C17.5039 24.2239 17.4104 24.4735 17.2382 24.6652C17.066 24.8568 16.8278 24.9764 16.5712 25C16.4341 25.0098 16.2963 24.9912 16.1667 24.9453C16.037 24.8995 15.9182 24.8274 15.8176 24.7335C15.7171 24.6397 15.637 24.5261 15.5823 24.3999C15.5277 24.2737 15.4997 24.1375 15.5 24C15.4989 22.6013 15.7244 21.2116 16.1675 19.885C16.1967 19.7999 16.2024 19.7086 16.184 19.6205C16.1657 19.5325 16.1239 19.451 16.0631 19.3848C16.0023 19.3185 15.9248 19.2698 15.8387 19.2439C15.7525 19.218 15.661 19.2158 15.5738 19.2375C13.841 19.6694 12.3023 20.6678 11.2018 22.0742C10.1014 23.4805 9.50244 25.2143 9.5 27C9.5 31.3988 13.2188 35 17.625 35H28.5C29.9807 34.9984 31.4459 34.6982 32.8079 34.1173C34.1699 33.5364 35.4007 32.6868 36.4268 31.6193C37.4529 30.5518 38.2531 29.2883 38.7797 27.9044C39.3062 26.5205 39.5482 25.0446 39.4912 23.565ZM32.2075 28.7075L28.2075 32.7075C28.1146 32.8005 28.0043 32.8742 27.8829 32.9246C27.7615 32.9749 27.6314 33.0008 27.5 33.0008C27.3686 33.0008 27.2385 32.9749 27.1171 32.9246C26.9957 32.8742 26.8854 32.8005 26.7925 32.7075L22.7925 28.7075C22.6049 28.5199 22.4994 28.2654 22.4994 28C22.4994 27.7346 22.6049 27.4801 22.7925 27.2925C22.9801 27.1049 23.2346 26.9994 23.5 26.9994C23.7654 26.9994 24.0199 27.1049 24.2075 27.2925L26.5 29.5863V22C26.5 21.7348 26.6054 21.4804 26.7929 21.2929C26.9804 21.1054 27.2348 21 27.5 21C27.7652 21 28.0196 21.1054 28.2071 21.2929C28.3946 21.4804 28.5 21.7348 28.5 22V29.5863L30.7925 27.2925C30.9801 27.1049 31.2346 26.9994 31.5 26.9994C31.7654 26.9994 32.0199 27.1049 32.2075 27.2925C32.3951 27.4801 32.5006 27.7346 32.5006 28C32.5006 28.2654 32.3951 28.5199 32.2075 28.7075Z" fill="#1721C9"/>
</svg>
