<svg width="25" height="24" viewBox="0 0 25 24" fill="none" xmlns="http://www.w3.org/2000/svg">
<path d="M8.09437 11.0306C7.98937 10.9257 7.91784 10.792 7.88885 10.6465C7.85987 10.5009 7.87472 10.35 7.93153 10.2129C7.98835 10.0758 8.08457 9.95861 8.20801 9.87621C8.33146 9.79381 8.47658 9.74988 8.625 9.75H11.625V3.75C11.625 3.55109 11.704 3.36032 11.8447 3.21967C11.9853 3.07902 12.1761 3 12.375 3C12.5739 3 12.7647 3.07902 12.9053 3.21967C13.046 3.36032 13.125 3.55109 13.125 3.75V9.75H16.125C16.2734 9.74988 16.4185 9.79381 16.542 9.87621C16.6654 9.95861 16.7617 10.0758 16.8185 10.2129C16.8753 10.35 16.8901 10.5009 16.8611 10.6465C16.8322 10.792 16.7606 10.9257 16.6556 11.0306L12.9056 14.7806C12.836 14.8504 12.7533 14.9057 12.6622 14.9434C12.5712 14.9812 12.4736 15.0006 12.375 15.0006C12.2764 15.0006 12.1788 14.9812 12.0878 14.9434C11.9967 14.9057 11.914 14.8504 11.8444 14.7806L8.09437 11.0306ZM20.625 13.5C20.4261 13.5 20.2353 13.579 20.0947 13.7197C19.954 13.8603 19.875 14.0511 19.875 14.25V19.5H4.875V14.25C4.875 14.0511 4.79598 13.8603 4.65533 13.7197C4.51468 13.579 4.32391 13.5 4.125 13.5C3.92609 13.5 3.73532 13.579 3.59467 13.7197C3.45402 13.8603 3.375 14.0511 3.375 14.25V19.5C3.375 19.8978 3.53304 20.2794 3.81434 20.5607C4.09564 20.842 4.47718 21 4.875 21H19.875C20.2728 21 20.6544 20.842 20.9357 20.5607C21.217 20.2794 21.375 19.8978 21.375 19.5V14.25C21.375 14.0511 21.296 13.8603 21.1553 13.7197C21.0147 13.579 20.8239 13.5 20.625 13.5Z" fill="#1721C9"/>
</svg>
