<svg width="33" height="32" viewBox="0 0 33 32" fill="none" xmlns="http://www.w3.org/2000/svg">
<path d="M16.5065 17.8109C16.0923 17.8109 15.7565 17.4751 15.7565 17.0609V11.1689C15.7565 10.7547 16.0923 10.4189 16.5065 10.4189C16.9207 10.4189 17.2565 10.7547 17.2565 11.1689V17.0609C17.2565 17.4751 16.9207 17.8109 16.5065 17.8109Z" fill="#1480FF"/>
<path d="M16.507 22.7276C17.0593 22.7276 17.507 22.2799 17.507 21.7276C17.507 21.1753 17.0593 20.7276 16.507 20.7276H16.4937C15.9414 20.7276 15.4937 21.1753 15.4937 21.7276C15.4937 22.2799 15.9414 22.7276 16.4937 22.7276H16.507Z" fill="#1480FF"/>
<path fill-rule="evenodd" clip-rule="evenodd" d="M30.5837 15.9998C30.5837 23.7784 24.2789 30.0832 16.5003 30.0832C8.72328 30.0832 2.41699 23.7784 2.41699 15.9998C2.41699 8.22274 8.72323 1.9165 16.5003 1.9165C24.2789 1.9165 30.5837 8.22279 30.5837 15.9998ZM16.5003 28.5832C23.4504 28.5832 29.0837 22.9499 29.0837 15.9998C29.0837 9.05112 23.4504 3.4165 16.5003 3.4165C9.55166 3.4165 3.91699 9.05117 3.91699 15.9998C3.91699 22.9499 9.55161 28.5832 16.5003 28.5832Z" fill="#1480FF"/>
</svg>
