<svg width="24" height="24" viewBox="0 0 24 24" fill="none" xmlns="http://www.w3.org/2000/svg">
<path d="M14.2884 8.30258L5.88844 16.5526C5.67806 16.7593 5.39493 16.8751 5.10001 16.8751C4.80508 16.8751 4.52195 16.7593 4.31157 16.5526L0.711568 13.0173C0.606121 12.9137 0.522099 12.7904 0.464301 12.6544C0.406503 12.5184 0.376061 12.3723 0.374711 12.2246C0.371986 11.9261 0.48793 11.6388 0.697037 11.4259C0.800576 11.3204 0.92387 11.2364 1.05988 11.1786C1.19589 11.1208 1.34195 11.0904 1.48973 11.089C1.78818 11.0863 2.07548 11.2022 2.28844 11.4113L5.10094 14.1732L12.7125 6.69758C12.9253 6.48847 13.2125 6.37248 13.5109 6.37512C13.8092 6.37775 14.0943 6.49881 14.3034 6.71164C14.5125 6.92448 14.6285 7.21166 14.6259 7.51002C14.6233 7.80838 14.5022 8.09347 14.2894 8.30258H14.2884ZM23.3025 6.70883C23.1989 6.60302 23.0755 6.51871 22.9392 6.46071C22.803 6.40272 22.6566 6.3722 22.5085 6.37089C22.3605 6.36959 22.2136 6.39752 22.0764 6.4531C21.9391 6.50868 21.8142 6.5908 21.7088 6.69477L14.1 14.1732L13.3613 13.4476C13.1484 13.2385 12.8612 13.1225 12.5629 13.1251C12.2645 13.1278 11.9794 13.2488 11.7703 13.4616C11.5612 13.6745 11.4452 13.9617 11.4479 14.26C11.4505 14.5584 11.5715 14.8435 11.7844 15.0526L13.3116 16.5526C13.5219 16.7593 13.8051 16.8751 14.1 16.8751C14.3949 16.8751 14.6781 16.7593 14.8884 16.5526L23.2884 8.30258C23.3938 8.19904 23.4778 8.07576 23.5355 7.93977C23.5933 7.80378 23.6237 7.65776 23.625 7.51002C23.6263 7.36229 23.5985 7.21575 23.5431 7.07876C23.4878 6.94177 23.406 6.81703 23.3025 6.71164V6.70883Z" fill="#454569"/>
</svg>
