<svg width="20" height="20" viewBox="0 0 20 20" fill="none" xmlns="http://www.w3.org/2000/svg">
<path d="M10.0045 11.4379C9.61923 11.4379 9.30687 11.1256 9.30687 10.7403V6.62956C9.30687 6.24425 9.61923 5.93189 10.0045 5.93189C10.3899 5.93189 10.7022 6.24425 10.7022 6.62956V10.7403C10.7022 11.1256 10.3899 11.4379 10.0045 11.4379Z" fill="#DD2928"/>
<path d="M10.0045 14.9263C10.5183 14.9263 10.9348 14.5098 10.9348 13.9961C10.9348 13.4823 10.5183 13.0658 10.0045 13.0658H9.99524C9.48149 13.0658 9.06501 13.4823 9.06501 13.9961C9.06501 14.5098 9.48149 14.9263 9.99524 14.9263H10.0045Z" fill="#DD2928"/>
<path fill-rule="evenodd" clip-rule="evenodd" d="M20 10C20 15.5232 15.5232 20 10 20C4.47784 20 0 15.5233 0 10C0 4.47779 4.47779 0 10 0C15.5233 0 20 4.47784 20 10ZM10 18.6047C14.7526 18.6047 18.6047 14.7526 18.6047 10C18.6047 5.24837 14.7525 1.39535 10 1.39535C5.24842 1.39535 1.39535 5.24842 1.39535 10C1.39535 14.7525 5.24837 18.6047 10 18.6047Z" fill="#DD2928"/>
</svg>
