<svg width="67" height="66" viewBox="0 0 67 66" fill="none" xmlns="http://www.w3.org/2000/svg">
<circle cx="33.5" cy="33" r="33" fill="#F5F5F5"/>
<path d="M46.3844 22.3656L40.1344 16.1156C40.0182 15.9996 39.8803 15.9076 39.7286 15.8448C39.5768 15.7821 39.4142 15.7499 39.25 15.75H26.75C26.087 15.75 25.4511 16.0134 24.9822 16.4822C24.5134 16.9511 24.25 17.587 24.25 18.25V20.75H21.75C21.087 20.75 20.4511 21.0134 19.9822 21.4822C19.5134 21.9511 19.25 22.587 19.25 23.25V45.75C19.25 46.413 19.5134 47.0489 19.9822 47.5178C20.4511 47.9866 21.087 48.25 21.75 48.25H39.25C39.913 48.25 40.5489 47.9866 41.0178 47.5178C41.4866 47.0489 41.75 46.413 41.75 45.75V43.25H44.25C44.913 43.25 45.5489 42.9866 46.0178 42.5178C46.4866 42.0489 46.75 41.413 46.75 40.75V23.25C46.7501 23.0858 46.7179 22.9232 46.6552 22.7714C46.5924 22.6197 46.5004 22.4818 46.3844 22.3656ZM34.25 42H26.75C26.4185 42 26.1005 41.8683 25.8661 41.6339C25.6317 41.3995 25.5 41.0815 25.5 40.75C25.5 40.4185 25.6317 40.1005 25.8661 39.8661C26.1005 39.6317 26.4185 39.5 26.75 39.5H34.25C34.5815 39.5 34.8995 39.6317 35.1339 39.8661C35.3683 40.1005 35.5 40.4185 35.5 40.75C35.5 41.0815 35.3683 41.3995 35.1339 41.6339C34.8995 41.8683 34.5815 42 34.25 42ZM34.25 37H26.75C26.4185 37 26.1005 36.8683 25.8661 36.6339C25.6317 36.3995 25.5 36.0815 25.5 35.75C25.5 35.4185 25.6317 35.1005 25.8661 34.8661C26.1005 34.6317 26.4185 34.5 26.75 34.5H34.25C34.5815 34.5 34.8995 34.6317 35.1339 34.8661C35.3683 35.1005 35.5 35.4185 35.5 35.75C35.5 36.0815 35.3683 36.3995 35.1339 36.6339C34.8995 36.8683 34.5815 37 34.25 37ZM44.25 40.75H41.75V28.25C41.7501 28.0858 41.7179 27.9232 41.6552 27.7714C41.5924 27.6197 41.5004 27.4818 41.3844 27.3656L35.1344 21.1156C35.0182 20.9996 34.8803 20.9076 34.7286 20.8448C34.5768 20.7821 34.4142 20.7499 34.25 20.75H26.75V18.25H38.7328L44.25 23.7672V40.75Z" fill="#DCDCDC"/>
</svg>
