<svg width="20" height="20" viewBox="0 0 20 20" fill="none" xmlns="http://www.w3.org/2000/svg">
<path d="M12.7421 4.01767V1.7743L17.2262 6.26105H14.9841C13.4097 6.26105 12.7421 5.59302 12.7421 4.01767ZM17.9735 7.75663V15.9823C18.0314 16.3886 17.9941 16.8029 17.8643 17.1922C17.7346 17.5815 17.516 17.9353 17.226 18.2255C16.936 18.5157 16.5824 18.7344 16.1933 18.8642C15.8041 18.9941 15.3902 19.0315 14.9841 18.9735H6.0159C5.60983 19.0315 5.19585 18.9941 4.80674 18.8642C4.41762 18.7344 4.06405 18.5157 3.77401 18.2255C3.48397 17.9353 3.26543 17.5815 3.13569 17.1922C3.00594 16.8029 2.96856 16.3886 3.02649 15.9823V4.01767C2.96856 3.61137 3.00594 3.19715 3.13569 2.8078C3.26543 2.41846 3.48397 2.06468 3.77401 1.77447C4.06405 1.48426 4.41762 1.26558 4.80674 1.13576C5.19585 1.00594 5.60983 0.96854 6.0159 1.02651H11.2474V4.01767C11.1884 4.52292 11.2446 5.03496 11.4115 5.51541C11.5785 5.99587 11.852 6.43229 12.2114 6.79198C12.5709 7.15167 13.0071 7.42529 13.4872 7.59235C13.9674 7.75941 14.4792 7.81557 14.9841 7.75663H17.9735ZM12.0415 9.25221C11.7001 9.26609 11.3707 9.38211 11.0959 9.58527C10.8211 9.78843 10.6135 10.0694 10.5 10.3918C10.3865 10.0694 10.1789 9.78843 9.90406 9.58527C9.62925 9.38211 9.29986 9.26609 8.95847 9.25221C7.41095 9.25919 6.79912 10.683 7.07813 12.0938C7.53252 14.405 10.5 15.7331 10.5 15.7331C10.5 15.7331 13.4675 14.405 13.9219 12.0978C14.2009 10.683 13.594 9.25919 12.0415 9.25221Z" fill="black"/>
</svg>
