<svg width="25" height="24" viewBox="0 0 25 24" fill="none" xmlns="http://www.w3.org/2000/svg">
<path d="M12.625 2.25C10.6966 2.25 8.81157 2.82183 7.20819 3.89317C5.60482 4.96451 4.35513 6.48726 3.61718 8.26884C2.87922 10.0504 2.68614 12.0108 3.06235 13.9021C3.43855 15.7934 4.36715 17.5307 5.73071 18.8943C7.09428 20.2579 8.83156 21.1865 10.7229 21.5627C12.6142 21.9389 14.5746 21.7458 16.3562 21.0078C18.1377 20.2699 19.6605 19.0202 20.7318 17.4168C21.8032 15.8134 22.375 13.9284 22.375 12C22.3723 9.41498 21.3442 6.93661 19.5163 5.10872C17.6884 3.28084 15.21 2.25273 12.625 2.25ZM19.9722 8.25H16.6506C16.2679 6.74392 15.6251 5.31623 14.7513 4.03125C15.8677 4.33127 16.9089 4.86162 17.8081 5.58818C18.7073 6.31475 19.4444 7.22146 19.9722 8.25ZM12.625 3.76031C13.75 4.97906 14.5938 6.53062 15.0972 8.25H10.1528C10.6563 6.53062 11.5 4.98094 12.625 3.76031ZM9.625 12C9.62513 11.2461 9.68785 10.4935 9.8125 9.75H15.4375C15.6863 11.2397 15.6863 12.7603 15.4375 14.25H9.8125C9.68785 13.5065 9.62513 12.7539 9.625 12ZM10.1528 15.75H15.0972C14.5938 17.4694 13.75 19.0191 12.625 20.2397C11.5 19.0191 10.6563 17.4694 10.1528 15.75ZM14.7513 19.9688C15.6251 18.6838 16.2679 17.2561 16.6506 15.75H19.9722C19.4444 16.7785 18.7073 17.6852 17.8081 18.4118C16.9089 19.1384 15.8677 19.6687 14.7513 19.9688ZM16.9572 14.25C17.1809 12.7583 17.1809 11.2417 16.9572 9.75H20.5628C20.9791 11.2211 20.9791 12.7789 20.5628 14.25H16.9572Z" fill="#1721C9"/>
</svg>
