<svg width="33" height="32" viewBox="0 0 33 32" fill="none" xmlns="http://www.w3.org/2000/svg">
<path d="M29.1768 14.3087C29.176 14.3082 29.1754 14.3074 29.1748 14.3068L18.5678 3.70122C18.1156 3.24895 17.5145 3 16.8751 3C16.2358 3 15.6347 3.24895 15.1823 3.70122L4.58088 14.3014C4.57731 14.305 4.57354 14.3087 4.57017 14.3123C3.64173 15.246 3.64331 16.7609 4.57473 17.6922C5.00026 18.1179 5.56209 18.3643 6.16299 18.3903C6.18759 18.3927 6.21219 18.3939 6.23699 18.3939H6.65955V26.1987C6.65955 27.7434 7.91651 29 9.46133 29H13.6111C14.0319 29 14.3729 28.6588 14.3729 28.2383V22.1191C14.3729 21.4144 14.9465 20.8411 15.6513 20.8411H18.099C18.8038 20.8411 19.3772 21.4144 19.3772 22.1191V28.2383C19.3772 28.6588 19.7182 29 20.139 29H24.2888C25.8338 29 27.0906 27.7434 27.0906 26.1987V18.3939H27.4826C28.1218 18.3939 28.7229 18.1449 29.1754 17.6924C30.1078 16.7597 30.1082 15.2421 29.1768 14.3087ZM28.0979 16.6153C27.9335 16.7798 27.7149 16.8704 27.4826 16.8704H26.3288C25.908 16.8704 25.567 17.2114 25.567 17.6321V26.1987C25.567 26.9033 24.9936 27.4766 24.2888 27.4766H20.9008V22.1191C20.9008 20.5745 19.644 19.3176 18.099 19.3176H15.6513C14.1063 19.3176 12.8493 20.5745 12.8493 22.1191V27.4766H9.46133C8.75667 27.4766 8.18314 26.9033 8.18314 26.1987V17.6321C8.18314 17.2114 7.84212 16.8704 7.42134 16.8704H6.28738C6.27548 16.8696 6.26377 16.869 6.25167 16.8688C6.02472 16.8649 5.81185 16.7748 5.65235 16.6151C5.31311 16.2759 5.31311 15.7239 5.65235 15.3845C5.65255 15.3845 5.65255 15.3843 5.65275 15.3841L5.65334 15.3835L16.26 4.77834C16.4242 4.61389 16.6426 4.52344 16.8751 4.52344C17.1075 4.52344 17.3259 4.61389 17.4903 4.77834L28.0946 15.3813C28.0962 15.3829 28.0979 15.3845 28.0995 15.3861C28.437 15.7259 28.4364 16.2767 28.0979 16.6153Z" fill="black"/>
</svg>
