<svg width="25" height="24" viewBox="0 0 25 24" fill="none" xmlns="http://www.w3.org/2000/svg">
<path d="M3.625 6C3.625 5.80109 3.70402 5.61032 3.84467 5.46967C3.98532 5.32902 4.17609 5.25 4.375 5.25H20.875C21.0739 5.25 21.2647 5.32902 21.4053 5.46967C21.546 5.61032 21.625 5.80109 21.625 6C21.625 6.19891 21.546 6.38968 21.4053 6.53033C21.2647 6.67098 21.0739 6.75 20.875 6.75H4.375C4.17609 6.75 3.98532 6.67098 3.84467 6.53033C3.70402 6.38968 3.625 6.19891 3.625 6ZM4.375 12.75H11.125C11.3239 12.75 11.5147 12.671 11.6553 12.5303C11.796 12.3897 11.875 12.1989 11.875 12C11.875 11.8011 11.796 11.6103 11.6553 11.4697C11.5147 11.329 11.3239 11.25 11.125 11.25H4.375C4.17609 11.25 3.98532 11.329 3.84467 11.4697C3.70402 11.6103 3.625 11.8011 3.625 12C3.625 12.1989 3.70402 12.3897 3.84467 12.5303C3.98532 12.671 4.17609 12.75 4.375 12.75ZM12.625 17.25H4.375C4.17609 17.25 3.98532 17.329 3.84467 17.4697C3.70402 17.6103 3.625 17.8011 3.625 18C3.625 18.1989 3.70402 18.3897 3.84467 18.5303C3.98532 18.671 4.17609 18.75 4.375 18.75H12.625C12.8239 18.75 13.0147 18.671 13.1553 18.5303C13.296 18.3897 13.375 18.1989 13.375 18C13.375 17.8011 13.296 17.6103 13.1553 17.4697C13.0147 17.329 12.8239 17.25 12.625 17.25ZM22.9056 17.4694L21.0025 15.5625C21.5141 14.787 21.7197 13.8493 21.5793 12.9309C21.439 12.0125 20.9627 11.1789 20.2429 10.5916C19.523 10.0044 18.6107 9.70522 17.6829 9.75216C16.755 9.7991 15.8776 10.1888 15.2207 10.8457C14.5638 11.5026 14.1741 12.38 14.1272 13.3079C14.0802 14.2357 14.3794 15.148 14.9666 15.8679C15.5539 16.5877 16.3875 17.064 17.3059 17.2043C18.2243 17.3447 19.162 17.1391 19.9375 16.6275L21.8406 18.5306C21.9814 18.6714 22.1722 18.7504 22.3712 18.7504C22.5703 18.7504 22.7611 18.6714 22.9019 18.5306C23.0426 18.3899 23.1217 18.199 23.1217 18C23.1217 17.801 23.0426 17.6101 22.9019 17.4694H22.9056Z" fill="#1721C9"/>
</svg>
