<svg width="28" height="28" viewBox="0 0 28 28" fill="none" xmlns="http://www.w3.org/2000/svg">
<path d="M25.375 13.9996V22.7496C25.375 23.91 24.9141 25.0228 24.0936 25.8432C23.2731 26.6637 22.1603 27.1246 21 27.1246H14.875C14.6429 27.1246 14.4204 27.0325 14.2563 26.8684C14.0922 26.7043 14 26.4817 14 26.2496C14 26.0176 14.0922 25.795 14.2563 25.6309C14.4204 25.4668 14.6429 25.3746 14.875 25.3746H21C21.6962 25.3746 22.3639 25.0981 22.8562 24.6058C23.3484 24.1135 23.625 23.4458 23.625 22.7496H21C20.3038 22.7496 19.6361 22.4731 19.1438 21.9808C18.6516 21.4885 18.375 20.8208 18.375 20.1246V15.7496C18.375 15.0534 18.6516 14.3858 19.1438 13.8935C19.6361 13.4012 20.3038 13.1246 21 13.1246H23.5867C23.4211 11.3057 22.7414 9.57135 21.6269 8.12428C20.5125 6.67721 19.0092 5.57712 17.2929 4.9525C15.5765 4.32789 13.7178 4.20453 11.934 4.59685C10.1501 4.98918 8.51468 5.88097 7.21875 7.16808C5.60728 8.75829 4.61335 10.8694 4.41438 13.1246H7C7.69619 13.1246 8.36387 13.4012 8.85616 13.8935C9.34844 14.3858 9.625 15.0534 9.625 15.7496V20.1246C9.625 20.8208 9.34844 21.4885 8.85616 21.9808C8.36387 22.4731 7.69619 22.7496 7 22.7496H5.25C4.55381 22.7496 3.88613 22.4731 3.39384 21.9808C2.90156 21.4885 2.625 20.8208 2.625 20.1246V13.9996C2.62745 11.7464 3.29834 9.54454 4.55274 7.67276C5.80714 5.80098 7.58866 4.34343 9.6718 3.4846C11.7549 2.62577 14.0461 2.40426 16.2551 2.84813C18.4642 3.29199 20.492 4.38126 22.0817 5.97808C23.1313 7.03279 23.9625 8.28424 24.5276 9.66072C25.0927 11.0372 25.3807 12.5117 25.375 13.9996Z" fill="white"/>
</svg>
