<svg width="24" height="24" viewBox="0 0 24 24" fill="none" xmlns="http://www.w3.org/2000/svg">
<path d="M11.9955 11.4923C12.3808 11.4923 12.6931 11.8047 12.6931 12.19V16.3007C12.6931 16.686 12.3808 16.9983 11.9955 16.9983C11.6101 16.9983 11.2978 16.686 11.2978 16.3007V12.19C11.2978 11.8047 11.6101 11.4923 11.9955 11.4923Z" fill="#06498C"/>
<path d="M11.9955 8.00393C11.4817 8.00393 11.0652 8.42041 11.0652 8.93416C11.0652 9.44791 11.4817 9.86439 11.9955 9.86439H12.0048C12.5185 9.86439 12.935 9.44791 12.935 8.93416C12.935 8.42041 12.5185 8.00393 12.0048 8.00393H11.9955Z" fill="#06498C"/>
<path fill-rule="evenodd" clip-rule="evenodd" d="M2 12C2 6.47678 6.47678 2 12 2C17.5222 2 22 6.47674 22 12C22 17.5222 17.5222 22 12 22C6.47674 22 2 17.5222 2 12ZM12 3.39535C7.24741 3.39535 3.39535 7.24741 3.39535 12C3.39535 16.7516 7.24746 20.6047 12 20.6047C16.7516 20.6047 20.6047 16.7516 20.6047 12C20.6047 7.24746 16.7516 3.39535 12 3.39535Z" fill="#06498C"/>
</svg>
