<svg width="16" height="16" viewBox="0 0 16 16" fill="none" xmlns="http://www.w3.org/2000/svg">
<g clip-path="url(#clip0_558_1507)">
<path fill-rule="evenodd" clip-rule="evenodd" d="M10.8547 11.1925C11.0495 10.9967 11.0487 10.6801 10.8529 10.4854L5.52939 5.18946C5.33362 4.99471 5.01704 4.99553 4.82229 5.1913C4.62753 5.38707 4.62835 5.70365 4.82412 5.8984L10.1476 11.1943C10.3434 11.3891 10.66 11.3882 10.8547 11.1925Z" fill="#213051"/>
<path fill-rule="evenodd" clip-rule="evenodd" d="M5.6748 10.8398C5.6748 11.116 5.89866 11.3398 6.1748 11.3398H10.5001C10.7763 11.3398 11.0001 11.116 11.0001 10.8398V6.53692C11.0001 6.26078 10.7763 6.03692 10.5001 6.03692C10.224 6.03692 10.0001 6.26078 10.0001 6.53692V10.3398H6.1748C5.89866 10.3398 5.6748 10.5637 5.6748 10.8398Z" fill="#213051"/>
<path fill-rule="evenodd" clip-rule="evenodd" d="M0.5 8C0.5 12.1421 3.85786 15.5 8 15.5C12.1421 15.5 15.5 12.1421 15.5 8C15.5 3.85786 12.1421 0.5 8 0.5C3.85786 0.5 0.5 3.85786 0.5 8ZM8 14.5C4.41015 14.5 1.5 11.5899 1.5 8C1.5 4.41015 4.41015 1.5 8 1.5C11.5899 1.5 14.5 4.41015 14.5 8C14.5 11.5899 11.5899 14.5 8 14.5Z" fill="#213051"/>
</g>
<defs>
<clipPath id="clip0_558_1507">
<rect width="16" height="16" fill="white" transform="matrix(-1 0 0 1 16 0)"/>
</clipPath>
</defs>
</svg>
