<svg width="16" height="16" viewBox="0 0 16 16" fill="none" xmlns="http://www.w3.org/2000/svg">
<path fill-rule="evenodd" clip-rule="evenodd" d="M14.5 8C14.5 11.5898 11.5898 14.5 8 14.5C4.41015 14.5 1.5 11.5898 1.5 8C1.5 4.41015 4.41015 1.5 8 1.5C11.5898 1.5 14.5 4.41015 14.5 8ZM8 7.35C8.35899 7.35 8.65 7.641 8.65 8V11.2506C8.65 11.6096 8.35899 11.9006 8 11.9006C7.641 11.9006 7.35 11.6096 7.35 11.2506V8C7.35 7.641 7.641 7.35 8 7.35ZM8 6.05C8.35899 6.05 8.65 5.75898 8.65 5.4C8.65 5.04102 8.35899 4.75 8 4.75C7.641 4.75 7.35 5.04102 7.35 5.4C7.35 5.75898 7.641 6.05 8 6.05Z" fill="#454769"/>
</svg>
