<svg width="18" height="18" viewBox="0 0 18 18" fill="none" xmlns="http://www.w3.org/2000/svg">
<path fill-rule="evenodd" clip-rule="evenodd" d="M17.125 9C17.125 13.4873 13.4873 17.125 9 17.125C4.51268 17.125 0.875 13.4873 0.875 9C0.875 4.51268 4.51268 0.875 9 0.875C13.4873 0.875 17.125 4.51268 17.125 9ZM9 8.1875C9.44874 8.1875 9.8125 8.55126 9.8125 9V13.0632C9.8125 13.512 9.44874 13.8757 9 13.8757C8.55126 13.8757 8.1875 13.512 8.1875 13.0632V9C8.1875 8.55126 8.55126 8.1875 9 8.1875ZM9 6.5625C9.44874 6.5625 9.8125 6.19873 9.8125 5.75C9.8125 5.30127 9.44874 4.9375 9 4.9375C8.55126 4.9375 8.1875 5.30127 8.1875 5.75C8.1875 6.19873 8.55126 6.5625 9 6.5625Z" fill="white"/>
</svg>
