<svg width="40" height="40" viewBox="0 0 40 40" fill="none" xmlns="http://www.w3.org/2000/svg">
<rect width="40" height="40" rx="20" fill="#F5F5F5"/>
<path d="M27.5 11.75H12.5C12.1022 11.75 11.7206 11.908 11.4393 12.1893C11.158 12.4706 11 12.8522 11 13.25V18.7597C11 27.1606 18.1081 29.9478 19.5312 30.4212C19.8352 30.5246 20.1648 30.5246 20.4688 30.4212C21.8937 29.9478 29 27.1606 29 18.7597V13.25C29 12.8522 28.842 12.4706 28.5607 12.1893C28.2794 11.908 27.8978 11.75 27.5 11.75ZM24.2806 18.2806L19.0306 23.5306C18.961 23.6004 18.8783 23.6557 18.7872 23.6934C18.6962 23.7312 18.5986 23.7506 18.5 23.7506C18.4014 23.7506 18.3038 23.7312 18.2128 23.6934C18.1217 23.6557 18.039 23.6004 17.9694 23.5306L15.7194 21.2806C15.5786 21.1399 15.4996 20.949 15.4996 20.75C15.4996 20.551 15.5786 20.3601 15.7194 20.2194C15.8601 20.0786 16.051 19.9996 16.25 19.9996C16.449 19.9996 16.6399 20.0786 16.7806 20.2194L18.5 21.9387L23.2194 17.2194C23.2891 17.1497 23.3718 17.0944 23.4628 17.0567C23.5539 17.019 23.6515 16.9996 23.75 16.9996C23.8485 16.9996 23.9461 17.019 24.0372 17.0567C24.1282 17.0944 24.2109 17.1497 24.2806 17.2194C24.3503 17.2891 24.4056 17.3718 24.4433 17.4628C24.481 17.5539 24.5004 17.6515 24.5004 17.75C24.5004 17.8485 24.481 17.9461 24.4433 18.0372C24.4056 18.1282 24.3503 18.2109 24.2806 18.2806Z" fill="#1721C9"/>
</svg>
