<svg width="24" height="24" viewBox="0 0 24 24" fill="none" xmlns="http://www.w3.org/2000/svg">
<path d="M21.2338 12.772C20.8091 12.772 20.4643 12.4273 20.4643 12.0025C20.4643 7.33561 16.6669 3.5382 12 3.5382C9.38837 3.5382 6.96141 4.7209 5.34164 6.78389C5.07848 7.11708 4.59447 7.17556 4.26128 6.91393C3.92656 6.65154 3.86885 6.16753 4.13124 5.83358C6.04495 3.39662 8.91359 2 12.0008 2C17.5164 2 22.0041 6.48764 22.0041 12.0033C22.0041 12.4281 21.6594 12.7728 21.2346 12.7728L21.2338 12.772Z" fill="#213051"/>
<path d="M2.76601 12.7721C2.34125 12.7721 1.99652 12.4274 1.99652 12.0027C1.99652 10.8954 2.17889 9.80423 2.53824 8.75927C2.67675 8.35683 3.11535 8.14291 3.51626 8.28142C3.91793 8.41993 4.13184 8.85777 3.99411 9.25944C3.68939 10.1428 3.53549 11.0662 3.53549 12.0027C3.53549 12.4274 3.19076 12.7721 2.76601 12.7721Z" fill="#213051"/>
<path d="M16.5318 20.8209C16.4317 20.8209 16.3294 20.8009 16.2309 20.7593C15.84 20.5931 15.6576 20.1414 15.8238 19.7497C16.0732 19.1626 16.2971 18.5501 16.4894 17.9299C16.6156 17.5236 17.0473 17.2966 17.4521 17.4228C17.8584 17.549 18.0854 17.9799 17.9592 18.3854C17.7514 19.0557 17.5098 19.7167 17.2397 20.3515C17.115 20.6447 16.8303 20.8201 16.531 20.8201L16.5318 20.8209Z" fill="#213051"/>
<path d="M17.9176 15.9269C17.8799 15.9269 17.8414 15.9246 17.803 15.9184C17.3828 15.8553 17.0927 15.4637 17.1558 15.0435C17.309 14.0209 17.3859 12.9982 17.3859 12.0025C17.3859 9.03231 14.9697 6.61612 11.9995 6.61612H11.8533C11.4285 6.61612 11.0838 6.27139 11.0838 5.84663C11.0838 5.42188 11.4285 5.07715 11.8533 5.07715H11.9995C15.8177 5.07715 18.9249 8.18433 18.9249 12.0025C18.9249 13.0744 18.8418 14.174 18.6779 15.2713C18.6209 15.653 18.2924 15.9269 17.9176 15.9269Z" fill="#213051"/>
<path d="M4.21938 17.7506C4.06164 17.7506 3.90312 17.7029 3.76615 17.6029C3.42296 17.352 3.34832 16.8703 3.59841 16.5279C4.56334 15.2067 5.07351 13.6423 5.07351 12.0033C5.07351 9.55865 6.38702 7.2702 8.5008 6.02979C8.8663 5.81356 9.338 5.93745 9.55423 6.30449C9.76891 6.67154 9.64656 7.14246 9.27952 7.35792C7.63436 8.32285 6.61248 10.1027 6.61248 12.0033C6.61248 13.9709 5.99997 15.85 4.84112 17.4359C4.69031 17.6421 4.45638 17.7514 4.21861 17.7514L4.21938 17.7506Z" fill="#213051"/>
<path d="M12.4837 21.9904C12.3467 21.9904 12.2074 21.9542 12.082 21.8765C11.7196 21.6541 11.6065 21.1809 11.8289 20.8185C13.4509 18.1753 14.3081 15.1273 14.3081 12.0025C14.3081 10.7297 13.2724 9.694 11.9997 9.694C10.7269 9.694 9.69122 10.7297 9.69122 12.0025C9.69122 12.3018 9.68276 12.5934 9.65736 12.8843C9.6212 13.3075 9.24492 13.6253 8.82478 13.5845C8.40156 13.5484 8.08761 13.1752 8.12455 12.7519C8.1461 12.5042 8.15225 12.2564 8.15225 12.0025C8.15225 9.88099 9.87821 8.15503 11.9997 8.15503C14.1212 8.15503 15.8471 9.88099 15.8471 12.0025C15.8471 15.412 14.9114 18.7385 13.1401 21.6233C12.9954 21.8603 12.7422 21.9904 12.4837 21.9904Z" fill="#213051"/>
<path d="M6.36607 20.0899C6.25065 20.0899 6.13292 20.0637 6.02288 20.0091C5.64275 19.819 5.48886 19.3565 5.67892 18.9764C5.77357 18.7879 5.88437 18.6086 6.0098 18.4455C6.67232 17.5698 7.18788 16.6056 7.5403 15.5838C7.67881 15.1821 8.11588 14.9689 8.51832 15.1074C8.91999 15.2459 9.13314 15.6846 8.99463 16.0855C8.58911 17.2605 7.99738 18.3678 7.23405 19.3765C7.16249 19.4712 7.10324 19.5682 7.05553 19.6643C6.92087 19.9344 6.64924 20.0899 6.36607 20.0899Z" fill="#213051"/>
<path d="M9.08303 21.5288C8.92221 21.5288 8.76062 21.4788 8.62134 21.3749C8.282 21.1195 8.21274 20.6378 8.46821 20.2977C10.2757 17.8907 11.2307 15.0228 11.2307 12.0034C11.2307 11.5786 11.5754 11.2339 12.0002 11.2339C12.4249 11.2339 12.7696 11.5786 12.7696 12.0034C12.7696 15.3583 11.7077 18.5463 9.69939 21.2218C9.5478 21.4234 9.31696 21.5288 9.08303 21.5288Z" fill="#213051"/>
</svg>
