<svg width="32" height="32" viewBox="0 0 32 32" fill="none" xmlns="http://www.w3.org/2000/svg">
<path d="M29 6.66667V12C29 12.5521 28.5521 13 28 13C27.4479 13 27 12.5521 27 12V6.66667C27 5.74733 26.2527 5 25.3333 5H20C19.4479 5 19 4.55213 19 4C19 3.44787 19.4479 3 20 3H25.3333C27.3555 3 29 4.64453 29 6.66667ZM28 19C27.4479 19 27 19.4479 27 20V25.3333C27 26.2527 26.2527 27 25.3333 27H20C19.4479 27 19 27.4479 19 28C19 28.5521 19.4479 29 20 29H25.3333C27.3555 29 29 27.3555 29 25.3333V20C29 19.4479 28.5521 19 28 19ZM12 27H6.66667C5.74733 27 5 26.2527 5 25.3333V20C5 19.4479 4.55213 19 4 19C3.44787 19 3 19.4479 3 20V25.3333C3 27.3555 4.64453 29 6.66667 29H12C12.5521 29 13 28.5521 13 28C13 27.4479 12.5521 27 12 27ZM13 4C13 3.44787 12.5521 3 12 3H6.66667C4.64453 3 3 4.64453 3 6.66667V12C3 12.5521 3.44787 13 4 13C4.55213 13 5 12.5521 5 12V6.66667C5 5.74733 5.74733 5 6.66667 5H12C12.5521 5 13 4.55213 13 4ZM9.66667 10.6667V12C9.66667 12.5521 10.1145 13 10.6667 13C11.2188 13 11.6667 12.5521 11.6667 12V10.6667C11.6667 10.1145 11.2188 9.66667 10.6667 9.66667C10.1145 9.66667 9.66667 10.1145 9.66667 10.6667ZM21.3333 13C21.8855 13 22.3333 12.5521 22.3333 12V10.6667C22.3333 10.1145 21.8855 9.66667 21.3333 9.66667C20.7812 9.66667 20.3333 10.1145 20.3333 10.6667V12C20.3333 12.5521 20.7812 13 21.3333 13ZM16.6003 18.0664C16.7956 18.2617 17.0515 18.3593 17.3073 18.3593C17.5632 18.3593 17.8197 18.2617 18.0151 18.0664C19.1323 16.9479 19.4083 15.2473 18.7019 13.8347L17.5612 11.5535C17.3151 11.0573 16.7141 10.8608 16.2195 11.1056C15.7253 11.3529 15.5255 11.9532 15.7723 12.4468L16.9129 14.728C17.2339 15.3712 17.1083 16.1433 16.5997 16.6525C16.2097 17.0432 16.2096 17.6759 16.6003 18.0664ZM22.2279 20.4467C22.4727 19.9571 22.2753 19.366 21.7877 19.116C21.3015 18.866 20.6999 19.06 20.444 19.5431C20.3977 19.6303 19.2845 21.6668 16 21.6668C12.7155 21.6668 11.6023 19.6304 11.5612 19.5535C11.3139 19.0573 10.7148 18.8608 10.2195 19.1056C9.72533 19.3529 9.52547 19.9532 9.77227 20.4468C9.838 20.5783 11.4344 23.6668 16.0001 23.6668C20.5659 23.6668 22.1621 20.5781 22.2279 20.4467Z" fill="#454569"/>
</svg>
