<svg width="20" height="20" viewBox="0 0 20 20" fill="none" xmlns="http://www.w3.org/2000/svg">
<path d="M16.25 6.875H13.75V5C13.75 4.00544 13.3549 3.05161 12.6517 2.34835C11.9484 1.64509 10.9946 1.25 10 1.25C9.00544 1.25 8.05161 1.64509 7.34835 2.34835C6.64509 3.05161 6.25 4.00544 6.25 5V6.875H3.75C3.41848 6.875 3.10054 7.0067 2.86612 7.24112C2.6317 7.47554 2.5 7.79348 2.5 8.125V16.875C2.5 17.2065 2.6317 17.5245 2.86612 17.7589C3.10054 17.9933 3.41848 18.125 3.75 18.125H16.25C16.5815 18.125 16.8995 17.9933 17.1339 17.7589C17.3683 17.5245 17.5 17.2065 17.5 16.875V8.125C17.5 7.79348 17.3683 7.47554 17.1339 7.24112C16.8995 7.0067 16.5815 6.875 16.25 6.875ZM10.625 13.018V15C10.625 15.1658 10.5592 15.3247 10.4419 15.4419C10.3247 15.5592 10.1658 15.625 10 15.625C9.83424 15.625 9.67527 15.5592 9.55806 15.4419C9.44085 15.3247 9.375 15.1658 9.375 15V13.018C8.95799 12.8705 8.60653 12.5804 8.38273 12.1989C8.15893 11.8174 8.07721 11.3691 8.152 10.9331C8.2268 10.4972 8.45329 10.1017 8.79146 9.81665C9.12963 9.53156 9.5577 9.3752 10 9.3752C10.4423 9.3752 10.8704 9.53156 11.2085 9.81665C11.5467 10.1017 11.7732 10.4972 11.848 10.9331C11.9228 11.3691 11.8411 11.8174 11.6173 12.1989C11.3935 12.5804 11.042 12.8705 10.625 13.018ZM12.5 6.875H7.5V5C7.5 4.33696 7.76339 3.70107 8.23223 3.23223C8.70107 2.76339 9.33696 2.5 10 2.5C10.663 2.5 11.2989 2.76339 11.7678 3.23223C12.2366 3.70107 12.5 4.33696 12.5 5V6.875Z" fill="white"/>
</svg>
