<svg width="23" height="28" viewBox="0 0 23 28" fill="none" xmlns="http://www.w3.org/2000/svg">
<path d="M11.5 0C8.58363 0.00330842 5.78766 1.1633 3.72548 3.22548C1.6633 5.28766 0.503308 8.08363 0.5 11C0.5 20.4125 10.5 27.5212 10.9263 27.8188C11.0944 27.9365 11.2947 27.9997 11.5 27.9997C11.7053 27.9997 11.9056 27.9365 12.0737 27.8188C12.5 27.5212 22.5 20.4125 22.5 11C22.4967 8.08363 21.3367 5.28766 19.2745 3.22548C17.2123 1.1633 14.4164 0.00330842 11.5 0ZM11.5 7C12.2911 7 13.0645 7.2346 13.7223 7.67412C14.3801 8.11365 14.8928 8.73836 15.1955 9.46927C15.4983 10.2002 15.5775 11.0044 15.4231 11.7804C15.2688 12.5563 14.8878 13.269 14.3284 13.8284C13.769 14.3878 13.0563 14.7688 12.2804 14.9231C11.5044 15.0775 10.7002 14.9983 9.96927 14.6955C9.23836 14.3928 8.61365 13.8801 8.17412 13.2223C7.7346 12.5645 7.5 11.7911 7.5 11C7.5 9.93913 7.92143 8.92172 8.67157 8.17157C9.42172 7.42143 10.4391 7 11.5 7Z" fill="#1721C9"/>
</svg>
