<svg width="22" height="22" viewBox="0 0 22 22" fill="none" xmlns="http://www.w3.org/2000/svg">
<path fill-rule="evenodd" clip-rule="evenodd" d="M15.6825 6.81343C15.3954 6.52779 14.931 6.529 14.6454 6.81613L6.87806 14.6239C6.59242 14.911 6.59363 15.3754 6.88075 15.661C7.16788 15.9466 7.6322 15.9454 7.91784 15.6583L15.6852 7.85052C15.9708 7.56339 15.9696 7.09907 15.6825 6.81343Z" fill="#100F0F"/>
<path fill-rule="evenodd" clip-rule="evenodd" d="M15.1653 14.4105C15.5703 14.4105 15.8986 14.0821 15.8986 13.6771V7.3333C15.8986 6.9283 15.5703 6.59997 15.1653 6.59997H8.85432C8.44932 6.59997 8.12099 6.9283 8.12099 7.3333C8.12099 7.73831 8.44932 8.06664 8.85432 8.06664H14.432V13.6771C14.432 14.0821 14.7603 14.4105 15.1653 14.4105Z" fill="#100F0F"/>
<path fill-rule="evenodd" clip-rule="evenodd" d="M11 22C17.0751 22 22 17.0751 22 11C22 4.92487 17.0751 0 11 0C4.92487 0 0 4.92487 0 11C0 17.0751 4.92487 22 11 22ZM20.5333 11C20.5333 16.2651 16.2651 20.5333 11 20.5333C5.73489 20.5333 1.46667 16.2651 1.46667 11C1.46667 5.73489 5.73489 1.46667 11 1.46667C16.2651 1.46667 20.5333 5.73489 20.5333 11Z" fill="#100F0F"/>
</svg>
