
<svg width="24" height="24" viewBox="0 0 24 24" fill="none" xmlns="http://www.w3.org/2000/svg">
<path d="M6 6.75H9.73125C10.0041 6.73407 14.7581 6.39938 19.2853 2.6025C19.5039 2.4189 19.7704 2.30149 20.0534 2.26408C20.3365 2.22667 20.6243 2.2708 20.8831 2.3913C21.1419 2.5118 21.361 2.70366 21.5145 2.94433C21.6681 3.18501 21.7498 3.46451 21.75 3.75V18.75C21.75 19.0356 21.6684 19.3152 21.5149 19.556C21.3614 19.7968 21.1424 19.9888 20.8835 20.1094C20.6247 20.2301 20.3368 20.2743 20.0537 20.2369C19.7706 20.1995 19.504 20.0821 19.2853 19.8984C15.7444 16.9284 12.0666 16.0772 10.5 15.8391V18.8128C10.5003 19.06 10.4395 19.3034 10.3231 19.5214C10.2066 19.7395 10.0381 19.9253 9.8325 20.0625L8.80125 20.7497C8.60192 20.8827 8.37362 20.9661 8.13546 20.9927C7.8973 21.0194 7.65622 20.9886 7.43241 20.903C7.20859 20.8173 7.00855 20.6793 6.84904 20.5004C6.68954 20.3216 6.57521 20.1071 6.51562 19.875L5.41219 15.7163C4.2715 15.5761 3.22765 15.0048 2.49473 14.1196C1.76181 13.2344 1.39536 12.1023 1.47055 10.9555C1.54573 9.80865 2.05684 8.73407 2.89906 7.95209C3.74128 7.17012 4.85077 6.74002 6 6.75ZM7.96875 19.4897V19.5L9 18.8128V15.75H6.975L7.96875 19.4897ZM6 14.25H9V8.25H6C5.20435 8.25 4.44129 8.56607 3.87868 9.12868C3.31607 9.69129 3 10.4544 3 11.25C3 12.0457 3.31607 12.8087 3.87868 13.3713C4.44129 13.9339 5.20435 14.25 6 14.25Z" fill="#4F4FCE"/>
</svg>
