<svg width="40" height="40" viewBox="0 0 40 40" fill="none" xmlns="http://www.w3.org/2000/svg">
<rect width="40" height="40" rx="20" fill="#F5F5F5"/>
<path d="M28.7938 24.4944C28.2734 23.5981 27.5 21.0622 27.5 17.75C27.5 15.7609 26.7098 13.8532 25.3033 12.4467C23.8968 11.0402 21.9891 10.25 20 10.25C18.0109 10.25 16.1032 11.0402 14.6967 12.4467C13.2902 13.8532 12.5 15.7609 12.5 17.75C12.5 21.0631 11.7256 23.5981 11.2053 24.4944C11.0725 24.7222 11.002 24.9811 11.0011 25.2449C11.0002 25.5086 11.0689 25.768 11.2002 25.9967C11.3315 26.2255 11.5208 26.4156 11.749 26.5478C11.9772 26.6801 12.2362 26.7498 12.5 26.75H16.3259C16.499 27.5967 16.9592 28.3577 17.6286 28.9042C18.2981 29.4507 19.1358 29.7492 20 29.7492C20.8642 29.7492 21.7019 29.4507 22.3714 28.9042C23.0409 28.3577 23.501 27.5967 23.6741 26.75H27.5C27.7637 26.7496 28.0226 26.6798 28.2507 26.5475C28.4788 26.4151 28.668 26.225 28.7992 25.9963C28.9303 25.7676 28.9989 25.5083 28.998 25.2446C28.997 24.9809 28.9266 24.7222 28.7938 24.4944ZM20 28.25C19.5348 28.2499 19.0812 28.1055 18.7014 27.8369C18.3216 27.5683 18.0344 27.1886 17.8794 26.75H22.1206C21.9656 27.1886 21.6784 27.5683 21.2986 27.8369C20.9189 28.1055 20.4652 28.2499 20 28.25Z" fill="#1721C9"/>
</svg>
