<svg width="67" height="67" viewBox="0 0 67 67" fill="none" xmlns="http://www.w3.org/2000/svg">
<circle cx="33.5" cy="33.5" r="33" fill="#F5F5F5"/>
<path d="M45.2451 42.7553L39.6799 37.1877C41.3485 35.0133 42.1276 32.2855 41.859 29.5578C41.5904 26.8301 40.2943 24.3067 38.2336 22.4994C36.1729 20.6922 33.502 19.7364 30.7625 19.8261C28.0231 19.9158 25.4203 21.0441 23.4822 22.9822C21.5441 24.9203 20.4158 27.5231 20.3261 30.2625C20.2364 33.002 21.1922 35.6729 22.9994 37.7336C24.8067 39.7943 27.3301 41.0904 30.0578 41.359C32.7855 41.6276 35.5133 40.8485 37.6877 39.1799L43.2576 44.751C43.3884 44.8818 43.5437 44.9856 43.7146 45.0564C43.8856 45.1271 44.0687 45.1636 44.2537 45.1636C44.4387 45.1636 44.6219 45.1271 44.7928 45.0564C44.9637 44.9856 45.119 44.8818 45.2498 44.751C45.3806 44.6202 45.4844 44.4649 45.5552 44.294C45.626 44.1231 45.6624 43.9399 45.6624 43.7549C45.6624 43.5699 45.626 43.3867 45.5552 43.2158C45.4844 43.0449 45.3806 42.8896 45.2498 42.7588L45.2451 42.7553ZM23.1565 30.6252C23.1565 29.0491 23.6238 27.5085 24.4994 26.198C25.3751 24.8876 26.6196 23.8662 28.0757 23.263C29.5318 22.6599 31.134 22.5021 32.6798 22.8096C34.2256 23.117 35.6455 23.876 36.76 24.9904C37.8744 26.1049 38.6334 27.5248 38.9408 29.0706C39.2483 30.6164 39.0905 32.2186 38.4874 33.6747C37.8842 35.1308 36.8629 36.3754 35.5524 37.251C34.242 38.1266 32.7013 38.594 31.1252 38.594C29.0124 38.5918 26.9868 37.7515 25.4928 36.2576C23.9989 34.7636 23.1586 32.738 23.1565 30.6252Z" fill="#DCDCDC"/>
</svg>
