<svg width="32" height="33" viewBox="0 0 32 33" fill="none" xmlns="http://www.w3.org/2000/svg">
<path d="M27 9.5H7C6.73478 9.5 6.48043 9.39464 6.29289 9.20711C6.10536 9.01957 6 8.76522 6 8.5C6 8.23478 6.10536 7.98043 6.29289 7.79289C6.48043 7.60536 6.73478 7.5 7 7.5H24C24.2652 7.5 24.5196 7.39464 24.7071 7.20711C24.8946 7.01957 25 6.76522 25 6.5C25 6.23478 24.8946 5.98043 24.7071 5.79289C24.5196 5.60536 24.2652 5.5 24 5.5H7C6.20435 5.5 5.44129 5.81607 4.87868 6.37868C4.31607 6.94129 4 7.70435 4 8.5V24.5C4 25.2956 4.31607 26.0587 4.87868 26.6213C5.44129 27.1839 6.20435 27.5 7 27.5H27C27.5304 27.5 28.0391 27.2893 28.4142 26.9142C28.7893 26.5391 29 26.0304 29 25.5V11.5C29 10.9696 28.7893 10.4609 28.4142 10.0858C28.0391 9.71071 27.5304 9.5 27 9.5ZM22.5 19.5C22.2033 19.5 21.9133 19.412 21.6666 19.2472C21.42 19.0824 21.2277 18.8481 21.1142 18.574C21.0007 18.2999 20.9709 17.9983 21.0288 17.7074C21.0867 17.4164 21.2296 17.1491 21.4393 16.9393C21.6491 16.7296 21.9164 16.5867 22.2074 16.5288C22.4983 16.4709 22.7999 16.5007 23.074 16.6142C23.3481 16.7277 23.5824 16.92 23.7472 17.1666C23.912 17.4133 24 17.7033 24 18C24 18.3978 23.842 18.7794 23.5607 19.0607C23.2794 19.342 22.8978 19.5 22.5 19.5Z" fill="white"/>
</svg>
