<svg width="144" height="144" viewBox="0 0 144 144" fill="none" xmlns="http://www.w3.org/2000/svg">
<circle opacity="0.03" cx="72" cy="72" r="72" fill="white"/>
<circle opacity="0.05" cx="72" cy="72" r="60" fill="white"/>
<ellipse opacity="0.07" cx="71.9727" cy="71.8281" rx="48" ry="48" fill="white"/>
<path d="M64 55H81V91H64V55Z" fill="white"/>
<path fill-rule="evenodd" clip-rule="evenodd" d="M71.5 46C66.3577 46 61.3309 47.5249 57.0552 50.3818C52.7795 53.2387 49.447 57.2994 47.4791 62.0502C45.5113 66.8011 44.9964 72.0288 45.9996 77.0723C47.0028 82.1159 49.4791 86.7486 53.1152 90.3848C56.7514 94.0209 61.3842 96.4972 66.4277 97.5004C71.4712 98.5036 76.6989 97.9887 81.4498 96.0209C86.2007 94.053 90.2613 90.7205 93.1182 86.4448C95.9751 82.1691 97.5 77.1423 97.5 72C97.4927 65.1066 94.7511 58.4976 89.8767 53.6233C85.0024 48.7489 78.3934 46.0073 71.5 46ZM69.5 60C69.5 59.4696 69.7107 58.9609 70.0858 58.5858C70.4609 58.2107 70.9696 58 71.5 58C72.0304 58 72.5392 58.2107 72.9142 58.5858C73.2893 58.9609 73.5 59.4696 73.5 60V74C73.5 74.5304 73.2893 75.0391 72.9142 75.4142C72.5392 75.7893 72.0304 76 71.5 76C70.9696 76 70.4609 75.7893 70.0858 75.4142C69.7107 75.0391 69.5 74.5304 69.5 74V60ZM71.5 86C70.9067 86 70.3266 85.8241 69.8333 85.4944C69.34 85.1648 68.9554 84.6962 68.7284 84.148C68.5013 83.5999 68.4419 82.9967 68.5577 82.4147C68.6734 81.8328 68.9591 81.2982 69.3787 80.8787C69.7982 80.4591 70.3328 80.1734 70.9147 80.0576C71.4967 79.9419 72.0999 80.0013 72.6481 80.2284C73.1962 80.4554 73.6648 80.8399 73.9944 81.3333C74.3241 81.8266 74.5 82.4067 74.5 83C74.5 83.7956 74.1839 84.5587 73.6213 85.1213C73.0587 85.6839 72.2957 86 71.5 86Z" fill="#D4221F"/>
</svg>
