<svg width="81" height="80" viewBox="0 0 81 80" fill="none" xmlns="http://www.w3.org/2000/svg">
<rect x="0.5" width="80" height="80" rx="40" fill="#F1F3F5"/>
<path d="M49.5 19H31.5C30.3065 19 29.1619 19.4741 28.318 20.318C27.4741 21.1619 27 22.3065 27 23.5V56.5C27 57.6935 27.4741 58.8381 28.318 59.682C29.1619 60.5259 30.3065 61 31.5 61H49.5C50.6935 61 51.8381 60.5259 52.682 59.682C53.5259 58.8381 54 57.6935 54 56.5V23.5C54 22.3065 53.5259 21.1619 52.682 20.318C51.8381 19.4741 50.6935 19 49.5 19ZM40.5 29.5C40.055 29.5 39.62 29.368 39.25 29.1208C38.88 28.8736 38.5916 28.5222 38.4213 28.111C38.251 27.6999 38.2064 27.2475 38.2932 26.811C38.38 26.3746 38.5943 25.9737 38.909 25.659C39.2237 25.3443 39.6246 25.13 40.061 25.0432C40.4975 24.9564 40.9499 25.001 41.361 25.1713C41.7722 25.3416 42.1236 25.63 42.3708 26C42.618 26.37 42.75 26.805 42.75 27.25C42.75 27.8467 42.5129 28.419 42.091 28.841C41.669 29.2629 41.0967 29.5 40.5 29.5Z" fill="#1721C9"/>
<path d="M32.5891 48.1074L32.6844 46.2764L31.2195 47.2358L30.553 46.1885L32.2083 45.3096L30.553 44.438L31.2195 43.3906L32.6844 44.3428L32.5891 42.519H33.9295L33.8416 44.3354L35.2918 43.3833L35.9656 44.4307L34.3103 45.3096L35.9656 46.1885L35.2918 47.2358L33.8416 46.2837L33.9295 48.1074H32.5891ZM39.8262 48.1074L39.9214 46.2764L38.4565 47.2358L37.79 46.1885L39.4453 45.3096L37.79 44.438L38.4565 43.3906L39.9214 44.3428L39.8262 42.519H41.1665L41.0786 44.3354L42.5288 43.3833L43.2026 44.4307L41.5474 45.3096L43.2026 46.1885L42.5288 47.2358L41.0786 46.2837L41.1665 48.1074H39.8262ZM47.0632 48.1074L47.1584 46.2764L45.6936 47.2358L45.0271 46.1885L46.6823 45.3096L45.0271 44.438L45.6936 43.3906L47.1584 44.3428L47.0632 42.519H48.4035L48.3156 44.3354L49.7658 43.3833L50.4397 44.4307L48.7844 45.3096L50.4397 46.1885L49.7658 47.2358L48.3156 46.2837L48.4035 48.1074H47.0632Z" fill="white"/>
</svg>
