<svg width="144" height="144" viewBox="0 0 144 144" fill="none" xmlns="http://www.w3.org/2000/svg">
<circle opacity="0.05" cx="72" cy="72" r="72" fill="#F59B99"/>
<circle opacity="0.15" cx="71.6747" cy="71.6748" r="60" fill="#F59B99"/>
<ellipse opacity="0.2" cx="72.3397" cy="72.3398" rx="48" ry="48" fill="#F59B99"/>
<path d="M71.5581 49.1675C67.1293 49.1675 62.8 50.4808 59.1176 52.9413C55.4352 55.4018 52.5651 58.899 50.8703 62.9906C49.1755 67.0823 48.732 71.5847 49.596 75.9284C50.4601 80.272 52.5927 84.262 55.7243 87.3936C58.856 90.5252 62.8459 92.6579 67.1896 93.5219C71.5333 94.3859 76.0356 93.9425 80.1273 92.2476C84.219 90.5528 87.7162 87.6827 90.1767 84.0003C92.6372 80.3179 93.9505 75.9886 93.9505 71.5598C93.9442 65.6229 91.583 59.931 87.385 55.733C83.187 51.5349 77.495 49.1737 71.5581 49.1675ZM69.8356 61.2249C69.8356 60.7681 70.0171 60.3299 70.3401 60.0069C70.6632 59.6839 71.1013 59.5024 71.5581 59.5024C72.015 59.5024 72.4531 59.6839 72.7761 60.0069C73.0991 60.3299 73.2806 60.7681 73.2806 61.2249V73.2823C73.2806 73.7391 73.0991 74.1773 72.7761 74.5003C72.4531 74.8233 72.015 75.0048 71.5581 75.0048C71.1013 75.0048 70.6632 74.8233 70.3401 74.5003C70.0171 74.1773 69.8356 73.7391 69.8356 73.2823V61.2249ZM71.5581 83.6172C71.0471 83.6172 70.5476 83.4657 70.1227 83.1818C69.6978 82.8979 69.3666 82.4944 69.1711 82.0223C68.9755 81.5501 68.9243 81.0306 69.024 80.5294C69.1237 80.0283 69.3698 79.5679 69.7311 79.2065C70.0925 78.8452 70.5529 78.5991 71.0541 78.4994C71.5553 78.3997 72.0748 78.4509 72.5469 78.6465C73.019 78.842 73.4225 79.1732 73.7064 79.5981C73.9903 80.023 74.1419 80.5225 74.1419 81.0335C74.1419 81.7188 73.8696 82.3759 73.3851 82.8605C72.9006 83.345 72.2434 83.6172 71.5581 83.6172Z" fill="#F69520"/>
</svg>
