<svg width="27" height="28" viewBox="0 0 27 28" fill="none" xmlns="http://www.w3.org/2000/svg">
<path d="M2.83366 4.66699C2.83366 3.93062 3.43062 3.33366 4.16699 3.33366H6.83366C7.57003 3.33366 8.16699 2.7367 8.16699 2.00033C8.16699 1.26395 7.57003 0.666992 6.83366 0.666992H4.16699C1.95786 0.666992 0.166992 2.45786 0.166992 4.66699V7.33366C0.166992 8.07005 0.763952 8.66699 1.50033 8.66699C2.2367 8.66699 2.83366 8.07005 2.83366 7.33366V4.66699Z" fill="#C8C8F0"/>
<path d="M24.1673 23.334C24.1673 24.0704 23.5704 24.6673 22.834 24.6673H20.1673C19.4309 24.6673 18.834 25.2643 18.834 26.0007C18.834 26.7371 19.4309 27.334 20.1673 27.334H22.834C25.0432 27.334 26.834 25.5432 26.834 23.334V20.6673C26.834 19.9309 26.2371 19.334 25.5007 19.334C24.7643 19.334 24.1673 19.9309 24.1673 20.6673V23.334Z" fill="#C8C8F0"/>
<path d="M2.83366 23.334C2.83366 24.0704 3.43062 24.6673 4.16699 24.6673H6.83366C7.57005 24.6673 8.16699 25.2643 8.16699 26.0007C8.16699 26.7371 7.57005 27.334 6.83366 27.334H4.16699C1.95786 27.334 0.166992 25.5432 0.166992 23.334V20.6673C0.166992 19.9309 0.763952 19.334 1.50033 19.334C2.23671 19.334 2.83366 19.9309 2.83366 20.6673V23.334Z" fill="#C8C8F0"/>
<path d="M22.834 3.33366C23.5704 3.33366 24.1673 3.93062 24.1673 4.66699V7.33366C24.1673 8.07003 24.7643 8.66699 25.5007 8.66699C26.2371 8.66699 26.834 8.07005 26.834 7.33366V4.66699C26.834 2.45786 25.0432 0.666992 22.834 0.666992H20.1673C19.4309 0.666992 18.834 1.26395 18.834 2.00033C18.834 2.7367 19.4309 3.33366 20.1673 3.33366H22.834Z" fill="#C8C8F0"/>
<path d="M5.5 11.3333C5.5 12.0697 6.09696 12.6667 6.83333 12.6667H10.8333C11.5697 12.6667 12.1667 12.0697 12.1667 11.3333V7.33333C12.1667 6.59696 11.5697 6 10.8333 6H6.83333C6.09696 6 5.5 6.59695 5.5 7.33333V11.3333Z" fill="white"/>
<path d="M5.5 20.6673C5.5 21.4037 6.09696 22.0007 6.83333 22.0007H10.8333C11.5697 22.0007 12.1667 21.4037 12.1667 20.6673V16.6673C12.1667 15.9309 11.5697 15.334 10.8333 15.334H6.83333C6.09696 15.334 5.5 15.9309 5.5 16.6673V20.6673Z" fill="white"/>
<path d="M14.834 11.3333C14.834 12.0697 15.4309 12.6667 16.1673 12.6667H20.1673C20.9037 12.6667 21.5007 12.0697 21.5007 11.3333V7.33333C21.5007 6.59696 20.9037 6 20.1673 6H16.1673C15.4309 6 14.834 6.59695 14.834 7.33333V11.3333Z" fill="white"/>
<path d="M14.834 20.6673C14.834 21.4037 15.4309 22.0007 16.1673 22.0007H20.1673C20.9037 22.0007 21.5007 21.4037 21.5007 20.6673V16.6673C21.5007 15.9309 20.9037 15.334 20.1673 15.334H16.1673C15.4309 15.334 14.834 15.9309 14.834 16.6673V20.6673Z" fill="white"/>
</svg>
