<svg width="28" height="28" viewBox="0 0 28 28" fill="none" xmlns="http://www.w3.org/2000/svg">
<path d="M11.375 4.375H6.125C5.1585 4.375 4.375 5.1585 4.375 6.125V11.375C4.375 12.3415 5.1585 13.125 6.125 13.125H11.375C12.3415 13.125 13.125 12.3415 13.125 11.375V6.125C13.125 5.1585 12.3415 4.375 11.375 4.375Z" fill="white"/>
<path d="M11.375 14.875H6.125C5.1585 14.875 4.375 15.6585 4.375 16.625V21.875C4.375 22.8415 5.1585 23.625 6.125 23.625H11.375C12.3415 23.625 13.125 22.8415 13.125 21.875V16.625C13.125 15.6585 12.3415 14.875 11.375 14.875Z" fill="white"/>
<path d="M21.875 4.375H16.625C15.6585 4.375 14.875 5.1585 14.875 6.125V11.375C14.875 12.3415 15.6585 13.125 16.625 13.125H21.875C22.8415 13.125 23.625 12.3415 23.625 11.375V6.125C23.625 5.1585 22.8415 4.375 21.875 4.375Z" fill="white"/>
<path d="M15.75 20.125C15.9821 20.125 16.2046 20.0328 16.3687 19.8687C16.5328 19.7046 16.625 19.4821 16.625 19.25V15.75C16.625 15.5179 16.5328 15.2954 16.3687 15.1313C16.2046 14.9672 15.9821 14.875 15.75 14.875C15.5179 14.875 15.2954 14.9672 15.1313 15.1313C14.9672 15.2954 14.875 15.5179 14.875 15.75V19.25C14.875 19.4821 14.9672 19.7046 15.1313 19.8687C15.2954 20.0328 15.5179 20.125 15.75 20.125Z" fill="white"/>
<path d="M22.75 16.625H20.125V15.75C20.125 15.5179 20.0328 15.2954 19.8687 15.1313C19.7046 14.9672 19.4821 14.875 19.25 14.875C19.0179 14.875 18.7954 14.9672 18.6313 15.1313C18.4672 15.2954 18.375 15.5179 18.375 15.75V21.875H15.75C15.5179 21.875 15.2954 21.9672 15.1313 22.1313C14.9672 22.2954 14.875 22.5179 14.875 22.75C14.875 22.9821 14.9672 23.2046 15.1313 23.3687C15.2954 23.5328 15.5179 23.625 15.75 23.625H19.25C19.4821 23.625 19.7046 23.5328 19.8687 23.3687C20.0328 23.2046 20.125 22.9821 20.125 22.75V18.375H22.75C22.9821 18.375 23.2046 18.2828 23.3687 18.1187C23.5328 17.9546 23.625 17.7321 23.625 17.5C23.625 17.2679 23.5328 17.0454 23.3687 16.8813C23.2046 16.7172 22.9821 16.625 22.75 16.625Z" fill="white"/>
<path d="M22.75 20.125C22.5179 20.125 22.2954 20.2172 22.1313 20.3813C21.9672 20.5454 21.875 20.7679 21.875 21V22.75C21.875 22.9821 21.9672 23.2046 22.1313 23.3687C22.2954 23.5328 22.5179 23.625 22.75 23.625C22.9821 23.625 23.2046 23.5328 23.3687 23.3687C23.5328 23.2046 23.625 22.9821 23.625 22.75V21C23.625 20.7679 23.5328 20.5454 23.3687 20.3813C23.2046 20.2172 22.9821 20.125 22.75 20.125Z" fill="white"/>
</svg>
