<svg width="16" height="16" viewBox="0 0 16 16" fill="none" xmlns="http://www.w3.org/2000/svg">
<path d="M8 0.6875C6.55373 0.6875 5.13993 1.11637 3.9374 1.91988C2.73486 2.72339 1.7976 3.86544 1.24413 5.20163C0.690668 6.53781 0.545857 8.00811 0.828011 9.4266C1.11017 10.8451 1.80661 12.148 2.82928 13.1707C3.85196 14.1934 5.15492 14.8898 6.57341 15.172C7.99189 15.4541 9.46219 15.3093 10.7984 14.7559C12.1346 14.2024 13.2766 13.2651 14.0801 12.0626C14.8836 10.8601 15.3125 9.44628 15.3125 8C15.3105 6.06123 14.5394 4.20246 13.1685 2.83154C11.7975 1.46063 9.93877 0.689547 8 0.6875ZM8 12.5C7.83313 12.5 7.66999 12.4505 7.53124 12.3578C7.39249 12.2651 7.28434 12.1333 7.22048 11.9791C7.15662 11.825 7.13991 11.6553 7.17247 11.4916C7.20502 11.328 7.28538 11.1776 7.40338 11.0596C7.52138 10.9416 7.67172 10.8613 7.8354 10.8287C7.99907 10.7962 8.16872 10.8129 8.32289 10.8767C8.47707 10.9406 8.60884 11.0487 8.70156 11.1875C8.79427 11.3262 8.84375 11.4894 8.84375 11.6562C8.84375 11.88 8.75486 12.0946 8.59662 12.2529C8.43839 12.4111 8.22378 12.5 8 12.5ZM8.5625 9.07438V9.125C8.5625 9.27418 8.50324 9.41726 8.39775 9.52275C8.29226 9.62824 8.14919 9.6875 8 9.6875C7.85082 9.6875 7.70775 9.62824 7.60226 9.52275C7.49677 9.41726 7.4375 9.27418 7.4375 9.125V8.5625C7.4375 8.41332 7.49677 8.27024 7.60226 8.16475C7.70775 8.05926 7.85082 8 8 8C8.93024 8 9.6875 7.36719 9.6875 6.59375C9.6875 5.82031 8.93024 5.1875 8 5.1875C7.06977 5.1875 6.3125 5.82031 6.3125 6.59375V6.875C6.3125 7.02418 6.25324 7.16726 6.14775 7.27275C6.04226 7.37824 5.89919 7.4375 5.75 7.4375C5.60082 7.4375 5.45775 7.37824 5.35226 7.27275C5.24677 7.16726 5.1875 7.02418 5.1875 6.875V6.59375C5.1875 5.19805 6.44891 4.0625 8 4.0625C9.5511 4.0625 10.8125 5.19805 10.8125 6.59375C10.8125 7.81578 9.845 8.83883 8.5625 9.07438Z" fill="#454769"/>
</svg>
