<svg width="24" height="24" viewBox="0 0 24 24" fill="none" xmlns="http://www.w3.org/2000/svg">
<path d="M22.8752 5.25005V9.75005C22.8752 10.0484 22.7567 10.3346 22.5457 10.5455C22.3347 10.7565 22.0486 10.875 21.7502 10.875H17.2502C16.9518 10.875 16.6657 10.7565 16.4547 10.5455C16.2437 10.3346 16.1252 10.0484 16.1252 9.75005C16.1252 9.45168 16.2437 9.16553 16.4547 8.95455C16.6657 8.74357 16.9518 8.62505 17.2502 8.62505H18.8533L17.0721 6.99567C17.0599 6.98442 17.0477 6.97317 17.0365 6.96098C16.2105 6.13557 15.1944 5.52579 14.0775 5.1853C12.9606 4.84481 11.7771 4.78405 10.6312 5.00836C9.48524 5.23267 8.412 5.73517 7.50589 6.47166C6.59978 7.20815 5.88856 8.15605 5.43482 9.23195C4.98107 10.3079 4.79871 11.4788 4.90377 12.6417C5.00883 13.8047 5.39809 14.9239 6.03731 15.9011C6.67653 16.8783 7.54612 17.6834 8.56955 18.2455C9.59298 18.8077 10.7389 19.1097 11.9065 19.125H12.0002C13.8189 19.1294 15.5695 18.4339 16.8893 17.1825C17.1062 16.9775 17.3957 16.8671 17.6941 16.8756C17.9924 16.884 18.2752 17.0106 18.4802 17.2275C18.6852 17.4445 18.7956 17.734 18.7872 18.0323C18.7788 18.3307 18.6522 18.6135 18.4352 18.8185C16.6979 20.4651 14.3939 21.3805 12.0002 21.375H11.8718C10.3371 21.3534 8.83127 20.9553 7.48642 20.2158C6.14156 19.4762 4.99884 18.4178 4.15861 17.1334C3.31837 15.849 2.80631 14.378 2.66739 12.8495C2.52847 11.321 2.76694 9.78181 3.36186 8.36701C3.95679 6.95221 4.88996 5.70511 6.07945 4.7352C7.26894 3.7653 8.67837 3.10227 10.184 2.80432C11.6896 2.50638 13.2453 2.58263 14.7145 3.02639C16.1838 3.47015 17.5216 4.26784 18.6105 5.34942L20.6252 7.19255V5.25005C20.6252 4.95168 20.7437 4.66553 20.9547 4.45455C21.1657 4.24357 21.4518 4.12505 21.7502 4.12505C22.0486 4.12505 22.3347 4.24357 22.5457 4.45455C22.7567 4.66553 22.8752 4.95168 22.8752 5.25005Z" fill="#454769"/>
</svg>
