<svg width="41" height="40" viewBox="0 0 41 40" fill="none" xmlns="http://www.w3.org/2000/svg">
<rect x="0.625" width="40" height="40" rx="20" fill="#F5F5F5"/>
<path d="M28.125 11.75H13.125C12.7272 11.75 12.3456 11.908 12.0643 12.1893C11.783 12.4706 11.625 12.8522 11.625 13.25V18.7597C11.625 27.1616 18.7331 29.9478 20.1562 30.4203C20.4601 30.5243 20.7899 30.5243 21.0938 30.4203C22.5187 29.9469 29.625 27.1606 29.625 18.7588V13.25C29.625 12.8522 29.467 12.4706 29.1857 12.1893C28.9044 11.908 28.5228 11.75 28.125 11.75ZM13.1869 20H20.625V13.25H28.125V18.7597C28.1253 19.1733 28.1047 19.5866 28.0631 19.9981H20.625V28.9981C19.4306 28.5997 13.8366 26.3994 13.1869 20Z" fill="#1721C9"/>
</svg>
