<svg width="14" height="15" viewBox="0 0 14 15" fill="none" xmlns="http://www.w3.org/2000/svg">
<path d="M13.6565 6.89863L10.8377 9.35863L11.6821 13.0211C11.7268 13.2126 11.714 13.413 11.6454 13.5972C11.5768 13.7815 11.4555 13.9414 11.2965 14.0571C11.1375 14.1727 10.9479 14.239 10.7515 14.2475C10.5551 14.256 10.3605 14.2064 10.1921 14.1049L6.99771 12.1674L3.81021 14.1049C3.64182 14.2064 3.44724 14.256 3.25082 14.2475C3.05439 14.239 2.86483 14.1727 2.70583 14.0571C2.54683 13.9414 2.42545 13.7815 2.35686 13.5972C2.28828 13.413 2.27553 13.2126 2.32021 13.0211L3.16333 9.36238L0.343959 6.89863C0.19484 6.77002 0.0870106 6.60024 0.0339942 6.41059C-0.0190223 6.22094 -0.014866 6.01986 0.0459417 5.83257C0.106749 5.64527 0.221502 5.4801 0.375808 5.35776C0.530115 5.23542 0.717107 5.16137 0.913334 5.14488L4.62958 4.823L6.08021 1.363C6.15596 1.18145 6.28374 1.02637 6.44745 0.917286C6.61116 0.808205 6.80349 0.75 7.00021 0.75C7.19693 0.75 7.38926 0.808205 7.55297 0.917286C7.71668 1.02637 7.84446 1.18145 7.92021 1.363L9.37521 4.823L13.0902 5.14488C13.2864 5.16137 13.4734 5.23542 13.6277 5.35776C13.782 5.4801 13.8968 5.64527 13.9576 5.83257C14.0184 6.01986 14.0226 6.22094 13.9696 6.41059C13.9165 6.60024 13.8087 6.77002 13.6596 6.89863H13.6565Z" fill="#1721C9"/>
</svg>
