<svg width="29" height="28" viewBox="0 0 29 28" fill="none" xmlns="http://www.w3.org/2000/svg">
<path fill-rule="evenodd" clip-rule="evenodd" d="M23.1247 22.2496C18.5686 26.8057 11.1817 26.8057 6.62558 22.2496C2.06947 17.6935 2.06947 10.3065 6.62558 5.75041C11.1817 1.1943 18.5686 1.1943 23.1247 5.75042C27.6809 10.3065 27.6809 17.6935 23.1247 22.2496ZM11.1254 16.2499C10.7112 16.6641 10.7112 17.3356 11.1254 17.7498C11.5395 18.164 12.2111 18.164 12.6253 17.7498L16.8144 13.5607V16.9998C16.8144 17.5856 17.2893 18.0604 17.875 18.0604C18.4608 18.0604 18.9356 17.5856 18.9356 16.9998L18.9356 11.0012L18.9356 10.9904C18.9343 10.8501 18.9058 10.7164 18.8551 10.5942C18.8038 10.47 18.7278 10.3536 18.6272 10.2524L18.625 10.2502L18.6227 10.2479C18.4184 10.0448 18.152 9.94204 17.8848 9.93959L17.8739 9.93954H11.8753C11.2896 9.93954 10.8147 10.4144 10.8147 11.0001C10.8147 11.5859 11.2896 12.0608 11.8753 12.0608H15.3145L11.1254 16.2499Z" fill="#4F4FCE"/>
</svg>
