<svg width="44" height="44" viewBox="0 0 44 44" fill="none" xmlns="http://www.w3.org/2000/svg">
<path d="M2 22C2 10.9543 10.9543 2 22 2C33.0457 2 42 10.9543 42 22C42 33.0457 33.0457 42 22 42C10.9543 42 2 33.0457 2 22Z" fill="white"/>
<path d="M2 22C2 10.9543 10.9543 2 22 2C33.0457 2 42 10.9543 42 22C42 33.0457 33.0457 42 22 42C10.9543 42 2 33.0457 2 22Z" stroke="#F1F3F5" stroke-width="4"/>
<path d="M21.2949 25.7039C21.3998 25.8084 21.483 25.9326 21.5398 26.0694C21.5966 26.2061 21.6258 26.3527 21.6258 26.5008C21.6258 26.6489 21.5966 26.7955 21.5398 26.9322C21.483 27.069 21.3998 27.1932 21.2949 27.2977L18.2949 30.2977C18.1904 30.4026 18.0662 30.4858 17.9295 30.5426C17.7927 30.5993 17.6461 30.6286 17.498 30.6286C17.35 30.6286 17.2034 30.5993 17.0666 30.5426C16.9299 30.4858 16.8057 30.4026 16.7012 30.2977L13.7012 27.2977C13.5965 27.193 13.5135 27.0688 13.4569 26.9321C13.4002 26.7953 13.3711 26.6488 13.3711 26.5008C13.3711 26.3528 13.4002 26.2063 13.4569 26.0695C13.5135 25.9328 13.5965 25.8086 13.7012 25.7039C13.8058 25.5993 13.9301 25.5163 14.0668 25.4596C14.2035 25.403 14.3501 25.3739 14.498 25.3739C14.646 25.3739 14.7926 25.403 14.9293 25.4596C15.066 25.5163 15.1903 25.5993 15.2949 25.7039L16.374 26.7811V14.4999C16.374 14.2015 16.4925 13.9154 16.7035 13.7044C16.9145 13.4934 17.2006 13.3749 17.499 13.3749C17.7974 13.3749 18.0835 13.4934 18.2945 13.7044C18.5055 13.9154 18.624 14.2015 18.624 14.4999V26.7811L19.703 25.7011C19.8077 25.5967 19.9319 25.5139 20.0686 25.4576C20.2053 25.4012 20.3517 25.3723 20.4996 25.3726C20.6474 25.3728 20.7937 25.4022 20.9302 25.4591C21.0667 25.516 21.1906 25.5992 21.2949 25.7039ZM30.2949 16.7039L27.2949 13.7039C27.1904 13.5991 27.0662 13.5158 26.9295 13.4591C26.7927 13.4023 26.6461 13.373 26.498 13.373C26.35 13.373 26.2034 13.4023 26.0666 13.4591C25.9299 13.5158 25.8057 13.5991 25.7012 13.7039L22.7012 16.7039C22.4898 16.9153 22.3711 17.2019 22.3711 17.5008C22.3711 17.7997 22.4898 18.0863 22.7012 18.2977C22.9125 18.509 23.1992 18.6278 23.498 18.6278C23.7969 18.6278 24.0836 18.509 24.2949 18.2977L25.374 17.2186V29.4999C25.374 29.7982 25.4925 30.0844 25.7035 30.2954C25.9145 30.5063 26.2006 30.6249 26.499 30.6249C26.7974 30.6249 27.0835 30.5063 27.2945 30.2954C27.5055 30.0844 27.624 29.7982 27.624 29.4999V17.2186L28.703 18.2986C28.9144 18.51 29.201 18.6287 29.4999 18.6287C29.7988 18.6287 30.0854 18.51 30.2968 18.2986C30.5081 18.0873 30.6269 17.8006 30.6269 17.5017C30.6269 17.2029 30.5081 16.9162 30.2968 16.7049L30.2949 16.7039Z" fill="#454569"/>
</svg>
