<svg width="40" height="40" viewBox="0 0 40 40" fill="none" xmlns="http://www.w3.org/2000/svg">
<rect width="40" height="40" rx="20" fill="#F5F5F5"/>
<path d="M29.9844 18.7232L25.7563 22.4132L27.0228 27.9069C27.0898 28.1941 27.0707 28.4947 26.9678 28.7711C26.865 29.0475 26.6829 29.2874 26.4444 29.4609C26.2059 29.6344 25.9215 29.7337 25.6269 29.7464C25.3323 29.7592 25.0404 29.6848 24.7878 29.5326L19.9963 26.6263L15.215 29.5326C14.9624 29.6848 14.6706 29.7592 14.3759 29.7464C14.0813 29.7337 13.7969 29.6344 13.5584 29.4609C13.3199 29.2874 13.1379 29.0475 13.035 28.7711C12.9321 28.4947 12.913 28.1941 12.98 27.9069L14.2447 22.4188L10.0156 18.7232C9.79195 18.5303 9.63021 18.2756 9.55069 17.9911C9.47116 17.7067 9.4774 17.405 9.56861 17.1241C9.65982 16.8432 9.83195 16.5954 10.0634 16.4119C10.2949 16.2284 10.5754 16.1173 10.8697 16.0926L16.4441 15.6097L18.62 10.4197C18.7336 10.1474 18.9253 9.9148 19.1709 9.75117C19.4164 9.58755 19.7049 9.50024 20 9.50024C20.2951 9.50024 20.5836 9.58755 20.8291 9.75117C21.0747 9.9148 21.2664 10.1474 21.38 10.4197L23.5625 15.6097L29.135 16.0926C29.4294 16.1173 29.7098 16.2284 29.9413 16.4119C30.1728 16.5954 30.3449 16.8432 30.4361 17.1241C30.5273 17.405 30.5335 17.7067 30.454 17.9911C30.3745 18.2756 30.2128 18.5303 29.9891 18.7232H29.9844Z" fill="#1721C9"/>
</svg>
