<svg width="81" height="80" viewBox="0 0 81 80" fill="none" xmlns="http://www.w3.org/2000/svg">
<rect x="0.5" width="80" height="80" rx="40" fill="#F1F3F5"/>
<path d="M58.5 26.5V37.5194C58.5 54.3212 44.2838 59.8956 41.4375 60.8425C40.8296 61.0492 40.1704 61.0492 39.5625 60.8425C36.7125 59.8956 22.5 54.3212 22.5 37.5194V26.5C22.5 25.7044 22.8161 24.9413 23.3787 24.3787C23.9413 23.8161 24.7044 23.5 25.5 23.5H55.5C56.2957 23.5 57.0587 23.8161 57.6213 24.3787C58.1839 24.9413 58.5 25.7044 58.5 26.5Z" fill="#1721C9"/>
<path fill-rule="evenodd" clip-rule="evenodd" d="M48.4995 34.75H45.4995V32.5C45.4995 31.3065 45.0254 30.1619 44.1815 29.318C43.3376 28.4741 42.193 28 40.9995 28C39.806 28 38.6614 28.4741 37.8175 29.318C36.9736 30.1619 36.4995 31.3065 36.4995 32.5V34.75H33.4995C33.1017 34.75 32.7202 34.908 32.4389 35.1893C32.1575 35.4706 31.9995 35.8522 31.9995 36.25V46.75C31.9995 47.1478 32.1575 47.5294 32.4389 47.8107C32.7202 48.092 33.1017 48.25 33.4995 48.25H48.4995C48.8973 48.25 49.2789 48.092 49.5602 47.8107C49.8415 47.5294 49.9995 47.1478 49.9995 46.75V36.25C49.9995 35.8522 49.8415 35.4706 49.5602 35.1893C49.2789 34.908 48.8973 34.75 48.4995 34.75ZM37.9995 34.75V32.5C37.9995 31.7044 38.3156 30.9413 38.8782 30.3787C39.4408 29.8161 40.2039 29.5 40.9995 29.5C41.7952 29.5 42.5582 29.8161 43.1208 30.3787C43.6834 30.9413 43.9995 31.7044 43.9995 32.5V34.75H37.9995ZM43.5482 39.7426C43.5311 38.2274 42.2931 37 40.7739 37C39.2442 37 37.9995 38.2446 37.9995 39.7744C37.9995 40.2059 38.3493 40.5557 38.7808 40.5557C39.2122 40.5557 39.562 40.2059 39.562 39.7744C39.562 39.1062 40.1057 38.5625 40.774 38.5625C41.4422 38.5625 41.9859 39.1062 41.9859 39.7744C41.9859 39.7815 41.986 39.7886 41.9862 39.7956C41.9781 40.274 41.6907 40.7023 41.2493 40.8907C40.486 41.2167 39.9927 41.9696 39.9927 42.8088V43.4844C39.9927 43.9159 40.3425 44.2656 40.774 44.2656C41.2054 44.2656 41.5552 43.9159 41.5552 43.4844V42.8088C41.5552 42.5963 41.676 42.4075 41.8628 42.3278C42.8873 41.8904 43.5491 40.8881 43.5488 39.7743C43.5488 39.7636 43.5486 39.7531 43.5482 39.7426ZM41.5513 46.0234C41.5513 46.4549 41.2015 46.8047 40.77 46.8047C40.3385 46.8047 39.9888 46.4549 39.9888 46.0234C39.9888 45.592 40.3385 45.2422 40.77 45.2422C41.2015 45.2422 41.5513 45.592 41.5513 46.0234Z" fill="white"/>
</svg>
