<svg width="81" height="80" viewBox="0 0 81 80" fill="none" xmlns="http://www.w3.org/2000/svg">
<ellipse cx="40.5" cy="40" rx="40" ry="40" fill="#F1F3F5"/>
<path d="M41.125 21.7188C37.5093 21.7188 33.9748 22.7909 30.9685 24.7997C27.9622 26.8085 25.619 29.6636 24.2353 33.0041C22.8517 36.3445 22.4896 40.0203 23.195 43.5665C23.9004 47.1127 25.6415 50.3701 28.1982 52.9268C30.7549 55.4835 34.0123 57.2246 37.5585 57.93C41.1047 58.6354 44.7805 58.2734 48.1209 56.8897C51.4614 55.506 54.3166 53.1629 56.3253 50.1565C58.3341 47.1502 59.4063 43.6157 59.4063 40C59.4012 35.1531 57.4735 30.5062 54.0462 27.0789C50.6189 23.6516 45.9719 21.7239 41.125 21.7188ZM49.1512 36.7762L39.3074 46.6199C39.1768 46.7507 39.0217 46.8544 38.851 46.9252C38.6803 46.9959 38.4973 47.0324 38.3125 47.0324C38.1277 47.0324 37.9447 46.9959 37.774 46.9252C37.6033 46.8544 37.4482 46.7507 37.3176 46.6199L33.0988 42.4012C32.835 42.1373 32.6867 41.7794 32.6867 41.4063C32.6867 41.0331 32.835 40.6752 33.0988 40.4113C33.3627 40.1475 33.7206 39.9992 34.0938 39.9992C34.4669 39.9992 34.8248 40.1475 35.0887 40.4113L38.3125 43.6369L47.1613 34.7863C47.292 34.6557 47.4471 34.552 47.6178 34.4813C47.7885 34.4106 47.9715 34.3742 48.1563 34.3742C48.341 34.3742 48.524 34.4106 48.6947 34.4813C48.8654 34.552 49.0205 34.6557 49.1512 34.7863C49.2818 34.917 49.3855 35.0721 49.4562 35.2428C49.5269 35.4135 49.5633 35.5965 49.5633 35.7813C49.5633 35.966 49.5269 36.149 49.4562 36.3197C49.3855 36.4904 49.2818 36.6455 49.1512 36.7762Z" fill="#1721C9"/>
</svg>
