<svg width="29" height="28" viewBox="0 0 29 28" fill="none" xmlns="http://www.w3.org/2000/svg">
<path fill-rule="evenodd" clip-rule="evenodd" d="M9.04371 2C6.73182 2 4.85767 3.87416 4.85767 6.18605V21.814C4.85767 24.1258 6.73182 26 9.04371 26H18.2005C16.8637 25.4295 15.8084 24.3269 15.3008 22.9582C13.2768 22.2077 11.8344 20.2594 11.8344 17.9743C11.8344 15.0396 14.2135 12.6605 17.1483 12.6605C19.4333 12.6605 21.3814 14.1027 22.1321 16.1265C23.0226 16.4567 23.8005 17.0188 24.3925 17.7394V6.18605C24.3925 3.87416 22.5184 2 20.2065 2H9.04371ZM12.3925 5.34884C11.9302 5.34884 11.5553 5.72367 11.5553 6.18605C11.5553 6.64842 11.9302 7.02326 12.3925 7.02326H16.8577C17.32 7.02326 17.6949 6.64842 17.6949 6.18605C17.6949 5.72367 17.32 5.34884 16.8577 5.34884H12.3925Z" fill="#4F4FCE"/>
<path fill-rule="evenodd" clip-rule="evenodd" d="M16.9438 21.5781C16.9438 19.444 18.6738 17.714 20.8079 17.714C22.9419 17.714 24.6719 19.444 24.6719 21.5781C24.6719 23.7121 22.9419 25.4421 20.8079 25.4421C18.6738 25.4421 16.9438 23.7121 16.9438 21.5781Z" fill="#4F4FCE"/>
<path fill-rule="evenodd" clip-rule="evenodd" d="M17.3728 14.2791C15.2388 14.2791 13.5088 16.0091 13.5088 18.1431C13.5088 19.9343 14.7276 21.4409 16.3811 21.8787C16.3744 21.7793 16.371 21.6789 16.371 21.5778C16.371 19.1276 18.3573 17.1413 20.8075 17.1413C20.9087 17.1413 21.009 17.1447 21.1084 17.1514C20.6706 15.4979 19.164 14.2791 17.3728 14.2791Z" fill="#4F4FCE"/>
</svg>
