<svg width="33" height="32" viewBox="0 0 33 32" fill="none" xmlns="http://www.w3.org/2000/svg">
<path fill-rule="evenodd" clip-rule="evenodd" d="M11.2711 8.59473C10.9148 8.59473 10.5667 8.62167 10.2274 8.67685C6.8498 9.1375 4.79883 11.8541 4.79883 15.4269V21.4606C4.79883 23.4244 5.41065 25.1336 6.55772 26.3633C7.71323 27.6021 9.35652 28.2928 11.2711 28.2928H22.5271C24.4417 28.2928 26.0849 27.6021 27.2405 26.3633C28.3875 25.1336 28.9993 23.4244 28.9993 21.4606V21.4134C28.8089 21.4947 28.6025 21.5392 28.3869 21.5392H24.4142C22.9057 21.5392 21.6829 20.1533 21.6829 18.4438C21.6829 16.7342 22.9057 15.3484 24.4142 15.3484H28.3869C28.6025 15.3484 28.8089 15.3928 28.9993 15.4741V15.4269C28.9993 11.8294 26.9133 9.10055 23.5042 8.66474C23.1661 8.6065 22.8325 8.59473 22.5271 8.59473H11.2711ZM24.4142 19.8508C23.7285 19.8508 23.1727 19.2208 23.1727 18.4438C23.1727 17.6667 23.7285 17.0368 24.4142 17.0368H28.3869C28.524 17.0368 28.6352 17.1628 28.6352 17.3182V19.5694C28.6352 19.7248 28.524 19.8508 28.3869 19.8508H24.4142Z" fill="#A0A0B2"/>
<path fill-rule="evenodd" clip-rule="evenodd" d="M21.3107 4.08501C20.374 2.66572 18.4677 2.26787 17.0415 3.194L10.3643 7.52984C10.6597 7.48869 10.9618 7.46854 11.2699 7.46854H22.526C22.8313 7.46854 23.1649 7.48031 23.503 7.53855C23.535 7.54264 23.5668 7.54693 23.5985 7.55141L21.3107 4.08501Z" fill="#DCDCDC"/>
</svg>
