<svg width="33" height="32" viewBox="0 0 33 32" fill="none" xmlns="http://www.w3.org/2000/svg">
<path d="M15.7002 7V13C15.7002 13.5304 15.4895 14.0391 15.1144 14.4142C14.7393 14.7893 14.2306 15 13.7002 15H7.7002C7.16976 15 6.66105 14.7893 6.28598 14.4142C5.91091 14.0391 5.7002 13.5304 5.7002 13V7C5.7002 6.46957 5.91091 5.96086 6.28598 5.58579C6.66105 5.21071 7.16976 5 7.7002 5H13.7002C14.2306 5 14.7393 5.21071 15.1144 5.58579C15.4895 5.96086 15.7002 6.46957 15.7002 7ZM13.7002 17H7.7002C7.16976 17 6.66105 17.2107 6.28598 17.5858C5.91091 17.9609 5.7002 18.4696 5.7002 19V25C5.7002 25.5304 5.91091 26.0391 6.28598 26.4142C6.66105 26.7893 7.16976 27 7.7002 27H13.7002C14.2306 27 14.7393 26.7893 15.1144 26.4142C15.4895 26.0391 15.7002 25.5304 15.7002 25V19C15.7002 18.4696 15.4895 17.9609 15.1144 17.5858C14.7393 17.2107 14.2306 17 13.7002 17ZM25.7002 17H19.7002C19.1698 17 18.6611 17.2107 18.286 17.5858C17.9109 17.9609 17.7002 18.4696 17.7002 19V25C17.7002 25.5304 17.9109 26.0391 18.286 26.4142C18.6611 26.7893 19.1698 27 19.7002 27H25.7002C26.2306 27 26.7393 26.7893 27.1144 26.4142C27.4895 26.0391 27.7002 25.5304 27.7002 25V19C27.7002 18.4696 27.4895 17.9609 27.1144 17.5858C26.7393 17.2107 26.2306 17 25.7002 17Z" fill="#A0A0B2"/>
<path d="M19.7002 5H25.7002C26.2306 5 26.7393 5.21071 27.1144 5.58579C27.4895 5.96086 27.7002 6.46957 27.7002 7V13C27.7002 13.5304 27.4895 14.0391 27.1144 14.4142C26.7393 14.7893 26.2306 15 25.7002 15H19.7002C19.1698 15 18.6611 14.7893 18.286 14.4142C17.9109 14.0391 17.7002 13.5304 17.7002 13V7C17.7002 6.46957 17.9109 5.96086 18.286 5.58579C18.6611 5.21071 19.1698 5 19.7002 5Z" fill="#DCDCDC"/>
</svg>
