<svg width="49" height="48" viewBox="0 0 49 48" fill="none" xmlns="http://www.w3.org/2000/svg">
<path opacity="0.2" d="M43.5631 25.0539L25.5631 43.0539C25.4249 43.1924 25.2606 43.3023 25.0798 43.3773C24.899 43.4523 24.7052 43.491 24.5094 43.491C24.3136 43.491 24.1198 43.4523 23.939 43.3773C23.7582 43.3023 23.5939 43.1924 23.4556 43.0539L5.45565 25.0539C5.31709 24.9156 5.20716 24.7513 5.13216 24.5705C5.05716 24.3897 5.01855 24.1959 5.01855 24.0001C5.01855 23.8044 5.05716 23.6105 5.13216 23.4297C5.20716 23.2489 5.31709 23.0846 5.45565 22.9464L23.465 4.94637C23.6033 4.80781 23.7676 4.69789 23.9484 4.62288C24.1292 4.54788 24.323 4.50928 24.5188 4.50928C24.7145 4.50928 24.9084 4.54788 25.0892 4.62288C25.27 4.69789 25.4342 4.80781 25.5725 4.94637L43.5725 22.9557C43.8483 23.2359 44.002 23.6137 44.0003 24.0067C43.9985 24.3998 43.8414 24.7762 43.5631 25.0539Z" fill="#D4221F"/>
<path d="M24.5001 13.5001C24.8979 13.5001 25.2794 13.6581 25.5607 13.9394C25.842 14.2207 26.0001 14.6023 26.0001 15.0001V25.5001C26.0001 25.8979 25.842 26.2794 25.5607 26.5608C25.2794 26.8421 24.8979 27.0001 24.5001 27.0001C24.1022 27.0001 23.7207 26.8421 23.4394 26.5608C23.1581 26.2794 23.0001 25.8979 23.0001 25.5001V15.0001C23.0001 14.6023 23.1581 14.2207 23.4394 13.9394C23.7207 13.6581 24.1022 13.5001 24.5001 13.5001ZM22.2501 32.2501C22.2501 32.6951 22.382 33.1301 22.6293 33.5001C22.8765 33.8701 23.2279 34.1585 23.639 34.3288C24.0502 34.4991 24.5026 34.5437 24.939 34.4569C25.3755 34.37 25.7764 34.1558 26.0911 33.8411C26.4057 33.5264 26.62 33.1255 26.7068 32.689C26.7937 32.2526 26.7491 31.8002 26.5788 31.3891C26.4085 30.9779 26.1201 30.6265 25.7501 30.3793C25.3801 30.1321 24.9451 30.0001 24.5001 30.0001C23.9033 30.0001 23.331 30.2371 22.9091 30.6591C22.4871 31.0811 22.2501 31.6534 22.2501 32.2501ZM45.5001 24.0001C45.5012 24.393 45.4244 24.7822 45.2741 25.1453C45.1238 25.5083 44.903 25.8379 44.6244 26.1151L26.6151 44.1263C26.053 44.6851 25.2926 44.9987 24.5001 44.9987C23.7075 44.9987 22.9472 44.6851 22.3851 44.1263L4.38507 26.1151C3.82632 25.553 3.5127 24.7927 3.5127 24.0001C3.5127 23.2075 3.82632 22.4472 4.38507 21.8851L22.3944 3.87384C22.9565 3.31509 23.7169 3.00146 24.5094 3.00146C25.302 3.00146 26.0624 3.31509 26.6244 3.87384L44.6338 21.8851C44.9107 22.163 45.1297 22.493 45.2784 22.856C45.4271 23.219 45.5024 23.6078 45.5001 24.0001ZM42.5001 24.0001L24.5001 6.00009L6.50007 24.0001L24.5001 42.0001L42.5001 24.0001Z" fill="#A51A18"/>
</svg>
