<svg width="24" height="24" viewBox="0 0 24 24" fill="none" xmlns="http://www.w3.org/2000/svg">
<path d="M5.99951 3H17.9995C20.1995 3 21.9995 4.8 21.9995 7C21.9995 8.7 20.9995 10.1 19.4995 10.7V7C19.4995 6.6 19.2995 6.2 19.0995 5.9C18.8995 5.6 18.3995 5.5 17.9995 5.5H5.99951C5.59951 5.5 5.19951 5.7 4.89951 5.9C4.59951 6.1 4.49951 6.6 4.49951 7V10.7C2.99951 10.1 1.99951 8.7 1.99951 7C1.99951 4.8 3.79951 3 5.99951 3Z" fill="#000333"/>
<path fill-rule="evenodd" clip-rule="evenodd" d="M17.9995 7V19C17.9995 20.1 17.0995 21 15.9995 21H7.99951C6.89951 21 5.99951 20.1 5.99951 19V7H17.9995ZM10.4995 14.5L11.1995 15.2V11C11.1995 10.6 11.4995 10.2 11.9995 10.2C12.4995 10.2 12.7995 10.5 12.7995 11V15.2L13.4995 14.5C13.7995 14.2 14.2995 14.2 14.5995 14.5C14.8995 14.8 14.8995 15.3 14.5995 15.6L13.2995 16.9C12.5995 17.6 11.4995 17.6 10.7995 16.9L9.49951 15.6C9.19951 15.3 9.19951 14.8 9.49951 14.5C9.79951 14.2 10.1995 14.2 10.4995 14.5Z" fill="#000333"/>
</svg>
