<svg width="56" height="56" viewBox="0 0 56 56" fill="none" xmlns="http://www.w3.org/2000/svg">
<g clip-path="url(#clip0_56_366)">
<path d="M43.3732 15.3141C43.3732 14.5398 42.7455 13.9121 41.9712 13.9121H9.11279C6.83834 13.9121 4.99454 15.7559 4.99454 18.0304C4.99454 20.3048 6.83834 22.1486 9.11279 22.1486H43.3732V15.3141Z" fill="#0166DD"/>
<path fill-rule="evenodd" clip-rule="evenodd" d="M4.99454 21.2705L11.3135 25.3995L46.1801 25.4734C46.9532 25.4751 47.5791 26.1023 47.5791 26.8754V48.2582C47.5791 50.7747 45.5391 52.8146 43.0227 52.8146H12.0043C8.13293 52.8146 4.99454 49.6762 4.99454 45.8048V21.2705Z" fill="#2187FF"/>
<g clip-path="url(#clip1_56_366)">
<path d="M5.668 34.7831C5.33856 35.5797 5.53268 36.5033 6.15385 37.1C6.24851 37.1909 6.35308 37.2742 6.46723 37.3483L20.5766 46.5111C21.4327 47.067 22.5425 46.9205 23.2281 46.2156C23.2739 46.1686 23.3177 46.1191 23.3594 46.0672C23.3594 46.0672 23.3594 46.0672 23.3594 46.0672C23.4039 46.0118 23.4461 45.9536 23.4856 45.8928L43.1474 15.6164C43.7799 14.6423 43.5031 13.3399 42.529 12.7073L28.4196 3.5446C28.374 3.51495 28.3276 3.4873 28.2806 3.46162C28.2365 3.43755 28.1919 3.41521 28.1469 3.3946C27.4709 3.08536 26.6917 3.1629 26.095 3.56644C25.8688 3.71948 25.6688 3.91942 25.5106 4.16293L5.84889 34.4393C5.80936 34.5002 5.77338 34.5624 5.7409 34.6256C5.71425 34.6774 5.68996 34.73 5.668 34.7831Z" fill="#0166DD"/>
<path d="M9.16083 34.2147C8.85791 34.8981 8.95943 35.6587 9.41464 36.1226C9.484 36.1933 9.56158 36.2571 9.64719 36.3127L20.2292 43.1848C20.8713 43.6018 21.7515 43.4181 22.3293 42.7915C22.3679 42.7497 22.405 42.706 22.4407 42.6603C22.4407 42.6603 22.4407 42.6603 22.4407 42.6603C22.4788 42.6116 22.5151 42.5607 22.5495 42.5077L39.6743 16.138C40.2252 15.2896 40.0796 14.2173 39.3491 13.7428L28.767 6.87078C28.7328 6.84854 28.6979 6.82801 28.6623 6.80917C28.629 6.7915 28.5952 6.77531 28.5609 6.76059C28.0468 6.5397 27.4301 6.64751 26.939 7.01746C26.7527 7.15777 26.5844 7.33579 26.4467 7.54788L9.32199 33.9176C9.28756 33.9707 9.25584 34.0246 9.22682 34.0791C9.20302 34.1239 9.18103 34.1691 9.16083 34.2147Z" fill="#A6D4FF"/>
<mask id="mask0_56_366" style="mask-type:alpha" maskUnits="userSpaceOnUse" x="5" y="3" width="39" height="44">
<path d="M5.668 34.7831C5.33856 35.5797 5.53268 36.5033 6.15385 37.1C6.24851 37.1909 6.35308 37.2742 6.46723 37.3483L20.5766 46.5111C21.4327 47.067 22.5425 46.9205 23.2281 46.2156C23.2739 46.1686 23.3177 46.1191 23.3594 46.0672C23.3594 46.0672 23.3594 46.0672 23.3594 46.0672C23.4039 46.0118 23.4461 45.9536 23.4856 45.8928L43.1474 15.6164C43.7799 14.6423 43.5031 13.3399 42.529 12.7073L28.4196 3.5446C28.374 3.51495 28.3276 3.4873 28.2806 3.46162C28.2365 3.43755 28.1919 3.41521 28.1469 3.3946C27.4709 3.08536 26.6917 3.1629 26.095 3.56644C25.8688 3.71948 25.6688 3.91942 25.5106 4.16293L5.84889 34.4393C5.80936 34.5002 5.77338 34.5624 5.7409 34.6256C5.71425 34.6774 5.68996 34.73 5.668 34.7831Z" fill="#55A9F7"/>
</mask>
<g mask="url(#mask0_56_366)">
<path d="M12.6533 38.2677C14.2154 35.8622 13.5317 32.6457 11.1262 31.0835C11.1074 31.0713 11.0886 31.0592 11.0697 31.0473C10.7863 30.8684 10.4921 30.7202 10.1909 30.602C9.90986 30.4916 9.62278 30.4073 9.33291 30.3485C7.30381 29.9364 5.13805 30.7688 3.94201 32.6106L3.9238 32.6388C3.91815 32.6476 3.91252 32.6565 3.90692 32.6653C3.82298 32.7981 3.74579 32.9333 3.67529 33.0705C3.60949 33.1985 3.5495 33.3283 3.49526 33.4595C2.68166 35.4268 3.16106 37.7078 4.69514 39.1814C4.80423 39.2862 4.91865 39.3869 5.03832 39.4831C5.16654 39.5862 5.30078 39.6841 5.44095 39.7764L5.46906 39.7948C7.57391 41.1617 10.2996 40.8091 11.9947 39.0881C12.2369 38.8422 12.458 38.5684 12.6533 38.2677Z" fill="#0166DD"/>
<path d="M31.7461 8.8672C33.3083 6.46166 32.6246 3.24519 30.2191 1.68301C30.2003 1.6708 30.1814 1.65874 30.1625 1.64681C29.8792 1.46785 29.5849 1.31967 29.2838 1.20144C29.0027 1.09109 28.7156 1.00683 28.4258 0.947961C26.3967 0.535889 24.2309 1.36831 23.0349 3.21005L23.0167 3.23828C23.011 3.24711 23.0054 3.25596 22.9998 3.26481C22.9158 3.39762 22.8387 3.53281 22.7682 3.66999C22.7024 3.79803 22.6424 3.92779 22.5881 4.05894C21.7745 6.02627 22.2539 8.30733 23.788 9.78086C23.8971 9.88564 24.0115 9.98634 24.1312 10.0826C24.2594 10.1856 24.3936 10.2836 24.5338 10.3759L24.5619 10.3942C26.6668 11.7612 29.3925 11.4086 31.0876 9.68755C31.3297 9.44168 31.5508 9.1679 31.7461 8.8672Z" fill="#0166DD"/>
<path d="M25.2919 40.2593C27.6974 41.8215 28.3811 45.038 26.8189 47.4435C26.8067 47.4623 26.7944 47.481 26.782 47.4996C26.5959 47.7783 26.3874 48.0333 26.1604 48.2638C25.9485 48.479 25.7205 48.6727 25.4796 48.8444C23.7935 50.0461 21.4764 50.1666 19.6347 48.9705L19.6066 48.9522C19.5978 48.9464 19.5891 48.9406 19.5804 48.9348C19.4497 48.8476 19.3242 48.7555 19.204 48.6589C19.1965 48.6528 19.189 48.6468 19.1816 48.6408C19.07 48.55 18.9631 48.4554 18.8608 48.3572C18.669 48.173 18.4937 47.9762 18.3354 47.7689C17.2271 46.3183 16.949 44.3567 17.6609 42.6352C17.7151 42.5041 17.7751 42.3743 17.8409 42.2463C17.9114 42.1091 17.9886 41.9739 18.0726 41.8411L18.0895 41.8146L18.1077 41.7863C19.3037 39.9446 21.4695 39.1122 23.4986 39.5243C23.7884 39.5831 24.0755 39.6674 24.3566 39.7777C24.6577 39.896 24.952 40.0441 25.2353 40.2231C25.2542 40.235 25.2731 40.2471 25.2919 40.2593Z" fill="#0166DD"/>
<path d="M45.901 18.0596C47.4632 15.654 46.7795 12.4376 44.374 10.8754C44.3552 10.8632 44.3363 10.8511 44.3174 10.8392C44.0341 10.6602 43.7398 10.5121 43.4387 10.3938C43.1576 10.2835 42.8705 10.1992 42.5807 10.1403C40.5516 9.72827 38.3858 10.5607 37.1898 12.4024L37.1716 12.4307C37.1659 12.4395 37.1603 12.4483 37.1547 12.4572C37.0707 12.59 36.9936 12.7252 36.9231 12.8624C36.8573 12.9904 36.7973 13.1202 36.743 13.2513C35.9294 15.2187 36.4088 17.4997 37.9429 18.9732C38.052 19.078 38.1664 19.1787 38.2861 19.2749C38.4143 19.378 38.5486 19.476 38.6887 19.5682L38.7168 19.5866C40.8217 20.9535 43.5474 20.601 45.2425 18.8799C45.4846 18.6341 45.7058 18.3603 45.901 18.0596Z" fill="#0166DD"/>
</g>
<path d="M29.6309 28.5867C31.4978 25.7119 30.6808 21.8679 27.806 20.001C27.4466 19.7676 27.0721 19.5762 26.6882 19.4255C24.001 18.3705 20.8538 19.3105 19.2203 21.8259C19.1036 22.0056 18.9974 22.1891 18.9015 22.3756C17.4635 25.1735 18.3501 28.6614 21.0452 30.4116C23.92 32.2786 27.764 31.4615 29.6309 28.5867Z" fill="#0166DD"/>
<path fill-rule="evenodd" clip-rule="evenodd" d="M22.0387 22.3518C21.8462 22.4912 21.6562 22.6767 21.4697 22.9069L21.0298 22.6212C20.8079 22.4771 20.6416 22.4901 20.5323 22.6584C20.5188 22.6793 20.5078 22.7 20.4995 22.7206C20.4411 22.8647 20.5114 23.0008 20.7119 23.131L21.1425 23.4106C21.1234 23.4468 21.1051 23.4828 21.0876 23.5186C20.8252 24.0558 20.7448 24.5521 20.8479 25.0049C20.959 25.4885 21.247 25.882 21.7135 26.1849C22.0722 26.4179 22.4138 26.5329 22.7372 26.5322C23.061 26.5331 23.3632 26.4546 23.6407 26.2974C23.9178 26.1384 24.2233 25.9154 24.5532 25.6256L26.4461 26.8548C26.4357 26.8638 26.4253 26.8726 26.4149 26.8812C26.2587 27.0102 26.1018 27.095 25.9444 27.137C25.9236 27.1423 25.9029 27.1472 25.8823 27.1515C25.738 27.1817 25.5988 27.1868 25.4653 27.1661C25.4462 27.1632 25.4262 27.1598 25.4054 27.1561C25.2594 27.1298 25.0697 27.0842 24.8342 27.0197C24.8264 27.0176 24.8187 27.0157 24.811 27.0139C24.6954 26.9867 24.5865 26.993 24.4829 27.0365C24.4691 27.042 24.4556 27.048 24.4424 27.0547C24.3497 27.1014 24.2702 27.1773 24.2025 27.2816C24.1062 27.4298 24.0776 27.5863 24.117 27.7529C24.1568 27.9211 24.2431 28.0469 24.3726 28.131C24.5493 28.2458 24.7532 28.3255 24.9843 28.3702C25.2164 28.4156 25.4662 28.4155 25.7366 28.3704C26.0063 28.3263 26.2737 28.2251 26.5373 28.0688C26.8023 27.9105 27.0529 27.6888 27.2888 27.4021L27.9414 27.8258C28.1027 27.9306 28.2727 27.8331 28.3338 27.739C28.4015 27.6348 28.4566 27.4442 28.2716 27.3241L27.6077 26.893C27.82 26.4941 27.93 26.0998 27.9382 25.7136C27.9387 25.6896 27.9387 25.6657 27.9385 25.642C27.9343 25.2856 27.8501 24.9575 27.6826 24.6606C27.6603 24.621 27.637 24.5823 27.6126 24.5446C27.4422 24.2803 27.2222 24.0611 26.9515 23.8853C26.9361 23.8753 26.9207 23.8655 26.9052 23.856C26.6728 23.7123 26.4322 23.6172 26.1833 23.5744C26.1667 23.5716 26.1502 23.5689 26.1336 23.5665C25.8853 23.5302 25.6412 23.543 25.4031 23.606C25.3727 23.6134 25.3426 23.6216 25.3128 23.6303C25.1042 23.6918 24.9109 23.7852 24.7334 23.9129C24.7082 23.9311 24.6822 23.9502 24.6554 23.9703C24.4679 24.1111 24.24 24.2985 23.973 24.5325L22.2794 23.4327C22.6074 23.173 22.969 23.1088 23.3654 23.2409C23.7032 23.3507 23.955 23.2778 24.1235 23.0184C24.2132 22.8802 24.239 22.7304 24.2027 22.5701C24.1672 22.4089 24.0796 22.2851 23.9449 22.1977C23.9295 22.1877 23.9136 22.1781 23.8972 22.1688C23.7825 22.1043 23.6438 22.0591 23.4797 22.0322C23.4678 22.0303 23.456 22.0286 23.444 22.0269C23.2652 22.002 23.0752 22.0037 22.8716 22.0304C22.8368 22.0345 22.8025 22.0394 22.7686 22.0453C22.5311 22.086 22.3154 22.1693 22.1213 22.2949C22.0937 22.3129 22.0662 22.3319 22.0387 22.3518ZM26.9008 25.5692C26.9729 25.8172 26.9507 26.0899 26.8351 26.3838L25.069 25.2369C25.3312 25.0271 25.571 24.8943 25.7893 24.8391C26.006 24.7842 26.2316 24.8336 26.4648 24.9851C26.6838 25.1273 26.828 25.3222 26.9008 25.5692ZM21.8178 24.5416C21.7985 24.3659 21.819 24.1645 21.8812 23.939L23.4614 24.9652C23.4464 24.9758 23.4315 24.9861 23.4166 24.9962C23.1945 25.1477 22.9977 25.2422 22.8262 25.2797C22.8031 25.2845 22.7797 25.288 22.7561 25.29C22.5909 25.3044 22.4141 25.2504 22.2236 25.1266C22.2094 25.1174 22.1955 25.108 22.182 25.0986C21.9793 24.9572 21.8607 24.7967 21.8285 24.6154C21.8241 24.5913 21.8206 24.5667 21.8178 24.5416Z" fill="#DDEFFF"/>
</g>
<g clip-path="url(#clip2_56_366)">
<path d="M6.23565 26.2528C5.6877 26.9183 5.60329 27.8583 6.02287 28.6105C6.08681 28.7252 6.16245 28.8354 6.24994 28.9397L17.0639 41.8272C17.72 42.6092 18.8241 42.7935 19.686 42.3199C19.7434 42.2883 19.7998 42.2538 19.8549 42.2163C19.8549 42.2163 19.8549 42.2163 19.8549 42.2163C19.9136 42.1764 19.971 42.1331 20.0266 42.0864L47.6811 18.8815C48.5708 18.135 48.6869 16.8085 47.9403 15.9188L37.1264 3.03126C37.0914 2.98955 37.0551 2.94955 37.0177 2.91125C36.9826 2.87535 36.9465 2.84095 36.9094 2.80806C36.3534 2.31471 35.5855 2.16103 34.897 2.37249C34.6359 2.4527 34.3861 2.58542 34.1637 2.77206L6.50914 25.977C6.45353 26.0237 6.40095 26.0726 6.35141 26.1235C6.31077 26.1653 6.27218 26.2084 6.23565 26.2528Z" fill="#2187FF"/>
<path d="M9.74201 26.7305C9.25251 27.2955 9.12722 28.0526 9.42689 28.6293C9.47256 28.7172 9.52809 28.8009 9.5937 28.8791L17.7042 38.5448C18.1963 39.1312 19.0917 39.2129 19.8275 38.7827C19.8766 38.754 19.9249 38.723 19.9724 38.6898C19.9724 38.6898 19.9723 38.6898 19.9724 38.6898C20.023 38.6544 20.0726 38.6163 20.1211 38.5757L44.2073 18.3649C44.9822 17.7147 45.1565 16.6467 44.5965 15.9794L36.4861 6.31371C36.4598 6.28243 36.4325 6.25259 36.404 6.22419C36.3773 6.19756 36.3497 6.17219 36.3212 6.14808C35.8941 5.78653 35.2729 5.70932 34.695 5.91951C34.4759 5.99922 34.2629 6.12028 34.0692 6.28283L9.98298 26.4936C9.93454 26.5342 9.88846 26.5765 9.84475 26.6202C9.8089 26.656 9.77465 26.6929 9.74201 26.7305Z" fill="#A6D4FF"/>
<mask id="mask1_56_366" style="mask-type:alpha" maskUnits="userSpaceOnUse" x="5" y="2" width="44" height="41">
<path d="M6.23565 26.2528C5.6877 26.9183 5.60329 27.8583 6.02287 28.6105C6.08681 28.7252 6.16245 28.8354 6.24994 28.9397L17.0639 41.8272C17.72 42.6092 18.8241 42.7935 19.686 42.3199C19.7434 42.2883 19.7998 42.2538 19.8549 42.2163C19.8549 42.2163 19.8549 42.2163 19.8549 42.2163C19.9136 42.1764 19.971 42.1331 20.0266 42.0864L47.6811 18.8815C48.5708 18.135 48.6869 16.8085 47.9403 15.9188L37.1264 3.03126C37.0914 2.98955 37.0551 2.94955 37.0177 2.91125C36.9826 2.87535 36.9465 2.84095 36.9094 2.80806C36.3534 2.31471 35.5855 2.16103 34.897 2.37249C34.6359 2.4527 34.3861 2.58542 34.1637 2.77206L6.50914 25.977C6.45353 26.0237 6.40095 26.0726 6.35141 26.1235C6.31077 26.1653 6.27218 26.2084 6.23565 26.2528Z" fill="#55A9F7"/>
</mask>
<g mask="url(#mask1_56_366)">
<path d="M11.8969 31.6275C14.0941 29.7838 14.3807 26.508 12.537 24.3107C12.5226 24.2936 12.5081 24.2765 12.4935 24.2596C12.2749 24.0056 12.0368 23.7779 11.7834 23.5768C11.5469 23.3891 11.297 23.2245 11.037 23.0835C9.21702 22.0962 6.90252 22.259 5.22026 23.6706L5.1946 23.6923C5.18661 23.6991 5.17864 23.7059 5.1707 23.7127C5.05159 23.8152 4.93826 23.9219 4.83072 24.0325C4.73036 24.1357 4.63506 24.2422 4.54484 24.3518C3.1916 25.9953 2.98314 28.3168 4.01937 30.1745C4.09305 30.3066 4.17304 30.4363 4.25935 30.5633C4.35182 30.6994 4.45157 30.8323 4.55862 30.9616L4.58013 30.9874C6.19336 32.9099 8.90307 33.3697 11.0273 32.2194C11.3307 32.0551 11.6222 31.8579 11.8969 31.6275Z" fill="#2187FF"/>
<path d="M38.7513 9.09391C40.9486 7.25022 41.2352 3.9744 39.3915 1.77717C39.3771 1.76 39.3626 1.74295 39.348 1.72602C39.1293 1.47203 38.8913 1.24431 38.6379 1.0432C38.4013 0.855493 38.1514 0.690975 37.8914 0.54993C36.0715 -0.437386 33.757 -0.274545 32.0747 1.13704L32.0491 1.15871C32.0411 1.1655 32.0331 1.17231 32.0252 1.17914C31.9061 1.2816 31.7927 1.38833 31.6852 1.4989C31.5848 1.6021 31.4895 1.70865 31.3993 1.81822C30.0461 3.46171 29.8376 5.78326 30.8738 7.64092C30.9475 7.77302 31.0275 7.90278 31.1138 8.02977C31.2063 8.16584 31.306 8.29875 31.4131 8.42798L31.4346 8.45378C33.0478 10.3764 35.7575 10.8361 37.8817 9.68587C38.1852 9.52155 38.4767 9.32438 38.7513 9.09391Z" fill="#2187FF"/>
<path d="M23.4009 37.2272C25.2446 39.4245 24.958 42.7003 22.7608 44.544C22.7436 44.5584 22.7264 44.5727 22.7091 44.5868C22.4497 44.799 22.1757 44.9819 21.8912 45.1359C21.6257 45.2797 21.351 45.3983 21.0705 45.4921C19.1067 46.1484 16.8556 45.5861 15.4441 43.9039L15.4225 43.8781C15.4159 43.87 15.4092 43.8619 15.4026 43.8538C15.3031 43.7322 15.21 43.6074 15.1233 43.4798C15.1179 43.4719 15.1125 43.464 15.1072 43.456C15.027 43.3366 14.9524 43.2148 14.8833 43.091C14.7538 42.8588 14.6437 42.6193 14.5529 42.3749C13.9171 40.6635 14.2247 38.7063 15.4088 37.2683C15.499 37.1587 15.5943 37.0522 15.6946 36.949C15.8022 36.8384 15.9155 36.7317 16.0346 36.6292L16.0585 36.6088L16.0842 36.5871C17.7664 35.1755 20.0809 35.0127 21.9009 36C22.1609 36.141 22.4108 36.3056 22.6473 36.4933C22.9007 36.6944 23.1388 36.9221 23.3575 37.1761C23.372 37.193 23.3865 37.2101 23.4009 37.2272Z" fill="#2187FF"/>
<path d="M49.6002 22.023C51.7974 20.1793 52.084 16.9035 50.2403 14.7062C50.2259 14.6891 50.2114 14.672 50.1968 14.6551C49.9782 14.4011 49.7401 14.1734 49.4867 13.9723C49.2502 13.7846 49.0003 13.6201 48.7403 13.479C46.9203 12.4917 44.6058 12.6545 42.9236 14.0661L42.8979 14.0878C42.8899 14.0946 42.8819 14.1014 42.874 14.1082C42.7549 14.2107 42.6416 14.3174 42.534 14.428C42.4337 14.5312 42.3384 14.6377 42.2481 14.7473C40.8949 16.3908 40.6864 18.7123 41.7227 20.57C41.7964 20.7021 41.8763 20.8319 41.9627 20.9589C42.0551 21.0949 42.1549 21.2278 42.2619 21.3571L42.2834 21.3829C43.8967 23.3054 46.6064 23.7652 48.7306 22.615C49.034 22.4506 49.3255 22.2535 49.6002 22.023Z" fill="#2187FF"/>
</g>
<path d="M30.9631 27.3333C33.589 25.1299 33.9315 21.2151 31.7281 18.5892C31.4527 18.2609 31.1505 17.9684 30.8275 17.712C28.5662 15.9175 25.2817 15.8962 22.984 17.8242C22.8199 17.9619 22.6647 18.1063 22.5185 18.2566C20.3253 20.5119 20.1534 24.1065 22.219 26.5683C24.4224 29.1942 28.3373 29.5367 30.9631 27.3333Z" fill="#2187FF"/>
<path fill-rule="evenodd" clip-rule="evenodd" d="M25.5256 19.151C25.3007 19.2281 25.0648 19.3499 24.8191 19.5155L24.482 19.1137C24.3119 18.911 24.1491 18.8749 23.9954 19.0038C23.9763 19.0198 23.9598 19.0365 23.9458 19.0537C23.8479 19.1744 23.8753 19.3251 24.029 19.5083L24.359 19.9016C24.3302 19.9306 24.3021 19.9597 24.2749 19.9888C23.8669 20.4258 23.6449 20.8769 23.6112 21.34C23.576 21.835 23.7364 22.2955 24.094 22.7216C24.3688 23.0492 24.6619 23.2592 24.9714 23.353C25.2807 23.4486 25.5927 23.4619 25.904 23.3926C26.2155 23.3216 26.5729 23.1976 26.9731 23.017L28.4239 24.7459C28.4113 24.7515 28.3988 24.7569 28.3863 24.762C28.1992 24.8397 28.0244 24.875 27.8616 24.8691C27.8401 24.8681 27.8189 24.8667 27.7979 24.8648C27.6511 24.8515 27.5165 24.8157 27.3949 24.7569C27.3775 24.7484 27.3594 24.7394 27.3405 24.7297C27.2086 24.6619 27.0406 24.5629 26.8342 24.4324C26.8274 24.4281 26.8205 24.4239 26.8137 24.42C26.7111 24.3602 26.6051 24.3343 26.4933 24.3457C26.4785 24.3469 26.4639 24.3487 26.4493 24.3512C26.347 24.3688 26.2488 24.4181 26.1535 24.498C26.0181 24.6116 25.945 24.753 25.934 24.9238C25.9228 25.0963 25.9686 25.2418 26.0678 25.3601C26.2033 25.5216 26.375 25.6574 26.5829 25.7677C26.7916 25.8789 27.0305 25.9519 27.3023 25.9878C27.5731 26.0245 27.8583 26.0059 28.1562 25.9335C28.4558 25.8596 28.7603 25.7209 29.0698 25.5156L29.5699 26.1117C29.6935 26.259 29.8846 26.2155 29.9706 26.1433C30.0657 26.0635 30.1742 25.8973 30.0324 25.7284L29.5236 25.122C29.8433 24.8026 30.0636 24.4577 30.1844 24.0908C30.1919 24.068 30.1989 24.0452 30.2056 24.0224C30.3059 23.6803 30.3212 23.342 30.2479 23.0091C30.2381 22.9647 30.2271 22.9209 30.2149 22.8777C30.1292 22.5752 29.9828 22.3012 29.7754 22.054C29.7636 22.0399 29.7517 22.026 29.7397 22.0123C29.5595 21.807 29.3571 21.6457 29.1317 21.532C29.1166 21.5244 29.1016 21.5171 29.0864 21.5099C28.8596 21.4026 28.6224 21.3435 28.3763 21.3341C28.345 21.3323 28.3139 21.3313 28.2828 21.331C28.0654 21.3287 27.8532 21.3615 27.6461 21.4317C27.6167 21.4418 27.5863 21.4525 27.5548 21.4639C27.3343 21.5437 27.0615 21.6563 26.7378 21.802L25.4398 20.2551C25.8293 20.1026 26.1939 20.147 26.5343 20.3892C26.8253 20.5929 27.0874 20.5969 27.3244 20.3981C27.4506 20.2922 27.519 20.1564 27.5312 19.9926C27.5444 19.828 27.4968 19.684 27.3936 19.561C27.3818 19.5469 27.3694 19.5331 27.3564 19.5195C27.2656 19.4242 27.1461 19.3404 26.997 19.2667C26.9863 19.2615 26.9755 19.2563 26.9645 19.2512C26.8008 19.1751 26.6186 19.1212 26.4161 19.0872C26.3816 19.0809 26.3473 19.0756 26.3132 19.0713C26.0742 19.0409 25.8436 19.0574 25.6212 19.1208C25.5896 19.1299 25.5577 19.14 25.5256 19.151ZM29.2345 23.6494C29.231 23.9076 29.13 24.1619 28.9336 24.4092L27.58 22.7961C27.8921 22.6721 28.1602 22.6152 28.3851 22.6262C28.6084 22.637 28.8097 22.7503 28.9885 22.9633C29.1563 23.1633 29.2372 23.3919 29.2345 23.6494ZM24.6741 21.1806C24.7071 21.0069 24.7855 20.8203 24.9109 20.6228L26.1221 22.0662C26.1046 22.0719 26.0873 22.0775 26.0702 22.0828C25.8135 22.1627 25.5976 22.1955 25.4226 22.1813C25.3991 22.1791 25.3758 22.1756 25.3526 22.1706C25.1904 22.136 25.0372 22.0327 24.8912 21.8587C24.8802 21.8457 24.8697 21.8327 24.8595 21.8197C24.7071 21.6252 24.6405 21.4371 24.6628 21.2543C24.6656 21.23 24.6694 21.2054 24.6741 21.1806Z" fill="#DDEFFF"/>
</g>
<g clip-path="url(#clip3_56_366)">
<path d="M9.15614 22.7622C8.47253 23.2873 8.17882 24.1843 8.41844 25.0116C8.45496 25.1377 8.50386 25.2621 8.56565 25.3834L16.2034 40.3732C16.6668 41.2828 17.7011 41.7107 18.6474 41.4431C18.7105 41.4252 18.7732 41.4043 18.8353 41.3802C18.8353 41.3802 18.8353 41.3802 18.8353 41.3802C18.9015 41.3545 18.9671 41.3252 19.0318 41.2923L51.1976 24.903C52.2324 24.3757 52.6439 23.1094 52.1166 22.0745L44.4789 7.08468C44.4542 7.03617 44.4278 6.98903 44.3999 6.9433C44.3738 6.90042 44.3464 6.85877 44.3176 6.81839C43.8869 6.2126 43.1732 5.89013 42.4548 5.94129C42.1823 5.96069 41.9091 6.03384 41.6504 6.16566L9.48466 22.5549C9.41999 22.5879 9.35775 22.6237 9.29801 22.6622C9.24902 22.6938 9.20171 22.7272 9.15614 22.7622Z" fill="#55A9F7"/>
<path d="M12.4652 24.0164C11.8611 24.4568 11.5687 25.1663 11.731 25.7957C11.7557 25.8916 11.791 25.9856 11.8373 26.0766L17.5656 37.319C17.9132 38.0011 18.7673 38.2821 19.581 38.0284C19.6353 38.0115 19.6893 37.9922 19.7431 37.9705C19.7431 37.9705 19.7431 37.9705 19.7431 37.9705C19.8004 37.9473 19.8573 37.9214 19.9136 37.8927L47.929 23.6182C48.8303 23.159 49.2403 22.1575 48.8449 21.3814L43.1166 10.139C43.0981 10.1026 43.0781 10.0674 43.0567 10.0333C43.0367 10.0013 43.0155 9.97041 42.9932 9.94052C42.6584 9.49216 42.0704 9.27718 41.4601 9.35199C41.2286 9.38036 40.9939 9.45041 40.7686 9.56522L12.7533 23.8397C12.6969 23.8684 12.6425 23.8993 12.5901 23.932C12.5471 23.9589 12.5055 23.987 12.4652 24.0164Z" fill="#A6D4FF"/>
<mask id="mask2_56_366" style="mask-type:alpha" maskUnits="userSpaceOnUse" x="8" y="5" width="45" height="37">
<path d="M9.15614 22.7622C8.47253 23.2873 8.17882 24.1843 8.41844 25.0116C8.45496 25.1377 8.50386 25.2621 8.56565 25.3834L16.2034 40.3732C16.6668 41.2828 17.7011 41.7107 18.6474 41.4431C18.7105 41.4252 18.7732 41.4043 18.8353 41.3802C18.8353 41.3802 18.8353 41.3802 18.8353 41.3802C18.9015 41.3545 18.9671 41.3252 19.0318 41.2923L51.1976 24.903C52.2324 24.3757 52.6439 23.1094 52.1166 22.0745L44.4789 7.08468C44.4542 7.03617 44.4278 6.98903 44.3999 6.9433C44.3738 6.90042 44.3464 6.85877 44.3176 6.81839C43.8869 6.2126 43.1732 5.89013 42.4548 5.94129C42.1823 5.96069 41.9091 6.03384 41.6504 6.16566L9.48466 22.5549C9.41999 22.5879 9.35775 22.6237 9.29801 22.6622C9.24902 22.6938 9.20171 22.7272 9.15614 22.7622Z" fill="#55A9F7"/>
</mask>
<g mask="url(#mask2_56_366)">
<path d="M13.4633 29.2726C16.0189 27.9704 17.0351 24.843 15.7329 22.2873C15.7227 22.2674 15.7124 22.2475 15.702 22.2277C15.5461 21.931 15.3654 21.6556 15.1637 21.4026C14.9755 21.1665 14.769 20.95 14.5474 20.7541C12.9962 19.3827 10.7043 19.0207 8.74767 20.0177L8.71779 20.033C8.70847 20.0379 8.69918 20.0427 8.68991 20.0476C8.5508 20.1206 8.41636 20.1991 8.28671 20.2827C8.16571 20.3606 8.04888 20.443 7.93633 20.5295C6.24806 21.8264 5.52271 24.0416 6.1145 26.0847C6.15658 26.23 6.20532 26.3745 6.26085 26.5176C6.32035 26.671 6.38764 26.8229 6.46288 26.9729L6.47803 27.0029C7.61743 29.2391 10.1543 30.2966 12.4828 29.6537C12.8154 29.5619 13.1438 29.4353 13.4633 29.2726Z" fill="#55A9F7"/>
<path d="M44.6984 13.3574C47.254 12.0552 48.2702 8.92783 46.968 6.37217C46.9578 6.35221 46.9475 6.33233 46.9371 6.31256C46.7812 6.01589 46.6005 5.74045 46.3988 5.48749C46.2106 5.25139 46.0041 5.03487 45.7825 4.83895C44.2313 3.46754 41.9394 3.10556 39.9828 4.10254L39.9529 4.11788C39.9436 4.1227 39.9343 4.12754 39.925 4.13241C39.7859 4.20545 39.6515 4.28395 39.5218 4.3675C39.4008 4.44548 39.284 4.52786 39.1714 4.61432C37.4832 5.91128 36.7578 8.12644 37.3496 10.1696C37.3917 10.3149 37.4404 10.4593 37.496 10.6025C37.5555 10.7558 37.6227 10.9078 37.698 11.0578L37.7131 11.0878C38.8525 13.324 41.3894 14.3815 43.7179 13.7386C44.0505 13.6467 44.3789 13.5202 44.6984 13.3574Z" fill="#55A9F7"/>
<path d="M23.4128 37.3166C24.715 39.8723 23.6988 42.9997 21.1432 44.3019C21.1232 44.312 21.1032 44.3221 21.0832 44.3319C20.7826 44.4803 20.4745 44.5969 20.1627 44.683C19.8716 44.7634 19.5773 44.8172 19.2828 44.8454C17.2218 45.0431 15.1549 43.9889 14.1579 42.0322L14.1428 42.0022C14.1381 41.9929 14.1334 41.9835 14.1288 41.9741C14.0592 41.8332 13.9965 41.6907 13.9408 41.5469C13.9373 41.538 13.9338 41.529 13.9304 41.5201C13.8792 41.3857 13.8338 41.2503 13.7944 41.114C13.7204 40.8587 13.667 40.6006 13.6335 40.3419C13.399 38.5315 14.139 36.6936 15.6162 35.5588C15.7288 35.4723 15.8456 35.3899 15.9666 35.312C16.0963 35.2284 16.2307 35.1499 16.3698 35.0769L16.3977 35.0623L16.4276 35.047C18.3842 34.05 20.6761 34.412 22.2273 35.7834C22.4489 35.9793 22.6554 36.1958 22.8436 36.4319C23.0453 36.6849 23.226 36.9603 23.3819 37.257C23.3923 37.2768 23.4026 37.2967 23.4128 37.3166Z" fill="#55A9F7"/>
<path d="M52.3607 28.3957C54.9164 27.0935 55.9326 23.9662 54.6304 21.4105C54.6202 21.3905 54.6099 21.3707 54.5995 21.3509C54.4436 21.0542 54.2629 20.7788 54.0612 20.5258C53.873 20.2897 53.6665 20.0732 53.4449 19.8773C51.8936 18.5059 49.6018 18.1439 47.6452 19.1409L47.6153 19.1562C47.606 19.161 47.5967 19.1659 47.5874 19.1707C47.4483 19.2438 47.3139 19.3223 47.1842 19.4058C47.0632 19.4838 46.9464 19.5662 46.8338 19.6527C45.1456 20.9496 44.4202 23.1648 45.012 25.2079C45.0541 25.3532 45.1028 25.4976 45.1583 25.6408C45.2178 25.7942 45.2851 25.9461 45.3604 26.0961L45.3755 26.1261C46.5149 28.3623 49.0518 29.4198 51.3803 28.7769C51.7129 28.685 52.0413 28.5585 52.3607 28.3957Z" fill="#55A9F7"/>
</g>
<path d="M33.0068 29.3774C36.061 27.8212 37.2754 24.0838 35.7192 21.0295C35.5247 20.6478 35.2961 20.2947 35.039 19.9723C33.2393 17.715 30.0437 16.9555 27.3713 18.3171C27.1804 18.4144 26.9967 18.5202 26.8204 18.6338C24.1761 20.3379 23.1999 23.8017 24.6589 26.665C26.2151 29.7193 29.9526 30.9336 33.0068 29.3774Z" fill="#55A9F7"/>
<path fill-rule="evenodd" clip-rule="evenodd" d="M29.5492 20.1818C29.3128 20.2062 29.0555 20.2719 28.7789 20.3779L28.5408 19.9107C28.4206 19.6748 28.2701 19.603 28.0914 19.6941C28.0692 19.7054 28.0493 19.7179 28.0318 19.7316C27.9093 19.8271 27.9021 19.9802 28.0106 20.1932L28.2437 20.6506C28.2091 20.6724 28.1752 20.6944 28.1421 20.7167C27.6463 21.0507 27.3285 21.4403 27.1915 21.884C27.0459 22.3584 27.0985 22.8431 27.3511 23.3388C27.5452 23.7198 27.7835 23.9903 28.064 24.1514C28.3439 24.314 28.6449 24.3972 28.9638 24.3997C29.2832 24.4006 29.6594 24.3602 30.09 24.2742L31.1147 26.2852C31.1012 26.2878 31.0877 26.2902 31.0744 26.2925C30.8747 26.3261 30.6963 26.3211 30.5391 26.2787C30.5184 26.2729 30.498 26.2668 30.478 26.2602C30.3379 26.2143 30.2149 26.1491 30.1095 26.0644C30.0945 26.0523 30.0789 26.0394 30.0627 26.0257C29.9494 25.93 29.808 25.7957 29.6362 25.6221C29.6306 25.6164 29.6248 25.6108 29.6191 25.6054C29.5326 25.5241 29.4351 25.4751 29.3236 25.4609C29.3089 25.4588 29.2942 25.4573 29.2794 25.4564C29.1758 25.4505 29.069 25.4765 28.9582 25.533C28.8008 25.6132 28.6977 25.7345 28.6486 25.8984C28.5989 26.064 28.6107 26.2161 28.6808 26.3537C28.7765 26.5415 28.9132 26.7125 29.091 26.8667C29.2693 27.022 29.4857 27.1469 29.7424 27.243C29.9981 27.3396 30.2802 27.3857 30.5866 27.3822C30.8952 27.3776 31.2231 27.3109 31.5708 27.1805L31.9241 27.8738C32.0114 28.0452 32.2074 28.0457 32.3074 27.9948C32.418 27.9384 32.5611 27.8009 32.4609 27.6043L32.1016 26.8991C32.4849 26.6597 32.7772 26.3733 32.9774 26.043C32.9898 26.0224 33.0018 26.0017 33.0135 25.981C33.1881 25.6703 33.2791 25.3441 33.2826 25.0032C33.2831 24.9578 33.2822 24.9126 33.28 24.8677C33.2646 24.5537 33.1836 24.2538 33.0371 23.9663C33.0287 23.9499 33.0203 23.9337 33.0116 23.9176C32.8823 23.677 32.7214 23.4744 32.5273 23.3129C32.5143 23.3021 32.5013 23.2916 32.4882 23.2812C32.2912 23.1256 32.0735 23.0147 31.8358 22.9501C31.8057 22.9414 31.7756 22.9334 31.7454 22.9261C31.534 22.8749 31.3199 22.8592 31.1023 22.881C31.0715 22.8842 31.0394 22.8878 31.0061 22.8918C30.7733 22.9199 30.4822 22.9683 30.134 23.0375L29.2172 21.2383C29.6311 21.1773 29.9764 21.3025 30.2536 21.6151C30.4913 21.879 30.7458 21.9419 31.0214 21.8015C31.1682 21.7267 31.2654 21.6097 31.3142 21.4529C31.364 21.2955 31.35 21.1445 31.2771 21.0014C31.2688 20.9851 31.2598 20.9688 31.2502 20.9526C31.1832 20.8393 31.0856 20.7308 30.9569 20.6255C30.9476 20.618 30.9382 20.6105 30.9287 20.6031C30.7863 20.4921 30.6209 20.3986 30.4313 20.3199C30.3991 20.306 30.3669 20.2931 30.3346 20.2812C30.1086 20.1978 29.8801 20.162 29.6492 20.1738C29.6163 20.1756 29.583 20.1783 29.5492 20.1818ZM32.1512 25.3991C32.0897 25.6499 31.9341 25.875 31.687 26.0718L30.731 24.1955C31.063 24.1449 31.337 24.1498 31.5537 24.2111C31.7688 24.2719 31.9395 24.4275 32.0658 24.6753C32.1843 24.908 32.2117 25.1489 32.1512 25.3991ZM28.263 21.9678C28.3342 21.8059 28.4526 21.6418 28.6192 21.4776L29.4746 23.1564C29.4563 23.158 29.4382 23.1595 29.4203 23.1609C29.1523 23.181 28.9346 23.1644 28.7673 23.1112C28.7448 23.1038 28.7229 23.0951 28.7014 23.0851C28.5512 23.0149 28.4251 22.8797 28.3219 22.6773C28.3142 22.6622 28.3069 22.6471 28.2999 22.6322C28.1951 22.4084 28.1726 22.2101 28.2354 22.037C28.2436 22.014 28.2528 21.9909 28.263 21.9678Z" fill="#DDEFFF"/>
</g>
<path fill-rule="evenodd" clip-rule="evenodd" d="M4.99454 17.6353C4.99454 18.2267 4.99484 17.6648 4.99454 17.6353C4.99454 19.9097 6.83834 20.4829 9.11279 20.4829L42.6661 20.4829C45.4098 20.6604 47.5791 23.6209 47.5791 26.4082V40.306C47.5791 44.1774 44.4407 47.3158 40.5693 47.3158H15.1587C9.54521 47.3158 4.99454 42.7651 4.99454 37.1515V17.6353Z" fill="#2187FF"/>
<path fill-rule="evenodd" clip-rule="evenodd" d="M4.99454 17.9016C4.99484 17.9312 4.99454 17.9446 4.99454 17.9736C4.99454 20.2481 6.83834 21.9713 9.11279 21.9713L42.6661 21.9712C45.4098 22.1487 47.5791 24.4302 47.5791 27.2175V41.1152C47.5791 44.9866 44.4407 48.125 40.5693 48.125H15.1587C9.54521 48.125 4.99454 43.5743 4.99454 37.9608V17.9016Z" fill="#55A9F7"/>
<path d="M35.6629 36.5171C35.6629 39.1303 37.7813 41.2488 40.3945 41.2488H47.5795V31.7855H40.3945C37.7813 31.7855 35.6629 33.9039 35.6629 36.5171Z" fill="#0146AD"/>
<path d="M49.8577 33.5374C49.8577 31.6017 48.2885 30.0325 46.3528 30.0325H40.3945C37.7813 30.0325 35.6629 32.1509 35.6629 34.7641C35.6629 37.3773 37.7813 39.4957 40.3945 39.4957H46.3528C48.2885 39.4957 49.8577 37.9265 49.8577 35.9908V33.5374Z" fill="#2187FF"/>
<path d="M43.3728 34.7649C43.3728 35.9264 42.4313 36.8679 41.2699 36.8679C40.1085 36.8679 39.167 35.9264 39.167 34.7649C39.167 33.6035 40.1085 32.662 41.2699 32.662C42.4313 32.662 43.3728 33.6035 43.3728 34.7649Z" fill="#A6D4FF"/>
</g>
<defs>
<clipPath id="clip0_56_366">
<rect width="56" height="56" fill="white"/>
</clipPath>
<clipPath id="clip1_56_366">
<rect width="40.3063" height="21.0294" fill="white" transform="translate(4.70355 36.203) rotate(-57)"/>
</clipPath>
<clipPath id="clip2_56_366">
<rect width="40.3063" height="21.0294" fill="white" transform="translate(4.89819 27.3287) rotate(-40)"/>
</clipPath>
<clipPath id="clip3_56_366">
<rect width="40.3063" height="21.0294" fill="white" transform="translate(7.61093 23.5096) rotate(-27)"/>
</clipPath>
</defs>
</svg>
