<svg width="131" height="112" viewBox="0 0 131 112" fill="none" xmlns="http://www.w3.org/2000/svg">
<path opacity="0.5" d="M121 97C121 101.969 96.8236 106 67 106C37.1739 106 13 101.969 13 97C13 92.031 37.1739 88 67 88C96.8236 88 121 92.031 121 97Z" fill="#A6D4FF"/>
<path d="M92.4617 38.5053C92.4617 37.2647 91.456 36.259 90.2155 36.259H37.5698C33.9256 36.259 30.9715 39.2132 30.9715 42.8573C30.9715 46.5014 33.9256 49.4556 37.5698 49.4556H92.4617V38.5053Z" fill="#0166DD"/>
<path fill-rule="evenodd" clip-rule="evenodd" d="M30.9715 48.0487L41.0957 54.6642L96.9589 54.7826C98.1976 54.7852 99.2003 55.7901 99.2003 57.0288V91.2884C99.2003 95.3202 95.9319 98.5886 91.9001 98.5886H42.2026C35.9998 98.5886 30.9715 93.5603 30.9715 87.3575V48.0487Z" fill="#2187FF"/>
<g clip-path="url(#clip0_56_424)">
<path d="M32.0505 69.6986C31.5227 70.9749 31.8337 72.4548 32.8289 73.4108C32.9806 73.5564 33.1481 73.6899 33.331 73.8087L55.9371 88.4892C57.3087 89.38 59.0867 89.1452 60.1853 88.0157C60.2586 87.9404 60.3288 87.8612 60.3957 87.778C60.3957 87.778 60.3957 87.778 60.3957 87.778C60.467 87.6893 60.5345 87.5961 60.5979 87.4985L92.0999 38.9898C93.1133 37.4291 92.6698 35.3424 91.1092 34.3289L68.5031 19.6484C68.43 19.6009 68.3557 19.5566 68.2804 19.5155C68.2098 19.4769 68.1383 19.4411 68.0661 19.4081C66.9831 18.9126 65.7346 19.0369 64.7787 19.6834C64.4161 19.9286 64.0957 20.2489 63.8423 20.6391L32.3403 69.1479C32.277 69.2454 32.2194 69.345 32.1673 69.4463C32.1246 69.5293 32.0857 69.6135 32.0505 69.6986Z" fill="#0166DD"/>
<path d="M37.6467 68.788C37.1614 69.883 37.324 71.1016 38.0534 71.8449C38.1645 71.9582 38.2888 72.0604 38.426 72.1495L55.3805 83.1599C56.4092 83.828 57.8195 83.5337 58.7453 82.5297C58.807 82.4628 58.8666 82.3927 58.9237 82.3196C58.9237 82.3196 58.9237 82.3196 58.9237 82.3196C58.9847 82.2416 59.0429 82.16 59.0981 82.075L86.5353 39.8255C87.418 38.4662 87.1847 36.7481 86.0142 35.988L69.0597 24.9776C69.0049 24.942 68.9489 24.9091 68.892 24.8789C68.8386 24.8506 68.7845 24.8247 68.7295 24.8011C67.9058 24.4472 66.9177 24.6199 66.1308 25.2126C65.8323 25.4374 65.5628 25.7227 65.3421 26.0625L37.9049 68.3121C37.8498 68.397 37.7989 68.4834 37.7525 68.5708C37.7143 68.6425 37.6791 68.715 37.6467 68.788Z" fill="#A6D4FF"/>
<mask id="mask0_56_424" style="mask-type:alpha" maskUnits="userSpaceOnUse" x="31" y="19" width="62" height="71">
<path d="M32.0505 69.6986C31.5227 70.9749 31.8337 72.4548 32.8289 73.4108C32.9806 73.5564 33.1481 73.6899 33.331 73.8087L55.9371 88.4892C57.3087 89.38 59.0867 89.1452 60.1853 88.0157C60.2586 87.9404 60.3288 87.8612 60.3957 87.778C60.3957 87.778 60.3957 87.778 60.3957 87.778C60.467 87.6893 60.5345 87.5961 60.5979 87.4985L92.0999 38.9898C93.1133 37.4291 92.6698 35.3424 91.1092 34.3289L68.5031 19.6484C68.43 19.6009 68.3557 19.5566 68.2804 19.5155C68.2098 19.4769 68.1383 19.4411 68.0661 19.4081C66.9831 18.9126 65.7346 19.0369 64.7787 19.6834C64.4161 19.9286 64.0957 20.2489 63.8423 20.6391L32.3403 69.1479C32.277 69.2454 32.2194 69.345 32.1673 69.4463C32.1246 69.5293 32.0857 69.6135 32.0505 69.6986Z" fill="#55A9F7"/>
</mask>
<g mask="url(#mask0_56_424)">
<path d="M43.2423 75.2816C45.7452 71.4274 44.6498 66.274 40.7956 63.7711C40.7655 63.7515 40.7353 63.7322 40.7051 63.7131C40.2511 63.4264 39.7796 63.189 39.2971 62.9995C38.8468 62.8227 38.3869 62.6877 37.9224 62.5934C34.6714 61.9332 31.2014 63.2669 29.2851 66.2177L29.256 66.2629C29.2469 66.2771 29.2379 66.2913 29.2289 66.3054C29.0944 66.5182 28.9708 66.7348 28.8578 66.9546C28.7524 67.1598 28.6563 67.3677 28.5694 67.5778C27.2658 70.7299 28.0339 74.3846 30.4918 76.7455C30.6666 76.9133 30.8499 77.0747 31.0417 77.2288C31.2471 77.394 31.4622 77.5509 31.6867 77.6988L31.7318 77.7282C35.1042 79.9183 39.4713 79.3534 42.1872 76.5959C42.5751 76.202 42.9294 75.7634 43.2423 75.2816Z" fill="#0166DD"/>
<path d="M73.8328 28.1762C76.3357 24.3221 75.2403 19.1687 71.3862 16.6657C71.3561 16.6462 71.3259 16.6269 71.2956 16.6077C70.8416 16.321 70.3702 16.0836 69.8877 15.8942C69.4374 15.7174 68.9774 15.5824 68.513 15.4881C65.262 14.8278 61.792 16.1615 59.8757 19.1124L59.8465 19.1576C59.8375 19.1718 59.8284 19.1859 59.8195 19.2001C59.685 19.4129 59.5613 19.6295 59.4484 19.8493C59.3429 20.0544 59.2468 20.2623 59.1599 20.4725C57.8564 23.6245 58.6245 27.2792 61.0824 29.6401C61.2571 29.808 61.4405 29.9693 61.6322 30.1235C61.8376 30.2886 62.0527 30.4456 62.2773 30.5934L62.3223 30.6229C65.6947 32.8129 70.0619 32.248 72.7777 29.4906C73.1657 29.0967 73.52 28.658 73.8328 28.1762Z" fill="#0166DD"/>
<path d="M63.4918 78.4726C67.346 80.9755 68.4414 86.129 65.9384 89.9831C65.9189 90.0132 65.8992 90.0432 65.8793 90.073C65.5812 90.5196 65.2471 90.9282 64.8833 91.2975C64.5438 91.6422 64.1786 91.9526 63.7926 92.2276C61.0912 94.1531 57.3788 94.3461 54.4279 92.4298L54.3829 92.4003C54.3689 92.3911 54.3549 92.3818 54.3409 92.3725C54.1315 92.2328 53.9304 92.0852 53.7378 91.9304C53.7258 91.9207 53.7139 91.9111 53.702 91.9014C53.5232 91.756 53.3518 91.6044 53.188 91.447C52.8807 91.1519 52.5999 90.8366 52.3462 90.5045C50.5704 88.1803 50.1249 85.0374 51.2655 82.2793C51.3524 82.0692 51.4485 81.8613 51.554 81.6562C51.6669 81.4364 51.7906 81.2198 51.9251 81.007L51.9521 80.9645L51.9813 80.9193C53.8976 77.9684 57.3676 76.6347 60.6186 77.2949C61.083 77.3892 61.543 77.5243 61.9933 77.7011C62.4758 77.8905 62.9472 78.1279 63.4012 78.4146C63.4315 78.4337 63.4617 78.4531 63.4918 78.4726Z" fill="#0166DD"/>
<path d="M96.5118 42.9042C99.0147 39.05 97.9193 33.8966 94.0652 31.3936C94.0351 31.3741 94.0049 31.3548 93.9746 31.3356C93.5206 31.0489 93.0492 30.8115 92.5667 30.6221C92.1164 30.4453 91.6564 30.3103 91.192 30.216C87.9409 29.5557 84.471 30.8894 82.5547 33.8403L82.5255 33.8855C82.5164 33.8997 82.5074 33.9138 82.4985 33.928C82.364 34.1408 82.2403 34.3574 82.1273 34.5772C82.0219 34.7823 81.9258 34.9902 81.8389 35.2004C80.5353 38.3524 81.3034 42.0071 83.7613 44.368C83.9361 44.5359 84.1194 44.6972 84.3112 44.8514C84.5166 45.0166 84.7317 45.1735 84.9563 45.3213L85.0013 45.3508C88.3737 47.5408 92.7408 46.9759 95.4567 44.2185C95.8447 43.8246 96.1989 43.3859 96.5118 42.9042Z" fill="#0166DD"/>
</g>
<path d="M70.4438 59.7708C73.435 55.1648 72.1259 49.006 67.5199 46.0148C66.9441 45.6409 66.3441 45.3342 65.7291 45.0927C61.4237 43.4024 56.3812 44.9084 53.7639 48.9387C53.577 49.2266 53.4068 49.5205 53.2532 49.8194C50.9492 54.3022 52.3697 59.8905 56.6878 62.6947C61.2939 65.6859 67.4526 64.3768 70.4438 59.7708Z" fill="#0166DD"/>
<path fill-rule="evenodd" clip-rule="evenodd" d="M58.2795 49.7812C57.9712 50.0046 57.6668 50.3017 57.3679 50.6705L56.6632 50.2129C56.3076 49.9819 56.0412 50.0029 55.8661 50.2724C55.8444 50.3059 55.8268 50.3392 55.8135 50.3721C55.72 50.6029 55.8326 50.821 56.1539 51.0296L56.8438 51.4776C56.8131 51.5356 56.7838 51.5933 56.7558 51.6507C56.3353 52.5114 56.2065 53.3065 56.3718 54.0319C56.5498 54.8068 57.0112 55.4372 57.7587 55.9227C58.3333 56.2958 58.8807 56.4802 59.3988 56.479C59.9175 56.4805 60.4018 56.3547 60.8463 56.1028C61.2903 55.8481 61.7798 55.4908 62.3084 55.0264L65.3412 56.996C65.3246 57.0104 65.3079 57.0245 65.2912 57.0383C65.0409 57.2449 64.7895 57.3808 64.5373 57.448C64.504 57.4566 64.4708 57.4644 64.4378 57.4713C64.2066 57.5197 63.9837 57.5279 63.7697 57.4947C63.7391 57.49 63.7071 57.4846 63.6737 57.4786C63.4398 57.4366 63.1359 57.3635 62.7586 57.2602C62.7461 57.2568 62.7337 57.2537 62.7214 57.2508C62.5362 57.2073 62.3617 57.2173 62.1957 57.287C62.1736 57.2958 62.152 57.3055 62.1308 57.3162C61.9823 57.391 61.8549 57.5126 61.7464 57.6797C61.5922 57.9172 61.5464 58.168 61.6095 58.4348C61.6732 58.7044 61.8115 58.9059 62.019 59.0407C62.3022 59.2246 62.6289 59.3523 62.9991 59.4239C63.3709 59.4966 63.7712 59.4965 64.2044 59.4242C64.6366 59.3535 65.0649 59.1914 65.4873 58.941C65.9118 58.6874 66.3134 58.3322 66.6913 57.8727L67.7369 58.5517C67.9954 58.7196 68.2677 58.5634 68.3656 58.4125C68.474 58.2456 68.5623 57.9403 68.2659 57.7478L67.2023 57.0571C67.5425 56.4179 67.7186 55.7863 67.7318 55.1675C67.7325 55.1291 67.7327 55.0908 67.7322 55.0527C67.7256 54.4817 67.5906 53.9561 67.3223 53.4803C67.2866 53.4169 67.2492 53.3549 67.2102 53.2945C66.9372 52.8711 66.5846 52.5199 66.1509 52.2383C66.1262 52.2222 66.1015 52.2065 66.0767 52.1912C65.7044 51.961 65.3189 51.8087 64.9201 51.7401C64.8935 51.7355 64.867 51.7313 64.8405 51.7274C64.4426 51.6693 64.0516 51.6898 63.6701 51.7906C63.6213 51.8026 63.5731 51.8156 63.5253 51.8297C63.1911 51.9281 62.8814 52.0778 62.597 52.2823C62.5567 52.3115 62.5151 52.3422 62.4722 52.3744C62.1716 52.5999 61.8065 52.9003 61.3787 53.2752L58.6653 51.5131C59.1908 51.0969 59.7702 50.9941 60.4052 51.2057C60.9465 51.3816 61.3499 51.2649 61.6198 50.8493C61.7636 50.6279 61.8049 50.3877 61.7469 50.131C61.6899 49.8727 61.5495 49.6744 61.3338 49.5343C61.3091 49.5183 61.2836 49.5029 61.2574 49.4881C61.0736 49.3847 60.8513 49.3122 60.5884 49.2692C60.5694 49.2662 60.5504 49.2633 60.5313 49.2607C60.2447 49.2208 59.9403 49.2235 59.6142 49.2662C59.5584 49.2728 59.5034 49.2807 59.449 49.2901C59.0686 49.3554 58.7229 49.4887 58.412 49.69C58.3677 49.7189 58.3236 49.7493 58.2795 49.7812ZM66.0696 54.9361C66.1851 55.3334 66.1496 55.7704 65.9644 56.2413L63.1348 54.4038C63.5549 54.0676 63.939 53.8548 64.2888 53.7663C64.636 53.6783 64.9975 53.7575 65.3712 54.0002C65.722 54.2281 65.9531 54.5403 66.0696 54.9361ZM57.9257 53.2897C57.8948 53.0082 57.9276 52.6856 58.0273 52.3242L60.5591 53.9684C60.535 53.9854 60.5111 54.0019 60.4874 54.0181C60.1315 54.2608 59.8162 54.4122 59.5413 54.4723C59.5043 54.4801 59.4668 54.4856 59.429 54.4888C59.1644 54.5118 58.8811 54.4253 58.5759 54.2271C58.5531 54.2122 58.5308 54.1973 58.5092 54.1822C58.1845 53.9556 57.9944 53.6985 57.9428 53.4079C57.9358 53.3694 57.9301 53.33 57.9257 53.2897Z" fill="#DDEFFF"/>
</g>
<g clip-path="url(#clip1_56_424)">
<path d="M32.96 56.0313C32.082 57.0975 31.9468 58.6037 32.6191 59.8088C32.7215 59.9925 32.8427 60.1691 32.9829 60.3362L50.309 80.9846C51.3602 82.2375 53.1292 82.5328 54.51 81.7739C54.6021 81.7233 54.6924 81.668 54.7807 81.608C54.7807 81.608 54.7807 81.608 54.7807 81.608C54.8748 81.544 54.9667 81.4747 55.0558 81.3999L99.3638 44.221C100.789 43.0249 100.975 40.8997 99.7791 39.4742L82.4531 18.8258C82.397 18.7589 82.3389 18.6949 82.2789 18.6335C82.2227 18.576 82.1648 18.5209 82.1054 18.4682C81.2145 17.6777 79.9843 17.4315 78.8811 17.7703C78.4627 17.8988 78.0626 18.1114 77.7062 18.4105L33.3982 55.5894C33.3091 55.6641 33.2248 55.7425 33.1454 55.8241C33.0803 55.8911 33.0185 55.9602 32.96 56.0313Z" fill="#2187FF"/>
<path d="M38.5779 56.7967C37.7936 57.7019 37.5929 58.9149 38.073 59.8389C38.1462 59.9797 38.2351 60.1138 38.3403 60.2391L51.3348 75.7254C52.1233 76.6651 53.558 76.796 54.7368 76.1066C54.8154 76.0607 54.8929 76.0111 54.9689 75.9578C54.9689 75.9578 54.9689 75.9578 54.9689 75.9578C55.05 75.901 55.1296 75.84 55.2072 75.7749L93.7981 43.3933C95.0396 42.3515 95.3188 40.6403 94.4218 39.5712L81.4272 24.0849C81.3851 24.0348 81.3412 23.987 81.2957 23.9415C81.2529 23.8988 81.2087 23.8582 81.1631 23.8195C80.4788 23.2403 79.4834 23.1166 78.5575 23.4533C78.2064 23.581 77.8652 23.775 77.5549 24.0354L38.964 56.417C38.8864 56.4821 38.8125 56.5499 38.7425 56.6199C38.6851 56.6773 38.6302 56.7363 38.5779 56.7967Z" fill="#A6D4FF"/>
<mask id="mask1_56_424" style="mask-type:alpha" maskUnits="userSpaceOnUse" x="32" y="17" width="69" height="66">
<path d="M32.96 56.0313C32.082 57.0975 31.9468 58.6037 32.6191 59.8088C32.7215 59.9925 32.8427 60.1691 32.9829 60.3362L50.309 80.9846C51.3602 82.2375 53.1292 82.5328 54.51 81.7739C54.6021 81.7233 54.6924 81.668 54.7807 81.608C54.7807 81.608 54.7807 81.608 54.7807 81.608C54.8748 81.544 54.9667 81.4747 55.0558 81.3999L99.3638 44.221C100.789 43.0249 100.975 40.8997 99.7791 39.4742L82.4531 18.8258C82.397 18.7589 82.3389 18.6949 82.2789 18.6335C82.2227 18.576 82.1648 18.5209 82.1054 18.4682C81.2145 17.6777 79.9843 17.4315 78.8811 17.7703C78.4627 17.8988 78.0626 18.1114 77.7062 18.4105L33.3982 55.5894C33.3091 55.6641 33.2248 55.7425 33.1454 55.8241C33.0803 55.8911 33.0185 55.9602 32.96 56.0313Z" fill="#55A9F7"/>
</mask>
<g mask="url(#mask1_56_424)">
<path d="M42.0304 64.6425C45.5508 61.6886 46.01 56.4401 43.056 52.9197C43.0329 52.8922 43.0097 52.8648 42.9864 52.8377C42.636 52.4308 42.2546 52.0659 41.8486 51.7437C41.4696 51.443 41.0692 51.1794 40.6527 50.9534C37.7367 49.3715 34.0284 49.6324 31.3331 51.894L31.292 51.9288C31.2792 51.9397 31.2665 51.9506 31.2537 51.9615C31.0629 52.1257 30.8813 52.2967 30.709 52.4738C30.5482 52.6392 30.3955 52.8099 30.251 52.9854C28.0828 55.6186 27.7488 59.3382 29.4091 62.3146C29.5271 62.5262 29.6553 62.7341 29.7936 62.9376C29.9417 63.1556 30.1015 63.3685 30.2731 63.5756L30.3075 63.6169C32.8922 66.6973 37.2337 67.4339 40.6371 65.591C41.1233 65.3277 41.5903 65.0118 42.0304 64.6425Z" fill="#2187FF"/>
<path d="M85.0566 28.5393C88.577 25.5853 89.0361 20.3368 86.0822 16.8164C86.0591 16.7889 86.0359 16.7616 86.0125 16.7344C85.6622 16.3275 85.2808 15.9626 84.8747 15.6404C84.4958 15.3397 84.0954 15.0761 83.6788 14.8501C80.7629 13.2682 77.0546 13.5291 74.3593 15.7908L74.3182 15.8255C74.3054 15.8364 74.2926 15.8473 74.2799 15.8582C74.0891 16.0224 73.9075 16.1934 73.7352 16.3706C73.5744 16.5359 73.4217 16.7066 73.2771 16.8822C71.109 19.5154 70.775 23.235 72.4352 26.2113C72.5533 26.4229 72.6814 26.6308 72.8197 26.8343C72.9679 27.0523 73.1277 27.2653 73.2992 27.4723L73.3337 27.5137C75.9184 30.594 80.2599 31.3306 83.6633 29.4877C84.1495 29.2244 84.6165 28.9085 85.0566 28.5393Z" fill="#2187FF"/>
<path d="M60.4622 73.6144C63.4161 77.1348 62.957 82.3833 59.4366 85.3372C59.4091 85.3603 59.3814 85.3832 59.3537 85.4059C58.9381 85.7458 58.4991 86.0389 58.0433 86.2857C57.6178 86.516 57.1778 86.7061 56.7283 86.8563C53.582 87.9078 49.9753 87.0069 47.7137 84.3116L47.6792 84.2703C47.6685 84.2574 47.6578 84.2444 47.6472 84.2314C47.4878 84.0366 47.3386 83.8367 47.1997 83.6323C47.1911 83.6196 47.1825 83.6068 47.1739 83.5941C47.0455 83.4028 46.9259 83.2077 46.8152 83.0093C46.6077 82.6372 46.4313 82.2536 46.2858 81.8619C45.2671 79.12 45.76 75.9842 47.6571 73.6801C47.8017 73.5046 47.9544 73.3339 48.1152 73.1685C48.2875 72.9914 48.4691 72.8204 48.6599 72.6562L48.6982 72.6235L48.7393 72.5887C51.4346 70.3271 55.1429 70.0662 58.0588 71.6481C58.4754 71.8741 58.8758 72.1377 59.2547 72.4384C59.6608 72.7606 60.0422 73.1255 60.3925 73.5324C60.4159 73.5595 60.4391 73.5869 60.4622 73.6144Z" fill="#2187FF"/>
<path d="M102.439 49.2544C105.959 46.3004 106.418 41.0519 103.464 37.5315C103.441 37.504 103.418 37.4767 103.395 37.4495C103.044 37.0426 102.663 36.6777 102.257 36.3555C101.878 36.0548 101.477 35.7912 101.061 35.5652C98.1449 33.9833 94.4366 34.2442 91.7413 36.5059L91.7002 36.5406C91.6874 36.5515 91.6746 36.5624 91.6619 36.5733C91.471 36.7375 91.2895 36.9085 91.1172 37.0856C90.9564 37.251 90.8037 37.4217 90.6591 37.5973C88.491 40.2305 88.157 43.95 89.8172 46.9264C89.9353 47.138 90.0634 47.3459 90.2017 47.5494C90.3499 47.7674 90.5097 47.9803 90.6812 48.1874L90.7157 48.2287C93.3004 51.3091 97.6419 52.0457 101.045 50.2028C101.531 49.9395 101.998 49.6236 102.439 49.2544Z" fill="#2187FF"/>
</g>
<path d="M72.5783 57.7624C76.7854 54.2322 77.3342 47.9598 73.804 43.7526C73.3627 43.2267 72.8786 42.758 72.361 42.3472C68.7379 39.472 63.4754 39.4379 59.7942 42.5269C59.5312 42.7475 59.2826 42.9789 59.0483 43.2198C55.5343 46.8331 55.2589 52.5925 58.5685 56.5367C62.0987 60.7439 68.3711 61.2926 72.5783 57.7624Z" fill="#2187FF"/>
<path fill-rule="evenodd" clip-rule="evenodd" d="M63.8662 44.6528C63.506 44.7762 63.128 44.9714 62.7344 45.2367L62.1943 44.5931C61.9217 44.2682 61.6608 44.2103 61.4146 44.4169C61.384 44.4426 61.3575 44.4693 61.3351 44.4969C61.1783 44.6903 61.2222 44.9317 61.4684 45.2252L61.9972 45.8553C61.9509 45.9018 61.906 45.9484 61.8624 45.9951C61.2087 46.6953 60.853 47.4179 60.799 48.16C60.7427 48.9531 60.9996 49.6908 61.5725 50.3736C62.0129 50.8985 62.4825 51.2348 62.9783 51.3852C63.4739 51.5383 63.9738 51.5596 64.4726 51.4486C64.9716 51.3349 65.5442 51.1363 66.1855 50.8468L68.5099 53.617C68.4898 53.6259 68.4697 53.6345 68.4497 53.6428C68.15 53.7672 67.8698 53.8237 67.609 53.8142C67.5746 53.8127 67.5406 53.8104 67.507 53.8073C67.2717 53.7861 67.0561 53.7287 66.8612 53.6344C66.8333 53.621 66.8043 53.6065 66.7741 53.591C66.5627 53.4824 66.2935 53.3237 65.9629 53.1145C65.952 53.1077 65.941 53.101 65.9301 53.0947C65.7657 52.9989 65.5959 52.9575 65.4168 52.9756C65.3931 52.9776 65.3695 52.9805 65.3461 52.9845C65.1823 53.0126 65.0249 53.0917 64.8723 53.2198C64.6554 53.4018 64.5382 53.6282 64.5206 53.9019C64.5027 54.1783 64.576 54.4115 64.735 54.601C64.9521 54.8596 65.2271 55.0773 65.5602 55.254C65.8946 55.4322 66.2774 55.5492 66.7128 55.6067C67.1468 55.6654 67.6038 55.6356 68.081 55.5197C68.5611 55.4013 69.0489 55.179 69.5447 54.8501L70.346 55.8051C70.5441 56.0412 70.8503 55.9715 70.988 55.8559C71.1405 55.728 71.3142 55.4617 71.087 55.191L70.2718 54.2195C70.784 53.7077 71.1371 53.1552 71.3307 52.5673C71.3426 52.5308 71.3539 52.4942 71.3646 52.4577C71.5252 51.9096 71.5497 51.3675 71.4323 50.8341C71.4167 50.763 71.3991 50.6929 71.3794 50.6236C71.2421 50.1389 71.0076 49.7 70.6753 49.3039C70.6563 49.2813 70.6373 49.2591 70.618 49.2371C70.3294 48.9081 70.0052 48.6498 69.6439 48.4676C69.6198 48.4555 69.5956 48.4437 69.5714 48.4322C69.2079 48.2603 68.828 48.1656 68.4337 48.1505C68.3836 48.1477 68.3336 48.146 68.2839 48.1455C67.9355 48.1419 67.5955 48.1945 67.2637 48.3069C67.2167 48.323 67.1679 48.3402 67.1174 48.3585C66.7641 48.4862 66.3272 48.6668 65.8084 48.9002L63.7288 46.4218C64.3529 46.1774 64.9371 46.2485 65.4825 46.6366C65.9487 46.963 66.3686 46.9694 66.7482 46.6508C66.9505 46.4811 67.0602 46.2635 67.0797 46.0011C67.1007 45.7374 67.0245 45.5067 66.8592 45.3097C66.8403 45.2871 66.8204 45.2649 66.7996 45.2431C66.6541 45.0905 66.4627 44.9562 66.2238 44.8382C66.2066 44.8298 66.1892 44.8215 66.1717 44.8133C65.9093 44.6914 65.6175 44.605 65.2931 44.5505C65.2378 44.5405 65.1829 44.532 65.1282 44.525C64.7453 44.4763 64.3757 44.5027 64.0195 44.6043C63.9688 44.619 63.9177 44.6352 63.8662 44.6528ZM69.8087 51.86C69.803 52.2737 69.6413 52.6813 69.3265 53.0775L67.1578 50.4929C67.6578 50.2943 68.0874 50.203 68.4478 50.2207C68.8055 50.2381 69.128 50.4195 69.4144 50.7608C69.6834 51.0813 69.813 51.4475 69.8087 51.86ZM62.502 47.9046C62.5548 47.6263 62.6804 47.3274 62.8815 47.0109L64.8219 49.3235C64.7939 49.3327 64.7662 49.3415 64.7388 49.3501C64.3275 49.4781 63.9817 49.5307 63.7013 49.5078C63.6636 49.5044 63.6262 49.4987 63.5891 49.4908C63.3293 49.4354 63.0837 49.2698 62.8498 48.991C62.8323 48.9702 62.8154 48.9494 62.7991 48.9286C62.5548 48.617 62.4482 48.3155 62.4839 48.0226C62.4884 47.9837 62.4945 47.9443 62.502 47.9046Z" fill="#DDEFFF"/>
</g>
<g clip-path="url(#clip2_56_424)">
<path d="M37.6392 50.4387C36.5439 51.2802 36.0733 52.7173 36.4573 54.0428C36.5158 54.2448 36.5941 54.4441 36.6931 54.6384L48.9303 78.6552C49.6728 80.1124 51.33 80.7981 52.8461 80.3693C52.9472 80.3407 53.0476 80.3071 53.1471 80.2685C53.1471 80.2685 53.1471 80.2685 53.1471 80.2685C53.2533 80.2274 53.3584 80.1804 53.462 80.1276L104.998 53.8688C106.656 53.024 107.315 50.995 106.47 49.337L94.2332 25.3203C94.1936 25.2426 94.1514 25.1671 94.1068 25.0938C94.0649 25.0251 94.0209 24.9584 93.9749 24.8937C93.2847 23.9231 92.1413 23.4064 90.9902 23.4884C90.5537 23.5195 90.116 23.6367 89.7015 23.8479L38.1656 50.1067C38.0619 50.1595 37.9622 50.2169 37.8665 50.2786C37.788 50.3292 37.7122 50.3826 37.6392 50.4387Z" fill="#55A9F7"/>
<path d="M42.941 52.4482C41.9731 53.1539 41.5047 54.2905 41.7647 55.2989C41.8043 55.4526 41.8608 55.6033 41.935 55.749L51.1129 73.7615C51.6698 74.8545 53.0383 75.3048 54.342 74.8982C54.4289 74.8711 54.5155 74.8402 54.6016 74.8054C54.6016 74.8054 54.6016 74.8055 54.6016 74.8054C54.6934 74.7683 54.7846 74.7268 54.8748 74.6809L99.7609 51.8102C101.205 51.0745 101.862 49.4699 101.228 48.2264L92.0506 30.2139C92.0209 30.1556 91.9889 30.0991 91.9547 30.0445C91.9226 29.9933 91.8887 29.9438 91.8529 29.8959C91.3165 29.1775 90.3744 28.8331 89.3966 28.9529C89.0257 28.9984 88.6496 29.1106 88.2886 29.2946L43.4025 52.1652C43.3123 52.2112 43.2251 52.2605 43.1411 52.313C43.0722 52.3561 43.0055 52.4012 42.941 52.4482Z" fill="#A6D4FF"/>
<mask id="mask2_56_424" style="mask-type:alpha" maskUnits="userSpaceOnUse" x="36" y="23" width="71" height="58">
<path d="M37.6392 50.4387C36.5439 51.2802 36.0733 52.7173 36.4573 54.0428C36.5158 54.2448 36.5941 54.4441 36.6931 54.6384L48.9303 78.6552C49.6728 80.1124 51.33 80.7981 52.8461 80.3693C52.9472 80.3407 53.0476 80.3071 53.1471 80.2685C53.1471 80.2685 53.1471 80.2685 53.1471 80.2685C53.2533 80.2274 53.3584 80.1804 53.462 80.1276L104.998 53.8688C106.656 53.024 107.315 50.995 106.47 49.337L94.2332 25.3203C94.1936 25.2426 94.1514 25.1671 94.1068 25.0938C94.0649 25.0251 94.0209 24.9584 93.9749 24.8937C93.2847 23.9231 92.1413 23.4064 90.9902 23.4884C90.5537 23.5195 90.116 23.6367 89.7015 23.8479L38.1656 50.1067C38.0619 50.1595 37.9622 50.2169 37.8665 50.2786C37.788 50.3292 37.7122 50.3826 37.6392 50.4387Z" fill="#55A9F7"/>
</mask>
<g mask="url(#mask2_56_424)">
<path d="M44.54 60.8697C48.6347 58.7833 50.2628 53.7726 48.1764 49.678C48.1601 49.646 48.1437 49.6141 48.127 49.5825C47.8772 49.1071 47.5876 48.6658 47.2645 48.2605C46.9629 47.8823 46.6321 47.5353 46.277 47.2215C43.7917 45.0242 40.1197 44.4442 36.9847 46.0416L36.9369 46.0661C36.9219 46.0739 36.907 46.0816 36.8922 46.0894C36.6693 46.2065 36.4539 46.3322 36.2462 46.4661C36.0523 46.591 35.8651 46.723 35.6848 46.8615C32.9799 48.9395 31.8177 52.4887 32.7659 55.7622C32.8333 55.995 32.9114 56.2264 33.0004 56.4557C33.0957 56.7015 33.2035 56.9449 33.3241 57.1852L33.3483 57.2333C35.1739 60.8161 39.2384 62.5105 42.9691 61.4804C43.5021 61.3332 44.0282 61.1305 44.54 60.8697Z" fill="#55A9F7"/>
<path d="M94.5849 35.3705C98.6796 33.2842 100.308 28.2735 98.2213 24.1788C98.205 24.1468 98.1885 24.115 98.1719 24.0833C97.922 23.608 97.6325 23.1667 97.3093 22.7614C97.0078 22.3831 96.6769 22.0362 96.3219 21.7223C93.8365 19.525 90.1646 18.9451 87.0296 20.5424L86.9817 20.567C86.9668 20.5747 86.9519 20.5825 86.937 20.5903C86.7142 20.7073 86.4988 20.8331 86.2911 20.9669C86.0972 21.0919 85.91 21.2239 85.7297 21.3624C83.0247 23.4404 81.8626 26.9895 82.8107 30.263C82.8782 30.4958 82.9563 30.7272 83.0452 30.9566C83.1406 31.2023 83.2484 31.4458 83.3689 31.6861L83.3932 31.7341C85.2187 35.317 89.2832 37.0113 93.014 35.9812C93.5469 35.8341 94.0731 35.6313 94.5849 35.3705Z" fill="#55A9F7"/>
<path d="M60.4812 73.7578C62.5675 77.8525 60.9395 82.8632 56.8448 84.9495C56.8128 84.9658 56.7807 84.9819 56.7486 84.9977C56.2672 85.2354 55.7735 85.4223 55.2738 85.5602C54.8075 85.689 54.336 85.7752 53.8642 85.8204C50.562 86.1372 47.2504 84.4481 45.6531 81.3131L45.6288 81.2651C45.6213 81.2501 45.6138 81.235 45.6063 81.22C45.4948 80.9943 45.3945 80.766 45.3051 80.5356C45.2996 80.5212 45.294 80.5069 45.2886 80.4925C45.2064 80.2773 45.1338 80.0602 45.0706 79.842C44.9521 79.4328 44.8666 79.0193 44.8129 78.6049C44.4371 75.7042 45.6227 72.7596 47.9896 70.9414C48.1699 70.8028 48.3571 70.6709 48.5509 70.5459C48.7587 70.4121 48.9741 70.2863 49.1969 70.1693L49.2416 70.146L49.2895 70.1214C52.4245 68.524 56.0964 69.104 58.5818 71.3013C58.9368 71.6152 59.2676 71.9621 59.5692 72.3404C59.8924 72.7457 60.1819 73.187 60.4318 73.6623C60.4484 73.694 60.4649 73.7258 60.4812 73.7578Z" fill="#55A9F7"/>
<path d="M106.862 59.4648C110.956 57.3784 112.584 52.3677 110.498 48.2731C110.482 48.2411 110.465 48.2092 110.449 48.1775C110.199 47.7022 109.909 47.2609 109.586 46.8556C109.284 46.4773 108.954 46.1304 108.599 45.8165C106.113 43.6193 102.441 43.0393 99.3062 44.6367L99.2584 44.6612C99.2434 44.669 99.2285 44.6767 99.2137 44.6845C98.9908 44.8016 98.7754 44.9273 98.5677 45.0612C98.3738 45.1861 98.1866 45.3181 98.0063 45.4566C95.3014 47.5346 94.1392 51.0837 95.0874 54.3573C95.1548 54.5901 95.2329 54.8214 95.3219 55.0508C95.4172 55.2966 95.525 55.54 95.6456 55.7803L95.6698 55.8284C97.4954 59.4112 101.56 61.1055 105.291 60.0755C105.824 59.9283 106.35 59.7256 106.862 59.4648Z" fill="#55A9F7"/>
</g>
<path d="M75.8526 61.0377C80.7461 58.5444 82.6918 52.5562 80.1985 47.6627C79.8868 47.0511 79.5205 46.4854 79.1086 45.9688C76.2252 42.3522 71.1052 41.1353 66.8234 43.3169C66.5176 43.4728 66.2233 43.6423 65.9408 43.8243C61.7041 46.5545 60.1401 52.1043 62.4776 56.6919C64.971 61.5854 70.9592 63.5311 75.8526 61.0377Z" fill="#55A9F7"/>
<path fill-rule="evenodd" clip-rule="evenodd" d="M70.3129 46.3044C69.9341 46.3436 69.522 46.4488 69.0787 46.6187L68.6973 45.8701C68.5047 45.4922 68.2636 45.3772 67.9772 45.5231C67.9416 45.5412 67.9098 45.5612 67.8817 45.5831C67.6854 45.7362 67.6739 45.9814 67.8478 46.3227L68.2212 47.0556C68.1657 47.0905 68.1115 47.1258 68.0585 47.1615C67.2641 47.6967 66.7549 48.3208 66.5354 49.0317C66.302 49.7918 66.3864 50.5685 66.7911 51.3626C67.1021 51.9731 67.484 52.4065 67.9333 52.6645C68.3817 52.9251 68.864 53.0584 69.375 53.0624C69.8868 53.0638 70.4894 52.9991 71.1794 52.8613L72.8211 56.0834C72.7995 56.0875 72.778 56.0914 72.7566 56.095C72.4366 56.1489 72.1509 56.1408 71.8989 56.073C71.8657 56.0637 71.8331 56.0538 71.801 56.0433C71.5766 55.9697 71.3794 55.8653 71.2107 55.7296C71.1866 55.7102 71.1616 55.6895 71.1356 55.6676C70.9541 55.5142 70.7275 55.2991 70.4524 55.0209C70.4433 55.0117 70.4341 55.0028 70.4249 54.9941C70.2862 54.8639 70.1301 54.7853 69.9515 54.7627C69.928 54.7593 69.9044 54.7569 69.8807 54.7555C69.7147 54.746 69.5436 54.7877 69.3661 54.8781C69.1138 55.0067 68.9486 55.201 68.8699 55.4636C68.7903 55.7289 68.8093 55.9726 68.9216 56.193C69.0749 56.4939 69.2939 56.7679 69.5787 57.015C69.8644 57.2638 70.2112 57.4639 70.6225 57.6179C71.0321 57.7727 71.4841 57.8465 71.9751 57.8409C72.4695 57.8335 72.9949 57.7267 73.5519 57.5178L74.1179 58.6285C74.2578 58.9031 74.5718 58.904 74.732 58.8224C74.9093 58.732 75.1385 58.5117 74.9781 58.1969L74.4023 57.0669C75.0165 56.6834 75.4848 56.2245 75.8056 55.6952C75.8255 55.6622 75.8447 55.6292 75.8634 55.596C76.1432 55.0981 76.289 54.5754 76.2946 54.0293C76.2954 53.9565 76.294 53.8842 76.2904 53.8123C76.2657 53.3091 76.1359 52.8286 75.9012 52.3679C75.8878 52.3417 75.8742 52.3157 75.8604 52.29C75.6531 51.9046 75.3954 51.5799 75.0844 51.3211C75.0636 51.3039 75.0427 51.2869 75.0217 51.2703C74.7062 51.021 74.3573 50.8433 73.9765 50.7399C73.9283 50.7259 73.88 50.713 73.8316 50.7013C73.493 50.6194 73.1499 50.5942 72.8013 50.6292C72.7519 50.6343 72.7005 50.64 72.6472 50.6465C72.2742 50.6915 71.8078 50.7691 71.2499 50.8798L69.781 47.9971C70.4442 47.8994 70.9974 48.1001 71.4415 48.6009C71.8223 49.0238 72.2301 49.1245 72.6716 48.8995C72.9069 48.7797 73.0626 48.5923 73.1407 48.341C73.2205 48.0888 73.1982 47.8468 73.0814 47.6177C73.068 47.5914 73.0537 47.5654 73.0383 47.5394C72.9308 47.358 72.7746 47.1841 72.5684 47.0154C72.5535 47.0033 72.5384 46.9913 72.5232 46.9794C72.295 46.8016 72.03 46.6518 71.7262 46.5257C71.6746 46.5035 71.623 46.4829 71.5712 46.4638C71.2091 46.3302 70.8431 46.2728 70.4731 46.2916C70.4204 46.2945 70.367 46.2988 70.3129 46.3044ZM74.4818 54.6637C74.3832 55.0655 74.1339 55.4262 73.7381 55.7414L72.2063 52.7352C72.7383 52.6542 73.1774 52.6619 73.5245 52.7602C73.8691 52.8576 74.1426 53.107 74.3449 53.504C74.5348 53.8767 74.5788 54.2627 74.4818 54.6637ZM68.2522 49.1659C68.3662 48.9066 68.5559 48.6437 68.8229 48.3806L70.1934 51.0703C70.1641 51.073 70.1351 51.0754 70.1065 51.0776C69.6769 51.1098 69.3281 51.0833 69.0601 50.9979C69.0241 50.9861 68.9889 50.9721 68.9546 50.9561C68.7139 50.8436 68.5118 50.627 68.3466 50.3028C68.3342 50.2785 68.3225 50.2544 68.3113 50.2305C68.1433 49.8719 68.1073 49.5543 68.2079 49.2768C68.2211 49.24 68.2359 49.203 68.2522 49.1659Z" fill="#DDEFFF"/>
</g>
<path fill-rule="evenodd" clip-rule="evenodd" d="M30.9715 42.2244C30.9715 43.172 30.972 42.2718 30.9715 42.2244C30.9715 45.8685 33.9256 46.7869 37.5698 46.7869L91.3288 46.7868C95.7247 47.0712 99.2003 51.8146 99.2003 56.2803V78.5473C99.2003 84.7501 94.172 89.7784 87.9693 89.7784H47.2566C38.2626 89.7784 30.9715 82.4873 30.9715 73.4933V42.2244Z" fill="#2187FF"/>
<path fill-rule="evenodd" clip-rule="evenodd" d="M30.9715 42.651C30.972 42.6984 30.9715 42.7198 30.9715 42.7663C30.9715 46.4105 33.9256 49.1714 37.5698 49.1714L91.3288 49.1713C95.7247 49.4557 99.2003 53.1111 99.2003 57.5768V79.8438C99.2003 86.0466 94.172 91.0749 87.9692 91.0749H47.2566C38.2626 91.0749 30.9715 83.7838 30.9715 74.7898V42.651Z" fill="#55A9F7"/>
<path d="M80.1082 72.4767C80.1082 76.6636 83.5023 80.0577 87.6892 80.0577H99.2011V64.8958H87.6892C83.5023 64.8958 80.1082 68.2899 80.1082 72.4767Z" fill="#0146AD"/>
<path d="M102.851 67.7027C102.851 64.6013 100.337 62.0872 97.2356 62.0872H87.6892C83.5023 62.0872 80.1082 65.4813 80.1082 69.6681C80.1082 73.855 83.5023 77.2491 87.6892 77.2491H97.2356C100.337 77.2491 102.851 74.735 102.851 71.6336V67.7027Z" fill="#2187FF"/>
<path d="M92.4611 69.6694C92.4611 71.5302 90.9526 73.0387 89.0918 73.0387C87.231 73.0387 85.7225 71.5302 85.7225 69.6694C85.7225 67.8085 87.231 66.3 89.0918 66.3C90.9526 66.3 92.4611 67.8085 92.4611 69.6694Z" fill="#A6D4FF"/>
<path d="M111.064 15.6492L112 16L111.064 16.3508C110.672 16.4966 110.316 16.725 110.02 17.0205C109.724 17.316 109.495 17.6718 109.348 18.0637L108.998 19L108.648 18.0637C108.502 17.6724 108.273 17.3171 107.978 17.0216C107.683 16.7262 107.328 16.4974 106.937 16.3508L106 16L106.937 15.6492C107.329 15.5031 107.684 15.2746 107.981 14.9791C108.277 14.6836 108.506 14.328 108.653 13.9363L109.002 13L109.348 13.9363C109.495 14.3282 109.724 14.684 110.02 14.9795C110.316 15.275 110.672 15.5034 111.064 15.6492Z" fill="#55A9F7"/>
<path d="M9.2847 33.8568L11 34.5L9.2847 35.1432C8.56605 35.4104 7.91319 35.8291 7.37039 36.3709C6.82758 36.9127 6.4075 37.5649 6.13863 38.2834L5.49591 40L4.85523 38.2834C4.58666 37.5661 4.16762 36.9147 3.62636 36.373C3.08509 35.8313 2.43415 35.412 1.71734 35.1432L0 34.5L1.71734 33.8568C2.43566 33.589 3.08821 33.1701 3.63094 32.6284C4.17367 32.0867 4.59395 31.4347 4.86341 30.7166L5.50409 29L6.13863 30.7166C6.4075 31.4351 6.82758 32.0873 7.37039 32.6291C7.91319 33.1709 8.56605 33.5896 9.2847 33.8568Z" fill="#55A9F7"/>
<path d="M18.0644 74.6492L19 75L18.0644 75.3508C17.6724 75.4966 17.3163 75.725 17.0202 76.0205C16.7241 76.316 16.495 76.6718 16.3483 77.0637L15.9978 78L15.6483 77.0637C15.5018 76.6724 15.2732 76.3171 14.978 76.0216C14.6828 75.7262 14.3277 75.4974 13.9367 75.3508L13 75L13.9367 74.6492C14.3285 74.5031 14.6845 74.2746 14.9805 73.9791C15.2765 73.6836 15.5058 73.328 15.6528 72.9363L16.0022 72L16.3483 72.9363C16.495 73.3282 16.7241 73.684 17.0202 73.9795C17.3163 74.275 17.6724 74.5034 18.0644 74.6492Z" fill="#55A9F7"/>
<path d="M48.2847 16.8568L50 17.5L48.2847 18.1432C47.566 18.4104 46.9132 18.8291 46.3704 19.3709C45.8276 19.9127 45.4075 20.5649 45.1386 21.2834L44.4959 23L43.8552 21.2834C43.5867 20.5661 43.1676 19.9147 42.6264 19.373C42.0851 18.8313 41.4341 18.412 40.7173 18.1432L39 17.5L40.7173 16.8568C41.4357 16.589 42.0882 16.1701 42.6309 15.6284C43.1737 15.0867 43.594 14.4347 43.8634 13.7166L44.5041 12L45.1386 13.7166C45.4075 14.4351 45.8276 15.0873 46.3704 15.6291C46.9132 16.1709 47.566 16.5896 48.2847 16.8568Z" fill="#55A9F7"/>
<path d="M129.285 47.8568L131 48.5L129.285 49.1432C128.566 49.4104 127.913 49.8291 127.37 50.3709C126.828 50.9127 126.408 51.5649 126.139 52.2834L125.496 54L124.855 52.2834C124.587 51.5661 124.168 50.9147 123.626 50.373C123.085 49.8313 122.434 49.412 121.717 49.1432L120 48.5L121.717 47.8568C122.436 47.589 123.088 47.1701 123.631 46.6284C124.174 46.0867 124.594 45.4347 124.863 44.7166L125.504 43L126.139 44.7166C126.408 45.4351 126.828 46.0873 127.37 46.6291C127.913 47.1709 128.566 47.5896 129.285 47.8568Z" fill="#55A9F7"/>
<path d="M23.3763 1.76611L24 2L23.3763 2.23389C23.1149 2.33106 22.8775 2.48331 22.6801 2.68032C22.4828 2.87734 22.33 3.11452 22.2322 3.37579L21.9985 4L21.7655 3.37579C21.6679 3.11494 21.5155 2.87806 21.3187 2.68109C21.1219 2.48412 20.8851 2.33163 20.6245 2.23389L20 2L20.6245 1.76611C20.8857 1.66873 21.123 1.51641 21.3203 1.31941C21.5177 1.12242 21.6705 0.885355 21.7685 0.624208L22.0015 0L22.2322 0.624208C22.33 0.885477 22.4828 1.12266 22.6801 1.31968C22.8775 1.51669 23.1149 1.66894 23.3763 1.76611Z" fill="#55A9F7"/>
<path d="M113.376 80.7661L114 81L113.376 81.2339C113.115 81.3311 112.878 81.4833 112.68 81.6803C112.483 81.8773 112.33 82.1145 112.232 82.3758L111.999 83L111.766 82.3758C111.668 82.1149 111.515 81.8781 111.319 81.6811C111.122 81.4841 110.885 81.3316 110.624 81.2339L110 81L110.624 80.7661C110.886 80.6687 111.123 80.5164 111.32 80.3194C111.518 80.1224 111.671 79.8854 111.769 79.6242L112.001 79L112.232 79.6242C112.33 79.8855 112.483 80.1227 112.68 80.3197C112.878 80.5167 113.115 80.6689 113.376 80.7661Z" fill="#55A9F7"/>
<defs>
<clipPath id="clip0_56_424">
<rect width="64.5787" height="33.6933" fill="white" transform="translate(30.5053 71.9736) rotate(-57)"/>
</clipPath>
<clipPath id="clip1_56_424">
<rect width="64.5787" height="33.6933" fill="white" transform="translate(30.8171 57.7551) rotate(-40)"/>
</clipPath>
<clipPath id="clip2_56_424">
<rect width="64.5787" height="33.6933" fill="white" transform="translate(35.1635 51.6364) rotate(-27)"/>
</clipPath>
</defs>
</svg>
