<svg width="33" height="32" viewBox="0 0 33 32" fill="none" xmlns="http://www.w3.org/2000/svg">
<path opacity="0.2" d="M27.4326 26.9998H5.56763C3.99013 26.9998 3.00012 25.3486 3.76638 24.0111L14.6989 5.02734C15.4864 3.65234 17.5139 3.65234 18.3014 5.02734L29.2339 24.0111C30.0001 25.3486 29.0101 26.9998 27.4326 26.9998Z" fill="#D4221F"/>
<path d="M30.0994 23.5113L19.1681 4.52758C18.895 4.06249 18.505 3.67686 18.0369 3.40891C17.5688 3.14096 17.0388 3 16.4994 3C15.96 3 15.43 3.14096 14.9619 3.40891C14.4938 3.67686 14.1038 4.06249 13.8306 4.52758L2.89939 23.5113C2.63656 23.9612 2.49805 24.4728 2.49805 24.9938C2.49805 25.5148 2.63656 26.0265 2.89939 26.4763C3.16905 26.9442 3.55835 27.332 4.02734 27.5997C4.49633 27.8675 5.02812 28.0057 5.56814 28.0001H27.4306C27.9702 28.0052 28.5015 27.8669 28.97 27.5991C29.4385 27.3314 29.8274 26.9439 30.0969 26.4763C30.3601 26.0267 30.499 25.5152 30.4995 24.9942C30.4999 24.4732 30.3618 23.9614 30.0994 23.5113ZM28.3656 25.4751C28.2703 25.6376 28.1335 25.7719 27.9692 25.8642C27.8049 25.9564 27.619 26.0033 27.4306 26.0001H5.56814C5.37973 26.0033 5.19385 25.9564 5.02955 25.8642C4.86525 25.7719 4.72843 25.6376 4.63314 25.4751C4.54682 25.3289 4.50128 25.1623 4.50128 24.9926C4.50128 24.8229 4.54682 24.6562 4.63314 24.5101L15.5644 5.52633C15.6616 5.36455 15.799 5.23068 15.9633 5.13774C16.1276 5.0448 16.3131 4.99595 16.5019 4.99595C16.6906 4.99595 16.8762 5.0448 17.0405 5.13774C17.2047 5.23068 17.3422 5.36455 17.4394 5.52633L28.3706 24.5101C28.4562 24.6567 28.5009 24.8235 28.5 24.9933C28.4991 25.163 28.4527 25.3294 28.3656 25.4751ZM15.4994 18.0001V13.0001C15.4994 12.7349 15.6047 12.4805 15.7923 12.293C15.9798 12.1054 16.2342 12.0001 16.4994 12.0001C16.7646 12.0001 17.019 12.1054 17.2065 12.293C17.394 12.4805 17.4994 12.7349 17.4994 13.0001V18.0001C17.4994 18.2653 17.394 18.5197 17.2065 18.7072C17.019 18.8947 16.7646 19.0001 16.4994 19.0001C16.2342 19.0001 15.9798 18.8947 15.7923 18.7072C15.6047 18.5197 15.4994 18.2653 15.4994 18.0001ZM17.9994 22.5001C17.9994 22.7968 17.9114 23.0868 17.7466 23.3334C17.5818 23.5801 17.3475 23.7724 17.0734 23.8859C16.7993 23.9994 16.4977 24.0291 16.2068 23.9713C15.9158 23.9134 15.6485 23.7705 15.4387 23.5607C15.2289 23.351 15.0861 23.0837 15.0282 22.7927C14.9703 22.5017 15 22.2001 15.1136 21.9261C15.2271 21.652 15.4194 21.4177 15.666 21.2529C15.9127 21.0881 16.2027 21.0001 16.4994 21.0001C16.8972 21.0001 17.2787 21.1581 17.56 21.4394C17.8414 21.7207 17.9994 22.1023 17.9994 22.5001Z" fill="#A51A18"/>
</svg>
