<svg width="29" height="28" viewBox="0 0 29 28" fill="none" xmlns="http://www.w3.org/2000/svg">
<path d="M7.12467 3.5H21.1247C23.6913 3.5 25.7913 5.6 25.7913 8.16667C25.7913 10.15 24.6247 11.7833 22.8747 12.4833V8.16667C22.8747 7.7 22.6413 7.23333 22.408 6.88333C22.1747 6.53333 21.5913 6.41667 21.1247 6.41667H7.12467C6.65801 6.41667 6.19134 6.65 5.84134 6.88333C5.49134 7.11667 5.37467 7.7 5.37467 8.16667V12.4833C3.62467 11.7833 2.45801 10.15 2.45801 8.16667C2.45801 5.6 4.55801 3.5 7.12467 3.5Z" fill="#4F4FCE"/>
<path fill-rule="evenodd" clip-rule="evenodd" d="M21.125 8.16699V22.167C21.125 23.4503 20.075 24.5003 18.7917 24.5003H9.45833C8.175 24.5003 7.125 23.4503 7.125 22.167V8.16699H21.125ZM12.375 16.917L13.1917 17.7337V12.8337C13.1917 12.367 13.5417 11.9003 14.125 11.9003C14.7083 11.9003 15.0583 12.2503 15.0583 12.8337V17.7337L15.875 16.917C16.225 16.567 16.8083 16.567 17.1583 16.917C17.5083 17.267 17.5083 17.8503 17.1583 18.2003L15.6417 19.717C14.825 20.5337 13.5417 20.5337 12.725 19.717L11.2083 18.2003C10.8583 17.8503 10.8583 17.267 11.2083 16.917C11.5583 16.567 12.025 16.567 12.375 16.917Z" fill="#4F4FCE"/>
</svg>
