<svg width="24" height="24" viewBox="0 0 24 24" fill="none" xmlns="http://www.w3.org/2000/svg">
<path fill-rule="evenodd" clip-rule="evenodd" d="M7 5.49177C6.68351 5.49177 6.3742 5.5157 6.07284 5.56472C3.07211 5.97398 1.25 8.38745 1.25 11.5616V16.9219C1.25 18.6666 1.79355 20.1851 2.81262 21.2776C3.83918 22.3782 5.2991 22.9918 7 22.9918H17C18.7009 22.9918 20.1608 22.3782 21.1874 21.2776C22.2065 20.1851 22.75 18.6666 22.75 16.9219V16.88C22.5808 16.9523 22.3974 16.9918 22.2059 16.9918H18.6765C17.3364 16.9918 16.25 15.7606 16.25 14.2418C16.25 12.723 17.3364 11.4918 18.6765 11.4918H22.2059C22.3974 11.4918 22.5808 11.5313 22.75 11.6035V11.5616C22.75 8.36544 20.8967 5.94115 17.868 5.55397C17.5676 5.50222 17.2713 5.49177 17 5.49177H7ZM18.6765 15.4918C18.0673 15.4918 17.5735 14.9321 17.5735 14.2418C17.5735 13.5514 18.0673 12.9918 18.6765 12.9918H22.2059C22.3277 12.9918 22.4265 13.1037 22.4265 13.2418V15.2418C22.4265 15.3798 22.3277 15.4918 22.2059 15.4918H18.6765Z" fill="#696A86"/>
<path fill-rule="evenodd" clip-rule="evenodd" d="M15.9194 1.48549C15.0872 0.224578 13.3936 -0.128879 12.1266 0.693903L6.1936 4.54647C6.45664 4.50976 6.72559 4.49178 6.99992 4.49178H16.9999C17.2712 4.49178 17.5676 4.50223 17.8679 4.55398C17.8961 4.55757 17.9241 4.56135 17.9521 4.5653L15.9194 1.48549Z" fill="#696A86"/>
</svg>
