<svg width="14" height="17" viewBox="0 0 14 17" fill="none" xmlns="http://www.w3.org/2000/svg">
<path fill-rule="evenodd" clip-rule="evenodd" d="M10.7281 16.9632C10.5692 16.9033 10.4282 16.8067 10.3176 16.6821C10.207 16.5574 10.1303 16.4085 10.0942 16.2486C10.0547 16.0468 10.1023 15.9067 10.4042 15.3469C11.5855 13.2374 12.1878 10.8749 12.1546 8.48109C12.1891 6.17955 11.6274 3.90574 10.5197 1.86328C10.3401 1.53943 10.1877 1.2023 10.0642 0.855125C10.0791 0.710374 10.1258 0.570299 10.2015 0.444196C10.2771 0.318092 10.3799 0.208846 10.5029 0.123704C10.6723 0.0319443 10.8659 -0.010317 11.06 0.00213238C11.2541 0.0145818 11.4402 0.0811977 11.5952 0.193764C11.8135 0.467265 12.0012 0.761961 12.1553 1.07301C12.9989 2.67079 13.5689 4.38814 13.8435 6.15932C14.0239 7.56224 14.0484 8.97953 13.9166 10.3874C13.6817 12.1876 13.141 13.9388 12.3162 15.5718C11.8168 16.5617 11.5031 16.9695 11.2406 16.9695C11.1763 16.971 11.1125 16.9801 11.0506 16.9968C10.9422 17.0063 10.8331 16.9946 10.7296 16.9625L10.7281 16.9632ZM7.3327 15.26C7.11601 15.1931 6.93254 15.0522 6.81715 14.8641C6.70177 14.6761 6.66251 14.454 6.70684 14.24C6.73755 14.1468 6.94299 13.718 7.16307 13.2865C8.08606 11.5222 8.47845 9.54663 8.29634 7.58083C8.19101 6.17215 7.78382 4.79939 7.10019 3.54821C6.60155 2.56738 6.57815 2.41885 6.86842 2.02582C7.02932 1.84337 7.25857 1.7288 7.50679 1.70678C7.75502 1.68476 8.00233 1.75707 8.19544 1.90812C8.75431 2.73846 9.20187 3.63291 9.52759 4.57037C10.5232 7.50169 10.3693 10.6803 9.09474 13.5107C8.43672 14.9819 7.98049 15.4387 7.3327 15.2572V15.26ZM3.8298 13.5345C3.69059 13.4698 3.56786 13.3767 3.47022 13.2617C3.37258 13.1467 3.3024 13.0127 3.26462 12.8689C3.22587 12.7008 3.2924 12.5151 3.61264 11.8937C4.19141 10.8634 4.49759 9.71284 4.50434 8.54281C4.5111 7.37278 4.21823 6.21903 3.6514 5.18269C3.14691 4.20186 3.1352 4.0078 3.56219 3.62177C3.63429 3.53972 3.72661 3.47619 3.83078 3.43692C3.93495 3.39766 4.04769 3.38389 4.15881 3.39688C4.65525 3.39688 4.91335 3.63578 5.35642 4.51012C6.01363 5.74883 6.34329 7.12326 6.31641 8.51262C6.34834 9.90697 6.00621 11.2858 5.32278 12.5172C4.9053 13.3292 4.69912 13.5422 4.2809 13.5975C4.12715 13.6109 3.97228 13.589 3.82906 13.5338L3.8298 13.5345ZM0.562316 11.9231C0.310339 11.7944 0.120123 11.5772 0.0315087 11.3171C-0.0496481 11.046 0.0168905 10.8309 0.337862 10.3258C0.722589 9.7825 0.903068 9.13002 0.849659 8.47549C0.90295 7.82096 0.722482 7.16852 0.337862 6.62522C0.215495 6.43885 0.110761 6.24237 0.0249264 6.03812C-0.0199133 5.80581 0.0327278 5.56594 0.171409 5.37061C0.310091 5.17528 0.523609 5.04027 0.765574 4.99494C1.19037 4.91787 1.4821 5.09932 1.87253 5.68362C2.42618 6.52565 2.71998 7.50058 2.71998 8.4958C2.71998 9.49103 2.42618 10.466 1.87253 11.308C1.47406 11.8993 1.02879 12.1088 0.563053 11.9238L0.562316 11.9231Z" fill="white"/>
</svg>
