<svg width="24" height="24" viewBox="0 0 24 24" fill="none" xmlns="http://www.w3.org/2000/svg">
<rect x="0.5" y="0.5" width="23" height="23" rx="3.86825" fill="#C32B2A" stroke="white"/>
<path d="M14.6572 9.77527L14.6572 14.4618L9.9707 14.4618C9.72647 14.4618 9.53979 14.2651 9.53979 14.0309L9.53979 9.77527C9.53979 9.53103 9.73643 9.34436 9.9707 9.34436L14.193 9.34436C14.4938 9.34436 14.6572 9.53103 14.6572 9.77527Z" fill="white" stroke="white"/>
<path d="M8.21026 18.0547L15.818 18.0547L17.3983 19.6147L6.41494 19.6147C5.29471 19.6147 4.38818 18.7082 4.38818 17.588L4.38818 6.18435C4.38818 5.06412 5.29472 4.15759 6.41494 4.15759L17.8186 4.15759C18.9388 4.15759 19.8453 5.06413 19.8453 6.18435L19.8453 17.1788L18.2521 15.5856L18.2521 7.97967C18.2521 6.73937 17.2635 5.75084 16.0232 5.75084L8.21026 5.75084C6.96996 5.75084 5.98143 6.73937 5.98143 7.97967L5.98143 15.8259C5.98143 17.0662 6.96996 18.0547 8.21026 18.0547Z" fill="white" stroke="white"/>
</svg>
