<svg width="14" height="14" viewBox="0 0 14 14" fill="none" xmlns="http://www.w3.org/2000/svg">
<path d="M6.75 0.5C5.46442 0.5 4.20772 0.881218 3.1388 1.59545C2.06988 2.30968 1.23676 3.32484 0.744786 4.51256C0.252816 5.70028 0.124095 7.00721 0.374899 8.26809C0.625703 9.52896 1.24477 10.6872 2.15381 11.5962C3.06285 12.5052 4.22104 13.1243 5.48192 13.3751C6.74279 13.6259 8.04973 13.4972 9.23745 13.0052C10.4252 12.5132 11.4403 11.6801 12.1546 10.6112C12.8688 9.54229 13.25 8.28558 13.25 7C13.2479 5.27675 12.5623 3.6247 11.3438 2.40618C10.1253 1.18766 8.47325 0.50215 6.75 0.5ZM9.25 7.5H7.25V9.5C7.25 9.63261 7.19733 9.75979 7.10356 9.85355C7.00979 9.94732 6.88261 10 6.75 10C6.6174 10 6.49022 9.94732 6.39645 9.85355C6.30268 9.75979 6.25 9.63261 6.25 9.5V7.5H4.25C4.1174 7.5 3.99022 7.44732 3.89645 7.35355C3.80268 7.25979 3.75 7.13261 3.75 7C3.75 6.86739 3.80268 6.74022 3.89645 6.64645C3.99022 6.55268 4.1174 6.5 4.25 6.5H6.25V4.5C6.25 4.36739 6.30268 4.24022 6.39645 4.14645C6.49022 4.05268 6.6174 4 6.75 4C6.88261 4 7.00979 4.05268 7.10356 4.14645C7.19733 4.24022 7.25 4.36739 7.25 4.5V6.5H9.25C9.38261 6.5 9.50979 6.55268 9.60356 6.64645C9.69733 6.74022 9.75 6.86739 9.75 7C9.75 7.13261 9.69733 7.25979 9.60356 7.35355C9.50979 7.44732 9.38261 7.5 9.25 7.5Z" fill="#0D0F2E"/>
</svg>
