<svg width="62" height="24" viewBox="0 0 62 24" fill="none" xmlns="http://www.w3.org/2000/svg">
<path d="M28.9747 11.6725V18.7487H26.7139V1.27466H32.7075C34.2265 1.27466 35.5218 1.7776 36.5816 2.78346C37.6649 3.78933 38.2066 5.01743 38.2066 6.46775C38.2066 7.95316 37.6649 9.18126 36.5816 10.1754C35.5336 11.1696 34.2383 11.6608 32.7075 11.6608H28.9747V11.6725ZM28.9747 3.42675V9.52044H32.7546C33.6495 9.52044 34.4032 9.21635 34.9919 8.61984C35.5925 8.02334 35.8986 7.29817 35.8986 6.47944C35.8986 5.67241 35.5925 4.95895 34.9919 4.36244C34.4032 3.74255 33.6613 3.43845 32.7546 3.43845H28.9747V3.42675Z" fill="black"/>
<path d="M44.119 6.39722C45.7911 6.39722 47.1099 6.84167 48.0755 7.73058C49.0411 8.61949 49.5239 9.83589 49.5239 11.3798V18.7484H47.369V17.0875H47.2748C46.3445 18.4559 45.0963 19.1343 43.542 19.1343C42.2114 19.1343 41.1045 18.7484 40.2096 17.9647C39.3147 17.1811 38.8672 16.2103 38.8672 15.0407C38.8672 13.8009 39.3382 12.8184 40.2802 12.0932C41.2223 11.3564 42.4822 10.9938 44.0483 10.9938C45.3907 10.9938 46.4976 11.2394 47.3572 11.7307V11.216C47.3572 10.4324 47.0511 9.7774 46.427 9.22768C45.8029 8.67796 45.0728 8.40895 44.2368 8.40895C42.9768 8.40895 41.9759 8.93528 41.2458 9.99963L39.2558 8.75984C40.3509 7.18086 41.9759 6.39722 44.119 6.39722ZM41.1987 15.0758C41.1987 15.6606 41.446 16.1518 41.9523 16.5378C42.4469 16.9238 43.0357 17.1226 43.7069 17.1226C44.6607 17.1226 45.5085 16.7717 46.2503 16.0699C46.9922 15.3682 47.369 14.5494 47.369 13.602C46.6625 13.0523 45.6851 12.7716 44.4252 12.7716C43.5067 12.7716 42.7413 12.9938 42.129 13.4266C41.5049 13.8828 41.1987 14.4325 41.1987 15.0758Z" fill="black"/>
<path d="M61.8166 6.7832L54.2804 23.9999H51.9489L54.7514 17.9764L49.7822 6.7832H52.2433L55.823 15.3682H55.8701L59.3556 6.7832H61.8166Z" fill="black"/>
<path d="M19.9816 10.2456C19.9816 9.51346 19.9157 8.81286 19.7932 8.13916H10.3164V11.9989L15.7743 12.0001C15.5529 13.2843 14.8405 14.3791 13.7489 15.1089V17.613H16.9977C18.8947 15.8691 19.9816 13.2913 19.9816 10.2456Z" fill="#4285F4"/>
<path d="M13.7502 15.1086C12.8459 15.7145 11.6813 16.0689 10.3189 16.0689C7.68712 16.0689 5.45451 14.3074 4.65497 11.9331H1.30371V14.5156C2.96403 17.7882 6.37652 20.0339 10.3189 20.0339C13.0437 20.0339 15.3328 19.1438 16.999 17.6116L13.7502 15.1086Z" fill="#34A853"/>
<path d="M4.33986 10.0181C4.33986 9.35138 4.45172 8.70693 4.65543 8.10107V5.51855H1.30418C0.617674 6.8718 0.231445 8.39932 0.231445 10.0181C0.231445 11.6368 0.618852 13.1643 1.30418 14.5176L4.65543 11.9351C4.45172 11.3292 4.33986 10.6847 4.33986 10.0181Z" fill="#FABB05"/>
<path d="M10.3189 3.96499C11.8061 3.96499 13.1379 4.47378 14.1895 5.46795L17.0685 2.61058C15.3199 0.993004 13.0402 0 10.3189 0C6.3777 0 2.96403 2.24566 1.30371 5.51824L4.65497 8.10075C5.45451 5.72644 7.68712 3.96499 10.3189 3.96499Z" fill="#E94235"/>
</svg>
