<svg width="97" height="96" viewBox="0 0 97 96" fill="none" xmlns="http://www.w3.org/2000/svg">
<ellipse opacity="0.2" cx="48.5" cy="48" rx="48" ry="48" fill="#F59B99"/>
<path d="M47.7185 24.8271C43.2897 24.8271 38.9604 26.1404 35.278 28.6009C31.5956 31.0614 28.7255 34.5586 27.0307 38.6503C25.3359 42.742 24.8924 47.2443 25.7564 51.588C26.6205 55.9317 28.7531 59.9216 31.8847 63.0533C35.0164 66.1849 39.0063 68.3176 43.35 69.1816C47.6937 70.0456 52.196 69.6021 56.2877 67.9073C60.3794 66.2125 63.8766 63.3424 66.3371 59.66C68.7976 55.9776 70.1109 51.6483 70.1109 47.2195C70.1046 41.2826 67.7434 35.5907 63.5454 31.3926C59.3474 27.1946 53.6554 24.8334 47.7185 24.8271ZM45.996 36.8846C45.996 36.4277 46.1775 35.9896 46.5005 35.6666C46.8236 35.3436 47.2617 35.1621 47.7185 35.1621C48.1754 35.1621 48.6135 35.3436 48.9365 35.6666C49.2595 35.9896 49.441 36.4277 49.441 36.8846V48.942C49.441 49.3988 49.2595 49.8369 48.9365 50.16C48.6135 50.483 48.1754 50.6645 47.7185 50.6645C47.2617 50.6645 46.8236 50.483 46.5005 50.16C46.1775 49.8369 45.996 49.3988 45.996 48.942V36.8846ZM47.7185 59.2769C47.2075 59.2769 46.708 59.1254 46.2831 58.8415C45.8582 58.5576 45.527 58.154 45.3315 57.6819C45.1359 57.2098 45.0847 56.6903 45.1844 56.1891C45.2841 55.6879 45.5302 55.2275 45.8916 54.8662C46.2529 54.5049 46.7133 54.2588 47.2145 54.1591C47.7157 54.0594 48.2352 54.1106 48.7073 54.3061C49.1794 54.5017 49.5829 54.8328 49.8668 55.2577C50.1507 55.6826 50.3023 56.1822 50.3023 56.6932C50.3023 57.3784 50.03 58.0356 49.5455 58.5201C49.061 59.0047 48.4038 59.2769 47.7185 59.2769Z" fill="#E92522"/>
</svg>
