<svg width="207" height="155" viewBox="0 0 207 155" fill="none" xmlns="http://www.w3.org/2000/svg">
<circle cx="39.3178" cy="143.318" r="1.31777" fill="white"/>
<circle cx="160.318" cy="76.3178" r="1.31777" fill="white"/>
<circle cx="65.9115" cy="8.2079" r="1.31777" fill="white"/>
<circle cx="176.318" cy="109.318" r="1.31777" fill="white"/>
<circle cx="181.5" cy="55.5" r="0.5" fill="white"/>
<circle cx="80.3178" cy="133.318" r="1.31777" fill="white"/>
<circle cx="17.9975" cy="1.33925" r="1.31777" fill="white"/>
<circle cx="55.8084" cy="95.5271" r="0.527107" fill="white"/>
<circle cx="46.2009" cy="39.5545" r="0.527107" fill="white"/>
<circle cx="152.146" cy="45.8796" r="0.527107" fill="white"/>
<circle cx="102.527" cy="14.5271" r="0.527107" fill="white"/>
<circle cx="205.527" cy="68.5271" r="0.527107" fill="white"/>
<circle cx="190.527" cy="20.5271" r="0.527107" fill="white"/>
<circle cx="62.5271" cy="119.527" r="0.527107" fill="white"/>
<circle cx="135.318" cy="153.318" r="1.31777" fill="white"/>
<rect x="159" y="131" width="2.82842" height="2.82842" transform="rotate(45 159 131)" fill="white"/>
<rect x="170.729" y="32" width="2.63554" height="2.63554" transform="rotate(41 170.729 32)" fill="white"/>
<rect x="138.049" y="115.174" width="1.33489" height="1.33489" transform="rotate(41 138.049 115.174)" fill="white"/>
<rect x="192.037" y="144" width="1.58132" height="1.58132" transform="rotate(41 192.037 144)" fill="white"/>
<rect x="184.037" y="86" width="1.58132" height="1.58132" transform="rotate(41 184.037 86)" fill="white"/>
<rect x="38.082" y="67.2134" width="1.30375" height="1.30375" transform="rotate(39.4679 38.082 67.2134)" fill="white"/>
<rect x="135.145" y="6.89014" width="1.58132" height="1.58132" transform="rotate(30 135.145 6.89014)" fill="white"/>
<rect x="202.383" y="38" width="2.10843" height="2.10843" transform="rotate(41 202.383 38)" fill="white"/>
<rect x="166.873" y="6" width="2.63554" height="2.63554" transform="rotate(45.291 166.873 6)" fill="white"/>
<rect x="35.248" y="27.2827" width="3.68975" height="3.68975" transform="rotate(30 35.248 27.2827)" fill="white"/>
<rect x="2.37109" y="57.1348" width="4.74396" height="4.74396" transform="rotate(30 2.37109 57.1348)" fill="white"/>
<rect x="28.3711" y="90.3721" width="2.82843" height="2.82843" transform="rotate(45 28.3711 90.3721)" fill="white"/>
<rect width="2.9185" height="2.9185" transform="matrix(-0.809017 -0.587785 -0.587785 0.809017 203.256 126.913)" fill="white"/>
<rect x="4.71875" y="125.214" width="2.89517" height="2.89517" transform="rotate(36 4.71875 125.214)" fill="white"/>
<circle opacity="0.03" cx="103.01" cy="73" r="56" fill="white"/>
<circle cx="102.749" cy="72.7394" r="46.6667" fill="white" fill-opacity="0.05"/>
<ellipse cx="103.267" cy="73.2567" rx="37.3333" ry="37.3333" fill="white" fill-opacity="0.07"/>
<path d="M102.66 55.2339C99.2158 55.2339 95.8485 56.2553 92.9845 58.1691C90.1204 60.0828 87.8881 62.8028 86.5699 65.9852C85.2517 69.1676 84.9068 72.6695 85.5788 76.0479C86.2508 79.4263 87.9095 82.5296 90.3453 84.9653C92.781 87.401 95.8842 89.0598 99.2627 89.7318C102.641 90.4038 106.143 90.0589 109.325 88.7407C112.508 87.4225 115.228 85.1902 117.142 82.3261C119.055 79.462 120.077 76.0948 120.077 72.6502C120.072 68.0326 118.235 63.6055 114.97 60.3404C111.705 57.0753 107.278 55.2388 102.66 55.2339ZM110.307 69.5789L100.929 78.9569C100.804 79.0814 100.657 79.1802 100.494 79.2477C100.331 79.3151 100.157 79.3498 99.981 79.3498C99.8049 79.3498 99.6306 79.3151 99.468 79.2477C99.3053 79.1802 99.1576 79.0814 99.0331 78.9569L95.014 74.9377C94.7626 74.6863 94.6214 74.3454 94.6214 73.9899C94.6214 73.6344 94.7626 73.2934 95.014 73.042C95.2654 72.7906 95.6063 72.6494 95.9619 72.6494C96.3174 72.6494 96.6583 72.7906 96.9097 73.042L99.981 76.115L108.411 67.6832C108.536 67.5587 108.683 67.46 108.846 67.3926C109.009 67.3252 109.183 67.2906 109.359 67.2906C109.535 67.2906 109.709 67.3252 109.872 67.3926C110.035 67.46 110.182 67.5587 110.307 67.6832C110.431 67.8076 110.53 67.9554 110.597 68.118C110.665 68.2807 110.699 68.455 110.699 68.631C110.699 68.807 110.665 68.9814 110.597 69.144C110.53 69.3066 110.431 69.4544 110.307 69.5789Z" fill="white"/>
<circle cx="103.527" cy="149.527" r="0.527107" fill="white"/>
</svg>
