<svg width="81" height="80" viewBox="0 0 81 80" fill="none" xmlns="http://www.w3.org/2000/svg">
<ellipse cx="40.5" cy="40" rx="40" ry="40" fill="#F1F3F5"/>
<path d="M58 25.9375V30.8594C58 31.2323 57.8519 31.59 57.5881 31.8537C57.3244 32.1175 56.9667 32.2656 56.5938 32.2656C56.2208 32.2656 55.8631 32.1175 55.5994 31.8537C55.3357 31.59 55.1875 31.2323 55.1875 30.8594V25.9375H50.2656C49.8927 25.9375 49.535 25.7893 49.2713 25.5256C49.0075 25.2619 48.8594 24.9042 48.8594 24.5313C48.8594 24.1583 49.0075 23.8006 49.2713 23.5369C49.535 23.2732 49.8927 23.125 50.2656 23.125H55.1875C55.9334 23.125 56.6488 23.4213 57.1762 23.9488C57.7037 24.4762 58 25.1916 58 25.9375ZM56.5938 47.7344C56.2208 47.7344 55.8631 47.8825 55.5994 48.1463C55.3357 48.41 55.1875 48.7677 55.1875 49.1406V54.0625H50.2656C49.8927 54.0625 49.535 54.2107 49.2713 54.4744C49.0075 54.7381 48.8594 55.0958 48.8594 55.4688C48.8594 55.8417 49.0075 56.1994 49.2713 56.4631C49.535 56.7269 49.8927 56.875 50.2656 56.875H55.1875C55.9334 56.875 56.6488 56.5787 57.1762 56.0513C57.7037 55.5238 58 54.8084 58 54.0625V49.1406C58 48.7677 57.8519 48.41 57.5881 48.1463C57.3244 47.8825 56.9667 47.7344 56.5938 47.7344ZM31.9844 54.0625H27.0625V49.1406C27.0625 48.7677 26.9143 48.41 26.6506 48.1463C26.3869 47.8825 26.0292 47.7344 25.6563 47.7344C25.2833 47.7344 24.9256 47.8825 24.6619 48.1463C24.3982 48.41 24.25 48.7677 24.25 49.1406V54.0625C24.25 54.8084 24.5463 55.5238 25.0738 56.0513C25.6012 56.5787 26.3166 56.875 27.0625 56.875H31.9844C32.3573 56.875 32.715 56.7269 32.9787 56.4631C33.2425 56.1994 33.3906 55.8417 33.3906 55.4688C33.3906 55.0958 33.2425 54.7381 32.9787 54.4744C32.715 54.2107 32.3573 54.0625 31.9844 54.0625ZM25.6563 32.2656C26.0292 32.2656 26.3869 32.1175 26.6506 31.8537C26.9143 31.59 27.0625 31.2323 27.0625 30.8594V25.9375H31.9844C32.3573 25.9375 32.715 25.7893 32.9787 25.5256C33.2425 25.2619 33.3906 24.9042 33.3906 24.5313C33.3906 24.1583 33.2425 23.8006 32.9787 23.5369C32.715 23.2732 32.3573 23.125 31.9844 23.125H27.0625C26.3166 23.125 25.6012 23.4213 25.0738 23.9488C24.5463 24.4762 24.25 25.1916 24.25 25.9375V30.8594C24.25 31.2323 24.3982 31.59 24.6619 31.8537C24.9256 32.1175 25.2833 32.2656 25.6563 32.2656ZM49.5625 48.4375C49.344 48.438 49.1285 48.3876 48.9329 48.2902C48.7373 48.1929 48.5671 48.0513 48.4357 47.8768C47.5843 46.7415 46.4803 45.8201 45.2111 45.1855C43.9418 44.5509 42.5423 44.2205 41.1232 44.2205C39.7042 44.2205 38.3047 44.5509 37.0354 45.1855C35.7662 45.8201 34.6622 46.7415 33.8107 47.8768C33.5865 48.1751 33.2529 48.3722 32.8834 48.4246C32.5138 48.477 32.1386 48.3805 31.8402 48.1563C31.5419 47.932 31.3448 47.5984 31.2924 47.2289C31.24 46.8593 31.3365 46.4841 31.5607 46.1858C32.807 44.517 34.468 43.2033 36.3789 42.3748C35.3318 41.4188 34.5982 40.1686 34.2743 38.7882C33.9505 37.4078 34.0515 35.9617 34.5642 34.6398C35.0769 33.3178 35.9773 32.1818 37.1472 31.3807C38.3171 30.5796 39.7019 30.151 41.1197 30.151C42.5376 30.151 43.9224 30.5796 45.0923 31.3807C46.2622 32.1818 47.1625 33.3178 47.6752 34.6398C48.1879 35.9617 48.289 37.4078 47.9651 38.7882C47.6413 40.1686 46.9077 41.4188 45.8606 42.3748C47.7727 43.2027 49.435 44.5166 50.6822 46.1858C50.8392 46.3943 50.935 46.6424 50.9589 46.9023C50.9828 47.1623 50.9339 47.4237 50.8177 47.6574C50.7015 47.8911 50.5225 48.0879 50.3009 48.2256C50.0792 48.3634 49.8235 48.4368 49.5625 48.4375ZM41.125 41.4063C41.9594 41.4063 42.775 41.1588 43.4688 40.6953C44.1626 40.2317 44.7033 39.5728 45.0226 38.802C45.3419 38.0311 45.4255 37.1828 45.2627 36.3645C45.0999 35.5461 44.6981 34.7944 44.1081 34.2044C43.5181 33.6144 42.7664 33.2126 41.948 33.0498C41.1297 32.887 40.2814 32.9706 39.5106 33.2899C38.7397 33.6092 38.0808 34.1499 37.6172 34.8437C37.1537 35.5375 36.9063 36.3531 36.9063 37.1875C36.9063 38.3064 37.3507 39.3794 38.1419 40.1706C38.9331 40.9618 40.0061 41.4063 41.125 41.4063Z" fill="#1721C9"/>
</svg>
