<svg width="66" height="17" viewBox="0 0 66 17" fill="none" xmlns="http://www.w3.org/2000/svg">
<path d="M42.8937 6.62442V11.6244H37.979C37.487 11.6244 37.1187 11.2494 37.1187 10.7494V6.62442C37.1187 6.12439 37.487 5.7494 37.979 5.7494H41.9112C42.5254 5.62444 42.8937 6.12439 42.8937 6.62442Z" fill="white"/>
<path d="M65.7501 8.62549H63.2923C63.2923 5.62549 60.9576 3.25046 58.0086 3.25046C55.6738 3.25046 53.7081 4.75046 52.9701 7.00046C52.8478 7.50049 52.7248 8.12546 52.7248 8.62549V16.5005H52.6018C51.2503 16.5005 50.2671 15.3755 50.2671 14.1255V8.62549C50.2671 6.50051 51.1273 4.37546 52.7248 2.87546C54.1993 1.50049 56.0428 0.750488 58.0086 0.750488C62.3091 0.750488 65.7501 4.25051 65.7501 8.62549Z" fill="white"/>
<path d="M65.7501 16.5009H62.3091L61.4488 15.626L59.6061 13.751L57.0253 11.126H60.4663L65.7501 16.5009Z" fill="white"/>
<path d="M43.7541 14.0005H36.3816C35.5214 14.0005 34.7841 13.2505 34.7841 12.3755V4.87549C34.7841 4.00046 35.5214 3.25046 36.3816 3.25046H43.7541C44.6144 3.25046 45.3516 4.00046 45.3516 4.87549V12.3755L47.8094 14.8755V3.12551C47.8094 1.75046 46.7031 0.750488 45.4746 0.750488H34.7841C33.4319 0.750488 32.4494 1.87549 32.4494 3.12551V14.0005C32.4494 15.3755 33.5549 16.3755 34.7841 16.3755H46.2119L43.7541 14.0005Z" fill="white"/>
<path d="M13.8941 16.5005H10.4531L3.3259 9.12551V16.5005H0.499901V0.750488H3.3259V7.75046L10.2079 0.750488H13.5252L6.15265 8.25049L13.8941 16.5005Z" fill="white"/>
<path d="M26.7965 0.750488H29.5003V16.5005H26.7965V9.62546H18.932V16.5005H16.106V0.750488H18.932V7.37546H26.7965V0.750488Z" fill="white"/>
</svg>
