<svg width="25" height="24" viewBox="0 0 25 24" fill="none" xmlns="http://www.w3.org/2000/svg">
<path d="M20.5481 11.7617L10.0481 23.0117C9.93687 23.1305 9.78999 23.2098 9.62967 23.2377C9.46936 23.2657 9.3043 23.2407 9.15941 23.1667C9.01452 23.0926 8.89766 22.9734 8.82645 22.827C8.75525 22.6807 8.73358 22.5152 8.7647 22.3555L10.1391 15.4808L4.73626 13.452C4.62023 13.4086 4.51675 13.3372 4.43508 13.244C4.35341 13.1508 4.29609 13.0389 4.26823 12.9182C4.24037 12.7975 4.24285 12.6718 4.27545 12.5522C4.30804 12.4327 4.36973 12.3231 4.45501 12.2333L14.955 0.983274C15.0663 0.864526 15.2132 0.785191 15.3735 0.75724C15.5338 0.729289 15.6988 0.75424 15.8437 0.828326C15.9886 0.902412 16.1055 1.02161 16.1767 1.16794C16.2479 1.31428 16.2696 1.47979 16.2384 1.63952L14.8603 8.52171L20.2631 10.5476C20.3783 10.5913 20.481 10.6627 20.562 10.7555C20.643 10.8483 20.7 10.9596 20.7278 11.0796C20.7556 11.1996 20.7534 11.3246 20.7214 11.4436C20.6894 11.5626 20.6286 11.6718 20.5444 11.7617H20.5481Z" fill="#00B182"/>
</svg>
