<svg width="24" height="24" viewBox="0 0 24 24" fill="none" xmlns="http://www.w3.org/2000/svg">
<path d="M8.20358 14.2048L14.2036 8.2048C14.3082 8.10015 14.4325 8.01714 14.5692 7.96051C14.7059 7.90387 14.8525 7.87472 15.0005 7.87472C15.1484 7.87472 15.295 7.90387 15.4317 7.96051C15.5684 8.01714 15.6927 8.10015 15.7973 8.2048C15.902 8.30945 15.985 8.43368 16.0416 8.57041C16.0983 8.70714 16.1274 8.85368 16.1274 9.00167C16.1274 9.14967 16.0983 9.29621 16.0416 9.43294C15.985 9.56967 15.902 9.6939 15.7973 9.79855L9.79733 15.7985C9.58599 16.0099 9.29934 16.1286 9.00045 16.1286C8.70157 16.1286 8.41492 16.0099 8.20358 15.7985C7.99224 15.5872 7.8735 15.3006 7.8735 15.0017C7.8735 14.7028 7.99224 14.4161 8.20358 14.2048ZM20.4848 3.5173C19.4289 2.46375 17.9982 1.87207 16.5065 1.87207C15.0149 1.87207 13.5842 2.46375 12.5283 3.5173L9.70452 6.33824C9.49317 6.54958 9.37444 6.83623 9.37444 7.13511C9.37444 7.2831 9.40359 7.42965 9.46022 7.56638C9.51686 7.7031 9.59987 7.82734 9.70452 7.93199C9.80916 8.03663 9.9334 8.11964 10.0701 8.17628C10.2069 8.23291 10.3534 8.26206 10.5014 8.26206C10.8003 8.26206 11.0869 8.14333 11.2983 7.93199L14.1173 5.11386C14.7504 4.4807 15.609 4.12494 16.5043 4.12485C17.3997 4.12477 18.2584 4.48035 18.8915 5.11339C19.5247 5.74643 19.8805 6.60506 19.8806 7.5004C19.8806 8.39574 19.5251 9.25445 18.892 9.88761L16.0692 12.7048C15.9646 12.8094 15.8815 12.9337 15.8249 13.0704C15.7683 13.2071 15.7391 13.3537 15.7391 13.5017C15.7391 13.6497 15.7683 13.7962 15.8249 13.9329C15.8815 14.0697 15.9646 14.1939 16.0692 14.2985C16.1739 14.4032 16.2981 14.4862 16.4348 14.5428C16.5715 14.5995 16.7181 14.6286 16.8661 14.6286C17.0141 14.6286 17.1606 14.5995 17.2973 14.5428C17.4341 14.4862 17.5583 14.4032 17.663 14.2985L20.483 11.4804C21.537 10.4238 22.1288 8.99216 22.1283 7.49969C22.1277 6.00721 21.535 4.57594 20.4801 3.52011L20.4848 3.5173ZM12.7055 16.0685L9.88639 18.8885C9.57288 19.202 9.2007 19.4506 8.7911 19.6202C8.38151 19.7899 7.94251 19.8771 7.49919 19.8771C7.05586 19.877 6.61688 19.7897 6.20732 19.62C5.79775 19.4503 5.42562 19.2016 5.11217 18.8881C4.47914 18.2549 4.12355 17.3962 4.12364 16.5009C4.12372 15.6055 4.47948 14.7469 5.11264 14.1139L7.93077 11.2948C8.03541 11.1902 8.11842 11.0659 8.17506 10.9292C8.23169 10.7925 8.26084 10.6459 8.26084 10.4979C8.26084 10.3499 8.23169 10.2034 8.17506 10.0667C8.11842 9.92993 8.03541 9.8057 7.93077 9.70105C7.82612 9.5964 7.70189 9.51339 7.56516 9.45676C7.42843 9.40012 7.28189 9.37097 7.13389 9.37097C6.9859 9.37097 6.83935 9.40012 6.70263 9.45676C6.5659 9.51339 6.44166 9.5964 6.33702 9.70105L3.52077 12.5229C2.99833 13.0454 2.58393 13.6657 2.30121 14.3484C2.01849 15.031 1.873 15.7627 1.87305 16.5015C1.87313 17.9938 2.46601 19.4248 3.52124 20.48C4.57647 21.5351 6.00762 22.1278 7.49985 22.1277C8.99208 22.1276 10.4232 21.5347 11.4783 20.4795L14.2964 17.6604C14.5077 17.4491 14.6265 17.1624 14.6265 16.8635C14.6265 16.5647 14.5077 16.278 14.2964 16.0667C14.085 15.8553 13.7984 15.7366 13.4995 15.7366C13.2006 15.7366 12.914 15.8553 12.7026 16.0667L12.7055 16.0685Z" fill="#505072"/>
</svg>
