<svg width="25" height="24" viewBox="0 0 25 24" fill="none" xmlns="http://www.w3.org/2000/svg">
<path d="M20.375 8.25H17.375V6C17.375 4.80653 16.9009 3.66193 16.057 2.81802C15.2131 1.97411 14.0685 1.5 12.875 1.5C11.6815 1.5 10.5369 1.97411 9.69302 2.81802C8.84911 3.66193 8.375 4.80653 8.375 6V8.25H5.375C4.97718 8.25 4.59564 8.40804 4.31434 8.68934C4.03304 8.97064 3.875 9.35218 3.875 9.75V20.25C3.875 20.6478 4.03304 21.0294 4.31434 21.3107C4.59564 21.592 4.97718 21.75 5.375 21.75H20.375C20.7728 21.75 21.1544 21.592 21.4357 21.3107C21.717 21.0294 21.875 20.6478 21.875 20.25V9.75C21.875 9.35218 21.717 8.97064 21.4357 8.68934C21.1544 8.40804 20.7728 8.25 20.375 8.25ZM13.625 15.6216V18C13.625 18.1989 13.546 18.3897 13.4053 18.5303C13.2647 18.671 13.0739 18.75 12.875 18.75C12.6761 18.75 12.4853 18.671 12.3447 18.5303C12.204 18.3897 12.125 18.1989 12.125 18V15.6216C11.6246 15.4446 11.2028 15.0965 10.9343 14.6387C10.6657 14.1809 10.5676 13.6429 10.6574 13.1198C10.7472 12.5966 11.019 12.1221 11.4248 11.78C11.8306 11.4379 12.3442 11.2502 12.875 11.2502C13.4058 11.2502 13.9194 11.4379 14.3252 11.78C14.731 12.1221 15.0028 12.5966 15.0926 13.1198C15.1823 13.6429 15.0843 14.1809 14.8157 14.6387C14.5472 15.0965 14.1254 15.4446 13.625 15.6216ZM15.875 8.25H9.875V6C9.875 5.20435 10.1911 4.44129 10.7537 3.87868C11.3163 3.31607 12.0794 3 12.875 3C13.6706 3 14.4337 3.31607 14.9963 3.87868C15.5589 4.44129 15.875 5.20435 15.875 6V8.25Z" fill="#1721C9"/>
</svg>
