<svg width="24" height="24" viewBox="0 0 24 24" fill="none" xmlns="http://www.w3.org/2000/svg">
<path d="M12 14C13.1046 14 14 13.1046 14 12C14 10.8954 13.1046 10 12 10C10.8954 10 10 10.8954 10 12C10 13.1046 10.8954 14 12 14Z" fill="#454569"/>
<path d="M19.6001 14C20.7047 14 21.6001 13.1046 21.6001 12C21.6001 10.8954 20.7047 10 19.6001 10C18.4955 10 17.6001 10.8954 17.6001 12C17.6001 13.1046 18.4955 14 19.6001 14Z" fill="#454569"/>
<path d="M12 20.3999C13.1046 20.3999 14 19.5045 14 18.3999C14 17.2953 13.1046 16.3999 12 16.3999C10.8954 16.3999 10 17.2953 10 18.3999C10 19.5045 10.8954 20.3999 12 20.3999Z" fill="#454569"/>
<path d="M19.6001 20.3999C20.7047 20.3999 21.6001 19.5045 21.6001 18.3999C21.6001 17.2953 20.7047 16.3999 19.6001 16.3999C18.4955 16.3999 17.6001 17.2953 17.6001 18.3999C17.6001 19.5045 18.4955 20.3999 19.6001 20.3999Z" fill="#454569"/>
<path d="M12 7.6001C13.1046 7.6001 14 6.70467 14 5.6001C14 4.49553 13.1046 3.6001 12 3.6001C10.8954 3.6001 10 4.49553 10 5.6001C10 6.70467 10.8954 7.6001 12 7.6001Z" fill="#454569"/>
<path d="M19.6001 7.6001C20.7047 7.6001 21.6001 6.70467 21.6001 5.6001C21.6001 4.49553 20.7047 3.6001 19.6001 3.6001C18.4955 3.6001 17.6001 4.49553 17.6001 5.6001C17.6001 6.70467 18.4955 7.6001 19.6001 7.6001Z" fill="#454569"/>
<path d="M4.3999 14C5.50447 14 6.3999 13.1046 6.3999 12C6.3999 10.8954 5.50447 10 4.3999 10C3.29533 10 2.3999 10.8954 2.3999 12C2.3999 13.1046 3.29533 14 4.3999 14Z" fill="#454569"/>
<path d="M4.3999 7.6001C5.50447 7.6001 6.3999 6.70467 6.3999 5.6001C6.3999 4.49553 5.50447 3.6001 4.3999 3.6001C3.29533 3.6001 2.3999 4.49553 2.3999 5.6001C2.3999 6.70467 3.29533 7.6001 4.3999 7.6001Z" fill="#454569"/>
<path d="M4.3999 20.3999C5.50447 20.3999 6.3999 19.5045 6.3999 18.3999C6.3999 17.2953 5.50447 16.3999 4.3999 16.3999C3.29533 16.3999 2.3999 17.2953 2.3999 18.3999C2.3999 19.5045 3.29533 20.3999 4.3999 20.3999Z" fill="#454569"/>
</svg>
