<svg width="24" height="24" viewBox="0 0 24 24" fill="none" xmlns="http://www.w3.org/2000/svg">
<path d="M19.5 8.25H9V6C9 5.20435 9.31607 4.44129 9.87868 3.87868C10.4413 3.31607 11.2044 3 12 3C13.4409 3 14.7375 4.03125 15.015 5.39906C15.0562 5.59234 15.172 5.76155 15.3373 5.86991C15.5026 5.97827 15.7039 6.01702 15.8976 5.97774C16.0913 5.93846 16.2616 5.82433 16.3716 5.66014C16.4816 5.49596 16.5224 5.295 16.485 5.10094C16.0612 3.01406 14.175 1.5 12 1.5C10.8069 1.50124 9.66303 1.97575 8.81939 2.81939C7.97575 3.66303 7.50124 4.80691 7.5 6V8.25H4.5C4.10218 8.25 3.72064 8.40804 3.43934 8.68934C3.15804 8.97064 3 9.35218 3 9.75V20.25C3 20.6478 3.15804 21.0294 3.43934 21.3107C3.72064 21.592 4.10218 21.75 4.5 21.75H19.5C19.8978 21.75 20.2794 21.592 20.5607 21.3107C20.842 21.0294 21 20.6478 21 20.25V9.75C21 9.35218 20.842 8.97064 20.5607 8.68934C20.2794 8.40804 19.8978 8.25 19.5 8.25ZM12.75 15.6216V18C12.75 18.1989 12.671 18.3897 12.5303 18.5303C12.3897 18.671 12.1989 18.75 12 18.75C11.8011 18.75 11.6103 18.671 11.4697 18.5303C11.329 18.3897 11.25 18.1989 11.25 18V15.6216C10.7496 15.4446 10.3278 15.0965 10.0593 14.6387C9.79072 14.1809 9.69265 13.6429 9.7824 13.1198C9.87216 12.5966 10.144 12.1221 10.5498 11.78C10.9556 11.4379 11.4692 11.2502 12 11.2502C12.5308 11.2502 13.0444 11.4379 13.4502 11.78C13.856 12.1221 14.1278 12.5966 14.2176 13.1198C14.3073 13.6429 14.2093 14.1809 13.9407 14.6387C13.6722 15.0965 13.2504 15.4446 12.75 15.6216Z" fill="#1721C9"/>
</svg>
