<svg width="24" height="24" viewBox="0 0 24 24" fill="none" xmlns="http://www.w3.org/2000/svg">
<path d="M21.7388 16.4137C21.5716 17.6841 20.9477 18.8501 19.9837 19.6941C19.0196 20.5381 17.7813 21.0023 16.5 21C9.05626 21 3.00001 14.9437 3.00001 7.49999C2.99771 6.2187 3.4619 4.98039 4.30588 4.01633C5.14986 3.05228 6.31592 2.42841 7.58626 2.26124C7.9075 2.22202 8.2328 2.28774 8.51362 2.44859C8.79444 2.60944 9.0157 2.8568 9.14438 3.15374L11.1244 7.57406C11.124 7.5778 11.124 7.58156 11.1244 7.58531C11.2229 7.81261 11.2636 8.06077 11.2428 8.30763C11.222 8.55449 11.1404 8.79236 11.0053 8.99999C10.9884 9.02531 10.9706 9.04874 10.9519 9.07218L9.00001 11.3859C9.7022 12.8128 11.1947 14.2922 12.6403 14.9962L14.9222 13.0547C14.9446 13.0358 14.9681 13.0183 14.9925 13.0022C15.2001 12.8636 15.4389 12.7791 15.6874 12.7562C15.9359 12.7333 16.1862 12.7727 16.4156 12.8709L16.4269 12.8766L20.8425 14.8556C21.1401 14.9837 21.3883 15.2047 21.5499 15.4856C21.7114 15.7664 21.7777 16.0921 21.7388 16.4137ZM14.25 7.49999H16.5V9.74999C16.5 9.94891 16.579 10.1397 16.7197 10.2803C16.8603 10.421 17.0511 10.5 17.25 10.5C17.4489 10.5 17.6397 10.421 17.7803 10.2803C17.921 10.1397 18 9.94891 18 9.74999V7.49999H20.25C20.4489 7.49999 20.6397 7.42098 20.7803 7.28032C20.921 7.13967 21 6.94891 21 6.74999C21 6.55108 20.921 6.36032 20.7803 6.21966C20.6397 6.07901 20.4489 5.99999 20.25 5.99999H18V3.74999C18 3.55108 17.921 3.36032 17.7803 3.21966C17.6397 3.07901 17.4489 2.99999 17.25 2.99999C17.0511 2.99999 16.8603 3.07901 16.7197 3.21966C16.579 3.36032 16.5 3.55108 16.5 3.74999V5.99999H14.25C14.0511 5.99999 13.8603 6.07901 13.7197 6.21966C13.579 6.36032 13.5 6.55108 13.5 6.74999C13.5 6.94891 13.579 7.13967 13.7197 7.28032C13.8603 7.42098 14.0511 7.49999 14.25 7.49999Z" fill="#1721C9"/>
</svg>
