<svg width="24" height="24" viewBox="0 0 24 24" fill="none" xmlns="http://www.w3.org/2000/svg">
<path d="M21.1875 8.25781C21.15 8.16406 21.1106 8.07031 21.0703 7.97656C20.4654 6.58159 19.4865 5.38109 18.2419 4.50781H20.25C20.4489 4.50781 20.6397 4.42879 20.7803 4.28814C20.921 4.14749 21 3.95672 21 3.75781C21 3.5589 20.921 3.36813 20.7803 3.22748C20.6397 3.08683 20.4489 3.00781 20.25 3.00781H10.5C8.42634 3.01045 6.42951 3.79283 4.90601 5.19962C3.38252 6.6064 2.4438 8.53468 2.27625 10.6016C1.6284 10.7626 1.05277 11.1351 0.640489 11.6602C0.228203 12.1852 0.00281392 12.8328 0 13.5003C0 13.6992 0.0790176 13.89 0.21967 14.0306C0.360322 14.1713 0.551088 14.2503 0.75 14.2503C0.948912 14.2503 1.13968 14.1713 1.28033 14.0306C1.42098 13.89 1.5 13.6992 1.5 13.5003C1.50017 13.2268 1.57512 12.9586 1.71673 12.7246C1.85834 12.4906 2.06122 12.2998 2.30344 12.1728C2.49012 13.8555 3.19176 15.4395 4.3125 16.7084L5.49 20.0047C5.5941 20.2962 5.78586 20.5485 6.03898 20.7267C6.29209 20.905 6.59416 21.0005 6.90375 21.0003H8.09625C8.40568 21.0003 8.70754 20.9047 8.96047 20.7264C9.2134 20.5482 9.40502 20.2961 9.50906 20.0047L9.68906 19.5003H15.0609L15.2409 20.0047C15.345 20.2961 15.5366 20.5482 15.7895 20.7264C16.0425 20.9047 16.3443 21.0003 16.6537 21.0003H17.8463C18.1557 21.0003 18.4575 20.9047 18.7105 20.7264C18.9634 20.5482 19.155 20.2961 19.2591 20.0047L20.7787 15.7503H21C21.5967 15.7503 22.169 15.5133 22.591 15.0913C23.0129 14.6693 23.25 14.097 23.25 13.5003V10.5003C23.2501 9.93598 23.0381 9.39222 22.6561 8.97685C22.274 8.56148 21.7499 8.30484 21.1875 8.25781ZM14.25 6.75031H10.5C10.3011 6.75031 10.1103 6.67129 9.96967 6.53064C9.82902 6.38999 9.75 6.19922 9.75 6.00031C9.75 5.8014 9.82902 5.61063 9.96967 5.46998C10.1103 5.32933 10.3011 5.25031 10.5 5.25031H14.25C14.4489 5.25031 14.6397 5.32933 14.7803 5.46998C14.921 5.61063 15 5.8014 15 6.00031C15 6.19922 14.921 6.38999 14.7803 6.53064C14.6397 6.67129 14.4489 6.75031 14.25 6.75031ZM16.875 12.0003C16.6525 12.0003 16.435 11.9343 16.25 11.8107C16.065 11.6871 15.9208 11.5114 15.8356 11.3058C15.7505 11.1003 15.7282 10.8741 15.7716 10.6558C15.815 10.4376 15.9222 10.2372 16.0795 10.0798C16.2368 9.92248 16.4373 9.81534 16.6555 9.77193C16.8738 9.72852 17.1 9.7508 17.3055 9.83595C17.5111 9.9211 17.6868 10.0653 17.8104 10.2503C17.934 10.4353 18 10.6528 18 10.8753C18 11.1737 17.8815 11.4598 17.6705 11.6708C17.4595 11.8818 17.1734 12.0003 16.875 12.0003Z" fill="#505072"/>
</svg>
