<svg width="81" height="80" viewBox="0 0 81 80" fill="none" xmlns="http://www.w3.org/2000/svg">
<rect x="0.5" width="80" height="80" rx="40" fill="#E9FBF6"/>
<path d="M58.5 26.5V37.5194C58.5 54.3212 44.2838 59.8956 41.4375 60.8425C40.8296 61.0492 40.1704 61.0492 39.5625 60.8425C36.7125 59.8956 22.5 54.3212 22.5 37.5194V26.5C22.5 25.7044 22.8161 24.9413 23.3787 24.3787C23.9413 23.8161 24.7044 23.5 25.5 23.5H55.5C56.2957 23.5 57.0587 23.8161 57.6213 24.3787C58.1839 24.9413 58.5 25.7044 58.5 26.5Z" fill="#1AA07C"/>
<path d="M40 42C41.1046 42 42 41.1046 42 40C42 38.8954 41.1046 38 40 38C38.8954 38 38 38.8954 38 40C38 41.1046 38.8954 42 40 42Z" fill="white"/>
<path d="M47.6 42C48.7045 42 49.6 41.1046 49.6 40C49.6 38.8954 48.7045 38 47.6 38C46.4954 38 45.6 38.8954 45.6 40C45.6 41.1046 46.4954 42 47.6 42Z" fill="white"/>
<path d="M40 48.4004C41.1046 48.4004 42 47.505 42 46.4004C42 45.2958 41.1046 44.4004 40 44.4004C38.8954 44.4004 38 45.2958 38 46.4004C38 47.505 38.8954 48.4004 40 48.4004Z" fill="white"/>
<path d="M47.6 48.4004C48.7045 48.4004 49.6 47.505 49.6 46.4004C49.6 45.2958 48.7045 44.4004 47.6 44.4004C46.4954 44.4004 45.6 45.2958 45.6 46.4004C45.6 47.505 46.4954 48.4004 47.6 48.4004Z" fill="white"/>
<path d="M40 35.5996C41.1046 35.5996 42 34.7042 42 33.5996C42 32.495 41.1046 31.5996 40 31.5996C38.8954 31.5996 38 32.495 38 33.5996C38 34.7042 38.8954 35.5996 40 35.5996Z" fill="white"/>
<path d="M47.6 35.5996C48.7045 35.5996 49.6 34.7042 49.6 33.5996C49.6 32.495 48.7045 31.5996 47.6 31.5996C46.4954 31.5996 45.6 32.495 45.6 33.5996C45.6 34.7042 46.4954 35.5996 47.6 35.5996Z" fill="white"/>
<path d="M32.4 42C33.5046 42 34.4 41.1046 34.4 40C34.4 38.8954 33.5046 38 32.4 38C31.2955 38 30.4 38.8954 30.4 40C30.4 41.1046 31.2955 42 32.4 42Z" fill="white"/>
<path d="M32.4 35.5996C33.5046 35.5996 34.4 34.7042 34.4 33.5996C34.4 32.495 33.5046 31.5996 32.4 31.5996C31.2955 31.5996 30.4 32.495 30.4 33.5996C30.4 34.7042 31.2955 35.5996 32.4 35.5996Z" fill="white"/>
<path d="M32.4 48.4004C33.5046 48.4004 34.4 47.505 34.4 46.4004C34.4 45.2958 33.5046 44.4004 32.4 44.4004C31.2955 44.4004 30.4 45.2958 30.4 46.4004C30.4 47.505 31.2955 48.4004 32.4 48.4004Z" fill="white"/>
</svg>
