<svg width="37" height="36" viewBox="0 0 37 36" fill="none" xmlns="http://www.w3.org/2000/svg">
<path fill-rule="evenodd" clip-rule="evenodd" d="M12.2861 12.7559C11.7447 12.7559 11.2452 13.0476 10.9794 13.5193L6.25529 21.9003C2.97742 27.7156 7.38644 34.7672 14.3003 34.7672H22.6554C29.5693 34.7672 33.9784 27.7156 30.7005 21.9003L25.9764 13.5193C25.7105 13.0476 25.2111 12.7559 24.6697 12.7559H12.2861ZM23.1447 21.7807C23.5732 21.3308 23.5558 20.6187 23.1059 20.1902C22.656 19.7617 21.9439 19.7791 21.5154 20.229L17.4327 24.5158C17.4233 24.5256 17.4176 24.528 17.4168 24.5284C17.4153 24.529 17.4145 24.5291 17.4141 24.5291C17.4136 24.5291 17.4128 24.529 17.4113 24.5284C17.4105 24.528 17.4048 24.5256 17.3955 24.5158L15.4791 22.5037C15.0506 22.0537 14.3385 22.0364 13.8886 22.4649C13.4387 22.8934 13.4213 23.6055 13.8498 24.0554L15.7662 26.0676C16.6697 27.0163 18.1584 27.0163 19.062 26.0675L23.1447 21.7807Z" fill="#1721C9"/>
<path fill-rule="evenodd" clip-rule="evenodd" d="M21.5456 2.84593C23.3807 1.92837 25.4683 3.52286 25.0659 5.53473L24.3447 9.14117C24.0993 10.3682 23.0219 11.2514 21.7706 11.2514H15.1715C13.967 11.2514 12.917 10.4316 12.6249 9.26302L12.2035 7.57749C11.6376 5.31395 13.6879 3.26364 15.9515 3.82952C17.5118 4.2196 19.1602 4.03865 20.5987 3.31938L21.5456 2.84593Z" fill="#1721C9"/>
<path fill-rule="evenodd" clip-rule="evenodd" d="M21.5456 2.84593C23.3807 1.92837 25.4683 3.52286 25.0659 5.53473L24.3447 9.14117C24.0993 10.3682 23.0219 11.2514 21.7706 11.2514H15.1715C13.967 11.2514 12.917 10.4316 12.6249 9.26302L12.2035 7.57749C11.6376 5.31395 13.6879 3.26364 15.9515 3.82952C17.5118 4.2196 19.1602 4.03865 20.5987 3.31938L21.5456 2.84593Z" fill="#1721C9"/>
</svg>
