<svg width="24" height="25" viewBox="0 0 24 25" fill="none" xmlns="http://www.w3.org/2000/svg">
<path d="M9.75 4.25H5.25C4.42157 4.25 3.75 4.92157 3.75 5.75V10.25C3.75 11.0784 4.42157 11.75 5.25 11.75H9.75C10.5784 11.75 11.25 11.0784 11.25 10.25V5.75C11.25 4.92157 10.5784 4.25 9.75 4.25Z" fill="#1AA07C"/>
<path d="M9.75 13.25H5.25C4.42157 13.25 3.75 13.9216 3.75 14.75V19.25C3.75 20.0784 4.42157 20.75 5.25 20.75H9.75C10.5784 20.75 11.25 20.0784 11.25 19.25V14.75C11.25 13.9216 10.5784 13.25 9.75 13.25Z" fill="#1AA07C"/>
<path d="M18.75 4.25H14.25C13.4216 4.25 12.75 4.92157 12.75 5.75V10.25C12.75 11.0784 13.4216 11.75 14.25 11.75H18.75C19.5784 11.75 20.25 11.0784 20.25 10.25V5.75C20.25 4.92157 19.5784 4.25 18.75 4.25Z" fill="#1AA07C"/>
<path d="M13.5 17.75C13.6989 17.75 13.8897 17.671 14.0303 17.5303C14.171 17.3897 14.25 17.1989 14.25 17V14C14.25 13.8011 14.171 13.6103 14.0303 13.4697C13.8897 13.329 13.6989 13.25 13.5 13.25C13.3011 13.25 13.1103 13.329 12.9697 13.4697C12.829 13.6103 12.75 13.8011 12.75 14V17C12.75 17.1989 12.829 17.3897 12.9697 17.5303C13.1103 17.671 13.3011 17.75 13.5 17.75Z" fill="#1AA07C"/>
<path d="M19.5 14.75H17.25V14C17.25 13.8011 17.171 13.6103 17.0303 13.4697C16.8897 13.329 16.6989 13.25 16.5 13.25C16.3011 13.25 16.1103 13.329 15.9697 13.4697C15.829 13.6103 15.75 13.8011 15.75 14V19.25H13.5C13.3011 19.25 13.1103 19.329 12.9697 19.4697C12.829 19.6103 12.75 19.8011 12.75 20C12.75 20.1989 12.829 20.3897 12.9697 20.5303C13.1103 20.671 13.3011 20.75 13.5 20.75H16.5C16.6989 20.75 16.8897 20.671 17.0303 20.5303C17.171 20.3897 17.25 20.1989 17.25 20V16.25H19.5C19.6989 16.25 19.8897 16.171 20.0303 16.0303C20.171 15.8897 20.25 15.6989 20.25 15.5C20.25 15.3011 20.171 15.1103 20.0303 14.9697C19.8897 14.829 19.6989 14.75 19.5 14.75Z" fill="#1AA07C"/>
<path d="M19.5 17.75C19.3011 17.75 19.1103 17.829 18.9697 17.9697C18.829 18.1103 18.75 18.3011 18.75 18.5V20C18.75 20.1989 18.829 20.3897 18.9697 20.5303C19.1103 20.671 19.3011 20.75 19.5 20.75C19.6989 20.75 19.8897 20.671 20.0303 20.5303C20.171 20.3897 20.25 20.1989 20.25 20V18.5C20.25 18.3011 20.171 18.1103 20.0303 17.9697C19.8897 17.829 19.6989 17.75 19.5 17.75Z" fill="#1AA07C"/>
</svg>
