<svg width="56" height="56" viewBox="0 0 56 56" fill="none" xmlns="http://www.w3.org/2000/svg">
<path d="M47.0936 23.5016C46.2174 21.3199 45.9104 18.4351 45.8026 16.6798C45.7543 15.8959 44.9076 15.3692 44.0973 15.6175C41.2173 16.7938 39.6432 18.8267 38.8305 20.3185C38.31 21.2741 38.8135 22.4333 39.9045 22.8027L45.709 24.768C46.5689 25.0592 47.4109 24.2918 47.0936 23.5016Z" fill="#FEA500"/>
<path d="M34.7235 19.5963C34.7235 19.5963 29.0881 17.2841 21.2289 20.5267C20.3095 20.9064 20.676 22.6204 21.8381 22.4471C23.0025 22.2716 28.3895 20.0113 34.1418 21.6326C35.2411 21.9427 36.1185 20.2364 34.7235 19.5963Z" fill="#FEA500"/>
<path d="M44.8469 26.02C44.8469 25.2786 44.2141 26.02 44.8469 26.02C44.2141 26.02 44.8469 26.7637 44.8469 26.02C44.8469 26.7637 45.4787 26.02 44.8469 26.02C45.4787 26.02 44.8469 25.2786 44.8469 26.02ZM34.7252 19.6087C34.7252 19.6087 29.0886 17.2828 21.2277 20.5446C20.3081 20.9265 20.6746 22.6507 21.8371 22.4764C23.0017 22.2999 28.3898 20.0261 34.1434 21.657C35.2429 21.969 36.1205 20.2526 34.7252 19.6087ZM48.1423 41.6226C46.1992 42.8785 43.8896 43.6167 41.6529 44.1486C39.425 44.6783 37.1374 45.1032 34.8565 45.3073C32.664 45.5037 30.4957 45.3161 28.3263 44.9961C24.0316 44.3638 20.0174 42.4724 16.6888 39.7169C14.8793 38.2194 13.4065 36.2739 12.1446 34.3096C11.6048 33.472 11.0803 32.6135 10.6807 31.6998C10.164 30.5223 9.86371 29.4364 9.67603 28.2159L9.65836 28.2535C12.7121 21.8475 20.7825 17.2701 30.2594 17.2701C32.7733 17.2701 35.1877 17.5934 37.4355 18.186C38.3132 16.9567 34.5062 16.1013 38.0589 16.4037C39.4776 16.524 41.7324 16.9225 43.6468 20.7429C47.5682 23.0492 50.4332 26.3444 51.5946 30.1383H53.0387C53.9064 30.1383 54.6097 30.8412 54.6097 31.7086V36.5067C54.6097 37.3741 53.9064 38.077 53.0387 38.077H51.4831C51.3031 38.6111 51.0879 39.1342 50.8428 39.6462C49.9463 40.3083 49.0774 41.0179 48.1423 41.6226Z" fill="#FEC354"/>
<circle cx="27.8765" cy="8.76776" r="5.65667" fill="#FEA500"/>
<path d="M28.1723 9.27397V11.1932C28.4544 11.1356 28.6738 11.0172 28.8276 10.839C28.9803 10.6608 29.0577 10.4538 29.0577 10.2159C29.0577 9.96241 28.9835 9.7654 28.834 9.62705C28.6834 9.48759 28.4628 9.37026 28.1723 9.27397ZM27.582 7.91031V6.1931C27.3497 6.26668 27.1686 6.3663 27.0389 6.48855C26.9081 6.6108 26.8442 6.79645 26.8442 7.04435C26.8442 7.28093 26.9049 7.45865 27.0263 7.5809C27.1477 7.70089 27.333 7.81069 27.582 7.91031ZM28.1667 4.88823V5.3662C28.4736 5.39858 28.7381 5.46335 28.9579 5.56051C29.1777 5.65878 29.3693 5.80619 29.5325 6.00274C29.6621 6.15462 29.7622 6.30873 29.8329 6.46842C29.9026 6.627 29.9374 6.77217 29.9374 6.90618C29.9374 7.05248 29.8863 7.1809 29.7807 7.28811C29.6762 7.39532 29.5489 7.45004 29.3987 7.45004C29.1168 7.45004 28.9361 7.29369 28.8523 6.981C28.7566 6.61248 28.528 6.36791 28.1667 6.24619V8.08658C28.5226 8.18709 28.8066 8.27866 29.0178 8.36018C29.23 8.44282 29.4183 8.56343 29.5848 8.71977C29.7622 8.88058 29.8993 9.0749 29.9962 9.30048C30.093 9.52606 30.1398 9.77398 30.1398 10.042C30.1398 10.3781 30.0637 10.6919 29.9102 10.9856C29.7567 11.2793 29.5293 11.5183 29.2322 11.7037C28.9329 11.8891 28.577 12.0008 28.1667 12.0365V12.7579C28.1667 12.9589 27.9936 13.0114 27.8804 13.0114C27.7781 13.0114 27.6192 12.9299 27.6192 12.7546V12.0454C27.2829 12.0075 26.9891 11.9259 26.7366 11.802C26.4863 11.678 26.2762 11.5239 26.1086 11.3397C25.9399 11.1554 25.8158 10.9644 25.7353 10.7645C25.6548 10.5657 25.6145 10.3703 25.6145 10.1782C25.6145 10.0375 25.6678 9.9091 25.7767 9.7952C25.8844 9.6824 26.0183 9.62657 26.1794 9.62657C26.3089 9.62657 26.4177 9.65672 26.5059 9.71926C26.5962 9.78068 26.6571 9.86778 26.6931 9.97946C26.7703 10.2218 26.8367 10.4061 26.8944 10.5345C26.9521 10.6629 27.0391 10.7802 27.1545 10.8863C27.2721 10.9923 27.4266 11.0739 27.6192 11.1297V9.07266C27.234 8.96434 26.9118 8.8415 26.6528 8.7086C26.3948 8.5746 26.1848 8.38252 26.0248 8.1346C25.8637 7.8878 25.7821 7.56953 25.7821 7.17979C25.7821 6.67278 25.9399 6.25736 26.2544 5.93238C26.569 5.60853 27.025 5.4198 27.6192 5.3662V4.89828C27.6192 4.64925 27.7096 4.5264 27.8913 4.5264C28.0742 4.5264 28.1667 4.64701 28.1667 4.88823Z" fill="#FFF0D5"/>
<path d="M46.3708 27.8075C45.9957 27.8075 45.692 27.5025 45.6925 27.1267C45.6929 26.968 45.6316 26.8186 45.5197 26.7061C45.1459 26.3297 44.5068 26.5993 44.5055 27.124C44.5047 27.4987 44.2014 27.8018 43.8276 27.8018C43.4521 27.8018 43.1484 27.4968 43.1492 27.1212C43.1501 26.5995 43.3541 26.1096 43.7233 25.7415C44.9503 24.5183 47.053 25.3986 47.0492 27.1297C47.0483 27.5043 46.7446 27.8075 46.3708 27.8075Z" fill="#E79600"/>
<path fill-rule="evenodd" clip-rule="evenodd" d="M8.42088 32.7423C8.56718 31.1603 9.0039 29.6392 9.68954 28.2095C9.87717 29.4302 10.1774 30.5162 10.6939 31.6938C11.0934 32.6076 11.6176 33.4663 12.1573 34.304C13.4188 36.2685 14.8911 38.2143 16.7001 39.712C20.0276 42.4678 24.0406 44.3595 28.3339 44.9919C30.5026 45.312 32.6702 45.4996 34.8621 45.3032C37.1423 45.099 39.4291 44.6741 41.6563 44.1443C43.8923 43.6123 46.2012 42.874 48.1436 41.618C48.7924 41.1983 49.4093 40.728 50.0256 40.2582C50.2973 40.051 50.569 39.844 50.8432 39.6413C49.7462 41.9292 48.009 43.9821 45.7961 45.6751V51.3182C45.7961 52.1857 45.0931 52.8887 44.2267 52.8887H39.7756C38.9092 52.8887 38.2062 52.1857 38.2062 51.3182V49.4618C35.745 50.1913 33.0664 50.592 30.2664 50.592C27.2997 50.592 24.471 50.1417 21.8906 49.3283V51.3182C21.8906 52.1857 21.1876 52.8887 20.319 52.8887H15.8701C15.0026 52.8887 14.2996 52.1857 14.2996 51.3182V45.3319C10.621 42.3508 8.36624 38.3401 8.36624 33.9276C8.36624 33.9145 8.36626 33.9014 8.3663 33.8882C7.78925 34.0264 6.49283 34.2298 5.34877 33.6485C4.70746 33.3226 4.21677 32.8091 3.88451 32.1175C3.235 31.9012 2.53495 31.5287 1.78774 31.0009C1.54061 30.8264 1.48163 30.4845 1.65602 30.2374C1.83037 29.9902 2.17213 29.9315 2.4193 30.1061C2.78736 30.3661 3.13928 30.5821 3.47308 30.7536C3.3143 29.6299 3.71956 28.9888 4.13224 28.6355C4.99702 27.8949 6.46122 27.9757 7.20908 29.271C7.89981 30.4674 7.26787 32.2085 5.36479 32.3352C5.50559 32.4682 5.66346 32.5791 5.83912 32.669C6.91722 33.2206 8.30509 32.7703 8.31895 32.7657C8.35272 32.7545 8.38683 32.7467 8.42088 32.7423ZM6.31272 30.5587C6.10175 31.1962 5.3378 31.3064 4.67436 31.1839C4.41152 30.3476 4.46131 29.7669 4.82257 29.4578C5.55727 28.8296 6.58935 29.722 6.31272 30.5587Z" fill="#FEA500"/>
<path d="M43.1337 20.107C42.2579 17.9253 41.9505 15.0405 41.8427 13.2852C41.7944 12.5013 40.9477 11.9747 40.1373 12.2229C37.2576 13.3992 35.6832 15.4321 34.8706 16.9239C34.3501 17.8795 34.8535 19.0387 35.9447 19.4081L41.749 21.3734C42.609 21.6646 43.451 20.8972 43.1337 20.107Z" fill="#FEC354"/>
</svg>
