<svg width="159" height="113" viewBox="0 0 159 113" fill="none" xmlns="http://www.w3.org/2000/svg">
<path opacity="0.5" d="M133.5 92.9997C133.5 97.9687 109.323 102 79.4996 102C49.6736 102 25.4996 97.9687 25.4996 92.9997C25.4996 88.0307 49.6736 83.9997 79.4996 83.9997C109.323 83.9997 133.5 88.0307 133.5 92.9997Z" fill="#FEC354"/>
<path d="M108.472 42.0471C106.923 38.1904 106.38 33.0906 106.19 29.9875C106.105 28.6017 104.608 27.6707 103.175 28.1096C98.0839 30.189 95.3013 33.7829 93.8645 36.4201C92.9445 38.1094 93.8344 40.1586 95.7632 40.8117L106.024 44.286C107.545 44.8008 109.033 43.4441 108.472 42.0471Z" fill="#FEA500"/>
<path d="M86.6055 35.1442C86.6055 35.1442 76.6432 31.0567 62.7494 36.789C61.1242 37.4602 61.7719 40.4902 63.8264 40.1839C65.8849 39.8737 75.4082 35.8778 85.5773 38.744C87.5206 39.2922 89.0717 36.2758 86.6055 35.1442Z" fill="#FEA500"/>
<path d="M104.5 46.5002C104.5 45.1895 103.381 46.5002 104.5 46.5002C103.381 46.5002 104.5 47.8149 104.5 46.5002C104.5 47.8149 105.617 46.5002 104.5 46.5002C105.617 46.5002 104.5 45.1895 104.5 46.5002ZM86.6066 35.1661C86.6066 35.1661 76.6422 31.0543 62.7455 36.8206C61.1198 37.4958 61.7677 40.5438 63.8227 40.2357C65.8815 39.9236 75.4069 35.9041 85.5781 38.7872C87.5218 39.3387 89.0733 36.3045 86.6066 35.1661ZM110.326 74.0829C106.891 76.303 102.808 77.6081 98.8536 78.5484C94.915 79.4848 90.8711 80.2358 86.8388 80.5967C82.9627 80.944 79.1296 80.6123 75.2944 80.0466C67.7023 78.9288 60.6058 75.585 54.7214 70.7138C51.5226 68.0665 48.919 64.6272 46.6882 61.1547C45.7338 59.674 44.8067 58.1563 44.1002 56.541C43.1868 54.4595 42.6559 52.5398 42.3241 50.3822L42.2929 50.4485C47.6913 39.1239 61.9584 31.0319 78.7119 31.0319C83.1559 31.0319 87.4244 31.6035 91.398 32.6511C92.9497 30.4778 86.2195 28.9657 92.5001 29.5002C95.0081 29.7129 98.9941 30.4174 102.378 37.1712C109.311 41.2484 114.376 47.0736 116.429 53.7806H118.982C120.516 53.7806 121.759 55.0233 121.759 56.5566V65.0388C121.759 66.5722 120.516 67.8149 118.982 67.8149H116.232C115.914 68.7591 115.533 69.6838 115.1 70.589C113.515 71.7595 111.979 73.0138 110.326 74.0829Z" fill="#FEC354"/>
<circle cx="74.4999" cy="14.9997" r="10" fill="#FEA500"/>
<path d="M75.0217 15.8926V19.2854C75.5203 19.1837 75.9083 18.9743 76.1801 18.6593C76.4501 18.3443 76.5869 17.9784 76.5869 17.5577C76.5869 17.1096 76.4557 16.7613 76.1914 16.5167C75.9252 16.2702 75.5353 16.0628 75.0217 15.8926ZM73.9782 13.4818V10.4461C73.5675 10.5762 73.2474 10.7523 73.018 10.9684C72.7867 11.1845 72.6739 11.5127 72.6739 11.951C72.6739 12.3692 72.7812 12.6834 72.9958 12.8995C73.2104 13.1116 73.5379 13.3057 73.9782 13.4818ZM75.0117 8.13934V8.9843C75.5543 9.04155 76.0218 9.15605 76.4105 9.32781C76.7991 9.50154 77.1377 9.76213 77.4263 10.1096C77.6553 10.3781 77.8323 10.6505 77.9574 10.9328C78.0805 11.2132 78.1421 11.4698 78.1421 11.7067C78.1421 11.9653 78.0516 12.1924 77.865 12.3819C77.6803 12.5714 77.4552 12.6682 77.1897 12.6682C76.6914 12.6682 76.372 12.3918 76.2238 11.839C76.0545 11.1875 75.6505 10.7552 75.0117 10.54V13.7935C75.6409 13.9711 76.143 14.133 76.5163 14.2771C76.8915 14.4232 77.2243 14.6364 77.5187 14.9128C77.8323 15.1971 78.0747 15.5406 78.246 15.9394C78.4172 16.3382 78.4999 16.7765 78.4999 17.2503C78.4999 17.8445 78.3653 18.3993 78.094 18.9185C77.8227 19.4377 77.4206 19.8602 76.8953 20.1879C76.3662 20.5156 75.7371 20.713 75.0117 20.7762V22.0516C75.0117 22.4069 74.7058 22.4997 74.5057 22.4997C74.3249 22.4997 74.0439 22.3556 74.0439 22.0456V20.792C73.4494 20.7249 72.93 20.5808 72.4836 20.3616C72.0411 20.1425 71.6697 19.8701 71.3734 19.5443C71.0752 19.2186 70.8559 18.881 70.7135 18.5276C70.5711 18.1762 70.4999 17.8307 70.4999 17.4911C70.4999 17.2424 70.5942 17.0154 70.7866 16.814C70.9771 16.6146 71.2137 16.5159 71.4985 16.5159C71.7275 16.5159 71.9199 16.5692 72.0757 16.6797C72.2354 16.7883 72.3431 16.9423 72.4066 17.1397C72.5432 17.5681 72.6606 17.8939 72.7626 18.1209C72.8645 18.3479 73.0185 18.5552 73.2224 18.7428C73.4302 18.9303 73.7034 19.0745 74.0439 19.1732V15.5367C73.3629 15.3452 72.7933 15.128 72.3354 14.8931C71.8794 14.6562 71.5081 14.3166 71.2253 13.8783C70.9405 13.442 70.7962 12.8794 70.7962 12.1904C70.7962 11.2941 71.0752 10.5597 71.6312 9.98522C72.1873 9.4127 72.9934 9.07906 74.0439 8.9843V8.15711C74.0439 7.71686 74.2036 7.4997 74.525 7.4997C74.8482 7.4997 75.0117 7.71291 75.0117 8.13934Z" fill="#FFF0D5"/>
<path d="M107.195 49.6584C106.532 49.6584 105.995 49.1192 105.996 48.4549C105.997 48.1743 105.888 47.9103 105.69 47.7113C105.03 47.0459 103.9 47.5225 103.898 48.4502C103.896 49.1125 103.36 49.6484 102.699 49.6484C102.035 49.6484 101.498 49.1093 101.5 48.4452C101.501 47.523 101.862 46.6568 102.515 46.0061C104.684 43.8437 108.401 45.4 108.394 48.4603C108.393 49.1225 107.856 49.6584 107.195 49.6584Z" fill="#E79600"/>
<path d="M101.472 36.0472C99.924 32.1903 99.3805 27.0906 99.19 23.9875C99.1046 22.6017 97.6078 21.6707 96.1753 22.1096C91.0843 24.189 88.3011 27.7829 86.8646 30.4201C85.9445 32.1094 86.8344 34.1587 88.7634 34.8117L99.0245 38.286C100.545 38.8007 102.033 37.4441 101.472 36.0472Z" fill="#FEC354"/>
<circle cx="123.915" cy="15.4151" r="2.5" transform="rotate(30 123.915 15.4151)" fill="#FFD68A"/>
<path d="M123.916 15.6725L123.492 16.4071C123.613 16.4474 123.723 16.4506 123.821 16.4163C123.919 16.3819 123.994 16.3198 124.047 16.2287C124.103 16.1317 124.118 16.0399 124.091 15.9539C124.065 15.8672 124.006 15.7736 123.916 15.6725ZM123.992 15.0201L124.371 14.3629C124.266 14.3397 124.175 14.3378 124.098 14.3559C124.021 14.3738 123.955 14.4308 123.901 14.5257C123.848 14.6162 123.832 14.6976 123.852 14.7713C123.872 14.844 123.918 14.927 123.992 15.0201ZM124.883 13.9926L124.778 14.1756C124.888 14.2558 124.975 14.339 125.037 14.4248C125.1 14.511 125.141 14.6097 125.16 14.721C125.176 14.8078 125.18 14.8889 125.172 14.9657C125.163 15.0417 125.145 15.105 125.115 15.1563C125.083 15.2123 125.035 15.2501 124.971 15.2678C124.907 15.2858 124.846 15.2786 124.789 15.2454C124.681 15.1831 124.646 15.0834 124.683 14.9452C124.728 14.7829 124.695 14.6388 124.583 14.5124L124.176 15.2168C124.29 15.3339 124.379 15.4317 124.442 15.5096C124.505 15.5881 124.55 15.6759 124.579 15.7725C124.612 15.8733 124.621 15.9779 124.608 16.0857C124.596 16.1934 124.559 16.2987 124.5 16.4013C124.425 16.5299 124.327 16.6332 124.203 16.7117C124.079 16.7902 123.94 16.8314 123.785 16.8367C123.629 16.8415 123.469 16.8056 123.304 16.7286L123.144 17.0047C123.1 17.0817 123.022 17.0635 122.979 17.0385C122.939 17.0159 122.897 16.9496 122.935 16.8825L123.092 16.6111C122.972 16.5222 122.877 16.4261 122.808 16.3228C122.74 16.2201 122.693 16.1147 122.67 16.0071C122.646 15.8993 122.641 15.7988 122.654 15.7045C122.667 15.6106 122.695 15.5269 122.737 15.4534C122.768 15.3995 122.817 15.3622 122.884 15.3426C122.95 15.3233 123.014 15.3315 123.075 15.3671C123.125 15.3957 123.16 15.4313 123.18 15.4747C123.201 15.5182 123.205 15.565 123.194 15.6157C123.17 15.7255 123.155 15.8107 123.149 15.8726C123.142 15.9345 123.15 15.9986 123.17 16.0647C123.192 16.1313 123.233 16.1966 123.294 16.2606L123.749 15.4732C123.625 15.3466 123.529 15.2284 123.46 15.1203C123.39 15.012 123.352 14.8921 123.346 14.7619C123.339 14.6318 123.378 14.492 123.464 14.3428C123.576 14.1487 123.728 14.0246 123.921 13.9697C124.113 13.9153 124.329 13.9438 124.568 14.0546L124.671 13.8755C124.726 13.7802 124.788 13.7531 124.858 13.7933C124.928 13.8337 124.937 13.9003 124.883 13.9926Z" fill="#FFF0D5"/>
<circle cx="140.849" cy="84.348" r="6" transform="rotate(30 140.849 84.348)" fill="#FEC354"/>
<path d="M140.852 84.9685L139.834 86.7314C140.124 86.8282 140.388 86.8358 140.624 86.7536C140.859 86.6709 141.039 86.5218 141.166 86.3032C141.3 86.0704 141.336 85.8501 141.272 85.6437C141.208 85.4357 141.068 85.211 140.852 84.9685ZM141.033 83.4028L141.944 81.8254C141.691 81.7697 141.472 81.7652 141.288 81.8087C141.103 81.8516 140.946 81.9883 140.814 82.216C140.689 82.4333 140.65 82.6288 140.697 82.8055C140.745 82.9801 140.857 83.1792 141.033 83.4028ZM143.173 80.9368L142.919 81.3758C143.184 81.5684 143.392 81.7681 143.543 81.974C143.693 82.1808 143.791 82.4178 143.836 82.6849C143.875 82.8931 143.885 83.0878 143.865 83.272C143.845 83.4546 143.8 83.6065 143.729 83.7296C143.651 83.8639 143.536 83.9548 143.382 83.9973C143.23 84.0403 143.084 84.0231 142.946 83.9434C142.687 83.7939 142.604 83.5545 142.693 83.2228C142.8 82.8335 142.72 82.4876 142.452 82.1842L141.476 83.8747C141.75 84.1558 141.962 84.3906 142.113 84.5774C142.264 84.7659 142.373 84.9766 142.443 85.2085C142.521 85.4503 142.544 85.7015 142.513 85.9601C142.483 86.2187 142.394 86.4712 142.252 86.7174C142.074 87.0262 141.837 87.2741 141.54 87.4625C141.244 87.6509 140.908 87.7498 140.537 87.7625C140.164 87.774 139.777 87.6879 139.382 87.5031L138.999 88.1658C138.892 88.3504 138.706 88.3069 138.602 88.2468C138.508 88.1926 138.405 88.0334 138.498 87.8724L138.874 87.221C138.585 87.0077 138.358 86.777 138.192 86.5292C138.028 86.2826 137.917 86.0296 137.861 85.7715C137.803 85.5128 137.791 85.2715 137.823 85.0452C137.854 84.8199 137.921 84.619 138.023 84.4426C138.097 84.3133 138.214 84.2236 138.375 84.1767C138.534 84.1303 138.686 84.15 138.834 84.2354C138.953 84.3041 139.037 84.3895 139.085 84.4937C139.135 84.598 139.145 84.7104 139.119 84.832C139.061 85.0956 139.025 85.3 139.009 85.4486C138.994 85.5972 139.012 85.7511 139.062 85.9097C139.114 86.0695 139.212 86.2263 139.36 86.3798L140.451 84.4902C140.154 84.1864 139.923 83.9027 139.756 83.6432C139.59 83.3833 139.499 83.0955 139.483 82.7829C139.466 82.4708 139.56 82.1351 139.767 81.7771C140.036 81.3114 140.401 81.0135 140.862 80.8818C141.323 80.7511 141.842 80.8196 142.416 81.0855L142.664 80.6557C142.797 80.4269 142.945 80.362 143.112 80.4584C143.28 80.5554 143.301 80.7152 143.173 80.9368Z" fill="#FFF0D5"/>
<circle cx="154.116" cy="41.6164" r="4" transform="rotate(30 154.116 41.6164)" fill="#FEC354"/>
<path d="M154.119 42.0304L153.44 43.2057C153.634 43.2702 153.81 43.2753 153.967 43.2205C154.124 43.1654 154.244 43.066 154.328 42.9203C154.418 42.7651 154.442 42.6182 154.399 42.4806C154.357 42.3419 154.263 42.1921 154.119 42.0304ZM154.24 40.9866L154.847 39.935C154.679 39.8979 154.532 39.8949 154.41 39.9239C154.286 39.9525 154.182 40.0436 154.094 40.1955C154.01 40.3403 153.985 40.4706 154.016 40.5884C154.048 40.7048 154.122 40.8376 154.24 40.9866ZM155.666 39.3426L155.497 39.6353C155.674 39.7637 155.813 39.8969 155.913 40.0341C156.013 40.172 156.078 40.33 156.109 40.5081C156.134 40.6469 156.141 40.7767 156.128 40.8995C156.115 41.0212 156.085 41.1224 156.037 41.2045C155.985 41.2941 155.909 41.3546 155.806 41.383C155.704 41.4117 155.607 41.4002 155.515 41.3471C155.342 41.2474 155.287 41.0878 155.346 40.8667C155.418 40.6071 155.364 40.3765 155.186 40.1742L154.535 41.3013C154.718 41.4887 154.859 41.6452 154.96 41.7697C155.061 41.8954 155.133 42.0358 155.18 42.1904C155.232 42.3516 155.247 42.5191 155.227 42.6915C155.206 42.8639 155.147 43.0323 155.052 43.1964C154.934 43.4023 154.776 43.5675 154.578 43.6931C154.38 43.8187 154.157 43.8846 153.909 43.8931C153.66 43.9008 153.403 43.8434 153.139 43.7202L152.884 44.162C152.813 44.2851 152.688 44.256 152.619 44.216C152.556 44.1798 152.488 44.0737 152.55 43.9664L152.8 43.5321C152.608 43.3899 152.457 43.2361 152.346 43.0709C152.237 42.9065 152.162 42.7379 152.125 42.5658C152.087 42.3933 152.078 42.2325 152.1 42.0816C152.121 41.9314 152.165 41.7975 152.233 41.6798C152.283 41.5937 152.361 41.5339 152.468 41.5026C152.574 41.4716 152.675 41.4848 152.774 41.5417C152.853 41.5875 152.909 41.6445 152.941 41.7139C152.975 41.7835 152.981 41.8584 152.964 41.9394C152.925 42.1152 152.901 42.2515 152.891 42.3505C152.881 42.4496 152.893 42.5522 152.926 42.6579C152.96 42.7644 153.026 42.869 153.124 42.9713L153.852 41.7116C153.654 41.509 153.5 41.3199 153.388 41.1469C153.278 40.9737 153.217 40.7818 153.207 40.5734C153.195 40.3653 153.258 40.1415 153.396 39.9029C153.575 39.5924 153.819 39.3938 154.126 39.306C154.433 39.2189 154.779 39.2645 155.162 39.4418L155.327 39.1552C155.416 39.0027 155.514 38.9594 155.626 39.0237C155.738 39.0884 155.752 39.1949 155.666 39.3426Z" fill="#FFF0D5"/>
<path fill-rule="evenodd" clip-rule="evenodd" d="M40.1063 58.3845C40.365 55.588 41.137 52.8989 42.3491 50.3715C42.6808 52.5294 43.2115 54.4493 44.1246 56.5311C44.8309 58.1466 45.7577 59.6646 46.7118 61.1455C48.9419 64.6184 51.5446 68.0582 54.7425 70.7058C60.625 75.5777 67.7192 78.9219 75.309 80.0399C79.1429 80.6057 82.9748 80.9374 86.8497 80.5901C90.8807 80.2291 94.9233 79.478 98.8606 78.5414C102.814 77.601 106.895 76.2957 110.329 74.0754C111.476 73.3334 112.567 72.5021 113.656 71.6715C114.137 71.3053 114.617 70.9392 115.102 70.581C113.162 74.6256 110.091 78.2546 106.179 81.2476V91.2236C106.179 92.7571 104.936 94 103.405 94H95.536C94.0044 94 92.7615 92.7571 92.7615 91.2236V87.9418C88.4106 89.2315 83.6753 89.9398 78.7253 89.9398C73.4808 89.9398 68.4801 89.1437 63.9185 87.7057V91.2236C63.9185 92.7571 62.6756 94 61.1401 94H53.2752C51.7417 94 50.4988 92.7571 50.4988 91.2236V80.6408C43.9958 75.3709 40.0097 68.2806 40.0097 60.4802C40.0097 60.4569 40.0098 60.4337 40.0099 60.4104C38.9894 60.6547 36.6982 61.0138 34.6761 59.9864C33.5424 59.4103 32.675 58.5025 32.0876 57.2799C30.9394 56.8976 29.7018 56.239 28.3809 55.306C27.944 54.9974 27.8397 54.393 28.148 53.9563C28.4562 53.5193 29.0604 53.4154 29.4974 53.7241C30.148 54.1837 30.7702 54.5657 31.3603 54.8688C31.0796 52.8822 31.796 51.7489 32.5255 51.1243C34.0543 49.8152 36.6428 49.958 37.9648 52.2479C39.1859 54.3629 38.0688 57.4408 34.7045 57.6648C34.9534 57.8998 35.2325 58.096 35.543 58.2549C37.4489 59.2299 39.9024 58.434 39.9269 58.4258C39.9864 58.4061 40.0464 58.3924 40.1063 58.3845ZM36.3803 54.5242C36.0073 55.6513 34.6568 55.846 33.4839 55.6295C33.0193 54.1511 33.1073 53.1244 33.7459 52.5781C35.0448 51.4675 36.8693 53.0452 36.3803 54.5242Z" fill="#FEA500"/>
<circle cx="21.4722" cy="105.972" r="7" transform="rotate(-30 21.4722 105.972)" fill="#FEC354"/>
<path d="M22.1009 106.331L23.2884 108.387C23.5551 108.151 23.717 107.888 23.7715 107.602C23.8249 107.317 23.7798 107.047 23.6326 106.792C23.4757 106.521 23.2743 106.355 23.0285 106.3C22.7808 106.243 22.4718 106.254 22.1009 106.331ZM20.6246 105.234L19.5621 103.394C19.3586 103.617 19.2262 103.835 19.1628 104.047C19.0982 104.259 19.1447 104.497 19.2981 104.763C19.4444 105.016 19.6195 105.169 19.8252 105.225C20.0295 105.279 20.296 105.282 20.6246 105.234ZM19.3812 101.634L19.677 102.146C20.0259 101.991 20.3494 101.897 20.6452 101.865C20.9416 101.834 21.2381 101.874 21.5346 101.983C21.7674 102.066 21.97 102.169 22.1447 102.296C22.3174 102.423 22.4446 102.557 22.5275 102.701C22.618 102.858 22.6427 103.027 22.5959 103.207C22.5502 103.387 22.4476 103.524 22.2867 103.617C21.9846 103.791 21.6942 103.736 21.4109 103.452C21.0803 103.117 20.684 102.996 20.2215 103.089L21.3602 105.062C21.8038 104.949 22.1648 104.871 22.4416 104.828C22.7201 104.785 22.9965 104.798 23.2717 104.863C23.5614 104.925 23.8285 105.049 24.0719 105.23C24.3153 105.412 24.5189 105.649 24.6847 105.936C24.8927 106.296 25.0052 106.68 25.0225 107.09C25.0397 107.499 24.9438 107.896 24.7401 108.279C24.5341 108.663 24.2218 109.002 23.8041 109.295L24.2505 110.068C24.3749 110.283 24.2219 110.446 24.1006 110.516C23.991 110.58 23.7702 110.591 23.6618 110.403L23.223 109.643C22.8391 109.81 22.4737 109.905 22.1264 109.928C21.7815 109.95 21.461 109.915 21.1674 109.821C20.8726 109.728 20.6215 109.6 20.4115 109.436C20.2022 109.273 20.0381 109.088 19.9192 108.882C19.8322 108.731 19.8099 108.561 19.856 108.371C19.9017 108.184 20.0106 108.041 20.1832 107.942C20.322 107.861 20.4573 107.826 20.5905 107.839C20.7253 107.849 20.8445 107.904 20.9521 108.002C21.1849 108.214 21.37 108.37 21.5113 108.472C21.6526 108.574 21.8185 108.646 22.0077 108.688C22.1993 108.729 22.4154 108.721 22.6564 108.662L21.3836 106.457C20.9037 106.579 20.4825 106.647 20.1226 106.665C19.7633 106.681 19.4193 106.605 19.0945 106.438C18.7692 106.273 18.4848 105.983 18.2436 105.565C17.9299 105.022 17.842 104.479 17.978 103.936C18.1147 103.394 18.4866 102.91 19.0903 102.485L18.8008 101.983C18.6467 101.716 18.6675 101.529 18.8623 101.416C19.0582 101.303 19.232 101.375 19.3812 101.634Z" fill="#FFF0D5"/>
<circle cx="26.9495" cy="22.0021" r="2" transform="rotate(-15 26.9495 22.0021)" fill="#FFD68A"/>
<path d="M27.0968 22.1477L27.2724 22.8032C27.3635 22.7577 27.4276 22.6972 27.4638 22.6223C27.4996 22.5474 27.5071 22.4697 27.4853 22.3884C27.4621 22.3018 27.4188 22.2413 27.355 22.2078C27.2909 22.1739 27.2048 22.154 27.0968 22.1477ZM26.7704 21.736L26.6133 21.1496C26.5406 21.196 26.4879 21.2466 26.4548 21.3002C26.4213 21.3539 26.4165 21.4232 26.4392 21.5078C26.4608 21.5886 26.4978 21.6438 26.5505 21.6744C26.6029 21.7043 26.6762 21.7248 26.7704 21.736ZM26.6935 20.6504L26.7372 20.8137C26.845 20.7967 26.9413 20.7946 27.0252 20.8076C27.1093 20.8211 27.1882 20.8539 27.262 20.9061C27.3201 20.9461 27.3684 20.9896 27.4072 21.0376C27.4455 21.0854 27.4706 21.1318 27.4829 21.1776C27.4963 21.2275 27.4906 21.2761 27.4643 21.3224C27.4385 21.3685 27.4 21.3989 27.3487 21.4126C27.2524 21.4384 27.1764 21.4015 27.1192 21.3024C27.0527 21.1853 26.9523 21.1227 26.8178 21.1142L26.9862 21.7427C27.1169 21.7445 27.2223 21.7498 27.3019 21.7583C27.3819 21.7671 27.4573 21.7911 27.5284 21.8292C27.6037 21.8679 27.6684 21.9217 27.7221 21.9899C27.7758 22.0581 27.8145 22.1385 27.839 22.23C27.8698 22.3448 27.8725 22.4589 27.8469 22.5733C27.8214 22.6876 27.7656 22.7901 27.6811 22.8805C27.5958 22.9712 27.4845 23.042 27.3476 23.0917L27.4137 23.3381C27.4321 23.4067 27.3778 23.4405 27.3391 23.4508C27.3042 23.4602 27.2424 23.4469 27.2264 23.387L27.1615 23.1449C27.0432 23.1627 26.9354 23.1617 26.8378 23.1425C26.741 23.1231 26.6551 23.0896 26.581 23.0421C26.5065 22.9946 26.4467 22.9407 26.4009 22.8798C26.3552 22.8193 26.3236 22.7562 26.306 22.6906C26.2931 22.6426 26.2996 22.5938 26.3263 22.545C26.3528 22.4966 26.3934 22.4653 26.4484 22.4505C26.4926 22.4387 26.5326 22.439 26.5684 22.4523C26.6049 22.465 26.6337 22.4892 26.6561 22.524C26.7047 22.5997 26.7442 22.6566 26.7757 22.6952C26.8071 22.7337 26.8476 22.7658 26.8967 22.7915C26.9466 22.817 27.0068 22.8307 27.0777 22.8321L26.8895 22.1296C26.748 22.1279 26.6267 22.1154 26.5261 22.0937C26.4257 22.0715 26.3364 22.0252 26.2591 21.9551C26.1815 21.8856 26.1245 21.7844 26.0888 21.6513C26.0424 21.4781 26.0583 21.3218 26.136 21.182C26.2138 21.0426 26.3523 20.9365 26.5503 20.8638L26.5075 20.704C26.4847 20.6189 26.5043 20.5687 26.5664 20.5521C26.6288 20.5353 26.6714 20.5681 26.6935 20.6504Z" fill="#FFF0D5"/>
<circle cx="5.62372" cy="58.1234" r="5" transform="rotate(-15 5.62372 58.1234)" fill="#FFD68A"/>
<path d="M5.99159 58.4875L6.43065 60.1261C6.6583 60.0125 6.81861 59.8611 6.90911 59.6738C6.99871 59.4867 7.01745 59.2923 6.96301 59.0891C6.90503 58.8727 6.79658 58.7215 6.63728 58.6376C6.47682 58.553 6.26167 58.5033 5.99159 58.4875ZM5.17566 57.4583L4.7828 55.9921C4.60127 56.1081 4.46948 56.2346 4.38664 56.3686C4.30292 56.5029 4.29088 56.676 4.3476 56.8877C4.40172 57.0897 4.4942 57.2275 4.62582 57.3042C4.75692 57.3788 4.9402 57.4302 5.17566 57.4583ZM4.98344 54.7443L5.09278 55.1524C5.36223 55.1098 5.60285 55.1046 5.81278 55.1373C6.02297 55.1709 6.22023 55.2529 6.40458 55.3834C6.5499 55.4834 6.67065 55.5921 6.76758 55.7122C6.86333 55.8317 6.92628 55.9477 6.95694 56.0621C6.9904 56.187 6.97611 56.3084 6.9105 56.424C6.84582 56.5395 6.74962 56.6153 6.62139 56.6497C6.38072 56.7142 6.1907 56.622 6.04762 56.3742C5.88154 56.0815 5.63045 55.925 5.2941 55.9037L5.71513 57.475C6.04198 57.4794 6.30546 57.4926 6.50438 57.5139C6.70448 57.5359 6.89283 57.5958 7.07077 57.6912C7.25902 57.7879 7.42056 57.9224 7.55486 58.0929C7.68917 58.2633 7.78585 58.4643 7.84716 58.6931C7.92406 58.9801 7.93081 59.2655 7.86698 59.5513C7.80315 59.8372 7.66361 60.0933 7.45234 60.3195C7.23922 60.5463 6.96091 60.723 6.61877 60.8474L6.78381 61.4634C6.8298 61.635 6.69406 61.7194 6.59742 61.7453C6.51007 61.7687 6.35576 61.7354 6.31565 61.5857L6.15341 60.9803C5.8576 61.0248 5.58806 61.0224 5.34412 60.9744C5.10204 60.9258 4.88745 60.8423 4.70219 60.7233C4.51601 60.6046 4.36639 60.4699 4.2519 60.3177C4.13766 60.1664 4.05857 60.0087 4.01463 59.8447C3.98244 59.7246 3.99859 59.6027 4.06545 59.4806C4.13164 59.3596 4.23316 59.2813 4.37068 59.2445C4.48126 59.2149 4.58108 59.2157 4.67066 59.2489C4.76183 59.2807 4.8338 59.3411 4.89001 59.4283C5.01142 59.6175 5.11026 59.7596 5.18889 59.8561C5.26752 59.9525 5.36868 60.0327 5.49145 60.0969C5.61608 60.1606 5.76667 60.1948 5.94392 60.1985L5.47333 58.4422C5.1196 58.4378 4.81645 58.4066 4.56489 58.3524C4.31401 58.297 4.09072 58.1811 3.89741 58.006C3.70343 57.8321 3.56092 57.5791 3.47176 57.2463C3.35577 56.8134 3.39547 56.4227 3.58967 56.0732C3.78412 55.7248 4.13029 55.4593 4.62538 55.2776L4.51834 54.8781C4.46137 54.6655 4.51039 54.5399 4.66557 54.4984C4.82168 54.4565 4.92825 54.5383 4.98344 54.7443Z" fill="#FFF0D5"/>
</svg>
