<svg width="24" height="24" viewBox="0 0 24 24" fill="none" xmlns="http://www.w3.org/2000/svg">
<path d="M4 5C4 4.44772 4.44772 4 5 4H7C7.55228 4 8 3.55228 8 3C8 2.44772 7.55228 2 7 2H5C3.34315 2 2 3.34315 2 5V7C2 7.55229 2.44772 8 3 8C3.55228 8 4 7.55229 4 7V5Z" fill="#454769"/>
<path d="M20 19C20 19.5523 19.5523 20 19 20H17C16.4477 20 16 20.4477 16 21C16 21.5523 16.4477 22 17 22H19C20.6569 22 22 20.6569 22 19V17C22 16.4477 21.5523 16 21 16C20.4477 16 20 16.4477 20 17V19Z" fill="#0D0D2E"/>
<path d="M4 19C4 19.5523 4.44772 20 5 20H7C7.55229 20 8 20.4477 8 21C8 21.5523 7.55229 22 7 22H5C3.34315 22 2 20.6569 2 19V17C2 16.4477 2.44772 16 3 16C3.55229 16 4 16.4477 4 17V19Z" fill="#0D0D2E"/>
<path d="M19 4C19.5523 4 20 4.44772 20 5V7C20 7.55228 20.4477 8 21 8C21.5523 8 22 7.55229 22 7V5C22 3.34315 20.6569 2 19 2H17C16.4477 2 16 2.44772 16 3C16 3.55228 16.4477 4 17 4H19Z" fill="#0D0D2E"/>
<path d="M6 10C6 10.5523 6.44772 11 7 11H10C10.5523 11 11 10.5523 11 10V7C11 6.44772 10.5523 6 10 6H7C6.44772 6 6 6.44771 6 7V10Z" fill="#0D0D2E"/>
<path d="M6 17C6 17.5523 6.44772 18 7 18H10C10.5523 18 11 17.5523 11 17V14C11 13.4477 10.5523 13 10 13H7C6.44772 13 6 13.4477 6 14V17Z" fill="#0D0D2E"/>
<path d="M13 10C13 10.5523 13.4477 11 14 11H17C17.5523 11 18 10.5523 18 10V7C18 6.44772 17.5523 6 17 6H14C13.4477 6 13 6.44771 13 7V10Z" fill="#0D0D2E"/>
<path d="M13 17C13 17.5523 13.4477 18 14 18H17C17.5523 18 18 17.5523 18 17V14C18 13.4477 17.5523 13 17 13H14C13.4477 13 13 13.4477 13 14V17Z" fill="#0D0D2E"/>
</svg>
