<svg width="25" height="24" viewBox="0 0 25 24" fill="none" xmlns="http://www.w3.org/2000/svg">
<path d="M21.075 15.9C20.9452 15.8026 20.7873 15.75 20.625 15.75H19.875V6C19.875 5.20435 19.5589 4.44129 18.9963 3.87868C18.4337 3.31607 17.6706 3 16.875 3H4.125C3.32935 3 2.56629 3.31607 2.00368 3.87868C1.44107 4.44129 1.125 5.20435 1.125 6C1.125 7.27594 2.06719 8.01938 2.175 8.1C2.30447 8.19804 2.4626 8.25076 2.625 8.25C2.78131 8.24957 2.93358 8.20032 3.06053 8.10912C3.18748 8.01792 3.28276 7.88933 3.33306 7.74133C3.38336 7.59333 3.38615 7.43332 3.34106 7.28365C3.29597 7.13398 3.20525 7.00215 3.08156 6.90656C3.07781 6.90187 2.625 6.53813 2.625 6C2.625 5.60218 2.78304 5.22064 3.06434 4.93934C3.34564 4.65804 3.72718 4.5 4.125 4.5C4.52282 4.5 4.90436 4.65804 5.18566 4.93934C5.46696 5.22064 5.625 5.60218 5.625 6V18C5.625 18.7956 5.94107 19.5587 6.50368 20.1213C7.06629 20.6839 7.82935 21 8.625 21H19.125C19.9206 21 20.6837 20.6839 21.2463 20.1213C21.8089 19.5587 22.125 18.7956 22.125 18C22.125 16.7241 21.1875 15.9806 21.075 15.9ZM10.125 9H16.125C16.3239 9 16.5147 9.07902 16.6553 9.21967C16.796 9.36032 16.875 9.55109 16.875 9.75C16.875 9.94891 16.796 10.1397 16.6553 10.2803C16.5147 10.421 16.3239 10.5 16.125 10.5H10.125C9.92609 10.5 9.73532 10.421 9.59467 10.2803C9.45402 10.1397 9.375 9.94891 9.375 9.75C9.375 9.55109 9.45402 9.36032 9.59467 9.21967C9.73532 9.07902 9.92609 9 10.125 9ZM9.375 12.75C9.375 12.5511 9.45402 12.3603 9.59467 12.2197C9.73532 12.079 9.92609 12 10.125 12H16.125C16.3239 12 16.5147 12.079 16.6553 12.2197C16.796 12.3603 16.875 12.5511 16.875 12.75C16.875 12.9489 16.796 13.1397 16.6553 13.2803C16.5147 13.421 16.3239 13.5 16.125 13.5H10.125C9.92609 13.5 9.73532 13.421 9.59467 13.2803C9.45402 13.1397 9.375 12.9489 9.375 12.75ZM19.125 19.5H10.4728C10.737 19.0443 10.8757 18.5267 10.875 18C10.8752 17.7457 10.8369 17.4929 10.7616 17.25H20.3241C20.5103 17.4565 20.6175 17.7221 20.6269 18C20.6269 18.1971 20.588 18.3923 20.5125 18.5745C20.437 18.7566 20.3264 18.922 20.1869 19.0613C20.0474 19.2006 19.8818 19.3111 19.6996 19.3864C19.5174 19.4616 19.3221 19.5002 19.125 19.5Z" fill="#4F4FD0"/>
</svg>
