<svg width="25" height="24" viewBox="0 0 25 24" fill="none" xmlns="http://www.w3.org/2000/svg">
<path fill-rule="evenodd" clip-rule="evenodd" d="M19.9461 19.0711C16.0408 22.9763 9.70917 22.9763 5.80393 19.0711C1.89869 15.1658 1.89869 8.83417 5.80393 4.92893C9.70918 1.02369 16.0408 1.02369 19.9461 4.92893C23.8513 8.83418 23.8513 15.1658 19.9461 19.0711ZM9.66088 13.9285C9.30586 14.2835 9.30586 14.8591 9.66088 15.2141C10.0159 15.5691 10.5915 15.5691 10.9465 15.2141L14.5372 11.6234V14.5713C14.5372 15.0734 14.9442 15.4804 15.4463 15.4804C15.9484 15.4804 16.3554 15.0734 16.3554 14.5713L16.3554 9.42962L16.3553 9.42031C16.3543 9.3001 16.3298 9.18547 16.2864 9.08072C16.2424 8.97429 16.1773 8.87452 16.091 8.78781L16.0891 8.78588L16.0872 8.78395C15.9121 8.60985 15.6837 8.52175 15.4547 8.51965L15.4454 8.51961H10.3037C9.80163 8.51961 9.39461 8.92663 9.39461 9.4287C9.39461 9.93078 9.80163 10.3378 10.3037 10.3378H13.2516L9.66088 13.9285Z" fill="#4F4FCE"/>
</svg>
