<svg width="24" height="24" viewBox="0 0 24 24" fill="none" xmlns="http://www.w3.org/2000/svg">
<path d="M19.8747 18.7497C19.8748 19.2423 19.767 19.7289 19.559 20.1754C19.3509 20.622 19.0477 21.0175 18.6705 21.3344C18.2933 21.6512 17.8513 21.8816 17.3756 22.0095C16.8999 22.1373 16.4019 22.1595 15.9167 22.0744C15.4315 21.9893 14.9708 21.799 14.567 21.5169C14.1631 21.2348 13.826 20.8678 13.5791 20.4415C13.3322 20.0152 13.1817 19.54 13.138 19.0494C13.0943 18.5587 13.1586 18.0644 13.3263 17.6012L8.35752 14.4091C7.88296 14.8745 7.28152 15.1895 6.62863 15.3145C5.97574 15.4395 5.30048 15.3689 4.68757 15.1115C4.07466 14.8542 3.5514 14.4216 3.18342 13.868C2.81544 13.3144 2.61914 12.6644 2.61914 11.9997C2.61914 11.3349 2.81544 10.685 3.18342 10.1314C3.5514 9.5778 4.07466 9.14519 4.68757 8.88785C5.30048 8.6305 5.97574 8.55989 6.62863 8.68486C7.28152 8.80982 7.88296 9.12481 8.35752 9.5903L13.3263 6.4028C13.0417 5.62097 13.0553 4.76172 13.3642 3.98922C13.6732 3.21673 14.256 2.58517 15.0012 2.21521C15.7464 1.84525 16.6018 1.76284 17.404 1.98373C18.2061 2.20461 18.8987 2.7133 19.3495 3.4126C19.8003 4.1119 19.9776 4.95277 19.8476 5.77454C19.7175 6.59631 19.2893 7.34136 18.6446 7.86732C18 8.39329 17.1841 8.66329 16.353 8.62573C15.5218 8.58818 14.7337 8.2457 14.1391 7.66374L9.17033 10.8559C9.43887 11.598 9.43887 12.4107 9.17033 13.1528L14.1391 16.345C14.6135 15.8807 15.2143 15.5666 15.8662 15.442C16.5182 15.3174 17.1925 15.3879 17.8046 15.6445C18.4168 15.9012 18.9397 16.3327 19.3079 16.885C19.6761 17.4373 19.8733 18.0859 19.8747 18.7497Z" fill="#505072"/>
</svg>
