<svg width="24" height="24" viewBox="0 0 24 24" fill="none" xmlns="http://www.w3.org/2000/svg">
<path fill-rule="evenodd" clip-rule="evenodd" d="M10.3504 1.5845C11.3971 1.11181 12.5964 1.11181 13.6431 1.5845L18.9799 3.9947C20.4127 4.64176 21.3336 6.06809 21.3336 7.64018V14.6048C21.3336 15.8372 20.7655 17.0008 19.7938 17.7587L14.457 21.9218C13.0108 23.0499 10.9827 23.0499 9.5365 21.9218L4.19966 17.7587C3.22797 17.0008 2.65991 15.8372 2.65991 14.6048V7.64018C2.65991 6.06809 3.5808 4.64176 5.01356 3.9947L10.3504 1.5845ZM9.27904 7.20996C7.90904 7.20996 6.86011 8.36522 6.86011 9.71234V13.2171C6.86011 14.5642 7.90904 15.7195 9.27904 15.7195H14.7031C16.0731 15.7195 17.122 14.5642 17.122 13.2171V9.71234C17.122 8.36522 16.0731 7.20996 14.7031 7.20996H9.27904ZM8.36011 9.71234C8.36011 9.12384 8.80559 8.70996 9.27904 8.70996H14.7031C15.1765 8.70996 15.622 9.12384 15.622 9.71234V9.83853L8.36011 9.83853V9.71234ZM8.36011 11.3385L15.622 11.3385V13.2171C15.622 13.8056 15.1765 14.2195 14.7031 14.2195H9.27904C8.80559 14.2195 8.36011 13.8056 8.36011 13.2171V11.3385Z" fill="#454569"/>
</svg>
