<svg width="24" height="24" viewBox="0 0 24 24" fill="none" xmlns="http://www.w3.org/2000/svg">
<path d="M1.86914 11.856V12.0775H22.1306V11.856C22.1306 9.83445 20.4875 8.19141 18.4753 8.19141H5.52449C3.503 8.19141 1.86914 9.83445 1.86914 11.856Z" fill="#505072"/>
<path d="M1.86914 19.3054C1.86914 21.3177 3.503 22.9608 5.52449 22.9608H18.4753C20.4875 22.9608 22.1306 21.3177 22.1306 19.3054V13.9238H1.86914V19.3054ZM6.47529 17.4315H9.70605C10.2138 17.4315 10.6291 17.8469 10.6291 18.3546C10.6291 18.8623 10.2138 19.2777 9.70605 19.2777H6.47529C5.95831 19.2777 5.55221 18.8623 5.55221 18.3546C5.55221 17.8469 5.95831 17.4315 6.47529 17.4315Z" fill="#505072"/>
<path d="M16.3203 3.80751C16.5907 3.53708 16.5907 3.09898 16.3203 2.82855C13.9438 0.452019 10.0709 0.433134 7.67548 2.82855C7.40505 3.09898 7.40505 3.53708 7.67548 3.80751C7.94591 4.07795 8.38401 4.07795 8.65445 3.80751C10.4962 1.96581 13.4929 1.95905 15.3413 3.80751C15.6129 4.07902 16.051 4.07687 16.3203 3.80751Z" fill="#505072"/>
<path d="M10.2311 4.99129C9.96071 5.26172 9.96071 5.69982 10.2311 5.97025C10.5016 6.24069 10.9397 6.24069 11.2101 5.97025C11.6437 5.53666 12.3513 5.53486 12.7867 5.97025C13.0573 6.24078 13.4953 6.24069 13.7657 5.97025C14.0361 5.69982 14.0361 5.26172 13.7657 4.99129C12.7921 4.01502 11.2047 4.01683 10.2311 4.99129Z" fill="#505072"/>
</svg>
