<svg width="24" height="24" viewBox="0 0 24 24" fill="none" xmlns="http://www.w3.org/2000/svg">
<path d="M21.9842 10.7234L17.7561 14.4134L19.0226 19.9072C19.0897 20.1944 19.0705 20.495 18.9677 20.7713C18.8648 21.0477 18.6827 21.2877 18.4442 21.4611C18.2057 21.6346 17.9214 21.7339 17.6267 21.7467C17.3321 21.7594 17.0402 21.685 16.7876 21.5328L11.9961 18.6266L7.21483 21.5328C6.96224 21.685 6.67038 21.7594 6.37574 21.7467C6.0811 21.7339 5.79676 21.6346 5.55826 21.4611C5.31976 21.2877 5.13769 21.0477 5.03481 20.7713C4.93193 20.495 4.9128 20.1944 4.97983 19.9072L6.24451 14.4191L2.01545 10.7234C1.79177 10.5305 1.63003 10.2758 1.5505 9.99138C1.47098 9.7069 1.47721 9.40528 1.56842 9.12434C1.65964 8.8434 1.83176 8.59564 2.06322 8.41213C2.29468 8.22862 2.57517 8.11754 2.86951 8.0928L8.44389 7.60999L10.6198 2.41999C10.7335 2.14766 10.9251 1.91504 11.1707 1.75142C11.4163 1.5878 11.7047 1.50049 11.9998 1.50049C12.2949 1.50049 12.5834 1.5878 12.829 1.75142C13.0745 1.91504 13.2662 2.14766 13.3798 2.41999L15.5623 7.60999L21.1348 8.0928C21.4292 8.11754 21.7097 8.22862 21.9411 8.41213C22.1726 8.59564 22.3447 8.8434 22.4359 9.12434C22.5271 9.40528 22.5334 9.7069 22.4538 9.99138C22.3743 10.2758 22.2126 10.5305 21.9889 10.7234H21.9842Z" fill="#454569"/>
</svg>
