<svg width="24" height="24" viewBox="0 0 24 24" fill="none" xmlns="http://www.w3.org/2000/svg">
<path fill-rule="evenodd" clip-rule="evenodd" d="M23.25 14.538V18.4213C23.25 18.8086 22.9342 19.1244 22.5469 19.1244H8.42855V17.4521C8.42855 17.1414 8.17669 16.8896 7.86605 16.8896C7.55541 16.8896 7.30355 17.1414 7.30355 17.4521V19.1244H1.45312C1.06584 19.1244 0.75 18.8086 0.75 18.4213V14.538C2.00353 14.3718 2.97061 13.2989 2.97061 12C2.97061 10.701 2.00353 9.6281 0.75 9.46193V5.57861C0.75 5.19133 1.06584 4.87549 1.45312 4.87549H7.30355V6.54789C7.30355 6.85853 7.55541 7.11039 7.86605 7.11039C8.17669 7.11039 8.42855 6.85853 8.42855 6.54789V4.87549H22.5469C22.9341 4.87549 23.25 5.19133 23.25 5.57861V9.46193C21.9965 9.6281 21.0294 10.701 21.0294 12C21.0294 13.299 21.9965 14.3718 23.25 14.538ZM12.5954 8.04658C12.0919 8.04658 11.636 8.25072 11.3059 8.58077C10.9759 8.91077 10.7717 9.36672 10.7717 9.87021C10.7717 10.3737 10.9759 10.8296 11.3059 11.1596C11.636 11.4897 12.0919 11.6938 12.5954 11.6938C13.0989 11.6938 13.5548 11.4897 13.8848 11.1596C14.2149 10.8296 14.419 10.3737 14.419 9.87021C14.419 9.36668 14.2149 8.91077 13.8848 8.58077C13.5548 8.25072 13.0989 8.04658 12.5954 8.04658ZM17.5732 12.3061C17.0696 12.3061 16.6138 12.5103 16.2837 12.8403C15.9536 13.1703 15.7495 13.6263 15.7495 14.1297C15.7495 14.6333 15.9536 15.0892 16.2837 15.4192C16.6137 15.7492 17.0696 15.9534 17.5732 15.9534C18.0767 15.9534 18.5326 15.7492 18.8626 15.4192C19.1926 15.0892 19.3968 14.6332 19.3968 14.1297C19.3968 13.6262 19.1926 13.1703 18.8626 12.8403C18.5326 12.5103 18.0767 12.3061 17.5732 12.3061ZM18.0672 13.6357C17.9408 13.5093 17.7661 13.4311 17.5732 13.4311C17.3802 13.4311 17.2055 13.5093 17.0791 13.6357C16.9527 13.7621 16.8745 13.9368 16.8745 14.1297C16.8745 14.3227 16.9527 14.4974 17.0791 14.6238C17.2055 14.7502 17.3802 14.8284 17.5732 14.8284C17.7661 14.8284 17.9408 14.7502 18.0672 14.6238C18.1935 14.4974 18.2717 14.3227 18.2717 14.1297C18.2718 13.9368 18.1936 13.7621 18.0672 13.6357ZM16.7368 8.497L12.4802 14.789C12.3067 15.0462 12.3746 15.3955 12.6318 15.569C12.8891 15.7426 13.2383 15.6747 13.4119 15.4174L17.6684 9.12546C17.8419 8.86821 17.7741 8.51894 17.5168 8.34541C17.2596 8.17188 16.9103 8.23975 16.7368 8.497ZM13.0895 9.37619C12.9631 9.24982 12.7884 9.17163 12.5955 9.17163C12.4025 9.17163 12.2278 9.24982 12.1014 9.37619C11.975 9.50257 11.8968 9.67727 11.8968 9.87025C11.8968 10.0632 11.975 10.2379 12.1014 10.3643C12.2278 10.4907 12.4025 10.5689 12.5955 10.5689C12.7884 10.5689 12.9631 10.4907 13.0895 10.3643C13.2158 10.2379 13.294 10.0632 13.294 9.87025C13.294 9.67722 13.2158 9.50257 13.0895 9.37619ZM7.3035 13.2599V14.9323C7.3035 15.2429 7.55536 15.4948 7.866 15.4948C8.17664 15.4948 8.4285 15.2429 8.4285 14.9323V13.2599C8.4285 12.9492 8.17664 12.6974 7.866 12.6974C7.55536 12.6974 7.3035 12.9492 7.3035 13.2599ZM7.3035 9.06771V10.7401C7.3035 11.0507 7.55536 11.3026 7.866 11.3026C8.17664 11.3026 8.4285 11.0507 8.4285 10.7401V9.06771C8.4285 8.75707 8.17664 8.50521 7.866 8.50521C7.55536 8.50521 7.3035 8.75707 7.3035 9.06771Z" fill="#1721C9"/>
</svg>
