<svg width="25" height="24" viewBox="0 0 25 24" fill="none" xmlns="http://www.w3.org/2000/svg">
<path d="M6.50015 15.0002C6.50015 15.3002 6.51515 15.5974 6.54422 15.8899C5.41652 15.4081 4.4242 14.657 3.65416 13.7026C2.88411 12.7482 2.35985 11.6195 2.1273 10.4154C1.89475 9.21135 1.96099 7.96861 2.32024 6.79609C2.67948 5.62356 3.32077 4.55701 4.18791 3.68986C5.05506 2.82272 6.1216 2.18144 7.29413 1.82219C8.46666 1.46295 9.70939 1.3967 10.9135 1.62925C12.1175 1.86181 13.2462 2.38607 14.2006 3.15611C15.1551 3.92615 15.9061 4.91848 16.388 6.04617C16.0955 6.01711 15.7983 6.00211 15.4983 6.00211C13.1128 6.00533 10.826 6.95438 9.1392 8.64116C7.45243 10.3279 6.50338 12.6148 6.50015 15.0002ZM17.0002 9.00023C16.9999 8.54005 16.9569 8.08089 16.8717 7.62867C16.4195 7.54346 15.9603 7.50046 15.5002 7.50023C13.5117 7.50246 11.6054 8.29336 10.1993 9.6994C8.79328 11.1054 8.00239 13.0118 8.00015 15.0002C8.00038 15.4604 8.04338 15.9196 8.12859 16.3718C8.58081 16.457 9.03997 16.5 9.50015 16.5002C11.4886 16.498 13.3949 15.7071 14.801 14.3011C16.207 12.895 16.9979 10.9887 17.0002 9.00023ZM18.4561 8.11054C18.4852 8.40304 18.5002 8.70023 18.5002 9.00023C18.4974 11.3863 17.5483 13.6739 15.8611 15.3612C14.1739 17.0484 11.8863 17.9975 9.50015 18.0002C9.20015 18.0002 8.90297 17.9852 8.61047 17.9562C9.09233 19.0839 9.84337 20.0762 10.7978 20.8462C11.7522 21.6163 12.8809 22.1405 14.085 22.3731C15.289 22.6056 16.5318 22.5394 17.7043 22.1801C18.8768 21.8209 19.9434 21.1796 20.8105 20.3125C21.6777 19.4453 22.3189 18.3788 22.6782 17.2063C23.0374 16.0337 23.1037 14.791 22.8711 13.5869C22.6386 12.3828 22.1143 11.2542 21.3443 10.2997C20.5742 9.34532 19.5819 8.59428 18.4542 8.11242L18.4561 8.11054Z" fill="#454769"/>
</svg>
