<svg width="24" height="24" viewBox="0 0 24 24" fill="none" xmlns="http://www.w3.org/2000/svg">
<path d="M10.5006 4.5V19.5C10.5006 19.6989 10.4216 19.8897 10.2809 20.0303C10.1403 20.171 9.9495 20.25 9.75059 20.25C9.55168 20.25 9.36091 20.171 9.22026 20.0303C9.07961 19.8897 9.00059 19.6989 9.00059 19.5V12.75H6.00059V15C6.00071 15.1484 5.95678 15.2935 5.87438 15.417C5.79198 15.5404 5.6748 15.6367 5.53768 15.6935C5.40057 15.7503 5.24967 15.7651 5.10411 15.7361C4.95855 15.7072 4.82486 15.6356 4.71996 15.5306L1.71997 12.5306C1.65023 12.461 1.59491 12.3783 1.55717 12.2872C1.51943 12.1962 1.5 12.0986 1.5 12C1.5 11.9014 1.51943 11.8038 1.55717 11.7128C1.59491 11.6217 1.65023 11.539 1.71997 11.4694L4.71996 8.46937C4.82486 8.36437 4.95855 8.29284 5.10411 8.26385C5.24967 8.23487 5.40057 8.24972 5.53768 8.30653C5.6748 8.36335 5.79198 8.45957 5.87438 8.58301C5.95678 8.70646 6.00071 8.85158 6.00059 9V11.25H9.00059V4.5C9.00059 4.30109 9.07961 4.11032 9.22026 3.96967C9.36091 3.82902 9.55168 3.75 9.75059 3.75C9.9495 3.75 10.1403 3.82902 10.2809 3.96967C10.4216 4.11032 10.5006 4.30109 10.5006 4.5ZM22.2812 11.4694L19.2812 8.46937C19.1763 8.36437 19.0426 8.29284 18.8971 8.26385C18.7515 8.23487 18.6006 8.24972 18.4635 8.30653C18.3264 8.36335 18.2092 8.45957 18.1268 8.58301C18.0444 8.70646 18.0005 8.85158 18.0006 9V11.25H15.0006V4.5C15.0006 4.30109 14.9216 4.11032 14.7809 3.96967C14.6403 3.82902 14.4495 3.75 14.2506 3.75C14.0517 3.75 13.8609 3.82902 13.7203 3.96967C13.5796 4.11032 13.5006 4.30109 13.5006 4.5V19.5C13.5006 19.6989 13.5796 19.8897 13.7203 20.0303C13.8609 20.171 14.0517 20.25 14.2506 20.25C14.4495 20.25 14.6403 20.171 14.7809 20.0303C14.9216 19.8897 15.0006 19.6989 15.0006 19.5V12.75H18.0006V15C18.0005 15.1484 18.0444 15.2935 18.1268 15.417C18.2092 15.5404 18.3264 15.6367 18.4635 15.6935C18.6006 15.7503 18.7515 15.7651 18.8971 15.7361C19.0426 15.7072 19.1763 15.6356 19.2812 15.5306L22.2812 12.5306C22.3509 12.461 22.4063 12.3783 22.444 12.2872C22.4818 12.1962 22.5012 12.0986 22.5012 12C22.5012 11.9014 22.4818 11.8038 22.444 11.7128C22.4063 11.6217 22.3509 11.539 22.2812 11.4694Z" fill="#454769"/>
</svg>
