<svg width="25" height="24" viewBox="0 0 25 24" fill="none" xmlns="http://www.w3.org/2000/svg">
<path d="M21.5 14.2496V19.4996C21.5 19.8974 21.342 20.279 21.0607 20.5603C20.7794 20.8416 20.3978 20.9996 20 20.9996H5C4.60218 20.9996 4.22064 20.8416 3.93934 20.5603C3.65804 20.279 3.5 19.8974 3.5 19.4996V14.2496C3.5 14.0507 3.57902 13.8599 3.71967 13.7193C3.86032 13.5786 4.05109 13.4996 4.25 13.4996C4.44891 13.4996 4.63968 13.5786 4.78033 13.7193C4.92098 13.8599 5 14.0507 5 14.2496V19.4996H20V14.2496C20 14.0507 20.079 13.8599 20.2197 13.7193C20.3603 13.5786 20.5511 13.4996 20.75 13.4996C20.9489 13.4996 21.1397 13.5786 21.2803 13.7193C21.421 13.8599 21.5 14.0507 21.5 14.2496ZM8.75 8.24961H11.75V14.2496C11.75 14.4485 11.829 14.6393 11.9697 14.7799C12.1103 14.9206 12.3011 14.9996 12.5 14.9996C12.6989 14.9996 12.8897 14.9206 13.0303 14.7799C13.171 14.6393 13.25 14.4485 13.25 14.2496V8.24961H16.25C16.3984 8.24973 16.5435 8.20581 16.667 8.1234C16.7904 8.041 16.8867 7.92382 16.9435 7.78671C17.0003 7.64959 17.0151 7.4987 16.9861 7.35313C16.9572 7.20757 16.8856 7.07388 16.7806 6.96899L13.0306 3.21899C12.961 3.14926 12.8783 3.09394 12.7872 3.05619C12.6962 3.01845 12.5986 2.99902 12.5 2.99902C12.4014 2.99902 12.3038 3.01845 12.2128 3.05619C12.1217 3.09394 12.039 3.14926 11.9694 3.21899L8.21937 6.96899C8.11437 7.07388 8.04284 7.20757 8.01385 7.35313C7.98487 7.4987 7.99972 7.64959 8.05653 7.78671C8.11335 7.92382 8.20957 8.041 8.33301 8.1234C8.45646 8.20581 8.60158 8.24973 8.75 8.24961Z" fill="white"/>
</svg>
