<svg width="24" height="24" viewBox="0 0 24 24" fill="none" xmlns="http://www.w3.org/2000/svg">
<path d="M21 4.5V7.125C21 7.32391 20.921 7.51468 20.7803 7.65533C20.6397 7.79598 20.4489 7.875 20.25 7.875C20.0511 7.875 19.8603 7.79598 19.7197 7.65533C19.579 7.51468 19.5 7.32391 19.5 7.125V4.5H16.875C16.6761 4.5 16.4853 4.42098 16.3447 4.28033C16.204 4.13968 16.125 3.94891 16.125 3.75C16.125 3.55109 16.204 3.36032 16.3447 3.21967C16.4853 3.07902 16.6761 3 16.875 3H19.5C19.8978 3 20.2794 3.15804 20.5607 3.43934C20.842 3.72064 21 4.10218 21 4.5ZM20.25 16.125C20.0511 16.125 19.8603 16.204 19.7197 16.3447C19.579 16.4853 19.5 16.6761 19.5 16.875V19.5H16.875C16.6761 19.5 16.4853 19.579 16.3447 19.7197C16.204 19.8603 16.125 20.0511 16.125 20.25C16.125 20.4489 16.204 20.6397 16.3447 20.7803C16.4853 20.921 16.6761 21 16.875 21H19.5C19.8978 21 20.2794 20.842 20.5607 20.5607C20.842 20.2794 21 19.8978 21 19.5V16.875C21 16.6761 20.921 16.4853 20.7803 16.3447C20.6397 16.204 20.4489 16.125 20.25 16.125ZM7.125 19.5H4.5V16.875C4.5 16.6761 4.42098 16.4853 4.28033 16.3447C4.13968 16.204 3.94891 16.125 3.75 16.125C3.55109 16.125 3.36032 16.204 3.21967 16.3447C3.07902 16.4853 3 16.6761 3 16.875V19.5C3 19.8978 3.15804 20.2794 3.43934 20.5607C3.72064 20.842 4.10218 21 4.5 21H7.125C7.32391 21 7.51468 20.921 7.65533 20.7803C7.79598 20.6397 7.875 20.4489 7.875 20.25C7.875 20.0511 7.79598 19.8603 7.65533 19.7197C7.51468 19.579 7.32391 19.5 7.125 19.5ZM3.75 7.875C3.94891 7.875 4.13968 7.79598 4.28033 7.65533C4.42098 7.51468 4.5 7.32391 4.5 7.125V4.5H7.125C7.32391 4.5 7.51468 4.42098 7.65533 4.28033C7.79598 4.13968 7.875 3.94891 7.875 3.75C7.875 3.55109 7.79598 3.36032 7.65533 3.21967C7.51468 3.07902 7.32391 3 7.125 3H4.5C4.10218 3 3.72064 3.15804 3.43934 3.43934C3.15804 3.72064 3 4.10218 3 4.5V7.125C3 7.32391 3.07902 7.51468 3.21967 7.65533C3.36032 7.79598 3.55109 7.875 3.75 7.875ZM9.46875 13.2666C8.44995 13.7085 7.56442 14.4092 6.9 15.2991C6.81616 15.4105 6.76504 15.5431 6.75239 15.6819C6.73974 15.8208 6.76605 15.9605 6.82837 16.0852C6.89069 16.2099 6.98656 16.3148 7.1052 16.3881C7.22384 16.4614 7.36056 16.5001 7.5 16.5H16.5C16.6394 16.5001 16.7762 16.4614 16.8948 16.3881C17.0134 16.3148 17.1093 16.2099 17.1716 16.0852C17.234 15.9605 17.2603 15.8208 17.2476 15.6819C17.235 15.5431 17.1838 15.4105 17.1 15.2991C16.4356 14.4092 15.55 13.7085 14.5312 13.2666C15.0897 12.7567 15.481 12.0899 15.6537 11.3537C15.8264 10.6175 15.7725 9.84624 15.4991 9.14121C15.2256 8.43617 14.7454 7.83028 14.1215 7.40304C13.4976 6.9758 12.759 6.74718 12.0028 6.74718C11.2466 6.74718 10.5081 6.9758 9.88413 7.40304C9.26019 7.83028 8.77999 8.43617 8.50655 9.14121C8.23311 9.84624 8.17922 10.6175 8.35194 11.3537C8.52466 12.0899 8.91592 12.7567 9.47437 13.2666H9.46875Z" fill="#1721C9"/>
</svg>
