<svg width="36" height="30" viewBox="0 0 36 30" fill="none" xmlns="http://www.w3.org/2000/svg">
<ellipse cx="18" cy="26" rx="16" ry="4" fill="#C3DBFF"/>
<rect width="11.2698" height="14.0872" transform="matrix(0.965926 0.258819 0 1 7.2002 10.918)" fill="#739AFF"/>
<path d="M18.0859 13.834L28.9717 10.9172V25.0043L18.0859 27.9212V13.834Z" fill="#4C5DFF"/>
<rect width="11.2698" height="11.2698" transform="matrix(0.965926 -0.258819 0.965926 0.258819 7.2002 10.917)" fill="#1721C9"/>
<rect width="11.2698" height="2.81744" transform="matrix(0.965926 0.258819 -0.965926 0.258819 14.9521 8.84473)" fill="white"/>
<path d="M23.1182 12.4907L25.8396 11.7615V20.2138L24.4789 18.6062L23.1182 20.943V12.4907Z" fill="white"/>
<path d="M29.6881 5.88305L30 6L29.6881 6.11695C29.5575 6.16553 29.4388 6.24165 29.3401 6.34016C29.2414 6.43867 29.165 6.55726 29.1161 6.6879L28.9993 7L28.8828 6.6879C28.8339 6.55747 28.7577 6.43903 28.6593 6.34054C28.5609 6.24206 28.4426 6.16581 28.3122 6.11695L28 6L28.3122 5.88305C28.4428 5.83437 28.5615 5.7582 28.6602 5.65971C28.7588 5.56121 28.8353 5.44268 28.8843 5.3121L29.0007 5L29.1161 5.3121C29.165 5.44274 29.2414 5.56133 29.3401 5.65984C29.4388 5.75835 29.5575 5.83447 29.6881 5.88305Z" fill="#55A9F7"/>
<path d="M2.53219 19.3246L3 19.5L2.53219 19.6754C2.3362 19.7483 2.15814 19.8625 2.01011 20.0102C1.86207 20.158 1.7475 20.3359 1.67417 20.5318L1.49888 21L1.32415 20.5318C1.25091 20.3362 1.13663 20.1585 0.989007 20.0108C0.841388 19.8631 0.663858 19.7487 0.468367 19.6754L0 19.5L0.468367 19.3246C0.664271 19.2515 0.842239 19.1373 0.990257 18.9896C1.13827 18.8418 1.2529 18.664 1.32639 18.4682L1.50112 18L1.67417 18.4682C1.7475 18.6641 1.86207 18.842 2.01011 18.9898C2.15814 19.1375 2.3362 19.2517 2.53219 19.3246Z" fill="#55A9F7"/>
<path d="M15.2203 2.20764L16 2.5L15.2203 2.79236C14.8937 2.91382 14.5969 3.10413 14.3502 3.3504C14.1034 3.59668 13.9125 3.89315 13.7903 4.21974L13.4981 5L13.2069 4.21974C13.0848 3.89368 12.8944 3.59757 12.6483 3.35136C12.4023 3.10514 12.1064 2.91454 11.7806 2.79236L11 2.5L11.7806 2.20764C12.1071 2.08591 12.4037 1.89551 12.6504 1.64927C12.8971 1.40303 13.0882 1.10669 13.2106 0.780261L13.5019 0L13.7903 0.780261C13.9125 1.10685 14.1034 1.40332 14.3502 1.64959C14.5969 1.89587 14.8937 2.08618 15.2203 2.20764Z" fill="#55A9F7"/>
<path d="M35.3763 17.7661L36 18L35.3763 18.2339C35.1149 18.3311 34.8775 18.4833 34.6801 18.6803C34.4828 18.8773 34.33 19.1145 34.2322 19.3758L33.9985 20L33.7655 19.3758C33.6679 19.1149 33.5155 18.8781 33.3187 18.6811C33.1219 18.4841 32.8851 18.3316 32.6245 18.2339L32 18L32.6245 17.7661C32.8857 17.6687 33.123 17.5164 33.3203 17.3194C33.5177 17.1224 33.6705 16.8854 33.7685 16.6242L34.0015 16L34.2322 16.6242C34.33 16.8855 34.4828 17.1227 34.6801 17.3197C34.8775 17.5167 35.1149 17.6689 35.3763 17.7661Z" fill="#55A9F7"/>
<path d="M4.68813 7.88305L5 8L4.68813 8.11695C4.55746 8.16553 4.43876 8.24165 4.34007 8.34016C4.24138 8.43867 4.165 8.55726 4.11611 8.6879L3.99926 9L3.88277 8.6879C3.83394 8.55747 3.75775 8.43903 3.65934 8.34054C3.56093 8.24206 3.44257 8.16581 3.31224 8.11695L3 8L3.31224 7.88305C3.44285 7.83437 3.56149 7.7582 3.66017 7.65971C3.75885 7.56121 3.83526 7.44268 3.88426 7.3121L4.00074 7L4.11611 7.3121C4.165 7.44274 4.24138 7.56133 4.34007 7.65984C4.43876 7.75835 4.55746 7.83447 4.68813 7.88305Z" fill="#55A9F7"/>
</svg>
