<svg width="97" height="97" viewBox="0 0 97 97" fill="none" xmlns="http://www.w3.org/2000/svg">
<ellipse opacity="0.2" cx="48.3418" cy="48.3398" rx="48" ry="48" fill="#98C1FF"/>
<path d="M64.7873 26.8903H59.6199V25.1678C59.6199 24.711 59.4384 24.2728 59.1153 23.9498C58.7923 23.6268 58.3542 23.4453 57.8974 23.4453C57.4405 23.4453 57.0024 23.6268 56.6794 23.9498C56.3563 24.2728 56.1749 24.711 56.1749 25.1678V26.8903H38.95V25.1678C38.95 24.711 38.7685 24.2728 38.4455 23.9498C38.1225 23.6268 37.6843 23.4453 37.2275 23.4453C36.7707 23.4453 36.3326 23.6268 36.0095 23.9498C35.6865 24.2728 35.505 24.711 35.505 25.1678V26.8903H30.3376C29.4239 26.8903 28.5476 27.2532 27.9016 27.8993C27.2555 28.5454 26.8926 29.4216 26.8926 30.3353V64.785C26.8926 65.6987 27.2555 66.5749 27.9016 67.221C28.5476 67.867 29.4239 68.23 30.3376 68.23H64.7873C65.701 68.23 66.5772 67.867 67.2233 67.221C67.8693 66.5749 68.2323 65.6987 68.2323 64.785V30.3353C68.2323 29.4216 67.8693 28.5454 67.2233 27.8993C66.5772 27.2532 65.701 26.8903 64.7873 26.8903ZM56.5323 48.7788L46.1974 59.1137C46.0374 59.2739 45.8474 59.4009 45.6383 59.4876C45.4292 59.5743 45.2051 59.6189 44.9787 59.6189C44.7523 59.6189 44.5282 59.5743 44.3191 59.4876C44.11 59.4009 43.92 59.2739 43.76 59.1137L38.5926 53.9463C38.2694 53.6231 38.0878 53.1847 38.0878 52.7276C38.0878 52.2705 38.2694 51.8322 38.5926 51.5089C38.9158 51.1857 39.3542 51.0042 39.8112 51.0042C40.2683 51.0042 40.7067 51.1857 41.0299 51.5089L44.9787 55.4599L54.095 46.3415C54.255 46.1814 54.445 46.0545 54.6541 45.9679C54.8632 45.8813 55.0873 45.8367 55.3136 45.8367C55.54 45.8367 55.7641 45.8813 55.9732 45.9679C56.1823 46.0545 56.3723 46.1814 56.5323 46.3415C56.6923 46.5015 56.8193 46.6915 56.9059 46.9006C56.9925 47.1097 57.0371 47.3338 57.0371 47.5601C57.0371 47.7865 56.9925 48.0106 56.9059 48.2197C56.8193 48.4288 56.6923 48.6188 56.5323 48.7788ZM30.3376 37.2252V30.3353H35.505V32.0578C35.505 32.5146 35.6865 32.9527 36.0095 33.2757C36.3326 33.5988 36.7707 33.7802 37.2275 33.7802C37.6843 33.7802 38.1225 33.5988 38.4455 33.2757C38.7685 32.9527 38.95 32.5146 38.95 32.0578V30.3353H56.1749V32.0578C56.1749 32.5146 56.3563 32.9527 56.6794 33.2757C57.0024 33.5988 57.4405 33.7802 57.8974 33.7802C58.3542 33.7802 58.7923 33.5988 59.1153 33.2757C59.4384 32.9527 59.6199 32.5146 59.6199 32.0578V30.3353H64.7873V37.2252H30.3376Z" fill="white"/>
</svg>
