<svg width="24" height="24" viewBox="0 0 24 24" fill="none" xmlns="http://www.w3.org/2000/svg">
<path d="M13.5 19.125C13.5 19.4217 13.412 19.7117 13.2472 19.9584C13.0824 20.205 12.8481 20.3973 12.574 20.5108C12.2999 20.6244 11.9983 20.6541 11.7074 20.5962C11.4164 20.5383 11.1491 20.3955 10.9394 20.1857C10.7296 19.9759 10.5867 19.7086 10.5288 19.4176C10.471 19.1267 10.5007 18.8251 10.6142 18.551C10.7277 18.2769 10.92 18.0426 11.1667 17.8778C11.4133 17.713 11.7033 17.625 12 17.625C12.3978 17.625 12.7794 17.783 13.0607 18.0644C13.342 18.3457 13.5 18.7272 13.5 19.125ZM22.4634 7.86658C19.5132 5.44695 15.8156 4.12457 12 4.12457C8.18445 4.12457 4.48681 5.44695 1.53658 7.86658C1.42239 7.96033 1.32778 8.07565 1.25816 8.20597C1.18854 8.33628 1.14527 8.47903 1.13082 8.62606C1.11637 8.7731 1.13102 8.92154 1.17394 9.06292C1.21686 9.20429 1.2872 9.33583 1.38095 9.45001C1.4747 9.5642 1.59003 9.65881 1.72034 9.72843C1.85065 9.79805 1.9934 9.84132 2.14044 9.85577C2.28747 9.87022 2.43592 9.85557 2.57729 9.81265C2.71866 9.76973 2.8502 9.69939 2.96439 9.60564C5.51217 7.51646 8.70519 6.37471 12 6.37471C15.2948 6.37471 18.4879 7.51646 21.0356 9.60564C21.1498 9.69939 21.2814 9.76973 21.4227 9.81265C21.5641 9.85557 21.7126 9.87022 21.8596 9.85577C22.0066 9.84132 22.1494 9.79805 22.2797 9.72843C22.41 9.65881 22.5253 9.5642 22.6191 9.45001C22.7128 9.33583 22.7832 9.20429 22.8261 9.06292C22.869 8.92154 22.8837 8.7731 22.8692 8.62606C22.8548 8.47903 22.8115 8.33628 22.7419 8.20597C22.6722 8.07565 22.5776 7.96033 22.4634 7.86658ZM19.4484 11.2163C17.3285 9.53797 14.7039 8.62481 12 8.62481C9.29615 8.62481 6.67153 9.53797 4.55158 11.2163C4.32356 11.4034 4.17818 11.6726 4.14674 11.9659C4.1153 12.2592 4.20032 12.5532 4.38348 12.7844C4.56665 13.0156 4.8333 13.1657 5.12601 13.2022C5.41872 13.2387 5.71407 13.1588 5.94845 12.9797C7.67086 11.6162 9.80325 10.8744 12 10.8744C14.1968 10.8744 16.3292 11.6162 18.0516 12.9797C18.286 13.1588 18.5813 13.2387 18.874 13.2022C19.1667 13.1657 19.4334 13.0156 19.6165 12.7844C19.7997 12.5532 19.8847 12.2592 19.8533 11.9659C19.8218 11.6726 19.6765 11.4034 19.4484 11.2163ZM16.4128 14.5594C15.1304 13.6271 13.5856 13.1249 12 13.1249C10.4145 13.1249 8.86967 13.6271 7.5872 14.5594C7.34602 14.7352 7.18455 14.9996 7.13831 15.2944C7.09207 15.5893 7.16485 15.8904 7.34064 16.1316C7.51643 16.3728 7.78082 16.5342 8.07567 16.5805C8.37051 16.6267 8.67164 16.5539 8.91282 16.3781C9.81002 15.7259 10.8908 15.3745 12 15.3745C13.1093 15.3745 14.19 15.7259 15.0872 16.3781C15.2066 16.4652 15.342 16.5278 15.4857 16.5626C15.6293 16.5973 15.7784 16.6034 15.9244 16.5805C16.0703 16.5576 16.2104 16.5061 16.3365 16.4291C16.4626 16.3521 16.5723 16.251 16.6594 16.1316C16.7464 16.0122 16.8091 15.8768 16.8438 15.7331C16.8785 15.5895 16.8846 15.4404 16.8617 15.2944C16.8388 15.1484 16.7874 15.0084 16.7104 14.8823C16.6334 14.7561 16.5322 14.6464 16.4128 14.5594Z" fill="#1721C9"/>
</svg>
