<svg width="24" height="24" viewBox="0 0 24 24" fill="none" xmlns="http://www.w3.org/2000/svg">
<path d="M5.99951 3H17.9995C20.1995 3 21.9995 4.8 21.9995 7C21.9995 8.7 20.9995 10.1 19.4995 10.7V7C19.4995 6.6 19.2995 6.2 19.0995 5.9C18.8995 5.6 18.3995 5.5 17.9995 5.5H5.99951C5.59951 5.5 5.19951 5.7 4.89951 5.9C4.59951 6.1 4.49951 6.6 4.49951 7V10.7C2.99951 10.1 1.99951 8.7 1.99951 7C1.99951 4.8 3.79951 3 5.99951 3Z" fill="#505072"/>
<path fill-rule="evenodd" clip-rule="evenodd" d="M18 7V19C18 20.1 17.1 21 16 21H8C6.9 21 6 20.1 6 19V7H18ZM10.5 14.5L11.2 15.2V11C11.2 10.6 11.5 10.2 12 10.2C12.5 10.2 12.8 10.5 12.8 11V15.2L13.5 14.5C13.8 14.2 14.3 14.2 14.6 14.5C14.9 14.8 14.9 15.3 14.6 15.6L13.3 16.9C12.6 17.6 11.5 17.6 10.8 16.9L9.5 15.6C9.2 15.3 9.2 14.8 9.5 14.5C9.8 14.2 10.2 14.2 10.5 14.5Z" fill="#505072"/>
</svg>
